<?xml version="1.0" encoding="UTF-8"?><svg id="uuid-c67bd33c-b338-4251-82e1-b33aad13b3bc" xmlns="http://www.w3.org/2000/svg" width="880" height="880" xmlns:xlink="http://www.w3.org/1999/xlink" viewBox="0 0 880 880"><defs><filter id="uuid-139751d2-89f2-4603-b2dd-7a0bf1480cfb" x="197.2783" y="155.4237" width="519.7415" height="575.1596" color-interpolation-filters="sRGB" filterUnits="userSpaceOnUse"><feFlood flood-color="#fff" result="bg"/><feBlend in="SourceGraphic" in2="bg"/></filter><linearGradient id="uuid-6a97682a-7c91-4827-9b6a-ef0afbeee7fb" x1="13804.3027" y1="1380.6344" x2="13804.3027" y2="1011.3708" gradientTransform="translate(-13322.1833 -700.3198)" gradientUnits="userSpaceOnUse"><stop offset="0" stop-color="#fff"/><stop offset=".0551" stop-color="#fff" stop-opacity=".797"/><stop offset=".1195" stop-color="#fff" stop-opacity=".5881"/><stop offset=".1848" stop-color="#fff" stop-opacity=".4079"/><stop offset=".2496" stop-color="#fff" stop-opacity=".2609"/><stop offset=".3138" stop-color="#fff" stop-opacity=".1466"/><stop offset=".3773" stop-color="#fff" stop-opacity=".0652"/><stop offset=".4398" stop-color="#fff" stop-opacity=".0164"/><stop offset=".5" stop-color="#fff" stop-opacity="0"/></linearGradient><mask id="uuid-8cbd27f9-b0ea-41b2-ba67-34936277ee58" x="229.8288" y="243.3923" width="504.5811" height="504.5811" maskUnits="userSpaceOnUse"><rect x="297.4876" y="311.051" width="369.2636" height="369.2636" transform="translate(1147.708 683.1191) rotate(149.933)" fill="url(#uuid-6a97682a-7c91-4827-9b6a-ef0afbeee7fb)"/></mask><linearGradient id="uuid-26d31ec5-7ff0-4727-9858-b115d8c68983" x1="-1088.938" y1="13446.05" x2="-1088.938" y2="13279.3587" gradientTransform="translate(1590.7295 -12918.593)" xlink:href="#uuid-6a97682a-7c91-4827-9b6a-ef0afbeee7fb"/><mask id="uuid-ec333ab6-d157-451a-b42e-ca65a6918506" x="418.4458" y="360.7657" width="166.6913" height="166.6913" maskUnits="userSpaceOnUse"><rect x="418.4458" y="360.7657" width="166.6913" height="166.6913" transform="translate(57.6802 945.9028) rotate(-90)" fill="url(#uuid-26d31ec5-7ff0-4727-9858-b115d8c68983)"/></mask><linearGradient id="uuid-1cc856a9-b7b6-4e8c-b1fc-89fca7889822" x1="-10238.7026" y1="15165.5796" x2="-10238.7026" y2="14998.8883" gradientTransform="translate(10718.5053 -14676.2082)" xlink:href="#uuid-6a97682a-7c91-4827-9b6a-ef0afbeee7fb"/><mask id="uuid-02f974b9-1364-4bca-820e-8df3a027c081" x="365.9505" y="292.1735" width="227.7046" height="227.7046" maskUnits="userSpaceOnUse"><rect x="396.4571" y="322.6801" width="166.6913" height="166.6913" transform="translate(692.3113 997.5558) rotate(-150)" fill="url(#uuid-1cc856a9-b7b6-4e8c-b1fc-89fca7889822)"/></mask><linearGradient id="uuid-df3edb2e-1ece-4ce3-a91c-7f252f436bf7" x1="2138.882" y1="4223.4582" x2="2138.882" y2="4056.7669" gradientTransform="translate(-1660.5107 -3657.1244)" xlink:href="#uuid-6a97682a-7c91-4827-9b6a-ef0afbeee7fb"/><mask id="uuid-13e25a2a-2ee4-40b5-b683-34758412a99b" x="365.7322" y="370.349" width="225.2783" height="225.2783" maskUnits="userSpaceOnUse"><rect x="395.0257" y="399.6425" width="166.6913" height="166.6913" transform="translate(-170.2913 279.6327) rotate(-27.869)" fill="url(#uuid-df3edb2e-1ece-4ce3-a91c-7f252f436bf7)"/></mask><mask id="uuid-ccbc3aaa-70f2-4036-bd25-16575a93fec0" x="197.2783" y="155.4237" width="519.7415" height="575.1596" maskUnits="userSpaceOnUse"><g filter="url(#uuid-139751d2-89f2-4603-b2dd-7a0bf1480cfb)"><g mask="url(#uuid-8cbd27f9-b0ea-41b2-ba67-34936277ee58)"><rect x="297.4876" y="311.051" width="369.2636" height="369.2636" rx="47.4767" ry="47.4767" transform="translate(1147.708 683.1191) rotate(149.933)" fill="#18191b"/></g><g mask="url(#uuid-ec333ab6-d157-451a-b42e-ca65a6918506)"><rect x="418.4458" y="360.7657" width="166.6913" height="166.6913" rx="21.4317" ry="21.4317" transform="translate(57.6802 945.9028) rotate(-90)" fill="#18191b"/></g><g mask="url(#uuid-02f974b9-1364-4bca-820e-8df3a027c081)"><rect x="396.4571" y="322.6801" width="166.6913" height="166.6913" rx="21.4317" ry="21.4317" transform="translate(692.3113 997.5558) rotate(-150)" fill="#18191b"/></g><g mask="url(#uuid-13e25a2a-2ee4-40b5-b683-34758412a99b)"><rect x="395.0257" y="399.6425" width="166.6913" height="166.6913" rx="21.4317" ry="21.4317" transform="translate(-170.2913 279.6327) rotate(-27.869)" fill="#18191b"/></g></g></mask><clipPath id="uuid-7e9f7f14-5447-4755-a852-2010ca7c2eab"><path d="M579.8939,515.8363c.0748-.0981.1487-.1971.2215-.2971.1193-.1654.2357-.3332.3492-.504.0861-.1288.1707-.2581.2524-.3889.0939-.1503.1844-.302.2734-.4558.089-.1547.1761-.3094.2598-.466.0724-.1352.1424-.2718.2104-.4094.092-.185.1801-.3704.2643-.5578.0504-.1118.0989-.224.1468-.3372.0969-.2299.188-.4617.2742-.6955.0255-.0698.0509-.1401.0754-.2104.72-2.0456,1.0221-4.2133.8921-6.3613l.133-123.1694c.3578-5.7731-2.3208-11.7105-8.0409-15.0209l-108.2908-62.678c-1.8112-1.2022-3.8591-2.0374-6.012-2.4455-.0747-.0147-.1489-.028-.2236-.0413-.248-.0432-.4965-.0811-.7465-.1126-.1235-.0158-.2465-.0305-.3696-.0434-.2065-.0212-.413-.0385-.621-.0515-.1553-.0104-.311-.0184-.4663-.0239-.1792-.0061-.3584-.0092-.5381-.0089-.1802-.0007-.3594.0021-.5386.0077-.1553.0052-.3106.0128-.4658.0229-.208.0125-.4146.0293-.6211.0501-.1231.0126-.2461.0271-.3697.0426-.25.031-.4991.0683-.7467.111-.0747.0131-.1494.0262-.2242.0408-2.1538.4034-4.204,1.2342-6.0183,2.4334l-108.4249,62.443c-2.9125,1.6775-5.0332,4.039-6.3754,6.7119-1.2373,2.2433-1.9647,4.8465-1.9678,7.7034l-.1337,123.7573c-.1346,2.1478.1633,4.3161.8784,6.3633.0243.0703.0501.1407.0755.2105.0852.234.1758.466.2727.6961.0472.1133.0959.2257.1456.3376.0838.1876.1715.3732.2631.5584.0682.1378.1374.2746.2095.4099.0833.1568.1701.3117.2588.4666.0887.1539.1794.3059.2725.4563.0819.1309.1657.2604.2515.3894.1131.171.2291.3391.3486.5048.0722.1002.1458.1994.2204.2976.1502.1989.3052.3929.4642.584.0483.0572.0961.1148.1453.1715,1.4113,1.6461,3.1374,2.9912,5.0617,3.9527l107.1108,61.9946c3.0611,1.7719,6.3426,2.396,9.467,2.1015,3.1237.3012,6.4061-.3158,9.471-2.0811l107.2445-61.7631c1.9268-.9574,3.6553-2.2988,5.0702-3.9418.0494-.0566.0978-.1142.1457-.1712.1594-.1907.3149-.3844.4655-.583Z" fill="none"/></clipPath><linearGradient id="uuid-1590a6a3-529d-494b-8909-115b71386e85" x1="2020.7474" y1="3625.8919" x2="2020.7474" y2="3256.6283" gradientTransform="translate(-1588.5686 -3050.936)" xlink:href="#uuid-6a97682a-7c91-4827-9b6a-ef0afbeee7fb"/><mask id="uuid-a49465f8-b30c-4736-97ff-a589014fa00f" x="179.8882" y="138.0336" width="504.5811" height="504.5811" maskUnits="userSpaceOnUse"><rect x="247.547" y="205.6923" width="369.2636" height="369.2636" transform="translate(-137.4032 269.0486) rotate(-30.067)" fill="url(#uuid-1590a6a3-529d-494b-8909-115b71386e85)"/></mask><linearGradient id="uuid-54eba1ef-9882-4c50-8468-d08736a20ba5" x1="343.4604" y1="-3865.7387" x2="343.4604" y2="-4108.4734" gradientTransform="translate(-1862.2398 3550.0455) rotate(30)" gradientUnits="userSpaceOnUse"><stop offset="0" stop-color="#fff"/><stop offset=".0551" stop-color="#fff" stop-opacity=".797"/><stop offset=".1195" stop-color="#fff" stop-opacity=".5881"/><stop offset=".1848" stop-color="#fff" stop-opacity=".4079"/><stop offset=".2496" stop-color="#fff" stop-opacity=".2609"/><stop offset=".3138" stop-color="#fff" stop-opacity=".1466"/><stop offset=".3773" stop-color="#fff" stop-opacity=".0652"/><stop offset=".4398" stop-color="#fff" stop-opacity=".0164"/><stop offset=".5" stop-color="#fff" stop-opacity="0"/></linearGradient><mask id="uuid-4c2ab6e5-8bcd-4f4d-9e70-8afd7bb22d36" x="231.5735" y="137.5201" width="273.0031" height="315.2368" maskUnits="userSpaceOnUse"><polygon points="504.5766 137.5201 231.5735 295.1385 504.5766 452.7569 504.5766 137.5201" fill="url(#uuid-54eba1ef-9882-4c50-8468-d08736a20ba5)"/></mask><linearGradient id="uuid-ebdc7d37-18b5-490e-a9ad-675faca7dbef" x1="-1412.6249" y1="4091.9969" x2="-1412.6249" y2="3849.2622" gradientTransform="translate(-329.2042 -3859.7105) rotate(-31.238)" xlink:href="#uuid-54eba1ef-9882-4c50-8468-d08736a20ba5"/><mask id="uuid-ef9dfc2d-f1d2-4ce6-b16a-a0ac1be8bb8f" x="443.4778" y="138.1871" width="276.3447" height="315.1632" maskUnits="userSpaceOnUse"><polygon points="443.4778 138.1871 450.2884 453.3503 719.8225 289.8705 443.4778 138.1871" fill="url(#uuid-ebdc7d37-18b5-490e-a9ad-675faca7dbef)"/></mask><linearGradient id="uuid-549d7945-4130-4579-a142-c598b83df9b5" x1="-9089.8292" y1="-8885.8676" x2="-9089.8292" y2="-9109.7691" gradientTransform="translate(-8485.617 -8463.2756) rotate(-90.1994) scale(1 -1)" xlink:href="#uuid-54eba1ef-9882-4c50-8468-d08736a20ba5"/><mask id="uuid-2374f031-0aa6-4208-8c8c-8d72fc77b862" x="431.322" y="450.1887" width="252.3259" height="290.7767" maskUnits="userSpaceOnUse"><polygon points="683.648 594.7008 432.3339 740.9654 431.322 450.1887 683.648 594.7008" fill="url(#uuid-549d7945-4130-4579-a142-c598b83df9b5)"/></mask><linearGradient id="uuid-131ec466-df77-4f1c-aecd-fbf926ed4aa6" x1="-1565.3836" y1="-6601.5927" x2="-1565.3836" y2="-6825.4942" gradientTransform="translate(-1293.8334 -6111.0575) rotate(-28.9614) scale(1 -1)" xlink:href="#uuid-54eba1ef-9882-4c50-8468-d08736a20ba5"/><mask id="uuid-c4e8681e-faa4-4444-b13d-24449be94d90" x="405.9601" y="352.5698" width="254.4154" height="290.7307" maskUnits="userSpaceOnUse"><polygon points="655.105 643.3005 405.9601 493.3707 660.3755 352.5698 655.105 643.3005" fill="url(#uuid-131ec466-df77-4f1c-aecd-fbf926ed4aa6)"/></mask><linearGradient id="uuid-956b5d2f-c241-4c3e-81c6-41c6abf93c13" x1="-5558.4056" y1="6983.5989" x2="-5558.4056" y2="6759.6974" gradientTransform="translate(-6304.9941 6080.0673) rotate(89.8006) scale(1 -1)" xlink:href="#uuid-54eba1ef-9882-4c50-8468-d08736a20ba5"/><mask id="uuid-789d7b7b-32f5-4d30-a73d-03d56d4febef" x="407.4001" y="352.0052" width="252.3259" height="290.7767" maskUnits="userSpaceOnUse"><polygon points="407.4001 498.2698 658.7142 352.0052 659.7261 642.7818 407.4001 498.2698" fill="url(#uuid-956b5d2f-c241-4c3e-81c6-41c6abf93c13)"/></mask><linearGradient id="uuid-992d6d45-bc10-4903-9e3f-83f232c7626e" x1="-13777.7394" y1="4130.1026" x2="-13777.7394" y2="3906.2011" gradientTransform="translate(-13496.7777 3727.8492) rotate(151.0386) scale(1 -1)" xlink:href="#uuid-54eba1ef-9882-4c50-8468-d08736a20ba5"/><mask id="uuid-343569f7-5f54-40cd-a77c-d7394225888e" x="430.6726" y="449.6701" width="254.4154" height="290.7307" maskUnits="userSpaceOnUse"><polygon points="435.9431 449.6701 685.088 599.5998 430.6726 740.4008 435.9431 449.6701" fill="url(#uuid-992d6d45-bc10-4903-9e3f-83f232c7626e)"/></mask><linearGradient id="uuid-3fd95d8f-b6be-4270-8e5a-53515ae7e8d3" x1="-8999.4027" y1="6647.8851" x2="-8999.4027" y2="6423.9836" gradientTransform="translate(-6229.5057 -8463.1315) rotate(-90)" xlink:href="#uuid-54eba1ef-9882-4c50-8468-d08736a20ba5"/><mask id="uuid-8feb20f2-1862-4984-9bc8-45cf229413c6" x="166.5579" y="390.882" width="251.8215" height="290.7784" maskUnits="userSpaceOnUse"><polygon points="166.5579 536.2712 418.3794 681.6604 418.3794 390.882 166.5579 536.2712" fill="url(#uuid-3fd95d8f-b6be-4270-8e5a-53515ae7e8d3)"/></mask><linearGradient id="uuid-43c188f4-a8bb-4839-ba6b-8c0b4124809d" x1="-15139.159" y1="952.0998" x2="-15139.159" y2="728.1983" gradientTransform="translate(-13413.0604 -6085.9013) rotate(-151.238)" xlink:href="#uuid-54eba1ef-9882-4c50-8468-d08736a20ba5"/><mask id="uuid-18fcda21-504b-41e0-8272-93ba82bbd6e7" x="188.9877" y="294.0607" width="254.9038" height="290.7106" maskUnits="userSpaceOnUse"><polygon points="195.2699 584.7713 443.8915 433.9754 188.9877 294.0607 195.2699 584.7713" fill="url(#uuid-43c188f4-a8bb-4839-ba6b-8c0b4124809d)"/></mask><linearGradient id="uuid-ad1a4f3e-64c9-4fb2-bec2-bff258188ff8" x1="-15209.9768" y1="-3492.0839" x2="-15209.9768" y2="-3715.9855" gradientTransform="translate(-14736.6806 -3593.6228) rotate(-151.4373) scale(1 -1)" xlink:href="#uuid-54eba1ef-9882-4c50-8468-d08736a20ba5"/><mask id="uuid-a9eaba5b-5fc9-4f96-a726-0959873381ee" x="164.1013" y="390.3121" width="255.3892" height="290.6869" maskUnits="userSpaceOnUse"><polygon points="412.1967 390.3121 419.4905 680.9991 164.1013 541.9722 412.1967 390.3121" fill="url(#uuid-ad1a4f3e-64c9-4fb2-bec2-bff258188ff8)"/></mask><linearGradient id="uuid-330f63e6-8db2-418f-bf2a-7912bc3c8469" x1="-9238.5625" y1="-9371.3281" x2="-9238.5625" y2="-9595.2296" gradientTransform="translate(-9214.1737 -8766.3009) rotate(-90.1994) scale(1 -1)" xlink:href="#uuid-54eba1ef-9882-4c50-8468-d08736a20ba5"/><mask id="uuid-a03d257d-a9e3-41f8-a6cd-ad6633f6cd5b" x="188.7404" y="294.2065" width="252.3259" height="290.7767" maskUnits="userSpaceOnUse"><polygon points="441.0664 438.7185 189.7523 584.9832 188.7404 294.2065 441.0664 438.7185" fill="url(#uuid-330f63e6-8db2-418f-bf2a-7912bc3c8469)"/></mask></defs><rect x=".3956" y="-.0102" width="880" height="880" fill="none"/><g mask="url(#uuid-ccbc3aaa-70f2-4036-bd25-16575a93fec0)"><path d="M574.7261,366.9454l-109.2821-63.094c-10.784-6.2261-24.264,1.5565-24.264,14.0088v126.1881c0,12.4523,13.48,20.235,24.264,14.0088l109.2821-63.094c10.784-6.2261,10.784-21.7915,0-28.0176Z" fill="#2ebfae"/><path d="M340.0487,394.963l109.2821,63.094c10.784,6.2261,24.264-1.5565,24.264-14.0088v-126.1881c0-12.4523-13.48-20.235-24.264-14.0088l-109.2821,63.094c-10.784,6.2261-10.784,21.7915,0,28.0176Z" fill="#2ebfae"/><path d="M558.783,367.5133l-108.0931,62.4076c-10.6667,6.1584-10.6667,21.5544,0,27.7128l108.0931,62.4076c10.6667,6.1584,24-1.5396,24-13.8564v-124.8151c0-12.3168-13.3333-20.0148-24-13.8564Z" fill="#2ebfae"/><path d="M466.721,582.3951l108.0931-62.4076c10.6667-6.1584,10.6667-21.5544,0-27.7128l-108.0931-62.4076c-10.6667-6.1584-24,1.5396-24,13.8564v124.8151c0,12.3168,13.3333,20.0148,24,13.8564Z" fill="#2ebfae"/><path d="M355.721,367.5133l108.0931,62.4076c10.6667,6.1584,10.6667,21.5544,0,27.7128l-108.0931,62.4076c-10.6667,6.1584-24-1.5396-24-13.8564v-124.8151c0-12.3168,13.3333-20.0148,24-13.8564Z" fill="#2ebfae"/><path d="M447.783,582.3951l-108.0931-62.4076c-10.6667-6.1584-10.6667-21.5544,0-27.7128l108.0931-62.4076c10.6667-6.1584,24,1.5396,24,13.8564v124.8151c0,12.3168-13.3333,20.0148-24,13.8564Z" fill="#2ebfae"/><g clip-path="url(#uuid-7e9f7f14-5447-4755-a852-2010ca7c2eab)"><g mask="url(#uuid-a49465f8-b30c-4736-97ff-a589014fa00f)"><rect x="247.547" y="205.6923" width="369.2636" height="369.2636" rx="47.4767" ry="47.4767" transform="translate(-137.4032 269.0486) rotate(-30.067)" fill="#1c8943"/></g></g></g><g mask="url(#uuid-4c2ab6e5-8bcd-4f4d-9e70-8afd7bb22d36)"><path d="M462.6665,161.7169l-189.183,109.2249c-18.6267,10.7541-18.6267,37.6394,0,48.3935l189.183,109.2249c18.6267,10.7541,41.91-2.6885,41.91-24.1968v-218.4497c0-21.5082-23.2834-34.9509-41.91-24.1968Z" fill="#184540"/></g><g mask="url(#uuid-ef9dfc2d-f1d2-4ce6-b16a-a0ac1be8bb8f)"><path d="M444.5233,186.5694l4.7196,218.3987c.4647,21.5032,24.033,34.4397,42.423,23.2857l186.7791-113.2866c18.39-11.154,17.8091-38.0331-1.0455-48.3822l-191.4986-105.1121c-18.8547-10.3492-41.8422,3.5934-41.3775,25.0966Z" fill="#184540"/></g><g mask="url(#uuid-2374f031-0aa6-4208-8c8c-8d72fc77b862)"><path d="M645.0675,617.1546l-174.1532,101.357c-17.1469,9.9795-38.6667-2.3454-38.7358-22.1847l-.7012-201.4996c-.069-19.8394,21.3645-32.3137,38.5804-22.4538l174.8543,100.1425c17.2159,9.8599,17.3022,34.6591.1553,44.6385Z" fill="#1d5e57"/></g><g mask="url(#uuid-c4e8681e-faa4-4444-b13d-24449be94d90)"><path d="M616.8575,620.284l-172.65-103.8969c-16.9989-10.2295-16.5494-35.0248.8091-44.6315l176.3023-97.5708c17.3585-9.6067,38.6071,3.1802,38.2474,23.0164l-3.6523,201.4677c-.3596,19.8362-22.0577,31.8446-39.0566,21.615Z" fill="#1d5e57"/></g><g mask="url(#uuid-789d7b7b-32f5-4d30-a73d-03d56d4febef)"><path d="M445.9806,475.816l174.1532-101.357c17.1469-9.9795,38.6667,2.3454,38.7358,22.1847l.7012,201.4996c.069,19.8394-21.3645,32.3137-38.5804,22.4538l-174.8543-100.1425c-17.2159-9.8599-17.3022-34.6591-.1553-44.6385Z" fill="#122625"/></g><g mask="url(#uuid-343569f7-5f54-40cd-a77c-d7394225888e)"><path d="M474.1906,472.6865l172.65,103.8969c16.9989,10.2295,16.5494,35.0248-.8091,44.6315l-176.3023,97.5708c-17.3585,9.6067-38.6071-3.1802-38.2474-23.0164l3.6523-201.4677c.3596-19.8362,22.0577-31.8446,39.0566-21.615Z" fill="#122625"/></g><g mask="url(#uuid-8feb20f2-1862-4984-9bc8-45cf229413c6)"><path d="M205.2163,558.5906l174.5048,100.7504c17.1815,9.9197,38.6584-2.4799,38.6584-22.3194v-201.5008c0-19.8395-21.4769-32.2391-38.6584-22.3194l-174.5048,100.7504c-17.1815,9.9197-17.1815,34.7191,0,44.6388Z" fill="#184540"/></g><g mask="url(#uuid-18fcda21-504b-41e0-8272-93ba82bbd6e7)"><path d="M233.437,561.6219l172.2874-104.497c16.9632-10.2886,16.4274-35.0822-.9644-44.6284l-176.6408-96.9567c-17.3918-9.5462-38.5957,3.3146-38.1671,23.1494l4.3534,201.4538c.4286,19.8348,22.1684,31.7676,39.1315,21.479Z" fill="#184540"/></g><g mask="url(#uuid-a9eaba5b-5fc9-4f96-a726-0959873381ee)"><path d="M413.3164,434.9369l5.0544,201.4374c.4976,19.8332-20.6614,32.7677-38.0863,23.2821l-176.9771-96.3415c-17.4249-9.4856-18.047-34.2772-1.1197-44.6248l171.9227-105.0959c16.9273-10.3476,38.7084,1.5095,39.206,21.3427Z" fill="#122625"/></g><g mask="url(#uuid-a03d257d-a9e3-41f8-a6cd-ad6633f6cd5b)"><path d="M402.4859,461.1723l-174.1532,101.357c-17.1469,9.9795-38.6667-2.3454-38.7358-22.1847l-.7012-201.4996c-.069-19.8394,21.3645-32.3137,38.5804-22.4538l174.8543,100.1425c17.2159,9.8599,17.3022,34.6591.1553,44.6385Z" fill="#122625"/></g></svg>