<?xml version="1.0" encoding="UTF-8"?><svg id="uuid-7a4d10df-d7c2-4bc4-8835-489ef4fe6d8c" xmlns="http://www.w3.org/2000/svg" width="880" height="880" xmlns:xlink="http://www.w3.org/1999/xlink" viewBox="0 0 880 880"><defs><clipPath id="uuid-0795128e-db4e-4719-8633-e9e64c72a44b"><rect x="-.2247" y="-.0048" width="880" height="880" fill="none"/></clipPath><linearGradient id="uuid-3cd68b19-73f5-4c49-a3b3-14c36fa364ad" x1="-10079.2336" y1="-9783.8414" x2="-10079.2336" y2="-9996.8472" gradientTransform="translate(-9587.6104 -9561.4408) rotate(-90.1994) scale(1 -1)" gradientUnits="userSpaceOnUse"><stop offset="0" stop-color="#fff"/><stop offset=".0551" stop-color="#fff" stop-opacity=".797"/><stop offset=".1195" stop-color="#fff" stop-opacity=".5881"/><stop offset=".1848" stop-color="#fff" stop-opacity=".4079"/><stop offset=".2496" stop-color="#fff" stop-opacity=".2609"/><stop offset=".3138" stop-color="#fff" stop-opacity=".1466"/><stop offset=".3773" stop-color="#fff" stop-opacity=".0652"/><stop offset=".4398" stop-color="#fff" stop-opacity=".0164"/><stop offset=".5" stop-color="#fff" stop-opacity="0"/></linearGradient><mask id="uuid-27882c62-216e-4b2a-82a3-43ba9c9f8d2a" x="230.7647" y="345.3722" width="240.047" height="276.6266" maskUnits="userSpaceOnUse"><polygon points="470.8117 482.8518 231.7273 621.9987 230.7647 345.3722 470.8117 482.8518" fill="url(#uuid-3cd68b19-73f5-4c49-a3b3-14c36fa364ad)"/></mask><linearGradient id="uuid-9c31826f-0014-4afe-b0b7-b92ceb3e7248" x1="-2228.6949" y1="-8477.7193" x2="-2228.6949" y2="-8690.7251" gradientTransform="translate(-1827.4445 -8177.2479) rotate(-28.9614) scale(1 -1)" xlink:href="#uuid-3cd68b19-73f5-4c49-a3b3-14c36fa364ad"/><mask id="uuid-a2a1a59c-b296-483a-a21f-3133761c6aee" x="206.6369" y="252.5037" width="242.0348" height="276.5828" maskUnits="userSpaceOnUse"><polygon points="443.6577 529.0865 206.6369 386.4528 448.6717 252.5037 443.6577 529.0865" fill="url(#uuid-9c31826f-0014-4afe-b0b7-b92ceb3e7248)"/></mask><linearGradient id="uuid-1502278a-4201-4ea9-93c7-879286a7d0b5" x1="-4564.2618" y1="5666.4906" x2="-4564.2618" y2="5453.4848" gradientTransform="translate(-5203.0007 4974.2325) rotate(89.8006) scale(1 -1)" xlink:href="#uuid-3cd68b19-73f5-4c49-a3b3-14c36fa364ad"/><mask id="uuid-f3c67318-5717-4273-9478-ab53753510d6" x="208.0069" y="251.9665" width="240.047" height="276.6266" maskUnits="userSpaceOnUse"><polygon points="208.0069 391.1135 447.0913 251.9665 448.0539 528.5931 208.0069 391.1135" fill="url(#uuid-1502278a-4201-4ea9-93c7-879286a7d0b5)"/></mask><linearGradient id="uuid-183d3854-ddea-45ee-b9fd-ae25896b4290" x1="-13119.1969" y1="3791.129" x2="-13119.1969" y2="3578.1232" gradientTransform="translate(-12963.1666 3590.0396) rotate(151.0386) scale(1 -1)" xlink:href="#uuid-3cd68b19-73f5-4c49-a3b3-14c36fa364ad"/><mask id="uuid-928608cc-f6f7-456a-8fc0-204f8521bb91" x="230.1469" y="344.8788" width="242.0348" height="276.5828" maskUnits="userSpaceOnUse"><polygon points="235.1609 344.8788 472.1817 487.5125 230.1469 621.4616 235.1609 344.8788" fill="url(#uuid-183d3854-ddea-45ee-b9fd-ae25896b4290)"/></mask><linearGradient id="uuid-4acb9b7d-4fa1-4277-a0a1-c32de4b216c8" x1="-10013.1903" y1="-9850.9824" x2="-10013.1903" y2="-10063.9881" xlink:href="#uuid-3cd68b19-73f5-4c49-a3b3-14c36fa364ad"/><mask id="uuid-1abd4bde-02f1-4b33-9232-f4cab544c47d" x="297.6754" y="279.0957" width="240.047" height="276.6266" maskUnits="userSpaceOnUse"><polygon points="537.7224 416.5753 298.638 555.7223 297.6754 279.0957 537.7224 416.5753" fill="url(#uuid-4acb9b7d-4fa1-4277-a0a1-c32de4b216c8)"/></mask><linearGradient id="uuid-f716aebf-b9fa-427f-ab5d-521773804795" x1="-2139.3124" y1="-8452.7048" x2="-2139.3124" y2="-8665.5474" gradientTransform="translate(-1827.4445 -8177.2479) rotate(-28.9614) scale(1 -1)" xlink:href="#uuid-3cd68b19-73f5-4c49-a3b3-14c36fa364ad"/><mask id="uuid-4ef3da77-55bd-4aa9-80b4-3f652bcc98d2" x="272.8219" y="187.3877" width="241.8494" height="276.371" maskUnits="userSpaceOnUse"><polygon points="509.661 463.7587 272.8219 321.2343 514.6713 187.3877 509.661 463.7587" fill="url(#uuid-f716aebf-b9fa-427f-ab5d-521773804795)"/></mask><linearGradient id="uuid-42b8c213-588e-484f-9dbd-a36a633536e4" x1="-4630.3051" y1="5733.6315" x2="-4630.3051" y2="5520.6257" gradientTransform="translate(-5203.0007 4974.2325) rotate(89.8006) scale(1 -1)" xlink:href="#uuid-3cd68b19-73f5-4c49-a3b3-14c36fa364ad"/><mask id="uuid-e6d0014c-69e5-479e-85aa-7c17e2ef2be4" x="274.9176" y="185.69" width="240.047" height="276.6266" maskUnits="userSpaceOnUse"><polygon points="274.9176 324.837 514.002 185.69 514.9646 462.3166 274.9176 324.837" fill="url(#uuid-42b8c213-588e-484f-9dbd-a36a633536e4)"/></mask><linearGradient id="uuid-d8610dc8-b621-4485-9966-50c3cb3a6374" x1="-13209.8325" y1="3765.5402" x2="-13209.8325" y2="3552.5344" gradientTransform="translate(-12963.1666 3590.0396) rotate(151.0386) scale(1 -1)" xlink:href="#uuid-3cd68b19-73f5-4c49-a3b3-14c36fa364ad"/><mask id="uuid-8ffb9260-fa65-4f6a-bc48-308649f044d7" x="297.0576" y="278.6023" width="242.0348" height="276.5828" maskUnits="userSpaceOnUse"><polygon points="302.0716 278.6023 539.0923 421.236 297.0576 555.1851 302.0716 278.6023" fill="url(#uuid-d8610dc8-b621-4485-9966-50c3cb3a6374)"/></mask><linearGradient id="uuid-aa3f0db6-08b3-4209-84d1-82f45ade471f" x1="-10127.9" y1="-9917.4943" x2="-10127.9" y2="-10130.5001" xlink:href="#uuid-3cd68b19-73f5-4c49-a3b3-14c36fa364ad"/><mask id="uuid-e89f0a02-fcbe-4da4-8d91-53747edbce2d" x="364.5861" y="393.5732" width="240.047" height="276.6266" maskUnits="userSpaceOnUse"><polygon points="604.6331 531.0529 365.5487 670.1998 364.5861 393.5732 604.6331 531.0529" fill="url(#uuid-aa3f0db6-08b3-4209-84d1-82f45ade471f)"/></mask><linearGradient id="uuid-68571735-ba2d-4ef3-9357-c14fe3d42d3e" x1="-2134.9483" y1="-8584.6917" x2="-2134.9483" y2="-8797.6975" gradientTransform="translate(-1827.4445 -8177.2479) rotate(-28.9614) scale(1 -1)" xlink:href="#uuid-3cd68b19-73f5-4c49-a3b3-14c36fa364ad"/><mask id="uuid-e94d9e89-b9dd-45c8-8a80-d40726787fff" x="340.4583" y="300.7047" width="242.0348" height="276.5828" maskUnits="userSpaceOnUse"><polygon points="577.4791 577.2876 340.4583 434.6539 582.4931 300.7047 577.4791 577.2876" fill="url(#uuid-68571735-ba2d-4ef3-9357-c14fe3d42d3e)"/></mask><linearGradient id="uuid-3ac879fe-ff13-49e9-a778-636c834a22e4" x1="-4515.5954" y1="5800.1434" x2="-4515.5954" y2="5587.1376" gradientTransform="translate(-5203.0007 4974.2325) rotate(89.8006) scale(1 -1)" xlink:href="#uuid-3cd68b19-73f5-4c49-a3b3-14c36fa364ad"/><mask id="uuid-6e29a7a9-a252-49f1-94db-073c984a79ff" x="341.8283" y="300.1676" width="240.047" height="276.6266" maskUnits="userSpaceOnUse"><polygon points="341.8283 439.3145 580.9127 300.1676 581.8753 576.7942 341.8283 439.3145" fill="url(#uuid-3ac879fe-ff13-49e9-a778-636c834a22e4)"/></mask><linearGradient id="uuid-f77abc4f-cd0c-44ae-ad66-3e3f572a2b7f" x1="-13212.9434" y1="3898.1014" x2="-13212.9434" y2="3685.0956" gradientTransform="translate(-12963.1666 3590.0396) rotate(151.0386) scale(1 -1)" xlink:href="#uuid-3cd68b19-73f5-4c49-a3b3-14c36fa364ad"/><mask id="uuid-f79074b1-d0f2-480e-9018-70f4c82e6359" x="363.9683" y="393.0798" width="242.0348" height="276.5828" maskUnits="userSpaceOnUse"><polygon points="368.9823 393.0798 606.003 535.7135 363.9683 669.6626 368.9823 393.0798" fill="url(#uuid-f77abc4f-cd0c-44ae-ad66-3e3f572a2b7f)"/></mask><linearGradient id="uuid-14cfd269-6cfd-4751-91d1-b3da08db3dc1" x1="-10152.2333" y1="-9984.3207" x2="-10152.2333" y2="-10197.3265" xlink:href="#uuid-3cd68b19-73f5-4c49-a3b3-14c36fa364ad"/><mask id="uuid-fbb7f519-1400-4286-b108-46e8e2659695" x="431.4968" y="417.6738" width="240.047" height="276.6266" maskUnits="userSpaceOnUse"><polygon points="671.5438 555.1534 432.4594 694.3003 431.4968 417.6738 671.5438 555.1534" fill="url(#uuid-14cfd269-6cfd-4751-91d1-b3da08db3dc1)"/></mask><linearGradient id="uuid-bb340875-fb3c-4b51-8cff-1a1e1d85396c" x1="-2088.0751" y1="-8638.1779" x2="-2088.0751" y2="-8851.1837" gradientTransform="translate(-1827.4445 -8177.2479) rotate(-28.9614) scale(1 -1)" xlink:href="#uuid-3cd68b19-73f5-4c49-a3b3-14c36fa364ad"/><mask id="uuid-36bd2909-456c-4e84-9da7-96e7319ca8c5" x="407.369" y="324.8053" width="242.0348" height="276.5828" maskUnits="userSpaceOnUse"><polygon points="644.3897 601.3881 407.369 458.7544 649.4038 324.8053 644.3897 601.3881" fill="url(#uuid-bb340875-fb3c-4b51-8cff-1a1e1d85396c)"/></mask><linearGradient id="uuid-d9181f32-1447-48cb-9565-ad5c2815793a" x1="-4491.2621" y1="5866.9698" x2="-4491.2621" y2="5653.9641" gradientTransform="translate(-5203.0007 4974.2325) rotate(89.8006) scale(1 -1)" xlink:href="#uuid-3cd68b19-73f5-4c49-a3b3-14c36fa364ad"/><mask id="uuid-d03a45fd-41eb-4749-9bb5-4db115ab51e4" x="408.739" y="324.2681" width="240.047" height="276.6266" maskUnits="userSpaceOnUse"><polygon points="408.739 463.4151 647.8234 324.2681 648.786 600.8947 408.739 463.4151" fill="url(#uuid-d9181f32-1447-48cb-9565-ad5c2815793a)"/></mask><linearGradient id="uuid-6e20ffa1-264d-4c72-a3ce-8977afda4308" x1="-13259.8167" y1="3951.5876" x2="-13259.8167" y2="3738.5818" gradientTransform="translate(-12963.1666 3590.0396) rotate(151.0386) scale(1 -1)" xlink:href="#uuid-3cd68b19-73f5-4c49-a3b3-14c36fa364ad"/><mask id="uuid-7c1a593f-fb48-44b5-9e44-88bf45c8a2f5" x="430.879" y="417.1804" width="242.0348" height="276.5828" maskUnits="userSpaceOnUse"><polygon points="435.893 417.1804 672.9137 559.8141 430.879 693.7632 435.893 417.1804" fill="url(#uuid-6e20ffa1-264d-4c72-a3ce-8977afda4308)"/></mask></defs><g clip-path="url(#uuid-0795128e-db4e-4719-8633-e9e64c72a44b)"><g mask="url(#uuid-27882c62-216e-4b2a-82a3-43ba9c9f8d2a)"><path d="M434.1087,504.2129l-165.6783,96.4247c-16.3124,9.4938-36.7851-2.2313-36.8508-21.1052l-.6671-191.694c-.0657-18.8739,20.3249-30.7412,36.703-21.3611l166.3454,95.2693c16.3781,9.3801,16.4602,32.9725.1478,42.4663Z" fill="#184540"/></g><g mask="url(#uuid-a2a1a59c-b296-483a-a21f-3133761c6aee)"><path d="M407.2714,507.1901l-164.2483-98.8409c-16.1716-9.7317-15.744-33.3204.7697-42.4596l167.7229-92.8227c16.5138-9.1392,36.7283,3.0255,36.3862,21.8964l-3.4746,191.6637c-.3421,18.8709-20.9843,30.2949-37.1559,20.5632Z" fill="#184540"/></g><g mask="url(#uuid-f3c67318-5717-4273-9478-ab53753510d6)"><path d="M244.7099,369.7523l165.6783-96.4247c16.3124-9.4938,36.7851,2.2313,36.8508,21.1052l.6671,191.694c.0657,18.8739-20.3249,30.7412-36.703,21.3611l-166.3454-95.2693c-16.3781-9.3801-16.4602-32.9725-.1478-42.4663Z" fill="#122625"/></g><g mask="url(#uuid-928608cc-f6f7-456a-8fc0-204f8521bb91)"><path d="M271.5471,366.7752l164.2483,98.8409c16.1716,9.7317,15.744,33.3204-.7697,42.4596l-167.7229,92.8227c-16.5138,9.1392-36.7283-3.0255-36.3862-21.8964l3.4746-191.6637c.3421-18.8709,20.9843-30.2949,37.1559-20.5632Z" fill="#122625"/></g><g mask="url(#uuid-1abd4bde-02f1-4b33-9232-f4cab544c47d)"><path d="M501.0194,437.9364l-165.6783,96.4247c-16.3124,9.4938-36.7851-2.2313-36.8508-21.1052l-.6671-191.694c-.0657-18.8739,20.3249-30.7412,36.703-21.3611l166.3454,95.2693c16.3781,9.3801,16.4602,32.9725.1478,42.4663Z" fill="#30d1be"/></g><g mask="url(#uuid-4ef3da77-55bd-4aa9-80b4-3f652bcc98d2)"><path d="M473.3027,441.8791l-164.1225-98.7652c-16.1593-9.7243-15.732-33.2949.7691-42.4271l167.5944-92.7516c16.5011-9.1322,36.7002,3.0232,36.3583,21.8796l-3.4719,191.5169c-.3418,18.8565-20.9682,30.2717-37.1275,20.5474Z" fill="#30d1be"/></g><g mask="url(#uuid-e6d0014c-69e5-479e-85aa-7c17e2ef2be4)"><path d="M311.6206,303.4759l165.6783-96.4247c16.3124-9.4938,36.7851,2.2313,36.8508,21.1052l.6671,191.694c.0657,18.8739-20.3249,30.7412-36.703,21.3611l-166.3454-95.2693c-16.3781-9.3801-16.4602-32.9725-.1478-42.4663Z" fill="#123e23"/></g><g mask="url(#uuid-8ffb9260-fa65-4f6a-bc48-308649f044d7)"><path d="M338.4578,300.4987l164.2483,98.8409c16.1716,9.7317,15.744,33.3204-.7697,42.4596l-167.7229,92.8227c-16.5138,9.1392-36.7283-3.0255-36.3862-21.8964l3.4746-191.6637c.3421-18.8709,20.9843-30.2949,37.1559-20.5632Z" fill="#123e23"/></g><g mask="url(#uuid-e89f0a02-fcbe-4da4-8d91-53747edbce2d)"><path d="M567.9301,552.414l-165.6783,96.4247c-16.3124,9.4938-36.7851-2.2313-36.8508-21.1052l-.6671-191.694c-.0657-18.8739,20.3249-30.7412,36.703-21.3611l166.3454,95.2693c16.3781,9.3801,16.4602,32.9725.1478,42.4663Z" fill="#184540"/></g><g mask="url(#uuid-e94d9e89-b9dd-45c8-8a80-d40726787fff)"><path d="M541.0928,555.3912l-164.2483-98.8409c-16.1716-9.7317-15.744-33.3204.7697-42.4596l167.7229-92.8227c16.5138-9.1392,36.7283,3.0255,36.3862,21.8964l-3.4746,191.6637c-.3421,18.8709-20.9843,30.2949-37.1559,20.5632Z" fill="#184540"/></g><g mask="url(#uuid-6e29a7a9-a252-49f1-94db-073c984a79ff)"><path d="M378.5313,417.9534l165.6783-96.4247c16.3124-9.4938,36.7851,2.2313,36.8508,21.1052l.6671,191.694c.0657,18.8739-20.3249,30.7412-36.703,21.3611l-166.3454-95.2693c-16.3781-9.3801-16.4602-32.9725-.1478-42.4663Z" fill="#122625"/></g><g mask="url(#uuid-f79074b1-d0f2-480e-9018-70f4c82e6359)"><path d="M405.3685,414.9762l164.2483,98.8409c16.1716,9.7317,15.744,33.3204-.7697,42.4596l-167.7229,92.8227c-16.5138,9.1392-36.7283-3.0255-36.3862-21.8964l3.4746-191.6637c.3421-18.8709,20.9843-30.2949,37.1559-20.5632Z" fill="#122625"/></g><g mask="url(#uuid-fbb7f519-1400-4286-b108-46e8e2659695)"><path d="M634.8408,576.5145l-165.6783,96.4247c-16.3124,9.4938-36.7851-2.2313-36.8508-21.1052l-.6671-191.694c-.0657-18.8739,20.3249-30.7412,36.703-21.3611l166.3454,95.2693c16.3781,9.3801,16.4602,32.9725.1478,42.4663Z" fill="#122625"/></g><g mask="url(#uuid-36bd2909-456c-4e84-9da7-96e7319ca8c5)"><path d="M608.0035,579.4917l-164.2483-98.8409c-16.1716-9.7317-15.744-33.3204.7697-42.4596l167.7229-92.8227c16.5138-9.1392,36.7283,3.0255,36.3862,21.8964l-3.4746,191.6637c-.3421,18.8709-20.9843,30.2949-37.1559,20.5632Z" fill="#122625"/></g><g mask="url(#uuid-d03a45fd-41eb-4749-9bb5-4db115ab51e4)"><path d="M445.442,442.0539l165.6783-96.4247c16.3124-9.4938,36.7851,2.2313,36.8508,21.1052l.6671,191.694c.0657,18.8739-20.3249,30.7412-36.703,21.3611l-166.3454-95.2693c-16.3781-9.3801-16.4602-32.9725-.1478-42.4663Z" fill="#122625"/></g><g mask="url(#uuid-7c1a593f-fb48-44b5-9e44-88bf45c8a2f5)"><path d="M472.2792,439.0768l164.2483,98.8409c16.1716,9.7317,15.744,33.3204-.7697,42.4596l-167.7229,92.8227c-16.5138,9.1392-36.7283-3.0255-36.3862-21.8964l3.4746-191.6637c.3421-18.8709,20.9843-30.2949,37.1559-20.5632Z" fill="#122625"/></g></g></svg>