<?xml version="1.0" encoding="UTF-8"?><svg id="uuid-4ef5e99f-d8aa-4fe5-b364-47a788713773" xmlns="http://www.w3.org/2000/svg" width="632" height="632" xmlns:xlink="http://www.w3.org/1999/xlink" viewBox="0 0 632 632"><defs><linearGradient id="uuid-453bdca9-c498-4ee2-b43c-3febe09987b1" x1="788.79" y1="1633.513" x2="788.79" y2="1198.1629" gradientTransform="translate(1205.8366 -1151.2671) rotate(59.9339)" gradientUnits="userSpaceOnUse"><stop offset="0" stop-color="#fff"/><stop offset=".0551" stop-color="#fff" stop-opacity=".797"/><stop offset=".1195" stop-color="#fff" stop-opacity=".5881"/><stop offset=".1848" stop-color="#fff" stop-opacity=".4079"/><stop offset=".2496" stop-color="#fff" stop-opacity=".2609"/><stop offset=".3138" stop-color="#fff" stop-opacity=".1466"/><stop offset=".3773" stop-color="#fff" stop-opacity=".0652"/><stop offset=".4398" stop-color="#fff" stop-opacity=".0164"/><stop offset=".5" stop-color="#fff" stop-opacity="0"/></linearGradient><mask id="uuid-d78002ed-0845-4b77-b3d9-94bc0c2a6bf8" x="45.6707" y="104.4701" width="565.384" height="489.9631" maskUnits="userSpaceOnUse"><polygon points="611.0547 104.4701 45.6707 105.1225 328.9277 594.4332 611.0547 104.4701" fill="url(#uuid-453bdca9-c498-4ee2-b43c-3febe09987b1)"/></mask><linearGradient id="uuid-a298d234-9e42-4104-9579-a0b39221806f" x1="1371.5158" y1="-336.2188" x2="984.2443" y2="-112.6275" gradientTransform="translate(-67.8141 1462.1221) rotate(-59.9577)" gradientUnits="userSpaceOnUse"><stop offset=".2" stop-color="#fff" stop-opacity="0"/><stop offset=".2723" stop-color="#fff" stop-opacity=".0164"/><stop offset=".3472" stop-color="#fff" stop-opacity=".0652"/><stop offset=".4234" stop-color="#fff" stop-opacity=".1466"/><stop offset=".5005" stop-color="#fff" stop-opacity=".2609"/><stop offset=".5782" stop-color="#fff" stop-opacity=".4079"/><stop offset=".6566" stop-color="#fff" stop-opacity=".5881"/><stop offset=".7339" stop-color="#fff" stop-opacity=".797"/><stop offset=".8" stop-color="#fff"/></linearGradient><mask id="uuid-6665e04e-9816-4f0b-870b-102be6c919bd" x="47.5" y="104.5268" width="564.4945" height="490.2594" maskUnits="userSpaceOnUse"><polygon points="47.5 105.1782 328.4599 594.7862 611.9945 104.5268 47.5 105.1782" fill="url(#uuid-a298d234-9e42-4104-9579-a0b39221806f)"/></mask><linearGradient id="uuid-e884e7bb-acf7-4baf-9401-3803c8228567" x1="2867.4599" y1="1174.6313" x2="2558.0259" y2="1353.2831" gradientTransform="translate(3107.5978 1530.3668) rotate(179.9338)" xlink:href="#uuid-a298d234-9e42-4104-9579-a0b39221806f"/><mask id="uuid-6b2b0533-4fe1-4667-a9e6-6e93d09f2382" x="125.6288" y="163.0599" width="451.709" height="391.4521" maskUnits="userSpaceOnUse"><polygon points="351.9347 554.5119 577.3377 163.0599 125.6288 163.5811 351.9347 554.5119" fill="url(#uuid-e884e7bb-acf7-4baf-9401-3803c8228567)"/></mask><linearGradient id="uuid-c4717600-159b-4899-97ec-33cd9938c6da" x1="130.5835" y1="1115.618" x2="-177.5569" y2="1293.523" gradientTransform="translate(322.4412 1533.4447) rotate(-.0661) scale(1 -1)" xlink:href="#uuid-a298d234-9e42-4104-9579-a0b39221806f"/><mask id="uuid-ca994238-0856-4fe0-a8f4-ffdfa4d7413a" x="114.1478" y="222.7682" width="449.8207" height="389.8157" maskUnits="userSpaceOnUse"><polygon points="339.5077 612.5838 114.1478 223.2872 563.9685 222.7682 339.5077 612.5838" fill="url(#uuid-c4717600-159b-4899-97ec-33cd9938c6da)"/></mask></defs><g mask="url(#uuid-d78002ed-0845-4b77-b3d9-94bc0c2a6bf8)"><path d="M524.2599,104.5702l-391.7943.4521c-38.5755.0445-62.637,41.8315-43.3107,75.2166l196.2887,339.0778c19.3263,33.3851,67.5457,33.3295,86.7949-.1002l195.5056-339.5299c19.2492-33.4296-4.9087-75.161-43.4842-75.1165Z" fill="#297497"/></g><g mask="url(#uuid-6665e04e-9816-4f0b-870b-102be6c919bd)"><path d="M90.3853,179.9112l194.9073,339.6506c19.1645,33.3965,67.3109,33.4776,86.5878.1459l196.6935-340.1025c19.2769-33.3317-4.805-75.0228-43.3095-74.9784l-391.6008.4519c-38.3785.0443-62.38,41.5453-43.2783,74.8325Z" fill="#1c4741"/></g><g mask="url(#uuid-6b2b0533-4fe1-4667-a9e6-6e93d09f2382)"><path d="M386.4527,494.5653l156.367-271.5588c15.3413-26.6429-3.9121-59.9023-34.6563-59.8668l-313.3603.3616c-30.7441.0355-49.9208,33.3392-34.518,59.9466l156.9933,271.1972c15.4028,26.6075,53.833,26.5631,69.1743-.0798Z" fill="#359f8e"/></g><g mask="url(#uuid-ca994238-0856-4fe0-a8f4-ffdfa4d7413a)"><path d="M304.9963,552.9673l-156.337-270.0635c-15.3384-26.4962,3.7581-59.6607,34.3737-59.696l312.0504-.3601c30.6156-.0353,49.7886,33.085,34.5114,59.6165l-155.7133,270.4236c-15.2772,26.5316-53.5467,26.5757-68.8852.0795Z" fill="#349fd1"/></g></svg>