<?xml version="1.0" encoding="UTF-8"?><svg id="uuid-5ba4034b-eb68-4161-9b30-be950c19056a" xmlns="http://www.w3.org/2000/svg" width="1300" height="1300" xmlns:xlink="http://www.w3.org/1999/xlink" viewBox="0 0 1300 1300"><defs><clipPath id="uuid-834dbf85-39c6-4eda-90ad-31a41d5940ff"><rect width="1300" height="1300" fill="none"/></clipPath><filter id="uuid-347011fa-f921-43c2-a486-ec95871dffdf" x="25.7388" y="-183.9971" width="1553.0809" height="1469.2947" color-interpolation-filters="sRGB" filterUnits="userSpaceOnUse"><feColorMatrix result="cm" values="-1 0 0 0 1 0 -1 0 0 1 0 0 -1 0 1 0 0 0 1 0"/><feFlood flood-color="#fff" result="bg"/><feBlend in="cm" in2="bg"/></filter><radialGradient id="uuid-9024a5d4-807a-4e37-9520-984a84004c9b" cx="-12775.1541" cy="-9705.7446" fx="-12775.1541" fy="-9705.7446" r="158.2289" gradientTransform="translate(19818.2532 -13912.0618) scale(1.5 -1.5)" gradientUnits="userSpaceOnUse"><stop offset="0" stop-color="#fff"/><stop offset=".0849" stop-color="#fff" stop-opacity=".9648"/><stop offset=".2235" stop-color="#fff" stop-opacity=".8691"/><stop offset=".3985" stop-color="#fff" stop-opacity=".7131"/><stop offset=".6031" stop-color="#fff" stop-opacity=".4965"/><stop offset=".8298" stop-color="#fff" stop-opacity=".2236"/><stop offset="1" stop-color="#fff" stop-opacity="0"/></radialGradient><mask id="uuid-c67f81dd-e0a1-4394-ad26-206cd959bc3f" x="25.7388" y="-183.9971" width="1553.0809" height="1469.2947" maskUnits="userSpaceOnUse"><g filter="url(#uuid-347011fa-f921-43c2-a486-ec95871dffdf)"><circle cx="655.522" cy="646.5551" r="237.3434" fill="url(#uuid-9024a5d4-807a-4e37-9520-984a84004c9b)"/></g></mask><filter id="uuid-4dfcf18c-dc78-46c6-9dff-d99c75ea3c1d" x="467.9666" y="73.1027" width="1648.019" height="1337.4973" color-interpolation-filters="sRGB" filterUnits="userSpaceOnUse"><feFlood flood-color="#fff" result="bg"/><feBlend in="SourceGraphic" in2="bg"/></filter><linearGradient id="uuid-d624bfcc-592c-46d8-9da7-281266d38b45" x1="-10763.1767" y1="-336.9388" x2="-9636.6331" y2="-336.9388" gradientTransform="translate(-5950.8652 -6720.7145) rotate(-135)" gradientUnits="userSpaceOnUse"><stop offset="0" stop-color="#fff"/><stop offset=".0936" stop-color="#fff" stop-opacity=".7764"/><stop offset=".2183" stop-color="#fff" stop-opacity=".5035"/><stop offset=".3308" stop-color="#fff" stop-opacity=".2869"/><stop offset=".4271" stop-color="#fff" stop-opacity=".1309"/><stop offset=".5033" stop-color="#fff" stop-opacity=".0352"/><stop offset=".55" stop-color="#fff" stop-opacity="0"/></linearGradient><mask id="uuid-3a7364a7-84aa-4692-a8e2-4fdec1c56415" x="460.0332" y="166.6873" width="1126.5437" height="1126.5437" maskUnits="userSpaceOnUse"><circle cx="1023.305" cy="729.9591" r="563.2718" fill="url(#uuid-d624bfcc-592c-46d8-9da7-281266d38b45)"/></mask><linearGradient id="uuid-5d4a438d-8b6d-4909-8b88-6b5e1927fddb" x1="2572.609" y1="-4064.5139" x2="1393.5671" y2="-3383.7937" gradientTransform="translate(-866.4331 -2849.603) rotate(120)" gradientUnits="userSpaceOnUse"><stop offset=".2" stop-color="#fff" stop-opacity="0"/><stop offset=".2723" stop-color="#fff" stop-opacity=".0164"/><stop offset=".3472" stop-color="#fff" stop-opacity=".0652"/><stop offset=".4234" stop-color="#fff" stop-opacity=".1466"/><stop offset=".5005" stop-color="#fff" stop-opacity=".2609"/><stop offset=".5782" stop-color="#fff" stop-opacity=".4079"/><stop offset=".6566" stop-color="#fff" stop-opacity=".5881"/><stop offset=".7339" stop-color="#fff" stop-opacity=".797"/><stop offset=".8" stop-color="#fff"/></linearGradient><mask id="uuid-f19fd925-b5ab-4edc-807d-8ebae24a4af6" x="506.655" y="-79.9647" width="1721.1552" height="1490.565" maskUnits="userSpaceOnUse"><polygon points="2227.8102 1410.6002 1367.2341 -79.9647 506.655 1410.5985 2227.8102 1410.6002" fill="url(#uuid-5d4a438d-8b6d-4909-8b88-6b5e1927fddb)"/></mask><mask id="uuid-d47d106b-5804-41d3-8bbf-2502cf3b6901" x="467.9666" y="73.1027" width="1648.019" height="1337.4973" maskUnits="userSpaceOnUse"><g filter="url(#uuid-4dfcf18c-dc78-46c6-9dff-d99c75ea3c1d)"><g mask="url(#uuid-3a7364a7-84aa-4692-a8e2-4fdec1c56415)"><circle cx="1023.305" cy="729.9591" r="555.3384" fill="#18191b"/></g><g mask="url(#uuid-f19fd925-b5ab-4edc-807d-8ebae24a4af6)"><path d="M2095.2501,1180.9989L1499.7942,149.6366c-58.9156-102.045-206.2048-102.0452-265.1206-.0003l-595.458,1031.3612c-58.9158,102.0449,14.7287,229.6012,132.5601,229.6013l1190.914.0012c117.8314.0001,191.4761-127.556,132.5605-229.601Z" fill="#18191b"/></g></g></mask><radialGradient id="uuid-f06e136a-4453-44b9-87c0-96ba6fac7861" cx="-12900.6159" cy="-4784.8211" fx="-12900.6159" fy="-4784.8211" r="370.2843" gradientTransform="translate(-18327.5307 7907.1027) rotate(-180) scale(1.5 -1.5)" xlink:href="#uuid-9024a5d4-807a-4e37-9520-984a84004c9b"/><mask id="uuid-bf5e9059-40da-421f-b1a1-772b3dd8603e" x="467.9666" y="174.4445" width="1110.853" height="1110.853" maskUnits="userSpaceOnUse"><circle cx="1023.3931" cy="729.871" r="555.4265" fill="url(#uuid-f06e136a-4453-44b9-87c0-96ba6fac7861)"/></mask><filter id="uuid-4ae39651-8ea3-44c4-9973-2b02491f8bb9" x="25.7388" y="-183.9971" width="1427.3877" height="1351.8582" color-interpolation-filters="sRGB" filterUnits="userSpaceOnUse"><feFlood flood-color="#fff" result="bg"/><feBlend in="SourceGraphic" in2="bg"/></filter><linearGradient id="uuid-62dbd173-025a-4d6e-b5d6-a1f58cc222ca" x1="-98.3471" y1="-3993.207" x2="827.0452" y2="-4918.5993" gradientTransform="translate(500.5072 4922.903)" gradientUnits="userSpaceOnUse"><stop offset=".1" stop-color="#fff"/><stop offset=".1771" stop-color="#fff" stop-opacity=".797"/><stop offset=".2673" stop-color="#fff" stop-opacity=".5881"/><stop offset=".3587" stop-color="#fff" stop-opacity=".4079"/><stop offset=".4494" stop-color="#fff" stop-opacity=".2609"/><stop offset=".5393" stop-color="#fff" stop-opacity=".1466"/><stop offset=".6282" stop-color="#fff" stop-opacity=".0652"/><stop offset=".7157" stop-color="#fff" stop-opacity=".0164"/><stop offset=".8" stop-color="#fff" stop-opacity="0"/></linearGradient><mask id="uuid-6aeca09b-5f49-4de3-811e-263bbe8ea07c" x="232.8015" y="-165.0548" width="1264.1094" height="1264.1094" maskUnits="userSpaceOnUse"><rect x="402.1601" y="4.3037" width="925.3923" height="925.3923" transform="translate(1701.7181 -48.4877) rotate(120)" fill="url(#uuid-62dbd173-025a-4d6e-b5d6-a1f58cc222ca)"/></mask><mask id="uuid-d1b77838-095d-46b9-afc7-951dd170f74f" x="232.8015" y="-165.0548" width="1264.1094" height="1264.1094" maskUnits="userSpaceOnUse"><rect x="402.1601" y="4.3037" width="925.3923" height="925.3923" transform="translate(1701.7181 -48.4877) rotate(120)" fill="url(#uuid-62dbd173-025a-4d6e-b5d6-a1f58cc222ca)"/></mask><mask id="uuid-cbaf65a1-7e16-45be-840a-fbe71e358535" x="25.7388" y="-183.9971" width="1427.3877" height="1351.8582" maskUnits="userSpaceOnUse"><g filter="url(#uuid-4ae39651-8ea3-44c4-9973-2b02491f8bb9)"><g mask="url(#uuid-6aeca09b-5f49-4de3-811e-263bbe8ea07c)"><rect x="402.1601" y="4.3037" width="925.3923" height="925.3923" rx="119.6761" ry="119.6761" transform="translate(1701.7181 -48.4877) rotate(120)" fill="#18191b"/></g><g mask="url(#uuid-d1b77838-095d-46b9-afc7-951dd170f74f)"><rect x="402.1601" y="4.3037" width="925.3923" height="925.3923" rx="119.6761" ry="119.6761" transform="translate(1701.7181 -48.4877) rotate(120)" fill="#18191b"/></g></g></mask><linearGradient id="uuid-64ce3258-dbf8-41dc-98b4-8661b550c5d2" x1="1063.5398" y1="-4907.5811" x2="558.3822" y2="-4615.9282" gradientTransform="translate(1354.37 -3993.4528) rotate(-180)" xlink:href="#uuid-5d4a438d-8b6d-4909-8b88-6b5e1927fddb"/><mask id="uuid-dfac79c4-518b-41c2-86c8-a8547df2cfe9" x="106.4748" y="594.8138" width="737.4244" height="638.6287" maskUnits="userSpaceOnUse"><polygon points="475.1863 1233.4425 843.8992 594.8146 106.4748 594.8138 475.1863 1233.4425" fill="url(#uuid-64ce3258-dbf8-41dc-98b4-8661b550c5d2)"/></mask><linearGradient id="uuid-835b4d6b-1dd8-4726-b15d-a604c551516c" x1="-527.5507" y1="-836.0628" x2="-1452.8835" y2="-301.8217" gradientTransform="translate(1601.2002 -222.8374) rotate(-60)" xlink:href="#uuid-5d4a438d-8b6d-4909-8b88-6b5e1927fddb"/><mask id="uuid-4c8e5a0e-2fb7-4ea8-84d6-f1a2481d0350" x="-62.0232" y="-183.9973" width="1350.7927" height="1169.8215" maskUnits="userSpaceOnUse"><polygon points="-62.0232 -183.9973 613.372 985.8242 1288.7695 -183.996 -62.0232 -183.9973" fill="url(#uuid-835b4d6b-1dd8-4726-b15d-a604c551516c)"/></mask><linearGradient id="uuid-2714cb41-632b-4c23-99bc-9b314176263b" x1="3517.647" y1="-4224.9535" x2="3012.4896" y2="-3933.3007" gradientTransform="translate(-1237.8165 -3985.7013) rotate(120)" xlink:href="#uuid-5d4a438d-8b6d-4909-8b88-6b5e1927fddb"/><mask id="uuid-22fd3db3-0f0b-4a9f-89e8-8dc8037d987b" x="293.5623" y="534.5196" width="737.4244" height="638.6286" maskUnits="userSpaceOnUse"><polygon points="1030.9867 1173.1483 662.2751 534.5196 293.5623 1173.1475 1030.9867 1173.1483" fill="url(#uuid-2714cb41-632b-4c23-99bc-9b314176263b)"/></mask><linearGradient id="uuid-d9359034-05e6-4fa1-bae5-11053127f364" x1="-1553.3969" y1="11809.0795" x2="-1553.3969" y2="12057.097" gradientTransform="translate(7977.844 10075.8961) rotate(-30) scale(1 -1)" gradientUnits="userSpaceOnUse"><stop offset="0" stop-color="#1497d4" stop-opacity="0"/><stop offset="1" stop-color="#1497d4"/></linearGradient><linearGradient id="uuid-9bd12043-3c2c-4fb7-b9d9-318a14616ea0" x1="-13533.9813" y1="23934.2467" x2="-13821.6649" y2="23905.4369" gradientTransform="translate(-23151.7151 -13145.0879) rotate(150) scale(1 -1)" gradientUnits="userSpaceOnUse"><stop offset="0" stop-color="#1497d4"/><stop offset="1" stop-color="#1497d4" stop-opacity="0"/></linearGradient><linearGradient id="uuid-f2ba8a8b-81b0-4b28-9309-075e86981153" x1="-1739.0312" y1="11943.5141" x2="-1471.3128" y2="11898.9189" gradientTransform="translate(7977.844 10075.8961) rotate(-30) scale(1 -1)" gradientUnits="userSpaceOnUse"><stop offset="0" stop-color="#6534d1"/><stop offset="1" stop-color="#6534d1" stop-opacity="0"/></linearGradient><linearGradient id="uuid-98111a3a-5677-4c53-a6cc-af4fee170de4" x1="-13841.2249" y1="23967.6435" x2="-13573.5064" y2="23923.0474" gradientTransform="translate(-23151.7151 -13145.0879) rotate(150) scale(1 -1)" gradientUnits="userSpaceOnUse"><stop offset="0" stop-color="#6534d1"/><stop offset="1" stop-color="#6534d1" stop-opacity="0"/></linearGradient><linearGradient id="uuid-12b2233b-0f4d-445d-8ca8-b9ee45512e9d" x1="-6606.8901" y1="3208.9611" x2="-6347.6671" y2="3208.9611" gradientTransform="translate(4697.684 6552.8581) rotate(30.0007) scale(1 -1)" gradientUnits="userSpaceOnUse"><stop offset=".1276" stop-color="#6534d1" stop-opacity="0"/><stop offset=".9999" stop-color="#6534d1"/></linearGradient><linearGradient id="uuid-28b7d0d8-c1d1-44d3-a69e-08214f2d7c0d" x1="-23058.4301" y1="-1244.0955" x2="-22799.2069" y2="-1244.0955" gradientTransform="translate(-19871.5546 -9622.0494) rotate(-149.9993) scale(1 -1)" gradientUnits="userSpaceOnUse"><stop offset=".1039" stop-color="#6534d1" stop-opacity="0"/><stop offset="1" stop-color="#6534d1"/></linearGradient></defs><g clip-path="url(#uuid-834dbf85-39c6-4eda-90ad-31a41d5940ff)"><g mask="url(#uuid-c67f81dd-e0a1-4394-ad26-206cd959bc3f)"><g mask="url(#uuid-d47d106b-5804-41d3-8bbf-2502cf3b6901)"><g mask="url(#uuid-bf5e9059-40da-421f-b1a1-772b3dd8603e)"><circle cx="1023.3931" cy="729.871" r="555.4265" fill="#3a2271"/></g></g><g mask="url(#uuid-cbaf65a1-7e16-45be-840a-fbe71e358535)"><g mask="url(#uuid-dfac79c4-518b-41c2-86c8-a8547df2cfe9)"><path d="M531.9815,1135.0705l236.6094-409.8184c33.4704-57.9722-8.3674-130.4376-75.308-130.4376l-473.2179-.0005c-50.4845,0-82.0374,54.651-56.7952,98.3719l255.1215,441.8845c25.2422,43.7209,88.3479,43.721,113.5902.0001Z" fill="#3a2271"/></g><g mask="url(#uuid-4c8e5a0e-2fb7-4ea8-84d6-f1a2481d0350)"><path d="M42.0123-3.8022l433.4127,750.6945c61.3098,106.1919,214.5846,106.1921,275.8946.0003L1184.7337-3.8011c46.2381-80.0866-11.5593-180.195-104.0355-180.1951l-934.6502-.0009c-92.4761,0-150.2738,100.1082-104.0358,180.1949Z" fill="#3a2271"/></g></g><g mask="url(#uuid-22fd3db3-0f0b-4a9f-89e8-8dc8037d987b)"><path d="M974.1917,1074.7762l-236.6085-409.8189c-33.4702-57.9723-117.146-57.9724-150.6163-.0002l-236.6093,409.8185c-25.2423,43.7209,6.3105,98.372,56.795,98.3721l510.244.0005c50.4845,0,82.0374-54.651,56.7952-98.372Z" fill="#0e2a38"/></g><path d="M755.9959,460.4901h-134.6148c-13.4989,0-25.9722,7.2024-32.7201,18.8938l-36.9374,63.9992c-7.8222,13.5531-3.1765,30.8812,10.3766,38.7034,4.3065,2.4855,9.1912,3.794,14.1634,3.794h224.906c15.6484,0,28.334-12.6856,28.334-28.334,0-4.9784-1.3117-9.869-3.8031-14.1792l-36.9969-64.005c-6.7512-11.6792-19.2177-18.8723-32.7077-18.8722Z" fill="url(#uuid-d9359034-05e6-4fa1-bae5-11053127f364)"/><path d="M543.6076,839.6906h134.6148c13.4992.0002,25.9726-7.2025,32.7205-18.8941l36.9374-63.9993c7.8222-13.5531,3.1764-30.8812-10.3768-38.7034-4.3064-2.4854-9.1911-3.7939-14.1633-3.7939h-224.9065c-15.6484,0-28.334,12.6856-28.3339,28.334,0,4.9785,1.3118,9.8692,3.8033,14.1795l36.9969,64.005c6.7511,11.6792,19.2175,18.8723,32.7076,18.8722Z" fill="url(#uuid-9bd12043-3c2c-4fb7-b9d9-318a14616ea0)"/><path d="M755.9959,460.4901h-134.6148c-13.4989,0-25.9722,7.2024-32.7201,18.8938l-36.9374,63.9992c-7.8222,13.5531-3.1765,30.8812,10.3766,38.7034,4.3065,2.4855,9.1912,3.794,14.1634,3.794h224.906c15.6484,0,28.334-12.6856,28.334-28.334,0-4.9784-1.3117-9.869-3.8031-14.1792l-36.9969-64.005c-6.7512-11.6792-19.2177-18.8723-32.7077-18.8722Z" fill="url(#uuid-f2ba8a8b-81b0-4b28-9309-075e86981153)"/><path d="M543.6076,839.6906h134.6148c13.4992.0002,25.9726-7.2025,32.7205-18.8941l36.9374-63.9993c7.8222-13.5531,3.1764-30.8812-10.3768-38.7034-4.3064-2.4854-9.1911-3.7939-14.1633-3.7939h-224.9065c-15.6484,0-28.334,12.6856-28.3339,28.334,0,4.9785,1.3118,9.8692,3.8033,14.1795l36.9969,64.005c6.7511,11.6792,19.2175,18.8723,32.7076,18.8722Z" fill="url(#uuid-98111a3a-5677-4c53-a6cc-af4fee170de4)"/></g><path d="M836.8949,563.3221l-48.4613-83.9373c-6.7501-11.6915-19.226-18.8925-32.7262-18.8893l-136.9575.0325,125.1208,216.7144c7.8242,13.5519,25.153,18.1952,38.705,10.3709,4.3083-2.4874,7.8857-6.0652,10.3726-10.3738l43.9491-76.1429c6.7462-11.6882,6.7452-26.0873-.0025-37.7746Z" fill="url(#uuid-12b2233b-0f4d-445d-8ca8-b9ee45512e9d)"/><path d="M462.7083,736.8589l48.4612,83.9372c6.7501,11.6915,19.226,18.8925,32.7262,18.8893l136.9575-.0325-125.1209-216.7146c-7.8242-13.5519-25.153-18.1952-38.7049-10.371-4.3083,2.4874-7.8858,6.0653-10.3727,10.374l-43.9491,76.1429c-6.7462,11.6883-6.7451,26.0875.0027,37.7748Z" fill="url(#uuid-28b7d0d8-c1d1-44d3-a69e-08214f2d7c0d)"/></g></svg>