<svg xmlns="http://www.w3.org/2000/svg" xmlns:xlink="http://www.w3.org/1999/xlink" viewBox="0 0 536 378" width="739" height="521" preserveAspectRatio="xMidYMid meet" style="width: 100%; height: 100%; transform: translate3d(0px, 0px, 0px); content-visibility: visible;"><defs><clipPath id="__lottie_element_2"><rect width="536" height="378" x="0" y="0"/></clipPath><clipPath id="__lottie_element_4"><path d="M0,0 L632,0 L632,474 L0,474z"/></clipPath><clipPath id="__lottie_element_20"><path d="M0,0 L632,0 L632,474 L0,474z"/></clipPath><clipPath id="__lottie_element_37"><path d="M0,0 L632,0 L632,474 L0,474z"/></clipPath><clipPath id="__lottie_element_50"><path d="M0,0 L632,0 L632,474 L0,474z"/></clipPath><clipPath id="__lottie_element_54"><path d="M0,0 L2160,0 L2160,2160 L0,2160z"/></clipPath><filter id="__lottie_element_56"><feColorMatrix type="matrix" color-interpolation-filters="sRGB" values="1 0 0 0 0 0 1 0 0 0 0 0 1 0 0 0 0 0 1 0" result="filter_result_0"/></filter><clipPath id="__lottie_element_74"><path d="M0,0 L192,0 L192,192 L0,192z"/></clipPath><clipPath id="__lottie_element_88"><path d="M0,0 L2160,0 L2160,2160 L0,2160z"/></clipPath><filter id="__lottie_element_90"><feColorMatrix type="matrix" color-interpolation-filters="sRGB" values="1 0 0 0 0 0 1 0 0 0 0 0 1 0 0 0 0 0 1 0" result="filter_result_0"/></filter><clipPath id="__lottie_element_114"><path d="M0,0 L632,0 L632,474 L0,474z"/></clipPath><clipPath id="__lottie_element_121"><path d="M0,0 L1404,0 L1404,180 L0,180z"/></clipPath><clipPath id="__lottie_element_134"><path d="M0,0 L632,0 L632,474 L0,474z"/></clipPath><clipPath id="__lottie_element_141"><path d="M0,0 L1404,0 L1404,180 L0,180z"/></clipPath><clipPath id="__lottie_element_154"><path d="M0,0 L632,0 L632,474 L0,474z"/></clipPath><clipPath id="__lottie_element_161"><path d="M0,0 L144,0 L144,144 L0,144z"/></clipPath><clipPath id="__lottie_element_174"><path d="M0,0 L632,0 L632,474 L0,474z"/></clipPath><clipPath id="__lottie_element_184"><path d="M0,0 L1404,0 L1404,180 L0,180z"/></clipPath><clipPath id="__lottie_element_194"><path d="M0,0 L632,0 L632,474 L0,474z"/></clipPath><clipPath id="__lottie_element_201"><path d="M0,0 L1404,0 L1404,180 L0,180z"/></clipPath><clipPath id="__lottie_element_214"><path d="M0,0 L632,0 L632,474 L0,474z"/></clipPath><clipPath id="__lottie_element_221"><path d="M0,0 L144,0 L144,144 L0,144z"/></clipPath><clipPath id="__lottie_element_234"><path d="M0,0 L632,0 L632,474 L0,474z"/></clipPath><clipPath id="__lottie_element_241"><path d="M0,0 L1404,0 L1404,180 L0,180z"/></clipPath><clipPath id="__lottie_element_254"><path d="M0,0 L632,0 L632,474 L0,474z"/></clipPath><clipPath id="__lottie_element_261"><path d="M0,0 L144,0 L144,144 L0,144z"/></clipPath></defs><g clip-path="url(#__lottie_element_2)"><g transform="matrix(0.8500000238418579,0,0,0.797249972820282,268,189)" opacity="1" style="display: block;"><g opacity="1" transform="matrix(1,0,0,1,-0.2720000147819519,-0.006000000052154064)"><path fill="rgb(24,25,27)" fill-opacity="1" d=" M315.7275085449219,-231.99400329589844 C315.7275085449219,-231.99400329589844 315.7275085449219,231.99400329589844 315.7275085449219,231.99400329589844 C315.7275085449219,234.75350952148438 313.48699951171875,236.99400329589844 310.7275085449219,236.99400329589844 C310.7275085449219,236.99400329589844 -310.7275085449219,236.99400329589844 -310.7275085449219,236.99400329589844 C-313.48699951171875,236.99400329589844 -315.7275085449219,234.75350952148438 -315.7275085449219,231.99400329589844 C-315.7275085449219,231.99400329589844 -315.7275085449219,-231.99400329589844 -315.7275085449219,-231.99400329589844 C-315.7275085449219,-234.75350952148438 -313.48699951171875,-236.99400329589844 -310.7275085449219,-236.99400329589844 C-310.7275085449219,-236.99400329589844 310.7275085449219,-236.99400329589844 310.7275085449219,-236.99400329589844 C313.48699951171875,-236.99400329589844 315.7275085449219,-234.75350952148438 315.7275085449219,-231.99400329589844z"/></g></g><g class="8" clip-path="url(#__lottie_element_254)" style="display: none;"><g style="display: none;"><g><path stroke-linecap="butt" stroke-linejoin="miter" fill-opacity="0" stroke-miterlimit="4"/></g></g><g clip-path="url(#__lottie_element_261)" style="display: none;"><g style="display: none;"><g><path/></g></g><g style="display: none;"><g><path/></g></g></g><g class="center" style="display: none;"/></g><g class="7" clip-path="url(#__lottie_element_234)" style="display: none;"><g style="display: none;"><g><path stroke-linecap="butt" stroke-linejoin="miter" fill-opacity="0" stroke-miterlimit="4"/></g></g><g clip-path="url(#__lottie_element_241)" style="display: none;"><g style="display: none;"><g><path/></g></g><g style="display: none;"><g><path/></g></g></g><g class="expert" style="display: none;"/></g><g class="6" clip-path="url(#__lottie_element_214)" style="display: none;"><g style="display: none;"><g><path stroke-linecap="butt" stroke-linejoin="miter" fill-opacity="0" stroke-miterlimit="4"/></g></g><g clip-path="url(#__lottie_element_221)" style="display: none;"><g style="display: none;"><g><path/></g></g><g style="display: none;"><g><path/></g></g></g><g class="xyz" style="display: none;"/></g><g class="5" clip-path="url(#__lottie_element_194)" style="display: none;"><g style="display: none;"><g><path stroke-linecap="butt" stroke-linejoin="miter" fill-opacity="0" stroke-miterlimit="4"/></g></g><g clip-path="url(#__lottie_element_201)" style="display: none;"><g style="display: none;"><g><path/></g></g><g style="display: none;"><g><path/></g></g></g><g class="finance" style="display: none;"/></g><g class="4" clip-path="url(#__lottie_element_174)" style="display: none;"><g clip-path="url(#__lottie_element_184)" style="display: none;"><g style="display: none;"><g><path/></g></g><g style="display: none;"><g><path/></g></g></g><g style="display: none;"><g><path stroke-linecap="butt" stroke-linejoin="miter" fill-opacity="0" stroke-miterlimit="4"/></g></g><g class="org" style="display: none;"/></g><g class="3" clip-path="url(#__lottie_element_154)" style="display: none;"><g style="display: none;"><g><path stroke-linecap="butt" stroke-linejoin="miter" fill-opacity="0" stroke-miterlimit="4"/></g></g><g clip-path="url(#__lottie_element_161)" style="display: none;"><g style="display: none;"><g><path/></g></g><g style="display: none;"><g><path/></g></g></g><g class="info" style="display: none;"/></g><g class="2" clip-path="url(#__lottie_element_134)" style="display: none;"><g style="display: none;"><g><path stroke-linecap="butt" stroke-linejoin="miter" fill-opacity="0" stroke-miterlimit="4"/></g></g><g clip-path="url(#__lottie_element_141)" style="display: none;"><g style="display: none;"><g><path/></g></g><g style="display: none;"><g><path/></g></g></g><g class="online" style="display: none;"/></g><g class="1" clip-path="url(#__lottie_element_114)" style="display: none;"><g style="display: none;"><g><path stroke-linecap="butt" stroke-linejoin="miter" fill-opacity="0" stroke-miterlimit="4"/></g></g><g clip-path="url(#__lottie_element_121)" style="display: none;"><g style="display: none;"><g><path/></g></g><g style="display: none;"><g><path/></g></g></g><g class="ai" style="display: none;"/></g><g class="com" clip-path="url(#__lottie_element_37)" style="display: none;"><g style="display: none;"><g><path/></g></g><g clip-path="url(#__lottie_element_50)" style="display: none;"><g style="display: none;"><g><path/></g></g><g clip-path="url(#__lottie_element_88)" filter="url(#__lottie_element_90)" style="display: none;"><g style="display: none;"><g><path stroke-linecap="round" stroke-linejoin="miter" fill-opacity="0" stroke-miterlimit="4"/></g></g><g style="display: none;"><g><path/></g><g><path/></g></g><g style="display: none;"><g><path stroke-linecap="round" stroke-linejoin="round" fill-opacity="0"/></g></g><g style="display: none;"><g><path/></g></g><g style="display: none;"><g><path/></g></g></g><g clip-path="url(#__lottie_element_74)" style="display: none;"><g style="display: none;"><g><path/></g></g><g style="display: none;"><g><path/></g></g><g style="display: none;"><g><path/></g></g></g><g clip-path="url(#__lottie_element_54)" filter="url(#__lottie_element_56)" style="display: none;"><g style="display: none;"><g><path stroke-linecap="round" stroke-linejoin="miter" fill-opacity="0" stroke-miterlimit="4"/></g></g><g style="display: none;"><g><path/></g><g><path/></g></g><g style="display: none;"><g><path stroke-linecap="round" stroke-linejoin="round" fill-opacity="0"/></g></g><g style="display: none;"><g><path/></g></g><g style="display: none;"><g><path/></g></g></g></g><g style="display: none;"/><g class="com" style="display: none;"/><g style="display: none;"><g><path/></g></g></g><g clip-path="url(#__lottie_element_20)" transform="matrix(1,0,0,1,-48,-48)" opacity="1" style="display: block;"><g transform="matrix(1,0,0,1,316,262)" opacity="0.05" style="display: block;"><g opacity="1" transform="matrix(1,0,0,1,174.15199279785156,-51.2760009765625)"><path fill="rgb(244,245,247)" fill-opacity="1" d=" M50,0 C50,0 50,0 50,0 C50,4.415200233459473 46.415199279785156,8 42,8 C42,8 -42,8 -42,8 C-46.415199279785156,8 -50,4.415200233459473 -50,0 C-50,0 -50,0 -50,0 C-50,-4.415200233459473 -46.415199279785156,-8 -42,-8 C-42,-8 42,-8 42,-8 C46.415199279785156,-8 50,-4.415200233459473 50,0z"/></g><g opacity="1" transform="matrix(1,0,0,1,-127.8479995727539,-51.2760009765625)"><path fill="rgb(244,245,247)" fill-opacity="1" d=" M96.15249633789062,0 C96.15249633789062,0 96.15249633789062,0 96.15249633789062,0 C96.15249633789062,4.415200233459473 92.56769561767578,8 88.15249633789062,8 C88.15249633789062,8 -88.15249633789062,8 -88.15249633789062,8 C-92.56769561767578,8 -96.15249633789062,4.415200233459473 -96.15249633789062,0 C-96.15249633789062,0 -96.15249633789062,0 -96.15249633789062,0 C-96.15249633789062,-4.415200233459473 -92.56769561767578,-8 -88.15249633789062,-8 C-88.15249633789062,-8 88.15249633789062,-8 88.15249633789062,-8 C92.56769561767578,-8 96.15249633789062,-4.415200233459473 96.15249633789062,0z"/></g></g><g transform="matrix(1,0,0,1,316,333)" opacity="0.05" style="display: block;"><g opacity="1" transform="matrix(1,0,0,1,174.15199279785156,-51.2760009765625)"><path fill="rgb(244,245,247)" fill-opacity="1" d=" M50,0 C50,0 50,0 50,0 C50,4.415200233459473 46.415199279785156,8 42,8 C42,8 -42,8 -42,8 C-46.415199279785156,8 -50,4.415200233459473 -50,0 C-50,0 -50,0 -50,0 C-50,-4.415200233459473 -46.415199279785156,-8 -42,-8 C-42,-8 42,-8 42,-8 C46.415199279785156,-8 50,-4.415200233459473 50,0z"/></g><g opacity="1" transform="matrix(1,0,0,1,-127.8479995727539,-51.2760009765625)"><path fill="rgb(244,245,247)" fill-opacity="1" d=" M96.15249633789062,0 C96.15249633789062,0 96.15249633789062,0 96.15249633789062,0 C96.15249633789062,4.415200233459473 92.56769561767578,8 88.15249633789062,8 C88.15249633789062,8 -88.15249633789062,8 -88.15249633789062,8 C-92.56769561767578,8 -96.15249633789062,4.415200233459473 -96.15249633789062,0 C-96.15249633789062,0 -96.15249633789062,0 -96.15249633789062,0 C-96.15249633789062,-4.415200233459473 -92.56769561767578,-8 -88.15249633789062,-8 C-88.15249633789062,-8 88.15249633789062,-8 88.15249633789062,-8 C92.56769561767578,-8 96.15249633789062,-4.415200233459473 96.15249633789062,0z"/></g></g><g transform="matrix(1,0,0,1,316,402)" opacity="0.05" style="display: block;"><g opacity="1" transform="matrix(1,0,0,1,174.15199279785156,-51.2760009765625)"><path fill="rgb(244,245,247)" fill-opacity="1" d=" M50,0 C50,0 50,0 50,0 C50,4.415200233459473 46.415199279785156,8 42,8 C42,8 -42,8 -42,8 C-46.415199279785156,8 -50,4.415200233459473 -50,0 C-50,0 -50,0 -50,0 C-50,-4.415200233459473 -46.415199279785156,-8 -42,-8 C-42,-8 42,-8 42,-8 C46.415199279785156,-8 50,-4.415200233459473 50,0z"/></g><g opacity="1" transform="matrix(1,0,0,1,-127.8479995727539,-51.2760009765625)"><path fill="rgb(244,245,247)" fill-opacity="1" d=" M96.15249633789062,0 C96.15249633789062,0 96.15249633789062,0 96.15249633789062,0 C96.15249633789062,4.415200233459473 92.56769561767578,8 88.15249633789062,8 C88.15249633789062,8 -88.15249633789062,8 -88.15249633789062,8 C-92.56769561767578,8 -96.15249633789062,4.415200233459473 -96.15249633789062,0 C-96.15249633789062,0 -96.15249633789062,0 -96.15249633789062,0 C-96.15249633789062,-4.415200233459473 -92.56769561767578,-8 -88.15249633789062,-8 C-88.15249633789062,-8 88.15249633789062,-8 88.15249633789062,-8 C92.56769561767578,-8 96.15249633789062,-4.415200233459473 96.15249633789062,0z"/></g></g><g transform="matrix(1,0,0,1,316.0480041503906,216.2760009765625)" opacity="0.05" style="display: block;"><g opacity="1" transform="matrix(1,0,0,1,-3,-95.5)"><path stroke-linecap="butt" stroke-linejoin="miter" fill-opacity="0" stroke-miterlimit="4" stroke="rgb(222,222,222)" stroke-opacity="1" stroke-width="1" d=" M237,0 C237,0 237,0 237,0 C237,16.55699920654297 223.5570068359375,30 207,30 C207,30 -207,30 -207,30 C-223.5570068359375,30 -237,16.55699920654297 -237,0 C-237,0 -237,0 -237,0 C-237,-16.55699920654297 -223.5570068359375,-30 -207,-30 C-207,-30 207,-30 207,-30 C223.5570068359375,-30 237,-16.55699920654297 237,0z"/></g><g opacity="1" transform="matrix(1,0,0,1,-218.84800720214844,-95.2760009765625)"><path fill="rgb(222,222,222)" fill-opacity="1" d=" M8,0 C8,0 8,0 8,0 C8,4.415200233459473 4.415200233459473,8 0,8 C0,8 0,8 0,8 C-4.415200233459473,8 -8,4.415200233459473 -8,0 C-8,0 -8,0 -8,0 C-8,-4.415200233459473 -4.415200233459473,-8 0,-8 C0,-8 0,-8 0,-8 C4.415200233459473,-8 8,-4.415200233459473 8,0z"/></g><g opacity="1" transform="matrix(1,0,0,1,170.15199279785156,-95.2760009765625)"><path fill="rgb(222,222,222)" fill-opacity="1" d=" M50,0 C50,0 50,0 50,0 C50,4.415200233459473 46.415199279785156,8 42,8 C42,8 -42,8 -42,8 C-46.415199279785156,8 -50,4.415200233459473 -50,0 C-50,0 -50,0 -50,0 C-50,-4.415200233459473 -46.415199279785156,-8 -42,-8 C-42,-8 42,-8 42,-8 C46.415199279785156,-8 50,-4.415200233459473 50,0z"/></g><g opacity="1" transform="matrix(1,0,0,1,-103.3479995727539,-95.2760009765625)"><path fill="rgb(244,245,247)" fill-opacity="1" d=" M96.15249633789062,0 C96.15249633789062,0 96.15249633789062,0 96.15249633789062,0 C96.15249633789062,4.415200233459473 92.56769561767578,8 88.15249633789062,8 C88.15249633789062,8 -88.15249633789062,8 -88.15249633789062,8 C-92.56769561767578,8 -96.15249633789062,4.415200233459473 -96.15249633789062,0 C-96.15249633789062,0 -96.15249633789062,0 -96.15249633789062,0 C-96.15249633789062,-4.415200233459473 -92.56769561767578,-8 -88.15249633789062,-8 C-88.15249633789062,-8 88.15249633789062,-8 88.15249633789062,-8 C92.56769561767578,-8 96.15249633789062,-4.415200233459473 96.15249633789062,0z"/></g></g></g><g clip-path="url(#__lottie_element_4)" style="display: none;"><g style="display: none;"><g><path/></g><g><path/></g></g><g style="display: none;"><g><path/></g><g><path/></g></g><g style="display: none;"><g><path/></g><g><path/></g></g><g style="display: none;"><g><path stroke-linecap="butt" stroke-linejoin="miter" fill-opacity="0" stroke-miterlimit="4"/></g><g><path/></g><g><path/></g><g><path/></g></g></g></g></svg>