<svg xmlns="http://www.w3.org/2000/svg" xmlns:xlink="http://www.w3.org/1999/xlink" viewBox="0 0 536 378" width="845" height="596" preserveAspectRatio="xMidYMid meet" style="width: 100%; height: 100%; transform: translate3d(0px, 0px, 0px); content-visibility: visible;"><defs><clipPath id="__lottie_element_2"><rect width="536" height="378" x="0" y="0"/></clipPath><g id="__lottie_element_3"><g style="display: none;"><g><path/></g></g></g><mask id="__lottie_element_3_1" mask-type="alpha"><use xmlns:ns1="http://www.w3.org/1999/xlink" ns1:href="#__lottie_element_3"/></mask><clipPath id="__lottie_element_22"><path fill="#ffffff" clip-rule="nonzero" d=" M-1.1579999923706055,-18.09600067138672 C-1.1579999923706055,-18.09600067138672 -1.215999960899353,6.755000114440918 -1.215999960899353,6.755000114440918 C-1.215999960899353,6.755000114440918 -1.0210000276565552,6.776000022888184 -1.0210000276565552,6.776000022888184 C-1.0210000276565552,6.776000022888184 -0.9629999995231628,-18.075000762939453 -0.9629999995231628,-18.075000762939453 C-0.9629999995231628,-18.075000762939453 -1.1579999923706055,-18.09600067138672 -1.1579999923706055,-18.09600067138672" fill-opacity="1"/></clipPath><clipPath id="__lottie_element_25"><path d="M0,0 L144,0 L144,144 L0,144z"/></clipPath><g id="__lottie_element_37"><g transform="matrix(1,0,0,1,268,191.5)" opacity="1" style="display: block;"><g opacity="1" transform="matrix(1,0,0,1,0,-3)"><path fill="rgb(0,143,128)" fill-opacity="1" d=" M268,-189 C268,-189 268,189 268,189 C268,189 -268,189 -268,189 C-268,189 -268,-189 -268,-189 C-268,-189 268,-189 268,-189z"/></g></g></g><linearGradient id="__lottie_element_43" spreadMethod="pad" gradientUnits="userSpaceOnUse" x1="-355.8909912109375" y1="354.1659851074219" x2="-202.9980010986328" y2="199.1739959716797"><stop offset="0%" stop-color="rgb(0,220,202)"/><stop offset="50%" stop-color="rgb(0,220,202)"/><stop offset="100%" stop-color="rgb(0,220,202)"/></linearGradient><mask id="__lottie_element_45"><path fill="url(#__lottie_element_44)" d=" M0,-281.5 C155.35984802246094,-281.5 281.5,-155.35984802246094 281.5,0 C281.5,155.35984802246094 155.35984802246094,281.5 0,281.5 C-155.35984802246094,281.5 -281.5,155.35984802246094 -281.5,0 C-281.5,-155.35984802246094 -155.35984802246094,-281.5 0,-281.5z"/></mask><linearGradient id="__lottie_element_44" spreadMethod="pad" gradientUnits="userSpaceOnUse" x1="-355.8909912109375" y1="354.1659851074219" x2="-202.9980010986328" y2="199.1739959716797"><stop stop-color="rgb(255,255,255)" offset="0%" stop-opacity="1"/><stop stop-color="rgb(255,255,255)" offset="22%" stop-opacity="0.5"/><stop stop-color="rgb(255,255,255)" offset="55%" stop-opacity="0"/></linearGradient><mask id="__lottie_element_37_1" mask-type="alpha"><use xmlns:ns2="http://www.w3.org/1999/xlink" ns2:href="#__lottie_element_37"/></mask><g id="__lottie_element_46"><g transform="matrix(1,0,0,1,268,191.5)" opacity="1" style="display: block;"><g opacity="1" transform="matrix(1,0,0,1,0,-3)"><path fill="rgb(0,143,128)" fill-opacity="1" d=" M268,-189 C268,-189 268,189 268,189 C268,189 -268,189 -268,189 C-268,189 -268,-189 -268,-189 C-268,-189 268,-189 268,-189z"/></g></g></g><linearGradient id="__lottie_element_52" spreadMethod="pad" gradientUnits="userSpaceOnUse" x1="-665.698974609375" y1="4.883999824523926" x2="-284.4320068359375" y2="6.8520002365112305"><stop offset="0%" stop-color="rgb(0,138,58)"/><stop offset="50%" stop-color="rgb(0,138,58)"/><stop offset="100%" stop-color="rgb(0,138,58)"/></linearGradient><mask id="__lottie_element_54"><path fill="url(#__lottie_element_53)" d=" M0,-281.5 C155.35984802246094,-281.5 281.5,-155.35984802246094 281.5,0 C281.5,155.35984802246094 155.35984802246094,281.5 0,281.5 C-155.35984802246094,281.5 -281.5,155.35984802246094 -281.5,0 C-281.5,-155.35984802246094 -155.35984802246094,-281.5 0,-281.5z"/></mask><linearGradient id="__lottie_element_53" spreadMethod="pad" gradientUnits="userSpaceOnUse" x1="-665.698974609375" y1="4.883999824523926" x2="-284.4320068359375" y2="6.8520002365112305"><stop stop-color="rgb(255,255,255)" offset="0%" stop-opacity="1"/><stop stop-color="rgb(255,255,255)" offset="22%" stop-opacity="0.5"/><stop stop-color="rgb(255,255,255)" offset="55%" stop-opacity="0"/></linearGradient><mask id="__lottie_element_46_1" mask-type="alpha"><use xmlns:ns3="http://www.w3.org/1999/xlink" ns3:href="#__lottie_element_46"/></mask></defs><g clip-path="url(#__lottie_element_2)"><g transform="matrix(1,0,0,1,268,191.5)" opacity="0.75" style="display: block;"><g opacity="1" transform="matrix(1,0,0,1,0,-3)"><path fill="rgb(0,127,118)" fill-opacity="1" d=" M268,-189 C268,-189 268,189 268,189 C268,189 -268,189 -268,189 C-268,189 -268,-189 -268,-189 C-268,-189 268,-189 268,-189z"/></g></g><g mask="url(#__lottie_element_46_1)" style="display: block;"><g transform="matrix(0.7181691527366638,-0.7796364426612854,0.7796364426612854,0.7181691527366638,184,171.5)" opacity="1"><g opacity="1" transform="matrix(1,0,0,1,0,0)"><path fill="url(#__lottie_element_52)" mask="url(#__lottie_element_54)" fill-opacity="1" d="M0 0 M0,-281.5 C155.35984802246094,-281.5 281.5,-155.35984802246094 281.5,0 C281.5,155.35984802246094 155.35984802246094,281.5 0,281.5 C-155.35984802246094,281.5 -281.5,155.35984802246094 -281.5,0 C-281.5,-155.35984802246094 -155.35984802246094,-281.5 0,-281.5z"/></g></g></g><g mask="url(#__lottie_element_37_1)" style="display: block;"><g transform="matrix(0.16125933825969696,-0.9869120717048645,0.9869120717048645,0.16125933825969696,136,-72.5)" opacity="1"><g opacity="1" transform="matrix(1,0,0,1,0,0)"><path fill="url(#__lottie_element_43)" mask="url(#__lottie_element_45)" fill-opacity="1" d="M0 0 M0,-281.5 C155.35984802246094,-281.5 281.5,-155.35984802246094 281.5,0 C281.5,155.35984802246094 155.35984802246094,281.5 0,281.5 C-155.35984802246094,281.5 -281.5,155.35984802246094 -281.5,0 C-281.5,-155.35984802246094 -155.35984802246094,-281.5 0,-281.5z"/></g></g></g><g transform="matrix(1,0,0,1,268,179)" opacity="1" style="display: block;"><g opacity="1" transform="matrix(1,0,0,1,-1,9.5)"><path fill="rgb(24,25,27)" fill-opacity="1" d=" M235,0 C235,0 235,0 235,0 C235,16.55699920654297 221.5570068359375,30 205,30 C205,30 -205,30 -205,30 C-221.5570068359375,30 -235,16.55699920654297 -235,0 C-235,0 -235,0 -235,0 C-235,-16.55699920654297 -221.5570068359375,-30 -205,-30 C-205,-30 205,-30 205,-30 C221.5570068359375,-30 235,-16.55699920654297 235,0z"/></g></g><g clip-path="url(#__lottie_element_25)" transform="matrix(0.33500000834465027,0,0,0.33500000834465027,446.7550048828125,164.1300048828125)" opacity="1" style="display: block;"><g transform="matrix(-1,0,0,1,72,72)" opacity="1" style="display: block;"><g opacity="1" transform="matrix(3,0,0,3,0,0)"><path fill="rgb(57,78,255)" fill-opacity="1" d=" M0,-24 C13.245599746704102,-24 24,-13.245599746704102 24,0 C24,13.245599746704102 13.245599746704102,24 0,24 C-13.245599746704102,24 -24,13.245599746704102 -24,0 C-24,-13.245599746704102 -13.245599746704102,-24 0,-24z"/></g></g><g transform="matrix(1.090000033378601,0,0,1.090000033378601,72,72)" opacity="1" style="display: block;"><g opacity="1" transform="matrix(3,0,0,3,0,0)"><path fill="rgb(255,255,255)" fill-opacity="1" d=" M4.307000160217285,3.128000020980835 C4.307000160217285,3.128000020980835 8.08899974822998,6.910999774932861 8.08899974822998,6.910999774932861 C8.414999961853027,7.236999988555908 8.414999961853027,7.763000011444092 8.08899974822998,8.08899974822998 C7.926000118255615,8.251999855041504 7.7129998207092285,8.333000183105469 7.5,8.333000183105469 C7.2870001792907715,8.333000183105469 7.073999881744385,8.251999855041504 6.910999774932861,8.08899974822998 C6.910999774932861,8.08899974822998 3.128000020980835,4.307000160217285 3.128000020980835,4.307000160217285 C1.9220000505447388,5.260000228881836 0.4020000100135803,5.833000183105469 -1.25,5.833000183105469 C-5.156000137329102,5.833000183105469 -8.333000183105469,2.6559998989105225 -8.333000183105469,-1.25 C-8.333000183105469,-5.156000137329102 -5.156000137329102,-8.333000183105469 -1.25,-8.333000183105469 C2.6559998989105225,-8.333000183105469 5.833000183105469,-5.156000137329102 5.833000183105469,-1.25 C5.833000183105469,0.40299999713897705 5.260000228881836,1.9220000505447388 4.307000160217285,3.128000020980835z M-1.25,-6.666999816894531 C-4.236999988555908,-6.666999816894531 -6.666999816894531,-4.236999988555908 -6.666999816894531,-1.25 C-6.666999816894531,1.7369999885559082 -4.236999988555908,4.166999816894531 -1.25,4.166999816894531 C0.2409999966621399,4.166999816894531 1.593000054359436,3.561000108718872 2.5739998817443848,2.5829999446868896 C2.5759999752044678,2.5810000896453857 2.575000047683716,2.5789999961853027 2.5769999027252197,2.5769999027252197 C2.5789999961853027,2.575000047683716 2.5799999237060547,2.5759999752044678 2.5820000171661377,2.5739998817443848 C3.559000015258789,1.593000054359436 4.166999816894531,0.24199999868869781 4.166999816894531,-1.25 C4.166999816894531,-4.236999988555908 1.7369999885559082,-6.666999816894531 -1.25,-6.666999816894531z"/></g></g></g><g class="com" clip-path="url(#__lottie_element_22)" transform="matrix(1.100000023841858,0,0,1.100000023841858,63.92499923706055,194.875)" opacity="1" fill="rgb(255,255,255)" font-size="18" font-family="Proxima Nova" font-style="normal" font-weight="700" aria-label="mygreatidea.com" style="display: block;"><g stroke-linecap="butt" stroke-linejoin="round" stroke-miterlimit="4" transform="matrix(1,0,0,1,0,0)" opacity="1" style="display: inherit;"><g><g transform="matrix(1,0,0,1,0,0)" opacity="1" style="display: block;"><path d=" M14.32,0 C14.32,0 14.32,-6.33 14.32,-6.33 C14.32,-8.12 13.36,-8.97 11.75,-8.97 C10.41,-8.97 9.24,-8.18 8.74,-7.38 C8.41,-8.37 7.6,-8.97 6.31,-8.97 C4.97,-8.97 3.81,-8.14 3.44,-7.61 C3.44,-7.61 3.44,-8.76 3.44,-8.76 C3.44,-8.76 1.14,-8.76 1.14,-8.76 C1.14,-8.76 1.14,0 1.14,0 C1.14,0 3.44,0 3.44,0 C3.44,0 3.44,-5.89 3.44,-5.89 C3.79,-6.38 4.46,-6.92 5.26,-6.92 C6.2,-6.92 6.56,-6.34 6.56,-5.53 C6.56,-5.53 6.56,0 6.56,0 C6.56,0 8.88,0 8.88,0 C8.88,0 8.88,-5.91 8.88,-5.91 C9.21,-6.38 9.88,-6.92 10.7,-6.92 C11.64,-6.92 12,-6.34 12,-5.53 C12,-5.53 12,0 12,0 C12,0 14.32,0 14.32,0z"/><g opacity="1" transform="matrix(0.18000000715255737,0,0,0.18000000715255737,0,0)"/></g></g></g><g stroke-linecap="butt" stroke-linejoin="round" stroke-miterlimit="4" transform="matrix(1,0,0,1,15.335999488830566,0)" opacity="1" style="display: inherit;"><g><g transform="matrix(1,0,0,1,0,0)" opacity="1" style="display: block;"><path d=" M0.83,3.43 C1.12,3.5 1.7,3.55 1.98,3.55 C3.48,3.52 4.64,3.08 5.29,1.43 C5.29,1.43 9.41,-8.76 9.41,-8.76 C9.41,-8.76 6.92,-8.76 6.92,-8.76 C6.92,-8.76 4.64,-2.66 4.64,-2.66 C4.64,-2.66 2.36,-8.76 2.36,-8.76 C2.36,-8.76 -0.11,-8.76 -0.11,-8.76 C-0.11,-8.76 3.44,0.13 3.44,0.13 C3.44,0.13 3.12,0.87 3.12,0.87 C2.9,1.34 2.5,1.5 1.9,1.5 C1.69,1.5 1.38,1.45 1.18,1.36 C1.18,1.36 0.83,3.43 0.83,3.43z"/><g opacity="1" transform="matrix(0.18000000715255737,0,0,0.18000000715255737,0,0)"/></g></g></g><g stroke-linecap="butt" stroke-linejoin="round" stroke-miterlimit="4" transform="matrix(1,0,0,1,24.56999969482422,0)" opacity="1" style="display: inherit;"><g><g transform="matrix(1,0,0,1,0,0)" opacity="1" style="display: block;"><path d=" M7.14,-3.1 C6.76,-2.54 5.93,-2.1 5.17,-2.1 C3.86,-2.1 2.95,-3.01 2.95,-4.51 C2.95,-6.02 3.86,-6.92 5.17,-6.92 C5.93,-6.92 6.76,-6.51 7.14,-5.93 C7.14,-5.93 7.14,-3.1 7.14,-3.1z M0.96,2.25 C2.05,3.21 3.23,3.55 4.73,3.55 C6.89,3.55 9.46,2.74 9.46,-0.6 C9.46,-0.6 9.46,-8.76 9.46,-8.76 C9.46,-8.76 7.14,-8.76 7.14,-8.76 C7.14,-8.76 7.14,-7.63 7.14,-7.63 C6.44,-8.52 5.49,-8.97 4.44,-8.97 C2.23,-8.97 0.58,-7.38 0.58,-4.51 C0.58,-1.6 2.25,-0.05 4.44,-0.05 C5.51,-0.05 6.45,-0.56 7.14,-1.43 C7.14,-1.43 7.14,-0.54 7.14,-0.54 C7.14,1.18 5.84,1.67 4.73,1.67 C3.63,1.67 2.7,1.36 1.99,0.58 C1.99,0.58 0.96,2.25 0.96,2.25z"/><g opacity="1" transform="matrix(0.18000000715255737,0,0,0.18000000715255737,0,0)"/></g></g></g><g stroke-linecap="butt" stroke-linejoin="round" stroke-miterlimit="4" transform="matrix(1,0,0,1,35.10000228881836,0)" opacity="1" style="display: inherit;"><g><g transform="matrix(1,0,0,1,0,0)" opacity="1" style="display: block;"><path d=" M3.44,0 C3.44,0 3.44,-5.78 3.44,-5.78 C3.83,-6.34 4.84,-6.76 5.6,-6.76 C5.86,-6.76 6.07,-6.74 6.24,-6.71 C6.24,-6.71 6.24,-8.96 6.24,-8.96 C5.15,-8.96 4.06,-8.34 3.44,-7.56 C3.44,-7.56 3.44,-8.76 3.44,-8.76 C3.44,-8.76 1.14,-8.76 1.14,-8.76 C1.14,-8.76 1.14,0 1.14,0 C1.14,0 3.44,0 3.44,0z"/><g opacity="1" transform="matrix(0.18000000715255737,0,0,0.18000000715255737,0,0)"/></g></g></g><g stroke-linecap="butt" stroke-linejoin="round" stroke-miterlimit="4" transform="matrix(1,0,0,1,41.58000183105469,0)" opacity="1" style="display: inherit;"><g><g transform="matrix(1,0,0,1,0,0)" opacity="1" style="display: block;"><path d=" M5.11,-7.14 C6.63,-7.14 7.21,-6.04 7.27,-5.2 C7.27,-5.2 2.95,-5.2 2.95,-5.2 C3.06,-6.07 3.68,-7.14 5.11,-7.14z M0.58,-4.39 C0.58,-1.58 2.59,0.22 5.26,0.22 C6.62,0.22 7.98,-0.18 8.86,-1 C8.86,-1 7.85,-2.48 7.85,-2.48 C7.29,-1.94 6.33,-1.61 5.51,-1.61 C4.02,-1.61 3.14,-2.54 2.99,-3.64 C2.99,-3.64 9.5,-3.64 9.5,-3.64 C9.5,-3.64 9.5,-4.15 9.5,-4.15 C9.5,-7.02 7.72,-8.97 5.11,-8.97 C2.45,-8.97 0.58,-6.92 0.58,-4.39z"/><g opacity="1" transform="matrix(0.18000000715255737,0,0,0.18000000715255737,0,0)"/></g></g></g><g stroke-linecap="butt" stroke-linejoin="round" stroke-miterlimit="4" transform="matrix(1,0,0,1,51.534000396728516,0)" opacity="1" style="display: inherit;"><g><g transform="matrix(1,0,0,1,0,0)" opacity="1" style="display: block;"><path d=" M6.4,-2.1 C6.02,-1.6 5.29,-1.34 4.55,-1.34 C3.64,-1.34 2.9,-1.81 2.9,-2.63 C2.9,-3.46 3.64,-3.95 4.55,-3.95 C5.29,-3.95 6.02,-3.7 6.4,-3.19 C6.4,-3.19 6.4,-2.1 6.4,-2.1z M8.7,0 C8.7,0 8.7,-5.66 8.7,-5.66 C8.7,-8.18 6.87,-8.97 4.88,-8.97 C3.5,-8.97 2.12,-8.54 1.05,-7.6 C1.05,-7.6 1.92,-6.05 1.92,-6.05 C2.66,-6.74 3.53,-7.09 4.48,-7.09 C5.64,-7.09 6.4,-6.51 6.4,-5.62 C6.4,-5.62 6.4,-4.4 6.4,-4.4 C5.82,-5.11 4.79,-5.47 3.63,-5.47 C2.23,-5.47 0.58,-4.73 0.58,-2.68 C0.58,-0.73 2.23,0.22 3.63,0.22 C4.77,0.22 5.8,-0.2 6.4,-0.91 C6.4,-0.91 6.4,0 6.4,0 C6.4,0 8.7,0 8.7,0z"/><g opacity="1" transform="matrix(0.18000000715255737,0,0,0.18000000715255737,0,0)"/></g></g></g><g stroke-linecap="butt" stroke-linejoin="round" stroke-miterlimit="4" transform="matrix(1,0,0,1,61.30799865722656,0)" opacity="1" style="display: inherit;"><g><g transform="matrix(1,0,0,1,0,0)" opacity="1" style="display: block;"><path d=" M4.08,0.22 C5.04,0.22 5.66,-0.04 6,-0.34 C6,-0.34 5.51,-2.08 5.51,-2.08 C5.38,-1.96 5.06,-1.83 4.71,-1.83 C4.21,-1.83 3.92,-2.25 3.92,-2.79 C3.92,-2.79 3.92,-6.74 3.92,-6.74 C3.92,-6.74 5.69,-6.74 5.69,-6.74 C5.69,-6.74 5.69,-8.76 5.69,-8.76 C5.69,-8.76 3.92,-8.76 3.92,-8.76 C3.92,-8.76 3.92,-11.15 3.92,-11.15 C3.92,-11.15 1.6,-11.15 1.6,-11.15 C1.6,-11.15 1.6,-8.76 1.6,-8.76 C1.6,-8.76 0.15,-8.76 0.15,-8.76 C0.15,-8.76 0.15,-6.74 0.15,-6.74 C0.15,-6.74 1.6,-6.74 1.6,-6.74 C1.6,-6.74 1.6,-2.18 1.6,-2.18 C1.6,-0.62 2.47,0.22 4.08,0.22z"/><g opacity="1" transform="matrix(0.18000000715255737,0,0,0.18000000715255737,0,0)"/></g></g></g><g stroke-linecap="butt" stroke-linejoin="round" stroke-miterlimit="4" transform="matrix(1,0,0,1,67.39199829101562,0)" opacity="1" style="display: inherit;"><g><g transform="matrix(1,0,0,1,0,0)" opacity="1" style="display: block;"><path d=" M3.44,0 C3.44,0 3.44,-8.76 3.44,-8.76 C3.44,-8.76 1.14,-8.76 1.14,-8.76 C1.14,-8.76 1.14,0 1.14,0 C1.14,0 3.44,0 3.44,0z M2.28,-10.04 C3.05,-10.04 3.66,-10.66 3.66,-11.42 C3.66,-12.18 3.05,-12.8 2.28,-12.8 C1.54,-12.8 0.91,-12.18 0.91,-11.42 C0.91,-10.66 1.54,-10.04 2.28,-10.04z"/><g opacity="1" transform="matrix(0.18000000715255737,0,0,0.18000000715255737,0,0)"/></g></g></g><g stroke-linecap="butt" stroke-linejoin="round" stroke-miterlimit="4" transform="matrix(1,0,0,1,71.94599914550781,0)" opacity="1" style="display: inherit;"><g><g transform="matrix(1,0,0,1,0,0)" opacity="1" style="display: block;"><path d=" M7.16,-2.83 C6.76,-2.25 5.95,-1.83 5.17,-1.83 C3.86,-1.83 2.95,-2.86 2.95,-4.37 C2.95,-5.89 3.86,-6.92 5.17,-6.92 C5.95,-6.92 6.76,-6.51 7.16,-5.93 C7.16,-5.93 7.16,-2.83 7.16,-2.83z M9.48,0 C9.48,0 9.48,-12.09 9.48,-12.09 C9.48,-12.09 7.16,-12.09 7.16,-12.09 C7.16,-12.09 7.16,-7.63 7.16,-7.63 C6.47,-8.52 5.49,-8.97 4.46,-8.97 C2.23,-8.97 0.58,-7.23 0.58,-4.37 C0.58,-1.45 2.25,0.22 4.46,0.22 C5.51,0.22 6.47,-0.25 7.16,-1.11 C7.16,-1.11 7.16,0 7.16,0 C7.16,0 9.48,0 9.48,0z"/><g opacity="1" transform="matrix(0.18000000715255737,0,0,0.18000000715255737,0,0)"/></g></g></g><g stroke-linecap="butt" stroke-linejoin="round" stroke-miterlimit="4" transform="matrix(1,0,0,1,82.4939956665039,0)" opacity="1" style="display: inherit;"><g><g transform="matrix(1,0,0,1,0,0)" opacity="1" style="display: block;"><path d=" M5.11,-7.14 C6.63,-7.14 7.21,-6.04 7.27,-5.2 C7.27,-5.2 2.95,-5.2 2.95,-5.2 C3.06,-6.07 3.68,-7.14 5.11,-7.14z M0.58,-4.39 C0.58,-1.58 2.59,0.22 5.26,0.22 C6.62,0.22 7.98,-0.18 8.86,-1 C8.86,-1 7.85,-2.48 7.85,-2.48 C7.29,-1.94 6.33,-1.61 5.51,-1.61 C4.02,-1.61 3.14,-2.54 2.99,-3.64 C2.99,-3.64 9.5,-3.64 9.5,-3.64 C9.5,-3.64 9.5,-4.15 9.5,-4.15 C9.5,-7.02 7.72,-8.97 5.11,-8.97 C2.45,-8.97 0.58,-6.92 0.58,-4.39z"/><g opacity="1" transform="matrix(0.18000000715255737,0,0,0.18000000715255737,0,0)"/></g></g></g><g stroke-linecap="butt" stroke-linejoin="round" stroke-miterlimit="4" transform="matrix(1,0,0,1,92.447998046875,0)" opacity="1" style="display: inherit;"><g><g transform="matrix(1,0,0,1,0,0)" opacity="1" style="display: block;"><path d=" M6.4,-2.1 C6.02,-1.6 5.29,-1.34 4.55,-1.34 C3.64,-1.34 2.9,-1.81 2.9,-2.63 C2.9,-3.46 3.64,-3.95 4.55,-3.95 C5.29,-3.95 6.02,-3.7 6.4,-3.19 C6.4,-3.19 6.4,-2.1 6.4,-2.1z M8.7,0 C8.7,0 8.7,-5.66 8.7,-5.66 C8.7,-8.18 6.87,-8.97 4.88,-8.97 C3.5,-8.97 2.12,-8.54 1.05,-7.6 C1.05,-7.6 1.92,-6.05 1.92,-6.05 C2.66,-6.74 3.53,-7.09 4.48,-7.09 C5.64,-7.09 6.4,-6.51 6.4,-5.62 C6.4,-5.62 6.4,-4.4 6.4,-4.4 C5.82,-5.11 4.79,-5.47 3.63,-5.47 C2.23,-5.47 0.58,-4.73 0.58,-2.68 C0.58,-0.73 2.23,0.22 3.63,0.22 C4.77,0.22 5.8,-0.2 6.4,-0.91 C6.4,-0.91 6.4,0 6.4,0 C6.4,0 8.7,0 8.7,0z"/><g opacity="1" transform="matrix(0.18000000715255737,0,0,0.18000000715255737,0,0)"/></g></g></g><g stroke-linecap="butt" stroke-linejoin="round" stroke-miterlimit="4" transform="matrix(1,0,0,1,102.22200012207031,0)" opacity="1" style="display: inherit;"><g><g transform="matrix(1,0,0,1,0,0)" opacity="1" style="display: block;"><path d=" M0.85,-1.27 C0.85,-0.47 1.52,0.2 2.32,0.2 C3.12,0.2 3.79,-0.47 3.79,-1.27 C3.79,-2.07 3.12,-2.74 2.32,-2.74 C1.52,-2.74 0.85,-2.07 0.85,-1.27z"/><g opacity="1" transform="matrix(0.18000000715255737,0,0,0.18000000715255737,0,0)"/></g></g></g><g stroke-linecap="butt" stroke-linejoin="round" stroke-miterlimit="4" transform="matrix(1,0,0,1,106.82999420166016,0)" opacity="1" style="display: inherit;"><g><g transform="matrix(1,0,0,1,0,0)" opacity="1" style="display: block;"><path d=" M0.58,-4.39 C0.58,-1.69 2.52,0.22 5.22,0.22 C7.02,0.22 8.1,-0.56 8.68,-1.38 C8.68,-1.38 7.18,-2.77 7.18,-2.77 C6.76,-2.19 6.13,-1.83 5.33,-1.83 C3.93,-1.83 2.95,-2.86 2.95,-4.39 C2.95,-5.91 3.93,-6.92 5.33,-6.92 C6.13,-6.92 6.76,-6.58 7.18,-5.98 C7.18,-5.98 8.68,-7.38 8.68,-7.38 C8.1,-8.19 7.02,-8.97 5.22,-8.97 C2.52,-8.97 0.58,-7.07 0.58,-4.39z"/><g opacity="1" transform="matrix(0.18000000715255737,0,0,0.18000000715255737,0,0)"/></g></g></g><g stroke-linecap="butt" stroke-linejoin="round" stroke-miterlimit="4" transform="matrix(1,0,0,1,115.81200408935547,0)" opacity="1" style="display: inherit;"><g><g transform="matrix(1,0,0,1,0,0)" opacity="1" style="display: block;"><path d=" M5.2,-1.83 C3.77,-1.83 2.97,-3.01 2.97,-4.39 C2.97,-5.75 3.77,-6.92 5.2,-6.92 C6.63,-6.92 7.45,-5.75 7.45,-4.39 C7.45,-3.01 6.63,-1.83 5.2,-1.83z M5.2,0.22 C8.1,0.22 9.84,-1.89 9.84,-4.39 C9.84,-6.87 8.1,-8.97 5.2,-8.97 C2.32,-8.97 0.58,-6.87 0.58,-4.39 C0.58,-1.89 2.32,0.22 5.2,0.22z"/><g opacity="1" transform="matrix(0.18000000715255737,0,0,0.18000000715255737,0,0)"/></g></g></g><g stroke-linecap="butt" stroke-linejoin="round" stroke-miterlimit="4" transform="matrix(1,0,0,1,126.14399719238281,0)" opacity="1" style="display: inherit;"><g><g transform="matrix(1,0,0,1,0,0)" opacity="1" style="display: block;"><path d=" M14.32,0 C14.32,0 14.32,-6.33 14.32,-6.33 C14.32,-8.12 13.36,-8.97 11.75,-8.97 C10.41,-8.97 9.24,-8.18 8.74,-7.38 C8.41,-8.37 7.6,-8.97 6.31,-8.97 C4.97,-8.97 3.81,-8.14 3.44,-7.61 C3.44,-7.61 3.44,-8.76 3.44,-8.76 C3.44,-8.76 1.14,-8.76 1.14,-8.76 C1.14,-8.76 1.14,0 1.14,0 C1.14,0 3.44,0 3.44,0 C3.44,0 3.44,-5.89 3.44,-5.89 C3.79,-6.38 4.46,-6.92 5.26,-6.92 C6.2,-6.92 6.56,-6.34 6.56,-5.53 C6.56,-5.53 6.56,0 6.56,0 C6.56,0 8.88,0 8.88,0 C8.88,0 8.88,-5.91 8.88,-5.91 C9.21,-6.38 9.88,-6.92 10.7,-6.92 C11.64,-6.92 12,-6.34 12,-5.53 C12,-5.53 12,0 12,0 C12,0 14.32,0 14.32,0z"/><g opacity="1" transform="matrix(0.18000000715255737,0,0,0.18000000715255737,0,0)"/></g></g></g></g><g class="com" transform="matrix(1.100000023841858,0,0,1.100000023841858,63.92499923706055,194.875)" opacity="1" fill="rgb(255,255,255)" font-size="18" font-family="Proxima Nova" font-style="normal" font-weight="700" aria-label="mygreatidea.com" style="display: block;"><g stroke-linecap="butt" stroke-linejoin="round" stroke-miterlimit="4" transform="matrix(1,0,0,1,0,0)" opacity="0" style="display: inherit;"><g><g transform="matrix(1,0,0,1,0,0)" opacity="1" style="display: block;"><path d=" M14.32,0 C14.32,0 14.32,-6.33 14.32,-6.33 C14.32,-8.12 13.36,-8.97 11.75,-8.97 C10.41,-8.97 9.24,-8.18 8.74,-7.38 C8.41,-8.37 7.6,-8.97 6.31,-8.97 C4.97,-8.97 3.81,-8.14 3.44,-7.61 C3.44,-7.61 3.44,-8.76 3.44,-8.76 C3.44,-8.76 1.14,-8.76 1.14,-8.76 C1.14,-8.76 1.14,0 1.14,0 C1.14,0 3.44,0 3.44,0 C3.44,0 3.44,-5.89 3.44,-5.89 C3.79,-6.38 4.46,-6.92 5.26,-6.92 C6.2,-6.92 6.56,-6.34 6.56,-5.53 C6.56,-5.53 6.56,0 6.56,0 C6.56,0 8.88,0 8.88,0 C8.88,0 8.88,-5.91 8.88,-5.91 C9.21,-6.38 9.88,-6.92 10.7,-6.92 C11.64,-6.92 12,-6.34 12,-5.53 C12,-5.53 12,0 12,0 C12,0 14.32,0 14.32,0z"/><g opacity="1" transform="matrix(0.18000000715255737,0,0,0.18000000715255737,0,0)"/></g></g></g><g stroke-linecap="butt" stroke-linejoin="round" stroke-miterlimit="4" transform="matrix(1,0,0,1,15.335999488830566,0)" opacity="0" style="display: inherit;"><g><g transform="matrix(1,0,0,1,0,0)" opacity="1" style="display: block;"><path d=" M0.83,3.43 C1.12,3.5 1.7,3.55 1.98,3.55 C3.48,3.52 4.64,3.08 5.29,1.43 C5.29,1.43 9.41,-8.76 9.41,-8.76 C9.41,-8.76 6.92,-8.76 6.92,-8.76 C6.92,-8.76 4.64,-2.66 4.64,-2.66 C4.64,-2.66 2.36,-8.76 2.36,-8.76 C2.36,-8.76 -0.11,-8.76 -0.11,-8.76 C-0.11,-8.76 3.44,0.13 3.44,0.13 C3.44,0.13 3.12,0.87 3.12,0.87 C2.9,1.34 2.5,1.5 1.9,1.5 C1.69,1.5 1.38,1.45 1.18,1.36 C1.18,1.36 0.83,3.43 0.83,3.43z"/><g opacity="1" transform="matrix(0.18000000715255737,0,0,0.18000000715255737,0,0)"/></g></g></g><g stroke-linecap="butt" stroke-linejoin="round" stroke-miterlimit="4" transform="matrix(1,0,0,1,24.56999969482422,0)" opacity="0" style="display: inherit;"><g><g transform="matrix(1,0,0,1,0,0)" opacity="1" style="display: block;"><path d=" M7.14,-3.1 C6.76,-2.54 5.93,-2.1 5.17,-2.1 C3.86,-2.1 2.95,-3.01 2.95,-4.51 C2.95,-6.02 3.86,-6.92 5.17,-6.92 C5.93,-6.92 6.76,-6.51 7.14,-5.93 C7.14,-5.93 7.14,-3.1 7.14,-3.1z M0.96,2.25 C2.05,3.21 3.23,3.55 4.73,3.55 C6.89,3.55 9.46,2.74 9.46,-0.6 C9.46,-0.6 9.46,-8.76 9.46,-8.76 C9.46,-8.76 7.14,-8.76 7.14,-8.76 C7.14,-8.76 7.14,-7.63 7.14,-7.63 C6.44,-8.52 5.49,-8.97 4.44,-8.97 C2.23,-8.97 0.58,-7.38 0.58,-4.51 C0.58,-1.6 2.25,-0.05 4.44,-0.05 C5.51,-0.05 6.45,-0.56 7.14,-1.43 C7.14,-1.43 7.14,-0.54 7.14,-0.54 C7.14,1.18 5.84,1.67 4.73,1.67 C3.63,1.67 2.7,1.36 1.99,0.58 C1.99,0.58 0.96,2.25 0.96,2.25z"/><g opacity="1" transform="matrix(0.18000000715255737,0,0,0.18000000715255737,0,0)"/></g></g></g><g stroke-linecap="butt" stroke-linejoin="round" stroke-miterlimit="4" transform="matrix(1,0,0,1,35.10000228881836,0)" opacity="0" style="display: inherit;"><g><g transform="matrix(1,0,0,1,0,0)" opacity="1" style="display: block;"><path d=" M3.44,0 C3.44,0 3.44,-5.78 3.44,-5.78 C3.83,-6.34 4.84,-6.76 5.6,-6.76 C5.86,-6.76 6.07,-6.74 6.24,-6.71 C6.24,-6.71 6.24,-8.96 6.24,-8.96 C5.15,-8.96 4.06,-8.34 3.44,-7.56 C3.44,-7.56 3.44,-8.76 3.44,-8.76 C3.44,-8.76 1.14,-8.76 1.14,-8.76 C1.14,-8.76 1.14,0 1.14,0 C1.14,0 3.44,0 3.44,0z"/><g opacity="1" transform="matrix(0.18000000715255737,0,0,0.18000000715255737,0,0)"/></g></g></g><g stroke-linecap="butt" stroke-linejoin="round" stroke-miterlimit="4" transform="matrix(1,0,0,1,41.58000183105469,0)" opacity="0" style="display: inherit;"><g><g transform="matrix(1,0,0,1,0,0)" opacity="1" style="display: block;"><path d=" M5.11,-7.14 C6.63,-7.14 7.21,-6.04 7.27,-5.2 C7.27,-5.2 2.95,-5.2 2.95,-5.2 C3.06,-6.07 3.68,-7.14 5.11,-7.14z M0.58,-4.39 C0.58,-1.58 2.59,0.22 5.26,0.22 C6.62,0.22 7.98,-0.18 8.86,-1 C8.86,-1 7.85,-2.48 7.85,-2.48 C7.29,-1.94 6.33,-1.61 5.51,-1.61 C4.02,-1.61 3.14,-2.54 2.99,-3.64 C2.99,-3.64 9.5,-3.64 9.5,-3.64 C9.5,-3.64 9.5,-4.15 9.5,-4.15 C9.5,-7.02 7.72,-8.97 5.11,-8.97 C2.45,-8.97 0.58,-6.92 0.58,-4.39z"/><g opacity="1" transform="matrix(0.18000000715255737,0,0,0.18000000715255737,0,0)"/></g></g></g><g stroke-linecap="butt" stroke-linejoin="round" stroke-miterlimit="4" transform="matrix(1,0,0,1,51.534000396728516,0)" opacity="0" style="display: inherit;"><g><g transform="matrix(1,0,0,1,0,0)" opacity="1" style="display: block;"><path d=" M6.4,-2.1 C6.02,-1.6 5.29,-1.34 4.55,-1.34 C3.64,-1.34 2.9,-1.81 2.9,-2.63 C2.9,-3.46 3.64,-3.95 4.55,-3.95 C5.29,-3.95 6.02,-3.7 6.4,-3.19 C6.4,-3.19 6.4,-2.1 6.4,-2.1z M8.7,0 C8.7,0 8.7,-5.66 8.7,-5.66 C8.7,-8.18 6.87,-8.97 4.88,-8.97 C3.5,-8.97 2.12,-8.54 1.05,-7.6 C1.05,-7.6 1.92,-6.05 1.92,-6.05 C2.66,-6.74 3.53,-7.09 4.48,-7.09 C5.64,-7.09 6.4,-6.51 6.4,-5.62 C6.4,-5.62 6.4,-4.4 6.4,-4.4 C5.82,-5.11 4.79,-5.47 3.63,-5.47 C2.23,-5.47 0.58,-4.73 0.58,-2.68 C0.58,-0.73 2.23,0.22 3.63,0.22 C4.77,0.22 5.8,-0.2 6.4,-0.91 C6.4,-0.91 6.4,0 6.4,0 C6.4,0 8.7,0 8.7,0z"/><g opacity="1" transform="matrix(0.18000000715255737,0,0,0.18000000715255737,0,0)"/></g></g></g><g stroke-linecap="butt" stroke-linejoin="round" stroke-miterlimit="4" transform="matrix(1,0,0,1,61.30799865722656,0)" opacity="0" style="display: inherit;"><g><g transform="matrix(1,0,0,1,0,0)" opacity="1" style="display: block;"><path d=" M4.08,0.22 C5.04,0.22 5.66,-0.04 6,-0.34 C6,-0.34 5.51,-2.08 5.51,-2.08 C5.38,-1.96 5.06,-1.83 4.71,-1.83 C4.21,-1.83 3.92,-2.25 3.92,-2.79 C3.92,-2.79 3.92,-6.74 3.92,-6.74 C3.92,-6.74 5.69,-6.74 5.69,-6.74 C5.69,-6.74 5.69,-8.76 5.69,-8.76 C5.69,-8.76 3.92,-8.76 3.92,-8.76 C3.92,-8.76 3.92,-11.15 3.92,-11.15 C3.92,-11.15 1.6,-11.15 1.6,-11.15 C1.6,-11.15 1.6,-8.76 1.6,-8.76 C1.6,-8.76 0.15,-8.76 0.15,-8.76 C0.15,-8.76 0.15,-6.74 0.15,-6.74 C0.15,-6.74 1.6,-6.74 1.6,-6.74 C1.6,-6.74 1.6,-2.18 1.6,-2.18 C1.6,-0.62 2.47,0.22 4.08,0.22z"/><g opacity="1" transform="matrix(0.18000000715255737,0,0,0.18000000715255737,0,0)"/></g></g></g><g stroke-linecap="butt" stroke-linejoin="round" stroke-miterlimit="4" transform="matrix(1,0,0,1,67.39199829101562,0)" opacity="0" style="display: inherit;"><g><g transform="matrix(1,0,0,1,0,0)" opacity="1" style="display: block;"><path d=" M3.44,0 C3.44,0 3.44,-8.76 3.44,-8.76 C3.44,-8.76 1.14,-8.76 1.14,-8.76 C1.14,-8.76 1.14,0 1.14,0 C1.14,0 3.44,0 3.44,0z M2.28,-10.04 C3.05,-10.04 3.66,-10.66 3.66,-11.42 C3.66,-12.18 3.05,-12.8 2.28,-12.8 C1.54,-12.8 0.91,-12.18 0.91,-11.42 C0.91,-10.66 1.54,-10.04 2.28,-10.04z"/><g opacity="1" transform="matrix(0.18000000715255737,0,0,0.18000000715255737,0,0)"/></g></g></g><g stroke-linecap="butt" stroke-linejoin="round" stroke-miterlimit="4" transform="matrix(1,0,0,1,71.94599914550781,0)" opacity="0" style="display: inherit;"><g><g transform="matrix(1,0,0,1,0,0)" opacity="1" style="display: block;"><path d=" M7.16,-2.83 C6.76,-2.25 5.95,-1.83 5.17,-1.83 C3.86,-1.83 2.95,-2.86 2.95,-4.37 C2.95,-5.89 3.86,-6.92 5.17,-6.92 C5.95,-6.92 6.76,-6.51 7.16,-5.93 C7.16,-5.93 7.16,-2.83 7.16,-2.83z M9.48,0 C9.48,0 9.48,-12.09 9.48,-12.09 C9.48,-12.09 7.16,-12.09 7.16,-12.09 C7.16,-12.09 7.16,-7.63 7.16,-7.63 C6.47,-8.52 5.49,-8.97 4.46,-8.97 C2.23,-8.97 0.58,-7.23 0.58,-4.37 C0.58,-1.45 2.25,0.22 4.46,0.22 C5.51,0.22 6.47,-0.25 7.16,-1.11 C7.16,-1.11 7.16,0 7.16,0 C7.16,0 9.48,0 9.48,0z"/><g opacity="1" transform="matrix(0.18000000715255737,0,0,0.18000000715255737,0,0)"/></g></g></g><g stroke-linecap="butt" stroke-linejoin="round" stroke-miterlimit="4" transform="matrix(1,0,0,1,82.4939956665039,0)" opacity="0" style="display: inherit;"><g><g transform="matrix(1,0,0,1,0,0)" opacity="1" style="display: block;"><path d=" M5.11,-7.14 C6.63,-7.14 7.21,-6.04 7.27,-5.2 C7.27,-5.2 2.95,-5.2 2.95,-5.2 C3.06,-6.07 3.68,-7.14 5.11,-7.14z M0.58,-4.39 C0.58,-1.58 2.59,0.22 5.26,0.22 C6.62,0.22 7.98,-0.18 8.86,-1 C8.86,-1 7.85,-2.48 7.85,-2.48 C7.29,-1.94 6.33,-1.61 5.51,-1.61 C4.02,-1.61 3.14,-2.54 2.99,-3.64 C2.99,-3.64 9.5,-3.64 9.5,-3.64 C9.5,-3.64 9.5,-4.15 9.5,-4.15 C9.5,-7.02 7.72,-8.97 5.11,-8.97 C2.45,-8.97 0.58,-6.92 0.58,-4.39z"/><g opacity="1" transform="matrix(0.18000000715255737,0,0,0.18000000715255737,0,0)"/></g></g></g><g stroke-linecap="butt" stroke-linejoin="round" stroke-miterlimit="4" transform="matrix(1,0,0,1,92.447998046875,0)" opacity="0" style="display: inherit;"><g><g transform="matrix(1,0,0,1,0,0)" opacity="1" style="display: block;"><path d=" M6.4,-2.1 C6.02,-1.6 5.29,-1.34 4.55,-1.34 C3.64,-1.34 2.9,-1.81 2.9,-2.63 C2.9,-3.46 3.64,-3.95 4.55,-3.95 C5.29,-3.95 6.02,-3.7 6.4,-3.19 C6.4,-3.19 6.4,-2.1 6.4,-2.1z M8.7,0 C8.7,0 8.7,-5.66 8.7,-5.66 C8.7,-8.18 6.87,-8.97 4.88,-8.97 C3.5,-8.97 2.12,-8.54 1.05,-7.6 C1.05,-7.6 1.92,-6.05 1.92,-6.05 C2.66,-6.74 3.53,-7.09 4.48,-7.09 C5.64,-7.09 6.4,-6.51 6.4,-5.62 C6.4,-5.62 6.4,-4.4 6.4,-4.4 C5.82,-5.11 4.79,-5.47 3.63,-5.47 C2.23,-5.47 0.58,-4.73 0.58,-2.68 C0.58,-0.73 2.23,0.22 3.63,0.22 C4.77,0.22 5.8,-0.2 6.4,-0.91 C6.4,-0.91 6.4,0 6.4,0 C6.4,0 8.7,0 8.7,0z"/><g opacity="1" transform="matrix(0.18000000715255737,0,0,0.18000000715255737,0,0)"/></g></g></g><g stroke-linecap="butt" stroke-linejoin="round" stroke-miterlimit="4" transform="matrix(1,0,0,1,102.22200012207031,0)" opacity="0" style="display: inherit;"><g><g transform="matrix(1,0,0,1,0,0)" opacity="1" style="display: block;"><path d=" M0.85,-1.27 C0.85,-0.47 1.52,0.2 2.32,0.2 C3.12,0.2 3.79,-0.47 3.79,-1.27 C3.79,-2.07 3.12,-2.74 2.32,-2.74 C1.52,-2.74 0.85,-2.07 0.85,-1.27z"/><g opacity="1" transform="matrix(0.18000000715255737,0,0,0.18000000715255737,0,0)"/></g></g></g><g stroke-linecap="butt" stroke-linejoin="round" stroke-miterlimit="4" transform="matrix(1,0,0,1,106.82999420166016,0)" opacity="0" style="display: inherit;"><g><g transform="matrix(1,0,0,1,0,0)" opacity="1" style="display: block;"><path d=" M0.58,-4.39 C0.58,-1.69 2.52,0.22 5.22,0.22 C7.02,0.22 8.1,-0.56 8.68,-1.38 C8.68,-1.38 7.18,-2.77 7.18,-2.77 C6.76,-2.19 6.13,-1.83 5.33,-1.83 C3.93,-1.83 2.95,-2.86 2.95,-4.39 C2.95,-5.91 3.93,-6.92 5.33,-6.92 C6.13,-6.92 6.76,-6.58 7.18,-5.98 C7.18,-5.98 8.68,-7.38 8.68,-7.38 C8.1,-8.19 7.02,-8.97 5.22,-8.97 C2.52,-8.97 0.58,-7.07 0.58,-4.39z"/><g opacity="1" transform="matrix(0.18000000715255737,0,0,0.18000000715255737,0,0)"/></g></g></g><g stroke-linecap="butt" stroke-linejoin="round" stroke-miterlimit="4" transform="matrix(1,0,0,1,115.81200408935547,0)" opacity="0" style="display: inherit;"><g><g transform="matrix(1,0,0,1,0,0)" opacity="1" style="display: block;"><path d=" M5.2,-1.83 C3.77,-1.83 2.97,-3.01 2.97,-4.39 C2.97,-5.75 3.77,-6.92 5.2,-6.92 C6.63,-6.92 7.45,-5.75 7.45,-4.39 C7.45,-3.01 6.63,-1.83 5.2,-1.83z M5.2,0.22 C8.1,0.22 9.84,-1.89 9.84,-4.39 C9.84,-6.87 8.1,-8.97 5.2,-8.97 C2.32,-8.97 0.58,-6.87 0.58,-4.39 C0.58,-1.89 2.32,0.22 5.2,0.22z"/><g opacity="1" transform="matrix(0.18000000715255737,0,0,0.18000000715255737,0,0)"/></g></g></g><g stroke-linecap="butt" stroke-linejoin="round" stroke-miterlimit="4" transform="matrix(1,0,0,1,126.14399719238281,0)" opacity="0" style="display: inherit;"><g><g transform="matrix(1,0,0,1,0,0)" opacity="1" style="display: block;"><path d=" M14.32,0 C14.32,0 14.32,-6.33 14.32,-6.33 C14.32,-8.12 13.36,-8.97 11.75,-8.97 C10.41,-8.97 9.24,-8.18 8.74,-7.38 C8.41,-8.37 7.6,-8.97 6.31,-8.97 C4.97,-8.97 3.81,-8.14 3.44,-7.61 C3.44,-7.61 3.44,-8.76 3.44,-8.76 C3.44,-8.76 1.14,-8.76 1.14,-8.76 C1.14,-8.76 1.14,0 1.14,0 C1.14,0 3.44,0 3.44,0 C3.44,0 3.44,-5.89 3.44,-5.89 C3.79,-6.38 4.46,-6.92 5.26,-6.92 C6.2,-6.92 6.56,-6.34 6.56,-5.53 C6.56,-5.53 6.56,0 6.56,0 C6.56,0 8.88,0 8.88,0 C8.88,0 8.88,-5.91 8.88,-5.91 C9.21,-6.38 9.88,-6.92 10.7,-6.92 C11.64,-6.92 12,-6.34 12,-5.53 C12,-5.53 12,0 12,0 C12,0 14.32,0 14.32,0z"/><g opacity="1" transform="matrix(0.18000000715255737,0,0,0.18000000715255737,0,0)"/></g></g></g></g><g style="display: none;"><g><path/></g></g><g class="com" style="display: none;"/><g style="display: none;"><g><path/></g></g><g mask="url(#__lottie_element_3_1)" style="display: none;"><g class="com"/></g></g></svg>