<?xml version="1.0" encoding="UTF-8"?><svg id="uuid-4d00cce6-6a0c-4e50-9ea4-9355bd11cc74" xmlns="http://www.w3.org/2000/svg" width="982" height="721" xmlns:xlink="http://www.w3.org/1999/xlink" viewBox="0 0 982 721"><defs><linearGradient id="uuid-1e1acc43-b867-4a67-aabb-b7222f097024" x1="11706.1797" y1="7167.3054" x2="12163.4312" y2="7167.3054" gradientTransform="translate(-11707.0855 7660.4001) scale(1 -1)" gradientUnits="userSpaceOnUse"><stop offset=".1" stop-color="#fff"/><stop offset=".3038" stop-color="#fcfcfc"/><stop offset=".4264" stop-color="#f4f4f4"/><stop offset=".5275" stop-color="#e5e5e5"/><stop offset=".6169" stop-color="#d1d1d1"/><stop offset=".6987" stop-color="#b7b7b7"/><stop offset=".7749" stop-color="#969696"/><stop offset=".8467" stop-color="#707070"/><stop offset=".9151" stop-color="#434343"/><stop offset=".9785" stop-color="#121212"/><stop offset="1" stop-color="#000"/></linearGradient><linearGradient id="uuid-08aba452-86b5-4152-a9cb-8620ffe13593" x1="1439.9549" y1="2148.2316" x2="1439.9549" y2="1697.3891" gradientTransform="translate(-1212.2194 -1431.7156)" gradientUnits="userSpaceOnUse"><stop offset="0" stop-color="#fff"/><stop offset=".0551" stop-color="#fff" stop-opacity=".797"/><stop offset=".1195" stop-color="#fff" stop-opacity=".5881"/><stop offset=".1848" stop-color="#fff" stop-opacity=".4079"/><stop offset=".2496" stop-color="#fff" stop-opacity=".2609"/><stop offset=".3138" stop-color="#fff" stop-opacity=".1466"/><stop offset=".3773" stop-color="#fff" stop-opacity=".0652"/><stop offset=".4398" stop-color="#fff" stop-opacity=".0164"/><stop offset=".5" stop-color="#fff" stop-opacity="0"/></linearGradient><mask id="uuid-ac5f917c-fb49-497b-afcd-f7955c7ba2d7" x="2.3143" y="265.6735" width="450.8424" height="450.8424" maskUnits="userSpaceOnUse"><rect x="2.3143" y="265.6735" width="450.8424" height="450.8424" transform="translate(455.471 982.1895) rotate(180)" fill="url(#uuid-08aba452-86b5-4152-a9cb-8620ffe13593)"/></mask><mask id="uuid-f49865f3-7903-4976-8665-3340e97e8141" x="2.3143" y="265.6735" width="450.8424" height="450.8424" maskUnits="userSpaceOnUse"><rect x="2.3143" y="265.6735" width="450.8424" height="450.8424" transform="translate(455.471 982.1895) rotate(180)" fill="url(#uuid-08aba452-86b5-4152-a9cb-8620ffe13593)"/></mask><linearGradient id="uuid-2d211dd2-973b-4d4f-ad6a-a5509b098c46" x1="2189.988" y1="1216.631" x2="2189.988" y2="706.0289" gradientTransform="translate(-1932.3727 -496.926)" xlink:href="#uuid-08aba452-86b5-4152-a9cb-8620ffe13593"/><mask id="uuid-e135cd6c-c435-4398-90f0-62deee82ec1f" x="2.3143" y="209.1029" width="510.602" height="510.602" maskUnits="userSpaceOnUse"><rect x="2.3143" y="209.1029" width="510.602" height="510.602" transform="translate(-206.7887 722.0192) rotate(-90)" fill="url(#uuid-2d211dd2-973b-4d4f-ad6a-a5509b098c46)"/></mask><mask id="uuid-b8447b22-7243-4478-ae36-4acb7b87ca2d" x="-.9058" y="209.1029" width="513.8221" height="512.6176" maskUnits="userSpaceOnUse"><rect x="-.9058" y="264.469" width="457.2515" height="457.2515" fill="url(#uuid-1e1acc43-b867-4a67-aabb-b7222f097024)"/><g mask="url(#uuid-ac5f917c-fb49-497b-afcd-f7955c7ba2d7)"><rect x="2.3143" y="265.6735" width="450.8424" height="450.8424" rx="57.9655" ry="57.9655" transform="translate(455.471 982.1895) rotate(180)"/></g><g mask="url(#uuid-f49865f3-7903-4976-8665-3340e97e8141)"><rect x="2.3143" y="265.6735" width="450.8424" height="450.8424" rx="57.9655" ry="57.9655" transform="translate(455.471 982.1895) rotate(180)"/></g><g mask="url(#uuid-e135cd6c-c435-4398-90f0-62deee82ec1f)"><rect x="2.3143" y="209.1029" width="510.602" height="510.602" rx="65.6488" ry="65.6488" transform="translate(-206.7887 722.0192) rotate(-90)"/></g></mask><linearGradient id="uuid-cbcb3291-da35-4a67-a708-cd5d164af176" x1="12932.2387" y1="5977.7261" x2="13486.802" y2="5977.7261" gradientTransform="translate(-12772.188 6263.3124) scale(1 -1)" xlink:href="#uuid-1e1acc43-b867-4a67-aabb-b7222f097024"/><linearGradient id="uuid-2d204ca3-7dcd-4987-b0a8-a53b1c43d059" x1="165.2367" y1="1007.0519" x2="165.2367" y2="460.2616" gradientTransform="translate(272.1145 -450.4961)" xlink:href="#uuid-08aba452-86b5-4152-a9cb-8620ffe13593"/><mask id="uuid-6fabba2b-ad73-459b-b29e-44222239d97f" x="163.956" y="9.7655" width="546.7903" height="546.7903" maskUnits="userSpaceOnUse"><rect x="163.956" y="9.7655" width="546.7903" height="546.7903" transform="translate(874.7023 566.3213) rotate(180)" fill="url(#uuid-2d204ca3-7dcd-4987-b0a8-a53b1c43d059)"/></mask><linearGradient id="uuid-69f165d5-f11b-4e0f-8d28-3b0c6b187401" x1="165.2367" y1="1007.0519" x2="165.2367" y2="460.2616" gradientTransform="translate(272.1145 -450.4961)" xlink:href="#uuid-08aba452-86b5-4152-a9cb-8620ffe13593"/><mask id="uuid-653fc4a1-1567-4e77-afcd-a11c33a36fc4" x="163.956" y="9.7655" width="546.7903" height="546.7903" maskUnits="userSpaceOnUse"><rect x="163.956" y="9.7655" width="546.7903" height="546.7903" transform="translate(874.7023 566.3213) rotate(180)" fill="url(#uuid-69f165d5-f11b-4e0f-8d28-3b0c6b187401)"/></mask><linearGradient id="uuid-9adba441-89f5-4f15-951b-274a22dbf5d4" x1="1006.5147" y1="2489.3432" x2="1006.5147" y2="1870.0754" gradientTransform="translate(-595.6226 -1928.9198)" xlink:href="#uuid-08aba452-86b5-4152-a9cb-8620ffe13593"/><mask id="uuid-bcd6c5ad-c532-490b-8a61-d41cfeb9e9e5" x="101.2581" y="-58.8444" width="619.2678" height="619.2678" maskUnits="userSpaceOnUse"><rect x="101.2581" y="-58.8444" width="619.2678" height="619.2678" transform="translate(160.1025 661.6816) rotate(-90)" fill="url(#uuid-9adba441-89f5-4f15-951b-274a22dbf5d4)"/></mask><linearGradient id="uuid-27ccbf1d-3edb-41af-8738-f7b6a3097910" x1="1006.5147" y1="2489.3432" x2="1006.5147" y2="1870.0754" gradientTransform="translate(-595.6226 -1928.9198)" xlink:href="#uuid-08aba452-86b5-4152-a9cb-8620ffe13593"/><mask id="uuid-114d3edc-961c-4876-8942-d1c590f7554a" x="101.2581" y="-58.8444" width="619.2678" height="619.2678" maskUnits="userSpaceOnUse"><rect x="101.2581" y="-58.8444" width="619.2678" height="619.2678" transform="translate(160.1025 661.6816) rotate(-90)" fill="url(#uuid-27ccbf1d-3edb-41af-8738-f7b6a3097910)"/></mask><linearGradient id="uuid-6c0fd08d-ca9f-42d8-b35e-e519d6f2797f" x1="1215.6541" y1="2636.8274" x2="1215.6541" y2="2017.5595" gradientTransform="translate(-882.332 -2098.5668)" xlink:href="#uuid-08aba452-86b5-4152-a9cb-8620ffe13593"/><mask id="uuid-463aad9b-cb6f-4752-868f-30d10a634a09" x="23.6882" y="-81.0072" width="619.2678" height="619.2678" maskUnits="userSpaceOnUse"><rect x="23.6882" y="-81.0072" width="619.2678" height="619.2678" transform="translate(666.6442 457.2534) rotate(180)" fill="url(#uuid-6c0fd08d-ca9f-42d8-b35e-e519d6f2797f)"/></mask><linearGradient id="uuid-e027efeb-1fc1-40fa-b444-66a620ef5c26" x1="1215.6541" y1="2636.8274" x2="1215.6541" y2="2017.5595" gradientTransform="translate(-882.332 -2098.5668)" xlink:href="#uuid-08aba452-86b5-4152-a9cb-8620ffe13593"/><mask id="uuid-0eb4690b-5602-47b5-b742-e47832a17a8b" x="23.6882" y="-81.0072" width="619.2678" height="619.2678" maskUnits="userSpaceOnUse"><rect x="23.6882" y="-81.0072" width="619.2678" height="619.2678" transform="translate(666.6442 457.2534) rotate(180)" fill="url(#uuid-e027efeb-1fc1-40fa-b444-66a620ef5c26)"/></mask><mask id="uuid-9e334bf2-fa0a-4fe5-ae3c-0e3e4a23d52d" x="23.6882" y="-81.0072" width="696.8378" height="643.8752" maskUnits="userSpaceOnUse"><rect x="160.0507" y="8.3046" width="554.5633" height="554.5633" fill="url(#uuid-cbcb3291-da35-4a67-a708-cd5d164af176)"/><g mask="url(#uuid-6fabba2b-ad73-459b-b29e-44222239d97f)"><rect x="163.956" y="9.7655" width="546.7903" height="546.7903" rx="70.3016" ry="70.3016" transform="translate(874.7023 566.3213) rotate(180)"/></g><g mask="url(#uuid-653fc4a1-1567-4e77-afcd-a11c33a36fc4)"><rect x="163.956" y="9.7655" width="546.7903" height="546.7903" rx="70.3016" ry="70.3016" transform="translate(874.7023 566.3213) rotate(180)"/></g><g mask="url(#uuid-bcd6c5ad-c532-490b-8a61-d41cfeb9e9e5)"><rect x="101.2581" y="-58.8444" width="619.2678" height="619.2678" rx="79.6202" ry="79.6202" transform="translate(160.1025 661.6816) rotate(-90)"/></g><g mask="url(#uuid-114d3edc-961c-4876-8942-d1c590f7554a)"><rect x="101.2581" y="-58.8444" width="619.2678" height="619.2678" rx="79.6202" ry="79.6202" transform="translate(160.1025 661.6816) rotate(-90)"/></g><g mask="url(#uuid-463aad9b-cb6f-4752-868f-30d10a634a09)"><rect x="23.6882" y="-81.0072" width="619.2678" height="619.2678" rx="79.6202" ry="79.6202" transform="translate(666.6442 457.2534) rotate(180)"/></g><g mask="url(#uuid-0eb4690b-5602-47b5-b742-e47832a17a8b)"><rect x="23.6882" y="-81.0072" width="619.2678" height="619.2678" rx="79.6202" ry="79.6202" transform="translate(666.6442 457.2534) rotate(180)"/></g></mask><linearGradient id="uuid-f40df1b7-ae92-4ca7-8685-7b4e87a0ad13" x1="12415.1797" y1="5720.292" x2="12872.4312" y2="5720.292" gradientTransform="translate(-11890.7967 5945.6977) scale(1 -1)" xlink:href="#uuid-1e1acc43-b867-4a67-aabb-b7222f097024"/><linearGradient id="uuid-cae65cc5-f9b1-4bff-934a-000f262f3375" x1="730.9549" y1="701.2183" x2="730.9549" y2="250.3758" gradientTransform="translate(22.0383 -248.3914)" xlink:href="#uuid-08aba452-86b5-4152-a9cb-8620ffe13593"/><mask id="uuid-bd9dfb1e-8f14-43c6-9aea-0307907e2bc3" x="527.5719" y="1.9844" width="450.8424" height="450.8424" maskUnits="userSpaceOnUse"><rect x="527.5719" y="1.9844" width="450.8424" height="450.8424" fill="url(#uuid-cae65cc5-f9b1-4bff-934a-000f262f3375)"/></mask><linearGradient id="uuid-3aedf569-6c0f-44ed-a8b2-54b20250a985" x1="730.9549" y1="701.2183" x2="730.9549" y2="250.3758" gradientTransform="translate(22.0383 -248.3914)" xlink:href="#uuid-08aba452-86b5-4152-a9cb-8620ffe13593"/><mask id="uuid-98391b3f-3597-49a4-962c-77e1078e9f75" x="527.5719" y="1.9844" width="450.8424" height="450.8424" maskUnits="userSpaceOnUse"><rect x="527.5719" y="1.9844" width="450.8424" height="450.8424" fill="url(#uuid-3aedf569-6c0f-44ed-a8b2-54b20250a985)"/></mask><linearGradient id="uuid-215e91cd-3b32-4971-a45e-cb40c9e52585" x1="742.9746" y1="1925.631" x2="742.9746" y2="1415.029" gradientTransform="translate(-19.8613 -1416.2335)" xlink:href="#uuid-08aba452-86b5-4152-a9cb-8620ffe13593"/><mask id="uuid-b4bf819d-8ba9-435a-a33d-6fbe0bb144bf" x="467.8124" y="-1.2045" width="510.602" height="510.602" maskUnits="userSpaceOnUse"><rect x="467.8124" y="-1.2045" width="510.602" height="510.602" transform="translate(977.2099 -469.0169) rotate(90)" fill="url(#uuid-215e91cd-3b32-4971-a45e-cb40c9e52585)"/></mask><mask id="uuid-ceede27c-eebd-47f8-bf10-5ac7b852243c" x="467.8124" y="-3.2201" width="513.8221" height="512.6176" maskUnits="userSpaceOnUse"><rect x="524.383" y="-3.2201" width="457.2515" height="457.2515" transform="translate(1506.0174 450.8113) rotate(180)" fill="url(#uuid-f40df1b7-ae92-4ca7-8685-7b4e87a0ad13)"/><g mask="url(#uuid-bd9dfb1e-8f14-43c6-9aea-0307907e2bc3)"><rect x="527.5719" y="1.9844" width="450.8424" height="450.8424" rx="57.9655" ry="57.9655"/></g><g mask="url(#uuid-98391b3f-3597-49a4-962c-77e1078e9f75)"><rect x="527.5719" y="1.9844" width="450.8424" height="450.8424" rx="57.9655" ry="57.9655"/></g><g mask="url(#uuid-b4bf819d-8ba9-435a-a33d-6fbe0bb144bf)"><rect x="467.8124" y="-1.2045" width="510.602" height="510.602" rx="65.6488" ry="65.6488" transform="translate(977.2099 -469.0169) rotate(90)"/></g></mask><linearGradient id="uuid-e36d1cb6-393e-457a-b8fd-6074011e4697" x1="13604.0774" y1="6134.3961" x2="14158.6407" y2="6134.3961" gradientTransform="translate(-13333.971 6571.7398) scale(1 -1)" xlink:href="#uuid-1e1acc43-b867-4a67-aabb-b7222f097024"/><linearGradient id="uuid-e275f9ee-d40c-4d57-98d3-6a1d2f19b5a1" x1="-506.6021" y1="1163.7219" x2="-506.6021" y2="616.9316" gradientTransform="translate(1053.9712 -450.5574)" xlink:href="#uuid-08aba452-86b5-4152-a9cb-8620ffe13593"/><mask id="uuid-b3420841-a9fb-4bc6-adc9-bee61302c99c" x="273.974" y="166.3742" width="546.7903" height="546.7903" maskUnits="userSpaceOnUse"><rect x="273.974" y="166.3742" width="546.7903" height="546.7903" fill="url(#uuid-e275f9ee-d40c-4d57-98d3-6a1d2f19b5a1)"/></mask><linearGradient id="uuid-395d002d-f377-410d-b259-24ab2b92c79a" x1="-506.6021" y1="1163.7219" x2="-506.6021" y2="616.9316" gradientTransform="translate(1053.9712 -450.5574)" xlink:href="#uuid-08aba452-86b5-4152-a9cb-8620ffe13593"/><mask id="uuid-f294b78b-b272-428f-ae65-91deff51326d" x="273.974" y="166.3742" width="546.7903" height="546.7903" maskUnits="userSpaceOnUse"><rect x="273.974" y="166.3742" width="546.7903" height="546.7903" fill="url(#uuid-395d002d-f377-410d-b259-24ab2b92c79a)"/></mask><linearGradient id="uuid-11580fd4-39f7-471b-bc97-7c9761edde80" x1="1163.1846" y1="3161.1819" x2="1163.1846" y2="2541.9141" gradientTransform="translate(-589.3564 -2379.4075)" xlink:href="#uuid-08aba452-86b5-4152-a9cb-8620ffe13593"/><mask id="uuid-68521bbb-f3bf-484e-81b4-00aea763f199" x="264.1943" y="162.5066" width="619.2678" height="619.2678" maskUnits="userSpaceOnUse"><rect x="264.1943" y="162.5066" width="619.2678" height="619.2678" transform="translate(1045.9688 -101.6877) rotate(90)" fill="url(#uuid-11580fd4-39f7-471b-bc97-7c9761edde80)"/></mask><linearGradient id="uuid-1a86d344-ca00-4d19-8178-8e24dee2ca0f" x1="1163.1846" y1="3161.1819" x2="1163.1846" y2="2541.9141" gradientTransform="translate(-589.3564 -2379.4075)" xlink:href="#uuid-08aba452-86b5-4152-a9cb-8620ffe13593"/><mask id="uuid-b6c53135-3af3-4797-aeeb-298c8cbde3d2" x="264.1943" y="162.5066" width="619.2678" height="619.2678" maskUnits="userSpaceOnUse"><rect x="264.1943" y="162.5066" width="619.2678" height="619.2678" transform="translate(1045.9688 -101.6877) rotate(90)" fill="url(#uuid-1a86d344-ca00-4d19-8178-8e24dee2ca0f)"/></mask><linearGradient id="uuid-c5734388-51c5-4c28-9b1c-592221488f59" x1="543.8154" y1="2793.4974" x2="543.8154" y2="2174.2295" gradientTransform="translate(107.5828 -1989.5601)" xlink:href="#uuid-08aba452-86b5-4152-a9cb-8620ffe13593"/><mask id="uuid-de4dd8ce-90cf-4907-9a9a-1a5fbc6bf437" x="341.7643" y="184.6694" width="619.2678" height="619.2678" maskUnits="userSpaceOnUse"><rect x="341.7643" y="184.6694" width="619.2678" height="619.2678" fill="url(#uuid-c5734388-51c5-4c28-9b1c-592221488f59)"/></mask><linearGradient id="uuid-23e3ab3a-8cad-443c-8cc0-5d1f8f2a4538" x1="543.8154" y1="2793.4974" x2="543.8154" y2="2174.2295" gradientTransform="translate(107.5828 -1989.5601)" xlink:href="#uuid-08aba452-86b5-4152-a9cb-8620ffe13593"/><mask id="uuid-2b66bb40-14ea-4335-85f9-d31226619e6c" x="341.7643" y="184.6694" width="619.2678" height="619.2678" maskUnits="userSpaceOnUse"><rect x="341.7643" y="184.6694" width="619.2678" height="619.2678" fill="url(#uuid-23e3ab3a-8cad-443c-8cc0-5d1f8f2a4538)"/></mask><mask id="uuid-4dbee101-d5eb-4d9b-a03d-a973f68ede62" x="264.1943" y="160.0621" width="696.8378" height="643.8752" maskUnits="userSpaceOnUse"><rect x="270.1064" y="160.0621" width="554.5633" height="554.5633" transform="translate(1094.776 874.6875) rotate(180)" fill="url(#uuid-e36d1cb6-393e-457a-b8fd-6074011e4697)"/><g mask="url(#uuid-b3420841-a9fb-4bc6-adc9-bee61302c99c)"><rect x="273.974" y="166.3742" width="546.7903" height="546.7903" rx="70.3016" ry="70.3016"/></g><g mask="url(#uuid-f294b78b-b272-428f-ae65-91deff51326d)"><rect x="273.974" y="166.3742" width="546.7903" height="546.7903" rx="70.3016" ry="70.3016"/></g><g mask="url(#uuid-68521bbb-f3bf-484e-81b4-00aea763f199)"><rect x="264.1943" y="162.5066" width="619.2678" height="619.2678" rx="79.6202" ry="79.6202" transform="translate(1045.9688 -101.6877) rotate(90)"/></g><g mask="url(#uuid-b6c53135-3af3-4797-aeeb-298c8cbde3d2)"><rect x="264.1943" y="162.5066" width="619.2678" height="619.2678" rx="79.6202" ry="79.6202" transform="translate(1045.9688 -101.6877) rotate(90)"/></g><g mask="url(#uuid-de4dd8ce-90cf-4907-9a9a-1a5fbc6bf437)"><rect x="341.7643" y="184.6694" width="619.2678" height="619.2678" rx="79.6202" ry="79.6202"/></g><g mask="url(#uuid-2b66bb40-14ea-4335-85f9-d31226619e6c)"><rect x="341.7643" y="184.6694" width="619.2678" height="619.2678" rx="79.6202" ry="79.6202"/></g></mask><linearGradient id="uuid-28d87710-ec20-47f7-826a-fc715793565f" x1="12014.3912" y1="7347.1063" x2="12281.828" y2="7347.1063" xlink:href="#uuid-1e1acc43-b867-4a67-aabb-b7222f097024"/><linearGradient id="uuid-049ce9d9-db69-44ed-88c0-c9790212c67f" x1="1226.6572" y1="2233.6252" x2="1226.6572" y2="1969.9369" gradientTransform="translate(-785.624 -1789.657)" xlink:href="#uuid-08aba452-86b5-4152-a9cb-8620ffe13593"/><mask id="uuid-0c90d667-ffd7-495c-b0fb-c2352d68228e" x="309.189" y="180.2799" width="263.6883" height="263.6883" maskUnits="userSpaceOnUse"><rect x="309.189" y="180.2799" width="263.6883" height="263.6883" transform="translate(882.0664 624.2481) rotate(180)" fill="url(#uuid-049ce9d9-db69-44ed-88c0-c9790212c67f)"/></mask><linearGradient id="uuid-e7bce7f5-7369-4552-837d-168ed24d4391" x1="1226.6572" y1="2233.6252" x2="1226.6572" y2="1969.9369" gradientTransform="translate(-785.624 -1789.657)" xlink:href="#uuid-08aba452-86b5-4152-a9cb-8620ffe13593"/><mask id="uuid-0b05a910-3cd1-45ec-b0cc-acefb3ab13c9" x="309.189" y="180.2799" width="263.6883" height="263.6883" maskUnits="userSpaceOnUse"><rect x="309.189" y="180.2799" width="263.6883" height="263.6883" transform="translate(882.0664 624.2481) rotate(180)" fill="url(#uuid-e7bce7f5-7369-4552-837d-168ed24d4391)"/></mask><linearGradient id="uuid-a822119c-d141-4e75-b58f-5b9ce15b1cc0" x1="2357.8787" y1="1311.5442" x2="2357.8787" y2="1012.9037" gradientTransform="translate(-1899.3695 -865.7108)" xlink:href="#uuid-08aba452-86b5-4152-a9cb-8620ffe13593"/><mask id="uuid-8d3f30f0-3858-49ee-aeb2-9f2ce7232591" x="309.189" y="147.193" width="298.6404" height="298.6404" maskUnits="userSpaceOnUse"><rect x="309.189" y="147.193" width="298.6404" height="298.6404" transform="translate(161.9961 755.0224) rotate(-90)" fill="url(#uuid-a822119c-d141-4e75-b58f-5b9ce15b1cc0)"/></mask><mask id="uuid-69969a33-e7cb-498c-a5bc-20b0c15e7297" x="307.3057" y="147.193" width="300.5238" height="299.8193" maskUnits="userSpaceOnUse"><rect x="307.3057" y="179.5754" width="267.4368" height="267.4368" fill="url(#uuid-28d87710-ec20-47f7-826a-fc715793565f)"/><g mask="url(#uuid-0c90d667-ffd7-495c-b0fb-c2352d68228e)"><rect x="309.189" y="180.2799" width="263.6883" height="263.6883" rx="33.9028" ry="33.9028" transform="translate(882.0664 624.2481) rotate(180)"/></g><g mask="url(#uuid-0b05a910-3cd1-45ec-b0cc-acefb3ab13c9)"><rect x="309.189" y="180.2799" width="263.6883" height="263.6883" rx="33.9028" ry="33.9028" transform="translate(882.0664 624.2481) rotate(180)"/></g><g mask="url(#uuid-8d3f30f0-3858-49ee-aeb2-9f2ce7232591)"><rect x="309.189" y="147.193" width="298.6404" height="298.6404" rx="38.3966" ry="38.3966" transform="translate(161.9961 755.0224) rotate(-90)"/></g></mask><linearGradient id="uuid-04349c8d-ac71-42f3-ad12-ebbfe3d55e8e" x1="12478.0901" y1="7195.278" x2="12745.5269" y2="7195.278" gradientTransform="translate(-12054.6088 7605.7558) scale(1 -1)" xlink:href="#uuid-1e1acc43-b867-4a67-aabb-b7222f097024"/><linearGradient id="uuid-c609517c-e2a3-48de-9a28-af89c28201a3" x1="762.9582" y1="2081.7969" x2="762.9582" y2="1818.1086" gradientTransform="translate(-205.7676 -1538.3051)" xlink:href="#uuid-08aba452-86b5-4152-a9cb-8620ffe13593"/><mask id="uuid-7e0d92f6-9394-411c-a5bc-222683473f84" x="425.3465" y="279.8034" width="263.6883" height="263.6883" maskUnits="userSpaceOnUse"><rect x="425.3465" y="279.8034" width="263.6883" height="263.6883" fill="url(#uuid-c609517c-e2a3-48de-9a28-af89c28201a3)"/></mask><linearGradient id="uuid-8ee09eb9-fd23-48a1-97a9-6059dbe65cd0" x1="762.9582" y1="2081.7969" x2="762.9582" y2="1818.1086" gradientTransform="translate(-205.7676 -1538.3051)" xlink:href="#uuid-08aba452-86b5-4152-a9cb-8620ffe13593"/><mask id="uuid-80482abc-5ab2-400a-bd45-94e2d3e7452a" x="425.3465" y="279.8034" width="263.6883" height="263.6883" maskUnits="userSpaceOnUse"><rect x="425.3465" y="279.8034" width="263.6883" height="263.6883" fill="url(#uuid-8ee09eb9-fd23-48a1-97a9-6059dbe65cd0)"/></mask><linearGradient id="uuid-107cacfe-7839-4228-8adf-3e43e859efa8" x1="2206.0504" y1="1775.2431" x2="2206.0504" y2="1476.6027" gradientTransform="translate(-1666.3358 -1198.6644)" xlink:href="#uuid-08aba452-86b5-4152-a9cb-8620ffe13593"/><mask id="uuid-1d11501f-fc8e-48a7-a6b5-31cc5bbc3068" x="390.3943" y="277.9383" width="298.6404" height="298.6404" maskUnits="userSpaceOnUse"><rect x="390.3943" y="277.9383" width="298.6404" height="298.6404" transform="translate(966.973 -112.456) rotate(90)" fill="url(#uuid-107cacfe-7839-4228-8adf-3e43e859efa8)"/></mask><mask id="uuid-19801859-d442-464b-b9c0-b051a9af61a3" x="390.3943" y="276.7594" width="300.5238" height="299.8193" maskUnits="userSpaceOnUse"><rect x="423.4813" y="276.7594" width="267.4368" height="267.4368" transform="translate(1114.3994 820.9557) rotate(180)" fill="url(#uuid-04349c8d-ac71-42f3-ad12-ebbfe3d55e8e)"/><g mask="url(#uuid-7e0d92f6-9394-411c-a5bc-222683473f84)"><rect x="425.3465" y="279.8034" width="263.6883" height="263.6883" rx="33.9028" ry="33.9028"/></g><g mask="url(#uuid-80482abc-5ab2-400a-bd45-94e2d3e7452a)"><rect x="425.3465" y="279.8034" width="263.6883" height="263.6883" rx="33.9028" ry="33.9028"/></g><g mask="url(#uuid-1d11501f-fc8e-48a7-a6b5-31cc5bbc3068)"><rect x="390.3943" y="277.9383" width="298.6404" height="298.6404" rx="38.3966" ry="38.3966" transform="translate(966.973 -112.456) rotate(90)"/></g></mask></defs><g mask="url(#uuid-b8447b22-7243-4478-ae36-4acb7b87ca2d)"><rect x="2.3143" y="267.6891" width="450.8113" height="450.8113" rx="57.9615" ry="57.9615" transform="translate(455.4398 986.1895) rotate(180)" fill="#0a4075"/></g><g mask="url(#uuid-9e334bf2-fa0a-4fe5-ae3c-0e3e4a23d52d)"><rect x="163.956" y="12.21" width="546.7525" height="546.7525" rx="70.2968" ry="70.2968" transform="translate(874.6646 571.1726) rotate(180)" fill="#5d72ff"/></g><g mask="url(#uuid-ceede27c-eebd-47f8-bf10-5ac7b852243c)"><rect x="527.6031" y="0" width="450.8113" height="450.8113" rx="57.9615" ry="57.9615" fill="#0a4075"/></g><g mask="url(#uuid-4dbee101-d5eb-4d9b-a03d-a973f68ede62)"><rect x="274.0117" y="163.9675" width="546.7525" height="546.7525" rx="70.2968" ry="70.2968" fill="#5d72ff"/></g><g mask="url(#uuid-69969a33-e7cb-498c-a5bc-20b0c15e7297)"><rect x="309.189" y="181.4588" width="263.6701" height="263.6701" rx="33.9004" ry="33.9004" transform="translate(882.0482 626.5877) rotate(180)" fill="#0a4075"/></g><g mask="url(#uuid-19801859-d442-464b-b9c0-b051a9af61a3)"><rect x="425.3647" y="278.6428" width="263.6701" height="263.6701" rx="33.9004" ry="33.9004" fill="#0a4075"/></g></svg>
