<?xml version="1.0" encoding="UTF-8"?><svg id="Layer_12" xmlns="http://www.w3.org/2000/svg" width="935" height="526" xmlns:xlink="http://www.w3.org/1999/xlink" viewBox="0 0 935 526"><defs><clipPath id="clippath"><rect y="0" width="935" height="526" style="fill:#2f3133;"/></clipPath><radialGradient id="radial-gradient" cx="-12804.395" cy="-7476.0338" fx="-12804.395" fy="-7476.0338" r="332.7993" gradientTransform="translate(20095.7532 -10634.5618) scale(1.5 -1.5)" gradientUnits="userSpaceOnUse"><stop offset="0" stop-color="#fff"/><stop offset=".0849" stop-color="#fff" stop-opacity=".9648"/><stop offset=".2235" stop-color="#fff" stop-opacity=".8691"/><stop offset=".3985" stop-color="#fff" stop-opacity=".7131"/><stop offset=".6031" stop-color="#fff" stop-opacity=".4965"/><stop offset=".8298" stop-color="#fff" stop-opacity=".2236"/><stop offset="1" stop-color="#fff" stop-opacity="0"/></radialGradient><mask id="mask" x="389.9617" y="80.29" width="998.398" height="998.398" maskUnits="userSpaceOnUse"><circle cx="889.1607" cy="579.489" r="499.199" style="fill:url(#radial-gradient);"/></mask><radialGradient id="radial-gradient-2" cx="-13168.0648" cy="-7488.4574" fx="-13168.0648" fy="-7488.4574" r="331.2935" xlink:href="#radial-gradient"/><mask id="mask-1" x="-153.2842" y="101.1841" width="993.8804" height="993.8804" maskUnits="userSpaceOnUse"><circle cx="343.6559" cy="598.1243" r="496.9402" style="fill:url(#radial-gradient-2);"/></mask><radialGradient id="radial-gradient-3" cx="-12885.7124" cy="-7623.61" fx="-12885.7124" fy="-7623.61" r="332.7993" xlink:href="#radial-gradient"/><mask id="mask-2" x="267.9855" y="301.6543" width="998.398" height="998.398" maskUnits="userSpaceOnUse"><circle cx="767.1845" cy="800.8533" r="499.199" style="fill:url(#radial-gradient-3);"/></mask><radialGradient id="radial-gradient-4" cx="-13187.6412" cy="-7654.1041" fx="-13187.6412" fy="-7654.1041" r="331.2935" xlink:href="#radial-gradient"/><mask id="mask-3" x="-182.6489" y="349.6542" width="993.8804" height="993.8804" maskUnits="userSpaceOnUse"><circle cx="314.2913" cy="846.5944" r="496.9402" style="fill:url(#radial-gradient-4);"/></mask><linearGradient id="linear-gradient" x1="467.6468" y1="131.802" x2="467.6468" y2="260.8429" gradientUnits="userSpaceOnUse"><stop offset="0" stop-color="#3bc1ff"/><stop offset=".1557" stop-color="#3bc1ff" stop-opacity=".7616"/><stop offset=".3239" stop-color="#3bc1ff" stop-opacity=".5327"/><stop offset=".4866" stop-color="#3bc1ff" stop-opacity=".3421"/><stop offset=".6395" stop-color="#3bc1ff" stop-opacity=".1936"/><stop offset=".7804" stop-color="#3bc1ff" stop-opacity=".0872"/><stop offset=".905" stop-color="#3bc1ff" stop-opacity=".0227"/><stop offset="1" stop-color="#3bc1ff" stop-opacity="0"/></linearGradient><linearGradient id="linear-gradient-2" x1="467.6468" y1="259.0257" x2="467.6468" y2="357.3339" gradientUnits="userSpaceOnUse"><stop offset="0" stop-color="#3bc1ff"/><stop offset=".1557" stop-color="#3bc1ff" stop-opacity=".7616"/><stop offset=".3239" stop-color="#3bc1ff" stop-opacity=".5327"/><stop offset=".4866" stop-color="#3bc1ff" stop-opacity=".3421"/><stop offset=".6395" stop-color="#3bc1ff" stop-opacity=".1936"/><stop offset=".7804" stop-color="#3bc1ff" stop-opacity=".0872"/><stop offset=".905" stop-color="#3bc1ff" stop-opacity=".0227"/><stop offset="1" stop-color="#3bc1ff" stop-opacity="0"/></linearGradient><linearGradient id="linear-gradient-3" x1="467.6468" y1="382.0698" x2="467.6468" y2="143.7663" gradientUnits="userSpaceOnUse"><stop offset="0" stop-color="#2985b0"/><stop offset="1" stop-color="#2985b0" stop-opacity="0"/></linearGradient><linearGradient id="linear-gradient-4" x1="-8345.1516" y1="-1907.0316" x2="-8345.1516" y2="-1782.4234" gradientTransform="translate(-1431 8608) rotate(90)" gradientUnits="userSpaceOnUse"><stop offset="0" stop-color="#41d9bf"/><stop offset="1" stop-color="#41d9bf" stop-opacity="0"/></linearGradient><linearGradient id="linear-gradient-5" x1="-2950.9878" y1="-3118.9957" x2="-2950.9878" y2="-3028.448" gradientTransform="translate(3371.7578 3275.4153)" xlink:href="#linear-gradient-4"/><linearGradient id="linear-gradient-6" x1="3455.9827" y1="-10721.6805" x2="3455.9827" y2="-10692.4715" gradientTransform="translate(-3051.6322 10892.7985)" xlink:href="#linear-gradient-4"/><linearGradient id="linear-gradient-7" x1="401.4516" y1="248.9895" x2="319.2274" y2="372.1578" gradientTransform="translate(46.7022 655.5012) scale(1 -1)" gradientUnits="userSpaceOnUse"><stop offset="0" stop-color="#41d9bf"/><stop offset=".0241" stop-color="#41d9bf" stop-opacity=".9373"/><stop offset=".1165" stop-color="#41d9bf" stop-opacity=".7194"/><stop offset=".2144" stop-color="#41d9bf" stop-opacity=".5263"/><stop offset=".3164" stop-color="#41d9bf" stop-opacity=".3635"/><stop offset=".4235" stop-color="#41d9bf" stop-opacity=".231"/><stop offset=".5375" stop-color="#41d9bf" stop-opacity=".1286"/><stop offset=".6614" stop-color="#41d9bf" stop-opacity=".0561"/><stop offset=".8028" stop-color="#41d9bf" stop-opacity=".0133"/><stop offset="1" stop-color="#41d9bf" stop-opacity="0"/></linearGradient></defs><rect y="0" width="935" height="526" style="fill:#2f3133;"/><g style="clip-path:url(#clippath);"><g id="VL_Circle02_LightBG"><g style="mask:url(#mask);"><circle cx="889.1607" cy="579.489" r="499.199" style="fill:#278273;"/></g></g><g id="VL_Circle02_LightBG-2"><g style="mask:url(#mask-1);"><circle cx="343.6559" cy="598.1243" r="496.9402" style="fill:#184d66;"/></g></g><g id="VL_Circle02_LightBG-3"><g style="mask:url(#mask-2);"><circle cx="767.1845" cy="800.8533" r="499.199" style="fill:#2e9886;"/></g></g><g id="VL_Circle02_LightBG-4"><g style="mask:url(#mask-3);"><circle cx="314.2913" cy="846.5944" r="496.9402" style="fill:#237499;"/></g></g></g><g id="SharedHosting_Color_DarkBG"><rect x="338.7522" y="133.9538" width="257.7892" height="257.7892" rx="33.361" ry="33.361" style="fill:url(#linear-gradient);"/><rect x="338.7522" y="263.1516" width="257.7892" height="128.3459" rx="33.361" ry="33.361" style="fill:url(#linear-gradient-2);"/><rect x="338.7522" y="133.9538" width="257.7892" height="257.7892" rx="33.361" ry="33.361" style="fill:url(#linear-gradient-3);"/><path d="M338.4586,358.382v-191.0673c0-18.4247,14.9362-33.361,33.361-33.361h62.7695c18.4247,0,33.361,14.9362,33.361,33.361v191.0673c0,18.4247,14.9362,33.3609,33.3609,33.3609h0-129.4914c-18.4247,0-33.361-14.9362-33.361-33.361Z" style="fill:url(#linear-gradient-4);"/><path d="M420.5453,152.4539h.4494c16.6146,0,30.1035,13.4889,30.1035,30.1035v63.9138h-60.6563v-63.9138c0-16.6146,13.4889-30.1035,30.1035-30.1035Z" transform="translate(221.3075 620.2325) rotate(-90)" style="fill:url(#linear-gradient-5);"/><path d="M373.7614,199.4626c0-16.7498,13.5784-30.3282,30.3281-30.3282h.522c16.7498,0,30.3282,13.5784,30.3282,30.3281h-61.1784Z" style="fill:url(#linear-gradient-6);"/><path d="M372.4953,263.4549h61.7117c18.4559,0,33.4398,14.9839,33.4398,33.4398v61.7117c0,18.4559-14.9839,33.4398-33.4398,33.4398h-95.1515v-95.1515c0-18.4559,14.9839-33.4398,33.4398-33.4398Z" transform="translate(806.7022 655.5012) rotate(180)" style="fill:url(#linear-gradient-7);"/></g></svg>