<svg width="1920" height="1080" viewBox="0 0 1920 1080" fill="none" xmlns="http://www.w3.org/2000/svg">
  <defs>
    <radialGradient id="bgGrad" cx="50%" cy="50%" r="70%">
      <stop offset="0%" style="stop-color:#0a0e27;stop-opacity:1" />
      <stop offset="100%" style="stop-color:#0f172a;stop-opacity:1" />
    </radialGradient>
    <filter id="glow">
      <feGaussianBlur stdDeviation="3" result="coloredBlur"/>
      <feMerge> 
        <feMergeNode in="coloredBlur"/>
        <feMergeNode in="SourceGraphic"/>
      </feMerge>
    </filter>
  </defs>
  
  <!-- Main background -->
  <rect width="1920" height="1080" fill="url(#bgGrad)"/>
  
  <!-- Wave patterns with glowing dots -->
  <g opacity="0.6">
    <!-- Wave 1 -->
    <path d="M0,300 Q240,200 480,300 T960,300 T1440,300 T1920,300" stroke="#60a5fa" stroke-width="2" fill="none" filter="url(#glow)"/>
    <circle cx="100" cy="300" r="2" fill="#60a5fa" filter="url(#glow)"/>
    <circle cx="300" cy="300" r="2" fill="#60a5fa" filter="url(#glow)"/>
    <circle cx="500" cy="300" r="2" fill="#60a5fa" filter="url(#glow)"/>
    <circle cx="700" cy="300" r="2" fill="#60a5fa" filter="url(#glow)"/>
    <circle cx="900" cy="300" r="2" fill="#60a5fa" filter="url(#glow)"/>
    <circle cx="1100" cy="300" r="2" fill="#60a5fa" filter="url(#glow)"/>
    <circle cx="1300" cy="300" r="2" fill="#60a5fa" filter="url(#glow)"/>
    <circle cx="1500" cy="300" r="2" fill="#60a5fa" filter="url(#glow)"/>
    <circle cx="1700" cy="300" r="2" fill="#60a5fa" filter="url(#glow)"/>
    
    <!-- Wave 2 -->
    <path d="M0,500 Q320,400 640,500 T1280,500 T1920,500" stroke="#3b82f6" stroke-width="2" fill="none" filter="url(#glow)"/>
    <circle cx="150" cy="500" r="1.5" fill="#3b82f6" filter="url(#glow)"/>
    <circle cx="350" cy="500" r="1.5" fill="#3b82f6" filter="url(#glow)"/>
    <circle cx="550" cy="500" r="1.5" fill="#3b82f6" filter="url(#glow)"/>
    <circle cx="750" cy="500" r="1.5" fill="#3b82f6" filter="url(#glow)"/>
    <circle cx="950" cy="500" r="1.5" fill="#3b82f6" filter="url(#glow)"/>
    <circle cx="1150" cy="500" r="1.5" fill="#3b82f6" filter="url(#glow)"/>
    <circle cx="1350" cy="500" r="1.5" fill="#3b82f6" filter="url(#glow)"/>
    <circle cx="1550" cy="500" r="1.5" fill="#3b82f6" filter="url(#glow)"/>
    <circle cx="1750" cy="500" r="1.5" fill="#3b82f6" filter="url(#glow)"/>
    
    <!-- Wave 3 -->
    <path d="M0,700 Q400,600 800,700 T1600,700 T1920,700" stroke="#1d4ed8" stroke-width="1.5" fill="none" filter="url(#glow)"/>
    <circle cx="200" cy="700" r="1" fill="#1d4ed8" filter="url(#glow)"/>
    <circle cx="400" cy="700" r="1" fill="#1d4ed8" filter="url(#glow)"/>
    <circle cx="600" cy="700" r="1" fill="#1d4ed8" filter="url(#glow)"/>
    <circle cx="800" cy="700" r="1" fill="#1d4ed8" filter="url(#glow)"/>
    <circle cx="1000" cy="700" r="1" fill="#1d4ed8" filter="url(#glow)"/>
    <circle cx="1200" cy="700" r="1" fill="#1d4ed8" filter="url(#glow)"/>
    <circle cx="1400" cy="700" r="1" fill="#1d4ed8" filter="url(#glow)"/>
    <circle cx="1600" cy="700" r="1" fill="#1d4ed8" filter="url(#glow)"/>
    <circle cx="1800" cy="700" r="1" fill="#1d4ed8" filter="url(#glow)"/>
  </g>
  
  <!-- Scattered glowing dots -->
  <g opacity="0.8">
    <circle cx="300" cy="200" r="1" fill="#60a5fa" filter="url(#glow)"/>
    <circle cx="800" cy="150" r="1.5" fill="#3b82f6" filter="url(#glow)"/>
    <circle cx="1200" cy="250" r="1" fill="#60a5fa" filter="url(#glow)"/>
    <circle cx="600" cy="350" r="1" fill="#1d4ed8" filter="url(#glow)"/>
    <circle cx="1400" cy="400" r="1.5" fill="#3b82f6" filter="url(#glow)"/>
    <circle cx="200" cy="550" r="1" fill="#60a5fa" filter="url(#glow)"/>
    <circle cx="1000" cy="600" r="1" fill="#1d4ed8" filter="url(#glow)"/>
    <circle cx="1600" cy="650" r="1.5" fill="#3b82f6" filter="url(#glow)"/>
    <circle cx="500" cy="800" r="1" fill="#60a5fa" filter="url(#glow)"/>
    <circle cx="900" cy="850" r="1" fill="#1d4ed8" filter="url(#glow)"/>
    <circle cx="1300" cy="750" r="1.5" fill="#3b82f6" filter="url(#glow)"/>
    <circle cx="1700" cy="900" r="1" fill="#60a5fa" filter="url(#glow)"/>
  </g>
</svg>
