<?xml version="1.0" encoding="UTF-8"?><svg id="uuid-7f06376e-fbee-42de-9dd3-7c123d9b98d2" xmlns="http://www.w3.org/2000/svg" width="536" height="402" viewBox="0 0 536 402"><rect width="536" height="402" fill="#18191b"/><path d="M80.9801,43.6517c.4577,0,.8389-.3828.8389-.8423s-.3812-.8423-.8389-.8423c-.4583,0-.8395.3828-.8395.8423s.3812.8423.8395.8423ZM87.0239,43.6823c1.3426,0,2.1367-.5513,2.7014-1.2864l-.7636-.7044c-.4882.6584-1.1138.9647-1.8768.9647-1.572,0-2.549-1.2251-2.549-2.8636s.9769-2.8484,2.549-2.8484c.763,0,1.3886.291,1.8768.9648l.7636-.7044c-.5647-.7351-1.3587-1.2863-2.7014-1.2863-2.1982,0-3.6783,1.6845-3.6783,3.8743,0,2.2051,1.48,3.8896,3.6783,3.8896ZM94.5478,43.6823c2.2436,0,3.6478-1.7458,3.6478-3.8896s-1.4042-3.8743-3.6478-3.8743-3.6478,1.7304-3.6478,3.8743,1.4042,3.8896,3.6478,3.8896ZM94.5478,42.6563c-1.572,0-2.457-1.3476-2.457-2.8636,0-1.5007.8849-2.8484,2.457-2.8484s2.442,1.3476,2.442,2.8484c0,1.516-.87,2.8636-2.442,2.8636ZM101.2023,43.4986v-5.4057c.4272-.5973,1.2817-1.1486,2.1821-1.1486.9924,0,1.6485.4135,1.6485,1.7152v4.8391h1.1448v-5.1913c0-1.6079-.809-2.3889-2.3506-2.3889-1.0988,0-2.1062.6431-2.6249,1.2557v-1.0719h-1.1448v7.3965h1.1448ZM109.932,43.4986v-6.3858h1.4956v-1.0107h-1.4956v-.5666c0-.9341.4123-1.4548,1.1598-1.4548.2904,0,.4887.0766.6566.1838l.2898-.8729c-.2898-.1837-.6866-.2603-1.1144-.2603-1.2817,0-2.1367.8729-2.1367,2.4042v.5666h-1.2207v1.0107h1.2207v6.3858h1.1448ZM113.3509,34.8617c.4272,0,.778-.3522.778-.781s-.3508-.7657-.778-.7657c-.4123,0-.763.3369-.763.7657s.3508.781.763.781ZM113.9305,43.4986v-7.3965h-1.1443v7.3965h1.1443ZM119.1964,46.5c1.8009,0,3.5098-.7657,3.5098-3.2159v-7.182h-1.1442v1.1179c-.5951-.8116-1.4806-1.3016-2.4725-1.3016-1.9383,0-3.2815,1.4701-3.2815,3.8437,0,2.3889,1.3581,3.8284,3.2815,3.8284,1.0379,0,1.9383-.5666,2.4725-1.317v1.0566c0,1.6232-1.1448,2.2205-2.3655,2.2205-1.0534,0-1.786-.2757-2.3966-1.0107l-.5796.8576c.87.8576,1.7244,1.1026,2.9762,1.1026ZM119.3642,42.5797c-1.4806,0-2.3661-1.1944-2.3661-2.8177,0-1.6386.8855-2.8177,2.3661-2.8177.9154,0,1.8009.5513,2.1977,1.1945v3.2312c-.3968.6431-1.2822,1.2097-2.1977,1.2097ZM127.3458,43.6823c1.0994,0,2.0608-.582,2.6255-1.2251v1.0413h1.1448v-7.3965h-1.1448v5.4363c-.4272.5973-1.2822,1.1179-2.1827,1.1179-.9919,0-1.6479-.3828-1.6479-1.6845v-4.8697h-1.1448v5.2219c0,1.6079.809,2.3583,2.35,2.3583ZM134.55,43.4986v-5.2373c.3358-.5972,1.2972-1.1792,1.9993-1.1792.1828,0,.3203.0154.4577.0459v-1.1792c-1.0074,0-1.8618.5666-2.457,1.3476v-1.1944h-1.1448v7.3965h1.1448ZM141.7686,43.6823c1.2058,0,2.1982-.3982,2.9308-1.1332l-.5497-.7504c-.5802.5972-1.4346.9341-2.2741.9341-1.587,0-2.5639-1.1639-2.6554-2.5574h5.9674v-.291c0-2.2204-1.3127-3.9662-3.5409-3.9662-2.1062,0-3.6323,1.7304-3.6323,3.8743,0,2.3123,1.5721,3.8896,3.7542,3.8896ZM144.0582,39.3333h-4.8381c.061-1.1332.8395-2.4655,2.411-2.4655,1.679,0,2.4116,1.3629,2.4271,2.4655Z" fill="#91939b"/><path d="M28.75,39.1688c.3317,0,.6051.2497.6425.5714l.0044.0754v1.2938c0,1.601-.8806,2.5301-2.4394,2.5849l-.1481.0026-3.316.0005c-.2874,1.1158-1.3003,1.9401-2.5059,1.9401-1.4291,0-2.5875-1.1584-2.5875-2.5875s1.1584-2.5875,2.5875-2.5875c1.2058,0,2.2189.8246,2.506,1.9407h3.3159c.8975-.0001,1.263-.3282,1.2919-1.1798l.0019-.1141v-1.2938c0-.3572.2896-.6469.6469-.6469ZM20.9875,41.7562c-.7146,0-1.2937.5791-1.2937,1.2938s.5791,1.2938,1.2937,1.2938,1.2937-.5791,1.2937-1.2938-.5791-1.2938-1.2937-1.2938ZM38.882,36.1021v4.4868c0,1.026.5342,1.3629,1.3583,1.3629.7478,0,1.3431-.4135,1.6788-.8423v-5.0075h1.9383v7.3965h-1.9383v-.9341c-.5036.5666-1.3889,1.1179-2.5945,1.1179-1.6178,0-2.3809-.8882-2.3809-2.3277v-5.2525h1.9383ZM56.5553,33.2844v3.7672c.5802-.7504,1.4042-1.1332,2.2741-1.1332,1.8774,0,3.266,1.4701,3.266,3.8896,0,2.4655-1.4036,3.8744-3.266,3.8744-.8849,0-1.6939-.3982-2.2741-1.1332v.9494h-1.9378v-10.2142h1.9378ZM66.9795,35.9183c2.442,0,3.9071,1.7763,3.9071,3.8743,0,2.1132-1.4651,3.8896-3.9071,3.8896-2.4265,0-3.8916-1.7764-3.8916-3.8896,0-2.098,1.4651-3.8743,3.8916-3.8743ZM50.2981,35.9183c1.6178,0,2.3961.9188,2.3961,2.3583v5.2219h-1.9383v-4.4716c0-1.026-.5342-1.3782-1.3583-1.3782-.7631,0-1.3583.4288-1.6788.8729v4.9769h-1.9383v-7.3965h1.9383v.9647c.4731-.5666,1.3736-1.1485,2.5793-1.1485ZM73.3131,36.1021l1.5266,2.2817,1.5105-2.2817h2.1672l-2.4719,3.5987,2.6398,3.7978h-2.1672l-1.6784-2.4961-1.6945,2.4961h-2.1517l2.6099-3.7978-2.4576-3.5987h2.1672ZM58.2193,37.6487c-.6262,0-1.3432.3675-1.664.8576v2.6187c.3208.4747,1.0379.8269,1.664.8269,1.1293,0,1.8768-.8576,1.8768-2.1439s-.7475-2.1592-1.8768-2.1592ZM66.9795,37.6487c-1.2058,0-1.8774.9954-1.8774,2.1439,0,1.1638.6716,2.1592,1.8774,2.1592s1.8923-.9954,1.8923-2.1592c0-1.1486-.6866-2.1439-1.8923-2.1439ZM28.75,32.7c1.4291,0,2.5875,1.1584,2.5875,2.5875s-1.1584,2.5875-2.5875,2.5875c-1.2055,0-2.2185-.8243-2.5059-1.9401l-3.316-.0005c-.8975,0-1.263.3281-1.2919,1.1797l-.0019.1141v1.2938c0,.3572-.2896.6469-.6469.6469-.3317,0-.6051-.2497-.6425-.5714l-.0044-.0754v-1.2938c0-1.601.8806-2.5301,2.4394-2.5849l.1481-.0026h3.3159c.2872-1.116,1.3002-1.9406,2.506-1.9406ZM28.75,33.9937c-.7146,0-1.2937.5791-1.2937,1.2938s.5791,1.2937,1.2937,1.2937,1.2938-.5791,1.2938-1.2937-.5791-1.2938-1.2938-1.2938Z" fill="#fff"/><path d="M29.9,109.75h0c.3176,0,.575.2574.575.575h0c0,.3176-.2574.575-.575.575h0c-.3176,0-.575-.2574-.575-.575h0c0-.3176.2574-.575.575-.575Z" fill="#415cff"/><path d="M29.9,113.2h0c.3176,0,.575.2574.575.575h0c0,.3176-.2574.575-.575.575h0c-.3176,0-.575-.2574-.575-.575h0c0-.3176.2574-.575.575-.575Z" fill="#415cff"/><path d="M29.9,116.65h0c.3176,0,.575.2574.575.575h0c0,.3176-.2574.575-.575.575h0c-.3176,0-.575-.2574-.575-.575h0c0-.3176.2574-.575.575-.575Z" fill="#415cff"/><path d="M29.9,120.1h0c.3176,0,.575.2574.575.575h0c0,.3176-.2574.575-.575.575h0c-.3176,0-.575-.2574-.575-.575h0c0-.3176.2574-.575.575-.575Z" fill="#415cff"/><path d="M29.9,123.55h0c.3176,0,.575.2574.575.575h0c0,.3176-.2574.575-.575.575h0c-.3176,0-.575-.2574-.575-.575h0c0-.3176.2574-.575.575-.575Z" fill="#415cff"/><path d="M29.9,127h0c.3176,0,.575.2574.575.575h0c0,.3176-.2574.575-.575.575h0c-.3176,0-.575-.2574-.575-.575h0c0-.3176.2574-.575.575-.575Z" fill="#415cff"/><path d="M29.9,130.45h0c.3176,0,.575.2574.575.575h0c0,.3176-.2574.575-.575.575h0c-.3176,0-.575-.2574-.575-.575h0c0-.3176.2574-.575.575-.575Z" fill="#415cff"/><path d="M32.6607,97.5186l1.1403-1.8504c.0257-.042.0261-.0943.0004-.1363l-1.4081-2.3253-2.1063-.0121,2.3228,4.339.0288.0023.0222-.0172ZM29.3309,93.2544l-.7174,1.25,1.3807-.0109-.6633-1.2391ZM33.1385,92.7553l1.4081,2.3259c.1947.3226.1934.7222-.0035,1.0436l-1.1407,1.8509c-.1673.2708-.4552.4312-.7714.4312h-.0096c-.3201-.0034-.6085-.1708-.7714-.4468l-1.3933-2.6025h-1.9008c-.2931,0-.5588-.1489-.7113-.3991-.152-.2484-.1633-.552-.0305-.8108l.8223-1.399c.142-.2605.4212-.4295.7226-.4307l.5331-.0098v.0092l2.4669-.0092h.0026c.3171,0,.6071.1673.7766.4468ZM29.8059,99.707l.6633,1.2397.7178-1.2506-1.3811.0109ZM25.9987,98.668l1.4086,2.3259,2.1059.0121-2.3224-4.339-.0514.015-1.1398,1.8504c-.0257.0414-.0257.0943-.0009.1357ZM29.3429,98.8422h1.9012c.2927,0,.5588.1495.7112.3991.1525.2484.1638.552.0305.8113l-.8224,1.399c-.1411.2605-.4207.4295-.7221.4307l-.5339.0092v-.0086l-2.467.0086h-.0048c-.3149,0-.6046-.1667-.774-.4462l-1.4081-2.3265c-.1952-.3226-.1934-.7222.0044-1.0436l1.1398-1.8504c.1668-.2703.4547-.4318.7714-.4318.003,0,.0061,0,.0087.0006.3206.0029.6094.1702.7723.4468l1.3929,2.6019Z" fill="#a97bed" fill-rule="evenodd"/><path d="M50.784,94.5102l.7176-.9936c.4324.4508,1.104.828,1.9504.828.7176,0,1.0672-.3404,1.0672-.69,0-.46-.5336-.6164-1.242-.782-1.0028-.23-2.2908-.506-2.2908-1.8768,0-1.0212.8832-1.8492,2.3276-1.8492.9752,0,1.7848.2944,2.392.8556l-.7268.9568c-.4968-.46-1.1592-.6716-1.7572-.6716-.5888,0-.9016.2576-.9016.6256,0,.414.5152.5428,1.2236.7084,1.012.23,2.3.5336,2.3,1.8952,0,1.1224-.8004,1.9688-2.4564,1.9688-1.1776,0-2.024-.3956-2.6036-.9752ZM57.8646,94.8046v2.2632h-1.1684v-6.1364h1.1684v.5612c.3404-.4324.828-.6716,1.3708-.6716,1.1408,0,1.9688.8464,1.9688,2.3276s-.828,2.3368-1.9688,2.3368c-.5244,0-1.012-.2208-1.3708-.6808ZM59.9898,93.1486c0-.7636-.4508-1.288-1.1224-1.288-.3772,0-.8096.2208-1.0028.506v1.5732c.1932.276.6256.506,1.0028.506.6716,0,1.1224-.5244,1.1224-1.2972ZM65.914,95.375h-1.1684v-.46c-.3036.3588-.828.5704-1.4076.5704-.7084,0-1.5456-.4784-1.5456-1.472,0-1.0396.8372-1.4168,1.5456-1.4168.5888,0,1.1132.184,1.4076.5428v-.6164c0-.4508-.3864-.7452-.9752-.7452-.4784,0-.92.1748-1.2972.5244l-.4416-.782c.5428-.4784,1.242-.6992,1.9412-.6992,1.012,0,1.9412.4048,1.9412,1.6836v2.8704ZM64.7456,94.3078v-.552c-.1932-.2576-.5612-.3864-.9384-.3864-.46,0-.8372.2484-.8372.6716,0,.414.3772.6532.8372.6532.3772,0,.7452-.1288.9384-.3864ZM66.788,93.1486c0-1.3616.9844-2.3276,2.3552-2.3276.9108,0,1.4628.3956,1.7572.8096l-.7636.7084c-.2116-.3036-.5336-.4784-.9384-.4784-.7084,0-1.2052.5152-1.2052,1.288s.4968,1.2972,1.2052,1.2972c.4048,0,.7268-.184.9384-.4784l.7636.7084c-.2944.414-.8464.8096-1.7572.8096-1.3708,0-2.3552-.966-2.3552-2.3368ZM71.3788,93.1486c0-1.288.9476-2.3276,2.3-2.3276,1.3248,0,2.2264.9936,2.2264,2.4472v.2576h-3.3028c.0736.5612.5244,1.0304,1.2788,1.0304.414,0,.9016-.1656,1.1868-.4416l.5152.7544c-.4508.414-1.1408.6164-1.8308.6164-1.3524,0-2.3736-.9108-2.3736-2.3368ZM73.6788,91.7502c-.7268,0-1.0396.5428-1.0948.9844h2.1896c-.0276-.4232-.322-.9844-1.0948-.9844ZM83.4377,95.375h-1.1776v-2.806c0-.414-.184-.7084-.6624-.7084-.414,0-.7544.276-.92.5152v2.9992h-1.1776v-2.806c0-.414-.184-.7084-.6624-.7084-.4048,0-.7452.276-.92.5244v2.99h-1.1684v-4.4436h1.1684v.5796c.184-.2668.7728-.69,1.4536-.69.6532,0,1.0672.3036,1.2328.8096.2576-.4048.8464-.8096,1.5272-.8096.8188,0,1.3064.4324,1.3064,1.3432v3.2108ZM88.4201,95.375h-1.1684v-.46c-.3036.3588-.828.5704-1.4076.5704-.7084,0-1.5456-.4784-1.5456-1.472,0-1.0396.8372-1.4168,1.5456-1.4168.5888,0,1.1132.184,1.4076.5428v-.6164c0-.4508-.3864-.7452-.9752-.7452-.4784,0-.92.1748-1.2972.5244l-.4416-.782c.5428-.4784,1.242-.6992,1.9412-.6992,1.012,0,1.9412.4048,1.9412,1.6836v2.8704ZM87.2517,94.3078v-.552c-.1932-.2576-.5612-.3864-.9384-.3864-.46,0-.8372.2484-.8372.6716,0,.414.3772.6532.8372.6532.3772,0,.7452-.1288.9384-.3864ZM90.1583,90.2782c-.3772,0-.6992-.3128-.6992-.6992s.322-.6992.6992-.6992c.3864,0,.6992.3128.6992.6992s-.3128.6992-.6992.6992ZM90.7471,95.375h-1.1684v-4.4436h1.1684v4.4436ZM93.0741,95.375h-1.1684v-6.1364h1.1684v6.1364Z" fill="#fff"/><path d="M55.8244,107.45h-.7406l-.4749-1.1914h-2.7209l-.4749,1.1914h-.7406l2.1574-5.3693h.8292l2.1654,5.3693ZM54.4077,105.6629l-1.1592-2.9866-1.1673,2.9866h2.3265ZM59.9236,107.45h-.6037v-.5796c-.2898.3944-.7648.6762-1.3121.6762-1.0143,0-1.7308-.7728-1.7308-2.0366,0-1.2397.7084-2.0447,1.7308-2.0447.5232,0,.9982.2576,1.3121.6842v-2.0688h.6037v5.3693ZM59.3199,106.3955v-1.7629c-.2173-.3381-.6843-.6279-1.1672-.6279-.7809,0-1.2478.644-1.2478,1.5054s.4669,1.4973,1.2478,1.4973c.483,0,.9499-.2737,1.1672-.6118ZM62.8314,107.45h-.6601l-1.6181-3.8881h.6521l1.296,3.1878,1.288-3.1878h.6601l-1.618,3.8881ZM68.1139,107.45h-.6038v-.4428c-.322.3542-.7647.5394-1.288.5394-.6601,0-1.3604-.4428-1.3604-1.288,0-.8694.7004-1.2799,1.3604-1.2799.5313,0,.9741.1691,1.288.5313v-.7004c0-.5233-.4186-.8211-.9821-.8211-.4669,0-.8452.1691-1.1914.5394l-.2817-.4186c.4186-.4347.9177-.644,1.5537-.644.8211,0,1.5053.3703,1.5053,1.3121v2.6726ZM67.5102,106.6289v-.7326c-.2334-.322-.644-.483-1.0706-.483-.5635,0-.958.3542-.958.8533,0,.4911.3945.8453.958.8453.4267,0,.8372-.161,1.0706-.483ZM72.5523,107.45h-.6037v-2.5438c0-.6843-.3462-.9016-.8694-.9016-.475,0-.9258.2898-1.1511.6038v2.8417h-.6038v-3.8881h.6038v.5635c.2737-.322.805-.6601,1.3846-.6601.8131,0,1.2397.4105,1.2397,1.2558v2.729ZM73.5327,105.5019c0-1.1511.7809-2.0366,1.9401-2.0366.7084,0,1.127.2898,1.4248.6762l-.4025.3703c-.2576-.3542-.5877-.5072-.9902-.5072-.8292,0-1.3443.636-1.3443,1.4973s.5152,1.5053,1.3443,1.5053c.4025,0,.7326-.161.9902-.5071l.4025.3703c-.2979.3864-.7165.6762-1.4248.6762-1.1592,0-1.9401-.8855-1.9401-2.0447ZM77.518,105.5019c0-1.127.805-2.0366,1.9159-2.0366,1.1753,0,1.8676.9177,1.8676,2.0849v.153h-3.1475c.0483.7325.5635,1.3443,1.4007,1.3443.4428,0,.8936-.1771,1.1994-.4911l.2898.3945c-.3864.3864-.9097.5957-1.5456.5957-1.1511,0-1.9803-.8292-1.9803-2.0447ZM79.4259,103.9644c-.8292,0-1.2397.7004-1.2719,1.296h2.5519c-.0081-.5796-.3945-1.296-1.2799-1.296ZM85.7009,107.45h-.6038v-.5796c-.2898.3944-.7648.6762-1.3121.6762-1.0143,0-1.7307-.7728-1.7307-2.0366,0-1.2397.7084-2.0447,1.7307-2.0447.5233,0,.9982.2576,1.3121.6842v-2.0688h.6038v5.3693ZM85.0971,106.3955v-1.7629c-.2173-.3381-.6843-.6279-1.1672-.6279-.7809,0-1.2477.644-1.2477,1.5054s.4669,1.4973,1.2477,1.4973c.483,0,.9499-.2737,1.1672-.6118Z" fill="#91939b"/><circle cx="29.9" cy="136.2" r="3.45" fill="#18191b"/><circle cx="29.9" cy="136.2" r="2.3" fill="#334fff"/><circle cx="29.9" cy="136.2" r="1.15" fill="#18191b"/><path d="M58.65,122.4h0c7.6215,0,13.8,6.1785,13.8,13.8h0c0,7.6215-6.1785,13.8-13.8,13.8h0c-7.6215,0-13.8-6.1785-13.8-13.8h0c0-7.6215,6.1785-13.8,13.8-13.8Z" fill="none" stroke="#415cff" stroke-miterlimit="10"/><path d="M54.625,131.6h8.05c.951,0,1.725.7739,1.725,1.725v5.75c0,.9511-.774,1.725-1.725,1.725h-8.05c-.951,0-1.725-.7739-1.725-1.725v-5.75c0-.9511.774-1.725,1.725-1.725ZM54.625,132.75h8.05c.3174,0,.575.2582.575.575v.2369l-4.6,2.5553-4.6-2.5553v-.2369c0-.3168.2576-.575.575-.575ZM54.625,139.65c-.3174,0-.575-.2582-.575-.575v-4.1981l4.3211,2.4006c.0863.0483.1829.0725.2789.0725s.1926-.0242.2789-.0725l4.3211-2.4006v4.1981c0,.3168-.2576.575-.575.575h-8.05Z" fill="#4e8cff" fill-rule="evenodd"/><path d="M84.1524,139.075h-4.1216v-6.1364h4.1216v.8096h-3.2016v1.794h3.1372v.8096h-3.1372v1.9136h3.2016v.8096ZM91.5147,139.075h-.828v-2.9624c0-.5152-.23-.8556-.7728-.8556-.4508,0-.8924.3128-1.104.6348v3.1832h-.828v-2.9624c0-.5152-.2208-.8556-.782-.8556-.4324,0-.8648.322-1.0856.644v3.174h-.828v-4.4436h.828v.6256c.184-.276.7728-.736,1.4352-.736.6716,0,1.0672.3496,1.2052.828.2576-.414.8464-.828,1.4996-.828.8188,0,1.2604.4508,1.2604,1.3432v3.2108ZM96.4028,139.075h-.828v-.4876c-.3496.3864-.8556.598-1.4536.598-.736,0-1.5456-.4968-1.5456-1.472,0-1.012.8004-1.4536,1.5456-1.4536.598,0,1.1132.1932,1.4536.5888v-.736c0-.552-.4508-.8832-1.0856-.8832-.506,0-.9384.1932-1.334.5888l-.3588-.5704c.4968-.4876,1.104-.7268,1.8216-.7268.966,0,1.7848.4232,1.7848,1.5548v2.9992ZM95.5748,138.0998v-.7544c-.2484-.3312-.6808-.506-1.1408-.506-.598,0-1.0212.3588-1.0212.8832s.4232.8832,1.0212.8832c.46,0,.8924-.1748,1.1408-.506ZM98.1347,133.8862c-.2852,0-.5336-.23-.5336-.5244s.2484-.5336.5336-.5336c.2944,0,.5336.2392.5336.5336s-.2392.5244-.5336.5244ZM98.5579,139.075h-.828v-4.4436h.828v4.4436ZM100.7049,139.075h-.828v-6.1364h.828v6.1364ZM104.1199,136.8486c0-1.334.92-2.3276,2.2632-2.3276.8372,0,1.3432.3496,1.6652.782l-.552.506c-.2668-.3772-.6256-.552-1.0764-.552-.874,0-1.4352.6716-1.4352,1.5916s.5612,1.6008,1.4352,1.6008c.4508,0,.8096-.184,1.0764-.552l.552.506c-.322.4324-.828.782-1.6652.782-1.3432,0-2.2632-1.0028-2.2632-2.3368ZM110.929,139.1854c-1.38,0-2.2448-1.0488-2.2448-2.3368,0-1.2788.8648-2.3276,2.2448-2.3276,1.3892,0,2.2448,1.0488,2.2448,2.3276,0,1.288-.8556,2.3368-2.2448,2.3368ZM110.929,138.4494c.8924,0,1.38-.7544,1.38-1.6008,0-.8372-.4876-1.5916-1.38-1.5916-.8832,0-1.38.7544-1.38,1.5916,0,.8464.4968,1.6008,1.38,1.6008ZM118.0521,139.075h-.828v-2.8428c0-.736-.3772-.9752-.9476-.9752-.5152,0-.9844.3128-1.2236.644v3.174h-.828v-4.4436h.828v.6256c.2944-.3588.8832-.736,1.5732-.736.9384,0,1.426.4968,1.426,1.4352v3.1188ZM122.4922,133.8862c-.2852,0-.5336-.23-.5336-.5244s.2484-.5336.5336-.5336c.2944,0,.5336.2392.5336.5336s-.2392.5244-.5336.5244ZM120.3947,135.3582v3.7168h-.828v-3.7168h-.736v-.7268h.736v-.2944c0-.9568.5612-1.4904,1.3524-1.4904.2852,0,.5336.0552.7268.1656l-.1932.6164c-.1012-.0644-.23-.1012-.3956-.1012-.414,0-.6624.276-.6624.8096v.2944h.9016v.7268h-.9016ZM122.9155,139.075h-.828v-4.4436h.828v4.4436ZM124.1966,140.2158l.3956-.6072c.368.4232.8188.5888,1.426.5888.69,0,1.38-.3312,1.38-1.2696v-.5796c-.3404.4416-.8648.7636-1.4628.7636-1.15,0-1.978-.8464-1.978-2.3,0-1.426.828-2.2908,1.978-2.2908.5796,0,1.104.276,1.4628.7544v-.644h.828v4.2688c0,1.5272-1.1132,1.978-2.208,1.978-.7452,0-1.288-.1564-1.8216-.6624ZM127.3981,137.7134v-1.8032c-.23-.3588-.736-.6532-1.2328-.6532-.828,0-1.3432.644-1.3432,1.5548,0,.92.5152,1.564,1.3432,1.564.4968,0,1.0028-.3036,1.2328-.6624ZM133.3707,139.075h-.828v-.6072c-.3404.368-.9016.7176-1.5824.7176-.9476,0-1.4168-.4784-1.4168-1.4168v-3.1372h.828v2.8612c0,.736.368.9568.9384.9568.5152,0,.9844-.2944,1.2328-.6256v-3.1924h.828v4.4436ZM135.5102,139.075h-.828v-4.4436h.828v.6808c.3404-.4416.8648-.782,1.4536-.782v.8372c-.0828-.0184-.1748-.0276-.2852-.0276-.414,0-.9752.3128-1.1684.644v3.0912ZM141.3603,139.075h-.828v-.4876c-.3496.3864-.8556.598-1.4536.598-.736,0-1.5456-.4968-1.5456-1.472,0-1.012.8004-1.4536,1.5456-1.4536.598,0,1.1132.1932,1.4536.5888v-.736c0-.552-.4508-.8832-1.0856-.8832-.506,0-.9384.1932-1.334.5888l-.3588-.5704c.4968-.4876,1.104-.7268,1.8216-.7268.966,0,1.7848.4232,1.7848,1.5548v2.9992ZM140.5323,138.0998v-.7544c-.2484-.3312-.6808-.506-1.1408-.506-.598,0-1.0212.3588-1.0212.8832s.4232.8832,1.0212.8832c.46,0,.8924-.1748,1.1408-.506ZM143.911,139.1854c-.6992,0-1.058-.3956-1.058-1.0948v-2.7324h-.736v-.7268h.736v-1.2144h.828v1.2144h.9016v.7268h-.9016v2.5484c0,.3128.1472.5428.4324.5428.1932,0,.368-.0828.4508-.1748l.2116.6256c-.1748.1656-.4324.2852-.8648.2852ZM145.9045,133.8862c-.2852,0-.5336-.23-.5336-.5244s.2484-.5336.5336-.5336c.2944,0,.5336.2392.5336.5336s-.2392.5244-.5336.5244ZM146.3277,139.075h-.828v-4.4436h.828v4.4436ZM149.6156,139.1854c-1.38,0-2.2448-1.0488-2.2448-2.3368,0-1.2788.8648-2.3276,2.2448-2.3276,1.3892,0,2.2448,1.0488,2.2448,2.3276,0,1.288-.8556,2.3368-2.2448,2.3368ZM149.6156,138.4494c.8924,0,1.38-.7544,1.38-1.6008,0-.8372-.4876-1.5916-1.38-1.5916-.8832,0-1.38.7544-1.38,1.5916,0,.8464.4968,1.6008,1.38,1.6008ZM156.7387,139.075h-.828v-2.8428c0-.736-.3772-.9752-.9476-.9752-.5152,0-.9844.3128-1.2236.644v3.174h-.828v-4.4436h.828v.6256c.2944-.3588.8832-.736,1.5732-.736.9384,0,1.426.4968,1.426,1.4352v3.1188Z" fill="#4e8cff"/><path d="M204.9622,92.5h-3.2568v-4.6023h3.2568v.8418h-2.277v1.0005h2.2287v.8418h-2.2287v1.0695h2.277v.8487ZM210.8318,92.5h-.9867v-3.312l-1.2972,3.312h-.4278l-1.2972-3.312v3.312h-.9798v-4.6023h1.3731l1.1178,2.8704,1.1178-2.8704h1.38v4.6023ZM216.1528,92.5h-1.0695l-.2898-.7935h-2.0562l-.2898.7935h-1.0764l1.7802-4.6023h1.2282l1.7733,4.6023ZM214.5244,90.8578l-.759-2.1114-.7659,2.1114h1.5249ZM217.6726,92.5h-.9798v-4.6023h.9798v4.6023ZM221.6268,92.5h-2.9256v-4.6023h.9798v3.7398h1.9458v.8625ZM226.5023,92.5828c-1.3455,0-2.415-.966-2.415-2.3805s1.0695-2.3805,2.415-2.3805c1.0488,0,1.6353.552,1.9596,1.1247l-.8418.414c-.1932-.3726-.6072-.6693-1.1178-.6693-.8004,0-1.4076.6417-1.4076,1.5111s.6072,1.5111,1.4076,1.5111c.5106,0,.9246-.2898,1.1178-.6693l.8418.4071c-.3312.5727-.9108,1.1316-1.9596,1.1316ZM228.9397,90.2023c0-1.3869,1.0143-2.3805,2.4012-2.3805,1.3938,0,2.4081.9936,2.4081,2.3805s-1.0143,2.3805-2.4081,2.3805c-1.3869,0-2.4012-.9936-2.4012-2.3805ZM232.7416,90.2023c0-.8625-.552-1.5111-1.4007-1.5111s-1.3938.6486-1.3938,1.5111c0,.8556.5451,1.5111,1.3938,1.5111s1.4007-.6555,1.4007-1.5111ZM238.6704,92.5h-.9453l-2.1942-3.0912v3.0912h-.9798v-4.6023h1.0074l2.1321,2.9808v-2.9808h.9798v4.6023ZM240.6732,92.5h-.9798v-4.6023h3.2568v.8418h-2.277v1.0005h2.2287v.8418h-2.2287v1.9182ZM244.7298,92.5h-.9798v-4.6023h.9798v4.6023ZM245.5376,90.2023c0-1.4559,1.104-2.3805,2.4495-2.3805.9522,0,1.5525.4623,1.9044,1.0074l-.8142.4416c-.2139-.3243-.6072-.5796-1.0902-.5796-.8349,0-1.4421.6417-1.4421,1.5111s.6072,1.5111,1.4421,1.5111c.4209,0,.7935-.1725.9936-.3519v-.5589h-1.2282v-.8418h2.1942v1.7595c-.4692.5244-1.1247.8694-1.9596.8694-1.3455,0-2.4495-.9384-2.4495-2.3874ZM250.8397,90.6646v-2.7669h.9936v2.7324c0,.6417.3519,1.0833,1.0695,1.0833.7038,0,1.0557-.4416,1.0557-1.0833v-2.7324h.9936v2.76c0,1.1454-.6555,1.9251-2.0493,1.9251-1.4076,0-2.0631-.7866-2.0631-1.9182ZM259.7005,92.5h-1.1247l-.9039-1.6491h-.7176v1.6491h-.9798v-4.6023h2.1528c.9591,0,1.5456.6279,1.5456,1.4835,0,.8142-.5106,1.2489-1.0074,1.3662l1.035,1.7526ZM258.6724,89.3743c0-.3864-.2967-.6348-.69-.6348h-1.0281v1.2696h1.0281c.3933,0,.69-.2484.69-.6348ZM264.8151,92.5h-1.0695l-.2898-.7935h-2.0562l-.2898.7935h-1.0764l1.7802-4.6023h1.2282l1.7733,4.6023ZM263.1867,90.8578l-.759-2.1114-.7659,2.1114h1.5249ZM266.9599,92.5h-.9867v-3.7398h-1.3455v-.8625h3.6708v.8625h-1.3386v3.7398ZM270.0211,92.5h-.9798v-4.6023h.9798v4.6023ZM270.829,90.2023c0-1.3869,1.0143-2.3805,2.4012-2.3805,1.3938,0,2.4081.9936,2.4081,2.3805s-1.0143,2.3805-2.4081,2.3805c-1.3869,0-2.4012-.9936-2.4012-2.3805ZM274.6309,90.2023c0-.8625-.552-1.5111-1.4007-1.5111s-1.3938.6486-1.3938,1.5111c0,.8556.5451,1.5111,1.3938,1.5111s1.4007-.6555,1.4007-1.5111ZM280.5603,92.5h-.9453l-2.1942-3.0912v3.0912h-.9798v-4.6023h1.0074l2.1321,2.9808v-2.9808h.9798v4.6023Z" fill="#76777f"/><path d="M206.9908,113.3794c-2.9153,0-5.2325-2.093-5.2325-5.1578s2.3172-5.1578,5.2325-5.1578c2.2724,0,3.5431,1.196,4.2458,2.4369l-1.8239.897c-.4186-.8073-1.3156-1.4502-2.4219-1.4502-1.7342,0-3.0498,1.3903-3.0498,3.2741s1.3156,3.2741,3.0498,3.2741c1.1063,0,2.0033-.6279,2.4219-1.4501l1.8239.882c-.7176,1.2408-1.9734,2.4518-4.2458,2.4518ZM215.8044,113.3794c-2.3771,0-3.8123-1.7342-3.8123-3.7973,0-2.0481,1.4352-3.7823,3.8123-3.7823,2.392,0,3.8272,1.7342,3.8272,3.7823,0,2.0631-1.4352,3.7973-3.8272,3.7973ZM215.8044,111.69c1.181,0,1.8538-.9717,1.8538-2.108,0-1.1212-.6728-2.093-1.8538-2.093s-1.8388.9718-1.8388,2.093c0,1.1362.6578,2.108,1.8388,2.108ZM227.8121,113.2h-1.8987v-4.3654c0-1.0017-.5233-1.3455-1.3305-1.3455-.7475,0-1.3305.4186-1.6445.8522v4.8587h-1.8987v-7.2208h1.8987v.9419c.4634-.5532,1.3455-1.1212,2.5266-1.1212,1.5847,0,2.3472.897,2.3472,2.3023v5.0979ZM233.4949,107.6386h-1.4651v5.5614h-1.9136v-5.5614h-1.196v-1.6595h1.196v-.3887c0-1.5698,1.0166-2.5116,2.4368-2.5116.5382,0,1.0316.1196,1.3754.299l-.3887,1.3455c-.1645-.1046-.3887-.1495-.6129-.1495-.5382,0-.897.3588-.897,1.0465v.3588h1.4651v1.6595ZM235.5303,104.9177c-.6129,0-1.1362-.5083-1.1362-1.1362s.5232-1.1362,1.1362-1.1362c.6279,0,1.1362.5083,1.1362,1.1362s-.5083,1.1362-1.1362,1.1362ZM236.4871,113.2h-1.8987v-7.2208h1.8987v7.2208ZM238.2202,115.0538l.8521-1.3754c.583.6428,1.3455.897,2.2574.897s1.9884-.4036,1.9884-1.8239v-.7326c-.5681.7176-1.3455,1.1362-2.2275,1.1362-1.8089,0-3.1844-1.2707-3.1844-3.6777,0-2.3621,1.3605-3.6777,3.1844-3.6777.8671,0,1.6445.3737,2.2275,1.1063v-.9269h1.9136v6.7275c0,2.7508-2.1229,3.4235-3.902,3.4235-1.2408,0-2.2126-.284-3.1096-1.0764ZM243.3181,110.6436v-2.3322c-.3139-.4784-1.0017-.8223-1.6295-.8223-1.0764,0-1.8239.7475-1.8239,1.9884s.7475,1.9883,1.8239,1.9883c.6279,0,1.3156-.3588,1.6295-.8222ZM253.8872,113.2h-1.8987v-.9119c-.4934.5532-1.3605,1.0913-2.5415,1.0913-1.5847,0-2.3322-.8671-2.3322-2.2724v-5.1278h1.8987v4.3803c0,1.0017.5232,1.3305,1.3305,1.3305.7326,0,1.3156-.4036,1.6445-.8222v-4.8886h1.8987v7.2208ZM257.6713,113.2h-1.8987v-7.2208h1.8987v.9867c.5083-.6429,1.4053-1.1511,2.3023-1.1511v1.8538c-.1346-.0299-.314-.0449-.5232-.0449-.6279,0-1.4651.3438-1.779.8073v4.7691ZM260.6964,109.5821c0-2.093,1.5398-3.7823,3.7375-3.7823,2.1528,0,3.6179,1.6146,3.6179,3.9767v.4186h-5.367c.1196.9119.8521,1.6744,2.078,1.6744.6728,0,1.4651-.2691,1.9286-.7176l.8372,1.2259c-.7326.6727-1.8538,1.0016-2.9751,1.0016-2.1977,0-3.8571-1.48-3.8571-3.7973ZM264.4339,107.3097c-1.1811,0-1.6893.882-1.779,1.5996h3.5581c-.0449-.6877-.5233-1.5996-1.779-1.5996ZM272.9939,116.0256l.2841-1.7043c.1645.0748.4186.1196.598.1196.4933,0,.8222-.1346,1.0016-.5233l.2691-.6129-2.9302-7.3255h2.0332l1.8837,5.0232,1.8837-5.0232h2.0482l-3.3936,8.4019c-.5382,1.3604-1.495,1.7193-2.7359,1.7491-.2242,0-.7026-.0448-.9419-.1046ZM284.2616,113.3794c-2.377,0-3.8123-1.7342-3.8123-3.7973,0-2.0481,1.4352-3.7823,3.8123-3.7823,2.392,0,3.8272,1.7342,3.8272,3.7823,0,2.0631-1.4352,3.7973-3.8272,3.7973ZM284.2616,111.69c1.1811,0,1.8538-.9717,1.8538-2.108,0-1.1212-.6727-2.093-1.8538-2.093s-1.8388.9718-1.8388,2.093c0,1.1362.6578,2.108,1.8388,2.108ZM296.2699,113.2h-1.8987v-.9119c-.4934.5532-1.3605,1.0913-2.5415,1.0913-1.5847,0-2.3322-.8671-2.3322-2.2724v-5.1278h1.8987v4.3803c0,1.0017.5232,1.3305,1.3306,1.3305.7325,0,1.3156-.4036,1.6445-.8222v-4.8886h1.8987v7.2208ZM300.054,113.2h-1.8987v-7.2208h1.8987v.9867c.5083-.6429,1.4053-1.1511,2.3023-1.1511v1.8538c-.1345-.0299-.3139-.0449-.5232-.0449-.6279,0-1.4651.3438-1.779.8073v4.7691ZM318.236,113.2h-1.9136v-4.5597c0-.6728-.299-1.1512-1.0764-1.1512-.6728,0-1.2259.4485-1.495.8372v4.8737h-1.9136v-4.5597c0-.6728-.299-1.1512-1.0764-1.1512-.6578,0-1.2109.4485-1.495.8522v4.8587h-1.8987v-7.2208h1.8987v.9419c.299-.4335,1.2558-1.1212,2.3621-1.1212,1.0615,0,1.7342.4934,2.0033,1.3156.4186-.6578,1.3754-1.3156,2.4817-1.3156,1.3305,0,2.1229.7027,2.1229,2.1827v5.2176ZM326.3326,113.2h-1.8987v-.7475c-.4933.5831-1.3455.9269-2.2873.9269-1.1512,0-2.5116-.7774-2.5116-2.392,0-1.6893,1.3604-2.3023,2.5116-2.3023.9568,0,1.8089.299,2.2873.8821v-1.0017c0-.7326-.6279-1.211-1.5847-1.211-.7774,0-1.495.2841-2.108.8521l-.7176-1.2707c.882-.7774,2.0183-1.1362,3.1545-1.1362,1.6445,0,3.1544.6578,3.1544,2.7358v4.6644ZM324.434,111.4658v-.897c-.3139-.4186-.9119-.6279-1.5249-.6279-.7475,0-1.3604.4036-1.3604,1.0913,0,.6727.6129,1.0615,1.3604,1.0615.6129,0,1.211-.2093,1.5249-.6279ZM329.1576,104.9177c-.6129,0-1.1362-.5083-1.1362-1.1362s.5233-1.1362,1.1362-1.1362c.6279,0,1.1362.5083,1.1362,1.1362s-.5083,1.1362-1.1362,1.1362ZM330.1144,113.2h-1.8987v-7.2208h1.8987v7.2208ZM333.8956,113.2h-1.8987v-9.9716h1.8987v9.9716ZM337.6768,113.2h-1.8987v-9.9716h1.8987v3.6777c.5681-.7326,1.3754-1.1063,2.2276-1.1063,1.8388,0,3.1993,1.4352,3.1993,3.7973,0,2.407-1.3754,3.7824-3.1993,3.7824-.8671,0-1.6594-.3887-2.2276-1.0913v.9119ZM337.6768,108.3263v2.5564c.314.4634,1.0166.8073,1.6296.8073,1.1063,0,1.8388-.8372,1.8388-2.093s-.7326-2.108-1.8388-2.108c-.613,0-1.3156.3588-1.6296.8372ZM347.8871,113.3794c-2.377,0-3.8123-1.7342-3.8123-3.7973,0-2.0481,1.4352-3.7823,3.8123-3.7823,2.392,0,3.8272,1.7342,3.8272,3.7823,0,2.0631-1.4352,3.7973-3.8272,3.7973ZM347.8871,111.69c1.1811,0,1.8538-.9717,1.8538-2.108,0-1.1212-.6727-2.093-1.8538-2.093s-1.8388.9718-1.8388,2.093c0,1.1362.6578,2.108,1.8388,2.108ZM359.3509,113.2h-2.1229l-1.6445-2.4369-1.6594,2.4369h-2.108l2.5564-3.7076-2.4069-3.5133h2.1229l1.495,2.2275,1.48-2.2275h2.1229l-2.4219,3.5133,2.5863,3.7076ZM359.4624,109.5821c0-2.093,1.5399-3.7823,3.7375-3.7823,2.1528,0,3.6179,1.6146,3.6179,3.9767v.4186h-5.367c.1196.9119.8521,1.6744,2.0781,1.6744.6727,0,1.4651-.2691,1.9286-.7176l.8372,1.2259c-.7325.6727-1.8538,1.0016-2.9751,1.0016-2.1976,0-3.8571-1.48-3.8571-3.7973ZM363.1999,107.3097c-1.181,0-1.6893.882-1.779,1.5996h3.5581c-.0448-.6877-.5232-1.5996-1.779-1.5996ZM367.5613,112.2581l.8222-1.3305c.5233.4934,1.5996.9867,2.4966.9867.8223,0,1.211-.2841,1.211-.7326,0-.5083-.6279-.6877-1.4501-.8522-1.2409-.2392-2.8405-.5382-2.8405-2.2574,0-1.211,1.0615-2.2724,2.9601-2.2724,1.2259,0,2.1976.4186,2.9003.9867l-.7475,1.3007c-.4335-.4634-1.2558-.8372-2.1378-.8372-.6877,0-1.1362.2542-1.1362.6728,0,.4485.5681.6129,1.3754.7774,1.2409.2392,2.9003.5681,2.9003,2.3621,0,1.3305-1.1213,2.3172-3.1245,2.3172-1.2558,0-2.4668-.4186-3.2292-1.1212Z" fill="#fff"/><rect x="201.25" y="184.5" width="310.6" height="46" rx="4.6" ry="4.6" fill="#252628"/><path d="M221.4084,211.5607c-1.104,1.1034-2.5703,1.6893-4.0595,1.6893-.7532,0-1.5065-.1495-2.231-.4537-.2933-.1207-.4312-.46-.3047-.7527.1207-.2933.46-.4312.7532-.3105,1.7307.7239,3.7087.3392,5.037-.9884,1.794-1.7923,1.794-4.7116,0-6.4981-1.794-1.7929-4.7093-1.7929-6.5032,0-1.311,1.3098-1.7078,3.2689-1.0062,4.987.1208.2932-.023.6262-.3162.7469s-.6325-.023-.7475-.3157c-.8797-2.1494-.3852-4.5966,1.2593-6.2342,2.2425-2.2408,5.888-2.2408,8.1305,0s2.2425,5.8834,0,8.1242l-.0115.0058ZM215.0431,207.4988c0-1.2702,1.0293-2.2988,2.3-2.2988s2.3,1.0287,2.3,2.2988-1.0293,2.2983-2.3,2.2983-2.3-1.0287-2.3-2.2983ZM216.1931,207.4988c0,.6319.5175,1.1489,1.15,1.1489s1.15-.5169,1.15-1.1489c0-.6325-.5175-1.1494-1.15-1.1494s-1.15.5169-1.15,1.1494Z" fill="#00a296"/><path d="M234.9836,210.375v-2.8042c0-.4144-.1842-.7086-.6626-.7086-.4133,0-.7536.2763-.9187.5155v2.9974h-1.177v-2.8042c0-.4144-.1842-.7086-.6626-.7086-.4043,0-.7446.2763-.9187.5245v2.9884h-1.168v-4.4405h1.168v.5795c.1842-.2673.7727-.6907,1.4521-.6907.6525,0,1.0669.3043,1.232.8097.2583-.4043.8468-.8097,1.5273-.8097.8176,0,1.305.4324,1.305,1.342v3.2097h-1.177Z" fill="#f8f8f8"/><path d="M237.333,211.0646c.1011.046.2572.0741.3672.0741.3043,0,.5065-.0831.6166-.3223l.1651-.3762-1.8025-4.5057h1.2511l1.159,3.0884,1.1579-3.0884h1.2601l-2.0877,5.1671c-.3302.8367-.9187,1.0568-1.6823,1.0748-.1381,0-.4324-.027-.5795-.0629l.1752-1.0489Z" fill="#f8f8f8"/><path d="M241.915,204.5823c0-.3863.3212-.6985.6985-.6985.3863,0,.6985.3122.6985.6985s-.3122.6985-.6985.6985c-.3773,0-.6985-.3122-.6985-.6985ZM242.034,210.375v-4.4405h1.168v4.4405h-1.168Z" fill="#f8f8f8"/><path d="M247.4134,210.375v-.5615c-.3481.4335-.8355.6716-1.3701.6716-1.1208,0-1.9676-.8457-1.9676-2.3258,0-1.4532.8378-2.3359,1.9676-2.3359.5256,0,1.022.2302,1.3701.6806v-2.2618h1.177v6.133h-1.177ZM247.4134,207.3675c-.2021-.2942-.6154-.5054-1.0107-.5054-.6626,0-1.1219.5245-1.1219,1.2971,0,.7625.4593,1.287,1.1219,1.287.3953,0,.8086-.2123,1.0107-.5065v-1.5723Z" fill="#f8f8f8"/><path d="M251.7664,205.8233c1.3241,0,2.2248.9939,2.2248,2.446v.2572h-3.3006c.0741.5615.5233,1.031,1.278,1.031.4133,0,.9007-.1662,1.1859-.4425l.5144.7547c-.4492.4133-1.1388.6154-1.8283.6154-1.3521,0-2.373-.9097-2.373-2.3359,0-1.287.9467-2.3258,2.2989-2.3258ZM250.6725,207.7358h2.1877c-.027-.4223-.3212-.9838-1.0938-.9838-.7266,0-1.0399.5424-1.0938.9838Z" fill="#f8f8f8"/><path d="M257.5063,210.375v-.4604c-.3032.3594-.8277.5705-1.4072.5705-.7075,0-1.5442-.4784-1.5442-1.4712,0-1.0388.8367-1.415,1.5442-1.415.5885,0,1.1129.1831,1.4072.5413v-.6154c0-.4515-.3852-.7457-.9737-.7457-.4784,0-.9209.1752-1.2971.5256l-.4414-.7816c.5424-.4784,1.241-.6997,1.9406-.6997,1.0107,0,1.9395.4054,1.9395,1.6834v2.8683h-1.168ZM257.5063,208.7567c-.1932-.2572-.5604-.3863-.9377-.3863-.4604,0-.8367.2482-.8367.6716,0,.4144.3762.6525.8367.6525.3773,0,.7446-.128.9377-.3863v-.5514Z" fill="#f8f8f8"/><path d="M260.4329,208.9869c.4043,0,.7446.3392.7446.7446,0,.4043-.3403.7446-.7446.7446s-.7446-.3403-.7446-.7446c0-.4054.3403-.7446.7446-.7446Z" fill="#f8f8f8"/><path d="M264.2232,205.8233c.9097,0,1.4622.3964,1.7564.8097l-.7637.7075c-.2111-.3032-.5334-.4784-.9389-.4784-.7075,0-1.2039.5155-1.2039,1.287,0,.7727.4964,1.2971,1.2039,1.2971.4054,0,.7277-.1831.9389-.4773l.7637.7075c-.2942.4133-.8468.8086-1.7564.8086-1.3701,0-2.3539-.9658-2.3539-2.3359,0-1.36.9838-2.3258,2.3539-2.3258Z" fill="#f8f8f8"/><path d="M266.4603,208.1491c0-1.2589.8827-2.3258,2.3449-2.3258,1.4712,0,2.3539,1.0669,2.3539,2.3258,0,1.269-.8827,2.3359-2.3539,2.3359-1.4622,0-2.3449-1.0669-2.3449-2.3359ZM269.944,208.1491c0-.6896-.4133-1.287-1.1388-1.287-.7277,0-1.132.5975-1.132,1.287,0,.6997.4043,1.2971,1.132,1.2971.7255,0,1.1388-.5975,1.1388-1.2971Z" fill="#f8f8f8"/><path d="M277.5336,210.375v-2.8042c0-.4144-.1842-.7086-.6626-.7086-.4133,0-.7536.2763-.9187.5155v2.9974h-1.177v-2.8042c0-.4144-.1842-.7086-.6626-.7086-.4043,0-.7457.2763-.9198.5245v2.9884h-1.1668v-4.4405h1.1668v.5795c.1842-.2673.7727-.6907,1.4532-.6907.6525,0,1.0658.3043,1.232.8097.2572-.4043.8457-.8097,1.5262-.8097.8187,0,1.3061.4324,1.3061,1.342v3.2097h-1.177Z" fill="#f8f8f8"/><path d="M337.4876,201.1025l1.3685-2.2206c.0311-.0506.0316-.1133.0006-.1633l-1.6899-2.7911-2.5277-.0144,2.7876,5.2066.0345.0029.0264-.0201ZM333.4919,195.985l-.8608,1.5008,1.6572-.0138-.7964-1.4869ZM338.0608,195.3865l1.6899,2.7905c.234.3875.2323.8671-.004,1.2523l-1.3691,2.2212c-.2007.3255-.5463.5175-.9252.5175h-.0115c-.3847-.004-.7303-.2041-.9257-.5359l-1.6721-3.1228h-2.281c-.3519,0-.6705-.1788-.8533-.4784-.1823-.2984-.1961-.663-.0368-.9735l.9867-1.6784c.1708-.3128.5054-.5158.8671-.5169l.64-.0121v.0115l2.9601-.0115h.0034c.3806,0,.7285.2007.9315.5365ZM334.0623,203.7286l.7958,1.4869.8613-1.5008-1.6571.0138ZM329.4933,202.482l1.6905,2.7905,2.5271.015-2.787-5.2072-.0615.0178-1.3679,2.2206c-.031.05-.031.1133-.0012.1633ZM333.5063,202.6907h2.2816c.3513,0,.6705.1788.8533.4784.1828.2984.1966.663.0368.9741l-.9867,1.6784c-.1697.3128-.5049.5158-.8665.5169l-.6411.0115v-.0109l-2.9601.0109h-.0058c-.3778,0-.7257-.2001-.9286-.5359l-1.6899-2.7911c-.234-.3875-.2323-.8671.0052-1.2529l1.3679-2.2201c.2001-.3249.5457-.5181.9258-.5181.0034,0,.0069,0,.0103.0006.3847.0035.7309.2036.9263.5359l1.6715,3.1222Z" fill="#a97bed" fill-rule="evenodd"/><path d="M345.859,202.6102l.7176-.9936c.4324.4508,1.104.828,1.9504.828.7176,0,1.0672-.3404,1.0672-.69,0-.46-.5336-.6164-1.242-.782-1.0028-.23-2.2908-.506-2.2908-1.8768,0-1.0212.8832-1.8492,2.3276-1.8492.9752,0,1.7848.2944,2.392.8556l-.7268.9568c-.4968-.46-1.1592-.6716-1.7572-.6716-.5888,0-.9016.2576-.9016.6256,0,.414.5152.5428,1.2236.7084,1.012.23,2.3.5336,2.3,1.8952,0,1.1224-.8004,1.9688-2.4564,1.9688-1.1776,0-2.024-.3956-2.6036-.9752ZM352.9395,202.9046v2.2632h-1.1684v-6.1364h1.1684v.5612c.3404-.4324.828-.6716,1.3708-.6716,1.1408,0,1.9688.8464,1.9688,2.3276s-.828,2.3368-1.9688,2.3368c-.5244,0-1.012-.2208-1.3708-.6808ZM355.0648,201.2486c0-.7636-.4508-1.288-1.1224-1.288-.3772,0-.8096.2208-1.0028.506v1.5732c.1932.276.6256.506,1.0028.506.6716,0,1.1224-.5244,1.1224-1.2972ZM360.989,203.475h-1.1684v-.46c-.3036.3588-.828.5704-1.4076.5704-.7084,0-1.5456-.4784-1.5456-1.472,0-1.0396.8372-1.4168,1.5456-1.4168.5888,0,1.1132.184,1.4076.5428v-.6164c0-.4508-.3864-.7452-.9752-.7452-.4784,0-.92.1748-1.2972.5244l-.4416-.782c.5428-.4784,1.242-.6992,1.9412-.6992,1.012,0,1.9412.4048,1.9412,1.6836v2.8704ZM359.8206,202.4078v-.552c-.1932-.2576-.5612-.3864-.9384-.3864-.46,0-.8372.2484-.8372.6716,0,.414.3772.6532.8372.6532.3772,0,.7452-.1288.9384-.3864ZM361.863,201.2486c0-1.3616.9844-2.3276,2.3552-2.3276.9108,0,1.4628.3956,1.7572.8096l-.7636.7084c-.2116-.3036-.5336-.4784-.9384-.4784-.7084,0-1.2052.5152-1.2052,1.288s.4968,1.2972,1.2052,1.2972c.4048,0,.7268-.184.9384-.4784l.7636.7084c-.2944.414-.8464.8096-1.7572.8096-1.3708,0-2.3552-.966-2.3552-2.3368ZM366.4538,201.2486c0-1.288.9476-2.3276,2.3-2.3276,1.3248,0,2.2264.9936,2.2264,2.4472v.2576h-3.3028c.0736.5612.5244,1.0304,1.2788,1.0304.414,0,.9016-.1656,1.1868-.4416l.5152.7544c-.4508.414-1.1408.6164-1.8308.6164-1.3524,0-2.3736-.9108-2.3736-2.3368ZM368.7538,199.8502c-.7268,0-1.0396.5428-1.0948.9844h2.1896c-.0276-.4232-.322-.9844-1.0948-.9844ZM378.5127,203.475h-1.1776v-2.806c0-.414-.184-.7084-.6624-.7084-.414,0-.7544.276-.92.5152v2.9992h-1.1776v-2.806c0-.414-.184-.7084-.6624-.7084-.4048,0-.7452.276-.92.5244v2.99h-1.1684v-4.4436h1.1684v.5796c.184-.2668.7728-.69,1.4536-.69.6532,0,1.0672.3036,1.2328.8096.2576-.4048.8464-.8096,1.5272-.8096.8188,0,1.3064.4324,1.3064,1.3432v3.2108ZM383.4928,203.475h-1.1673v-.46c-.3047.3588-.828.5704-1.4088.5704-.7061,0-1.5433-.4784-1.5433-1.472,0-1.0396.8372-1.4168,1.5433-1.4168.5923,0,1.1155.184,1.4088.5428v-.6164c0-.4508-.3852-.7452-.9718-.7452-.483,0-.9223.1748-1.2995.5244l-.4416-.782c.5428-.4784,1.2409-.6992,1.9424-.6992,1.012,0,1.9377.4048,1.9377,1.6836v2.8704ZM382.3255,202.4078v-.552c-.1898-.2576-.5577-.3864-.9373-.3864-.46,0-.8372.2484-.8372.6716,0,.414.3772.6532.8372.6532.3795,0,.7475-.1288.9373-.3864ZM385.235,198.3782c-.3795,0-.7015-.3128-.7015-.6992s.322-.6992.7015-.6992c.3852,0,.6958.3128.6958.6992s-.3105.6992-.6958.6992ZM385.8215,203.475h-1.1673v-4.4436h1.1673v4.4436ZM388.1502,203.475h-1.1672v-6.1364h1.1672v6.1364ZM397.0512,203.475h-.8452l-.5405-1.3616h-3.1107l-.5463,1.3616h-.8453l2.4668-6.1364h.9488l2.4725,6.1364ZM395.4355,201.4326l-1.3283-3.4132-1.334,3.4132h2.6623ZM401.7375,203.475h-.69v-.6624c-.3335.4508-.874.7728-1.5008.7728-1.1557,0-1.978-.8832-1.978-2.3276,0-1.4168.8108-2.3368,1.978-2.3368.598,0,1.1443.2944,1.5008.782v-2.3644h.69v6.1364ZM401.0475,202.2698v-2.0148c-.2473-.3864-.7821-.7176-1.334-.7176-.8912,0-1.426.736-1.426,1.7204s.5348,1.7112,1.426,1.7112c.552,0,1.0868-.3128,1.334-.6992ZM405.061,203.475h-.7533l-1.8515-4.4436h.7475l1.4777,3.6432,1.472-3.6432h.759l-1.8515,4.4436ZM411.0985,203.475h-.69v-.506c-.368.4048-.8739.6164-1.472.6164-.7533,0-1.5582-.506-1.5582-1.472,0-.9936.8049-1.4628,1.5582-1.4628.6037,0,1.1097.1932,1.472.6072v-.8004c0-.598-.4772-.9384-1.1212-.9384-.5348,0-.966.1932-1.3627.6164l-.322-.4784c.4773-.4968,1.0465-.736,1.7768-.736.9373,0,1.7192.4232,1.7192,1.4996v3.0544ZM410.4085,202.5366v-.8372c-.2702-.368-.7359-.552-1.2248-.552-.644,0-1.0924.4048-1.0924.9752,0,.5612.4484.966,1.0924.966.4888,0,.9545-.184,1.2248-.552ZM416.17,203.475h-.69v-2.9072c0-.782-.3968-1.0304-.9947-1.0304-.5405,0-1.0581.3312-1.3168.69v3.2476h-.69v-4.4436h.69v.644c.3163-.368.92-.7544,1.587-.7544.9257,0,1.4145.4692,1.4145,1.4352v3.1188ZM417.2913,201.2486c0-1.3156.8912-2.3276,2.2137-2.3276.8108,0,1.288.3312,1.633.7728l-.46.4232c-.2989-.4048-.6727-.5796-1.1327-.5796-.9488,0-1.5352.7268-1.5352,1.7112s.5864,1.7204,1.5352,1.7204c.46,0,.8338-.184,1.1327-.5796l.46.4232c-.345.4416-.8222.7728-1.633.7728-1.3225,0-2.2137-1.012-2.2137-2.3368ZM421.8452,201.2486c0-1.288.92-2.3276,2.1908-2.3276,1.3397,0,2.1332,1.0488,2.1332,2.3828v.1748h-3.5995c.0575.8372.644,1.5364,1.6043,1.5364.506,0,1.0178-.2024,1.3685-.5612l.3335.4508c-.4428.4416-1.0407.6808-1.7652.6808-1.3168,0-2.2655-.9476-2.2655-2.3368ZM424.0245,199.4914c-.9488,0-1.4145.8004-1.4548,1.4812h2.921c-.0115-.6624-.4543-1.4812-1.4663-1.4812ZM431.1947,203.475h-.69v-.6624c-.3278.4508-.874.7728-1.495.7728-1.1615,0-1.978-.8832-1.978-2.3276,0-1.4168.805-2.3368,1.978-2.3368.598,0,1.1385.2944,1.495.782v-2.3644h.69v6.1364ZM430.5048,202.2698v-2.0148c-.2473-.3864-.782-.7176-1.334-.7176-.8912,0-1.426.736-1.426,1.7204s.5348,1.7112,1.426,1.7112c.552,0,1.0868-.3128,1.334-.6992Z" fill="#f8f8f8"/><path d="M337.6526,217.85h-.6681v-1.3604h-2.5518v-.5555l2.3023-3.4535h.9177v3.4213h.7567v.5877h-.7567v1.3604ZM336.9844,215.9019v-2.8014l-1.8837,2.8014h1.8837ZM343.0415,217.9466c-1.1833,0-1.924-.9177-1.924-2.0447s.7406-2.0366,1.924-2.0366,1.924.9097,1.924,2.0366-.7406,2.0447-1.924,2.0447ZM343.0415,217.4073c.8292,0,1.288-.7084,1.288-1.5054,0-.7889-.4588-1.4973-1.288-1.4973s-1.296.7084-1.296,1.4973c0,.7969.4669,1.5054,1.296,1.5054ZM347.5115,214.4931h-.7889v3.3569h-.6038v-3.3569h-.644v-.5313h.644v-.2979c0-.805.4508-1.2638,1.127-1.2638.2254,0,.4347.0403.5877.1369l-.153.4508c-.0966-.0563-.2093-.0885-.3461-.0885-.3944,0-.6118.2737-.6118.7647v.2979h.7889v.5313ZM350.2325,217.0853l.4105-.4428c.3542.4508.8211.7084,1.4812.7084.7325,0,1.2397-.4991,1.2397-1.1511,0-.7084-.5072-1.1592-1.2317-1.1592-.4749,0-.8775.1529-1.2397.5071l-.4911-.1691v-2.898h3.2844v.5957h-2.6162v1.8676c.2576-.2576.7164-.483,1.2558-.483.8936,0,1.7066.6118,1.7066,1.7147,0,1.0948-.8292,1.771-1.9078,1.771-.9097,0-1.4893-.3301-1.8917-.8613ZM362.4253,217.85h-.6037v-2.6404c0-.4911-.2173-.805-.7164-.805-.4025,0-.8292.2898-1.0304.5957v2.8497h-.6038v-2.6404c0-.4911-.2093-.805-.7164-.805-.3945,0-.8131.2898-1.0224.6038v2.8416h-.6037v-3.8881h.6037v.5635c.161-.2495.6843-.6601,1.2558-.6601.5957,0,.9338.322,1.0465.7245.2173-.3542.7406-.7245,1.3041-.7245.7084,0,1.0867.3945,1.0867,1.1753v2.8094ZM366.6648,217.85h-.6038v-.4427c-.322.3542-.7647.5393-1.288.5393-.6601,0-1.3604-.4427-1.3604-1.288,0-.8694.7003-1.28,1.3604-1.28.5313,0,.9741.1691,1.288.5313v-.7004c0-.5233-.4186-.8211-.9821-.8211-.4669,0-.8452.169-1.1914.5393l-.2817-.4186c.4186-.4347.9177-.644,1.5536-.644.8211,0,1.5054.3703,1.5054,1.3121v2.6726ZM366.061,217.0289v-.7325c-.2335-.322-.644-.483-1.0706-.483-.5635,0-.9579.3542-.9579.8533,0,.4911.3944.8453.9579.8453.4267,0,.8372-.161,1.0706-.483ZM368.173,213.3098c-.2173,0-.4025-.1851-.4025-.4105s.1852-.4025.4025-.4025c.2254,0,.4105.1771.4105.4025s-.1852.4105-.4105.4105ZM368.4789,217.85h-.6037v-3.8881h.6037v3.8881ZM370.2867,217.85h-.6037v-5.3694h.6037v5.3694ZM372.0951,217.85h-.6037v-5.3694h.6037v2.0689c.314-.4267.7809-.6843,1.3121-.6843,1.0143,0,1.7308.805,1.7308,2.0447,0,1.2638-.7164,2.0366-1.7308,2.0366-.5474,0-1.0223-.2817-1.3121-.6762v.5796ZM372.0951,215.0325v1.7629c.2093.3381.6843.6118,1.1592.6118.7889,0,1.2558-.636,1.2558-1.4973s-.4669-1.5054-1.2558-1.5054c-.4749,0-.9499.2898-1.1592.6279ZM377.8198,217.9466c-1.1833,0-1.924-.9177-1.924-2.0447s.7406-2.0366,1.924-2.0366,1.924.9097,1.924,2.0366-.7406,2.0447-1.924,2.0447ZM377.8198,217.4073c.8292,0,1.288-.7084,1.288-1.5054,0-.7889-.4588-1.4973-1.288-1.4973s-1.296.7084-1.296,1.4973c0,.7969.4669,1.5054,1.296,1.5054ZM383.694,217.85h-.6958l-1.1672-1.5939-1.169,1.5939h-.6923l1.4875-1.9964-1.407-1.8918h.6998l1.081,1.4812,1.0752-1.4812h.7015l-1.4087,1.8918,1.495,1.9964ZM383.9125,215.9019c0-1.127.805-2.0366,1.9205-2.0366,1.173,0,1.863.9177,1.863,2.085v.1529h-3.1453c.046.7325.5635,1.3443,1.403,1.3443.4428,0,.8912-.1771,1.196-.491l.2933.3944c-.391.3864-.9143.5957-1.5468.5957-1.15,0-1.9838-.8291-1.9838-2.0447ZM385.8215,214.3643c-.828,0-1.2363.7004-1.2708,1.296h2.553c-.0115-.5796-.3968-1.296-1.2822-1.296ZM388.34,217.3348l.3105-.4347c.2588.2979.7475.5555,1.2822.5555.5923,0,.9143-.2657.9143-.644,0-.4267-.4715-.5635-.9947-.6923-.6613-.1529-1.4088-.3301-1.4088-1.135,0-.6037.5232-1.1189,1.449-1.1189.6612,0,1.127.2495,1.4375.5635l-.2818.4186c-.23-.2818-.6555-.4911-1.1557-.4911-.5348,0-.8625.2415-.8625.5877,0,.3783.4427.4991.9487.6198.6785.153,1.4605.3462,1.4605,1.2075,0,.6521-.5233,1.1753-1.5295,1.1753-.6382,0-1.1787-.1932-1.5697-.6118ZM394.2683,215.9019c0-1.1512.782-2.0366,1.9377-2.0366.713,0,1.127.2898,1.426.6762l-.4025.3703c-.2588-.3542-.5865-.5072-.9891-.5072-.828,0-1.3455.636-1.3455,1.4973s.5175,1.5054,1.3455,1.5054c.4025,0,.7303-.161.9891-.5072l.4025.3703c-.299.3864-.713.6762-1.426.6762-1.1558,0-1.9377-.8855-1.9377-2.0447ZM400.1793,217.9466c-1.1845,0-1.9263-.9177-1.9263-2.0447s.7418-2.0366,1.9263-2.0366,1.9205.9097,1.9205,2.0366-.736,2.0447-1.9205,2.0447ZM400.1793,217.4073c.828,0,1.288-.7084,1.288-1.5054,0-.7889-.46-1.4973-1.288-1.4973s-1.2995.7084-1.2995,1.4973c0,.7969.4715,1.5054,1.2995,1.5054ZM406.3145,217.85h-.6037v-2.5438c0-.6843-.345-.9016-.8683-.9016-.4773,0-.9257.2898-1.1558.6038v2.8416h-.6038v-3.8881h.6038v.5635c.276-.322.805-.6601,1.3858-.6601.8165,0,1.2419.4105,1.2419,1.2558v2.729ZM409.0803,214.4931h-.7877v3.3569h-.6038v-3.3569h-.644v-.5313h.644v-.2979c0-.805.4485-1.2638,1.127-1.2638.2242,0,.4369.0403.5864.1369l-.1495.4508c-.0977-.0563-.2127-.0885-.3507-.0885-.391,0-.6095.2737-.6095.7647v.2979h.7877v.5313ZM410.098,213.3098c-.2185,0-.4025-.1851-.4025-.4105s.184-.4025.4025-.4025c.2243,0,.4082.1771.4082.4025s-.184.4105-.4082.4105ZM410.4027,217.85h-.6037v-3.8881h.6037v3.8881ZM411.5988,218.8482l.3048-.4508c.322.3864.713.5313,1.265.5313.644,0,1.2478-.314,1.2478-1.1672v-.5555c-.2817.3945-.7533.6923-1.3053.6923-1.012,0-1.7308-.7567-1.7308-2.0125,0-1.2478.713-2.0206,1.7308-2.0206.5232,0,.9947.2576,1.3053.6843v-.5877h.6037v3.7754c0,1.288-.9027,1.6905-1.8515,1.6905-.6613,0-1.1098-.1288-1.5697-.5796ZM414.4163,216.731v-1.6985c-.2071-.3381-.6728-.6279-1.1558-.6279-.782,0-1.2478.6199-1.2478,1.4812,0,.8533.4658,1.4812,1.2478,1.4812.483,0,.9487-.2979,1.1558-.636ZM419.459,217.85h-.6037v-.5474c-.299.3381-.805.644-1.3858.644-.8108,0-1.242-.3945-1.242-1.2397v-2.745h.6038v2.5599c0,.6843.3507.8855.874.8855.4715,0,.9257-.2737,1.15-.5877v-2.8578h.6037v3.8881ZM421.2702,217.85h-.6037v-3.8881h.6037v.6279c.3105-.4105.7648-.7084,1.2938-.7084v.6199c-.0748-.0161-.1437-.0241-.2415-.0241-.368,0-.8798.3059-1.0523.6199v2.7531ZM423.093,215.9019c0-1.127.805-2.0366,1.9205-2.0366,1.173,0,1.863.9177,1.863,2.085v.1529h-3.1452c.046.7325.5635,1.3443,1.403,1.3443.4428,0,.8913-.1771,1.196-.491l.2933.3944c-.391.3864-.9143.5957-1.5468.5957-1.15,0-1.9837-.8291-1.9837-2.0447ZM425.002,214.3643c-.828,0-1.2362.7004-1.2707,1.296h2.553c-.0114-.5796-.3967-1.296-1.2822-1.296ZM431.281,217.85h-.6038v-.5796c-.2933.3945-.7647.6762-1.3167.6762-1.012,0-1.7308-.7728-1.7308-2.0366,0-1.2397.713-2.0447,1.7308-2.0447.5232,0,1.0005.2576,1.3167.6843v-2.0689h.6038v5.3694ZM430.6772,216.7954v-1.7629c-.2185-.3381-.6842-.6279-1.1672-.6279-.7821,0-1.2535.644-1.2535,1.5054s.4715,1.4973,1.2535,1.4973c.483,0,.9487-.2737,1.1672-.6118Z" fill="#91939b"/><path d="M450.325,198.3h43.125c5.081,0,9.2,4.119,9.2,9.2h0c0,5.081-4.119,9.2-9.2,9.2h-43.125c-5.081,0-9.2-4.119-9.2-9.2h0c0-5.081,4.119-9.2,9.2-9.2Z" fill="#313234"/><path d="M450.325,210.4814c0,.4698.3795.8521.851.8521h.598c.4715,0,.851-.3824.851-.8521,0-.0374.0173-.0638.0517-.0782.0345-.0138.069-.0086.092.0184.322.3209.8855.322,1.2075,0l.4197-.4221c.161-.161.2473-.3749.2473-.602,0-.2277-.0863-.4416-.2473-.602-.0287-.027-.0345-.0581-.0172-.0931.0114-.0345.0402-.0523.0804-.0523.4658,0,.8511-.3824.8511-.8516v-.5969c0-.4692-.3853-.8516-.8511-.8516-.0402,0-.069-.0178-.0804-.0523-.0173-.0351-.0115-.0661.0172-.0926.161-.161.2473-.3749.2473-.6026,0-.2271-.0863-.441-.2473-.602l-.4197-.4221c-.322-.322-.8855-.3209-1.2075,0-.023.027-.0575.0322-.092.0184-.0345-.0144-.0517-.0408-.0517-.0782,0-.4698-.3795-.8521-.851-.8521h-.598c-.4715,0-.851.3824-.851.8521,0,.0374-.0173.0638-.0517.0782-.0345.015-.069.0086-.092-.0184-.322-.3209-.8855-.322-1.2075,0l-.4197.4221c-.161.161-.2473.3749-.2473.602,0,.2277.0863.4416.2473.602.0287.027.0345.0581.0172.0931-.0114.0345-.0402.0523-.0804.0523-.4658,0-.8511.3824-.8511.8516v.5969c0,.4692.3853.8516.8511.8516.0402,0,.069.0178.0804.0523.0173.0351.0115.0661-.0172.0926-.161.161-.2473.3749-.2473.6026,0,.2271.0863.441.2473.602l.4197.4221c.322.322.8855.3209,1.2075,0,.023-.0276.0575-.0322.092-.0184.0345.0144.0517.0408.0517.0782ZM450.2387,209.6292c.1093,0,.2185.0218.3278.0655.3162.1323.5232.441.5232.7866,0,.0472.0403.0851.0863.0851h.598c.046,0,.0863-.038.0863-.0851,0-.3456.207-.6544.5232-.7866.322-.1322.6843-.0598.9315.1846.0403.0408.0748.042.115.0006l.4255-.4221c.0173-.0207.023-.0443.023-.0604,0-.0161-.0058-.0397-.023-.0604-.2473-.2444-.3163-.6089-.184-.9281.1323-.3197.437-.5256.7877-.5256.046,0,.0805-.0385.0805-.0851v-.5969c0-.0466-.0345-.0851-.0805-.0851-.3507,0-.6554-.2059-.7877-.5256-.1322-.3191-.0632-.6837.184-.9281.0173-.0207.023-.0443.023-.0604,0-.0161-.0058-.0397-.023-.0604l-.4255-.4215c-.0403-.042-.0805-.0408-.115-.0006-.2472.2449-.6095.3174-.9315.1852-.3162-.1323-.5232-.441-.5232-.7866,0-.0472-.0403-.0851-.0863-.0851h-.598c-.046,0-.0863.038-.0863.0851,0,.3456-.207.6544-.5232.7866-.322.1322-.6843.0604-.9315-.1846-.0403-.0408-.0748-.0414-.115-.0006l-.4255.4221c-.0173.0207-.023.0443-.023.0604,0,.0161.0058.0397.023.0604.2473.2444.3163.6089.184.9281-.1323.3197-.437.5256-.7877.5256-.046,0-.0805.0385-.0805.0851v.5969c0,.0466.0345.0851.0805.0851.3507,0,.6554.2059.7877.5256.1322.3191.0632.6837-.184.9281-.0173.0207-.023.0443-.023.0604,0,.0161.0058.0397.023.0604l.4255.4215c.0403.042.0748.0408.115.0006.1667-.1639.3852-.2507.6037-.2507ZM449.9397,207.5c0,.8458.69,1.5335,1.5353,1.5335s1.5353-.6877,1.5353-1.5335-.69-1.5335-1.5353-1.5335-1.5353.6877-1.5353,1.5335ZM450.7103,207.5c0-.4226.3392-.7665.7647-.7665s.7647.3439.7647.7665-.3392.7665-.7647.7665-.7647-.3439-.7647-.7665Z" fill="#4e8cff" fill-rule="evenodd"/><path d="M462.6185,209.8966c-1.5697,0-2.8175-1.127-2.8175-2.7772s1.2478-2.7773,2.8175-2.7773c1.219,0,1.9032.644,2.2827,1.3122l-.9832.483c-.2243-.4347-.7072-.7809-1.2995-.7809-.9373,0-1.6445.7487-1.6445,1.763s.7072,1.7629,1.6445,1.7629c.5923,0,1.0752-.3381,1.2995-.7809l.9832.475c-.3852.6681-1.0637,1.3202-2.2827,1.3202ZM467.3623,209.8966c-1.2822,0-2.0527-.9338-2.0527-2.0447,0-1.1028.7705-2.0366,2.0527-2.0366,1.288,0,2.0585.9338,2.0585,2.0366,0,1.1109-.7705,2.0447-2.0585,2.0447ZM467.3623,208.9869c.6382,0,1.0005-.5233,1.0005-1.135,0-.6037-.3623-1.127-1.0005-1.127s-.989.5233-.989,1.127c0,.6118.3507,1.135.989,1.135ZM473.8252,209.8h-1.0178v-2.3506c0-.5393-.2817-.7245-.7188-.7245-.4025,0-.7188.2254-.8855.4589v2.6162h-1.0235v-3.8881h1.0235v.5071c.2472-.2979.7244-.6037,1.3627-.6037.851,0,1.2592.483,1.2592,1.2397v2.745ZM477.9825,205.3403c-.3277,0-.6095-.2737-.6095-.6118s.2817-.6118.6095-.6118c.3392,0,.6095.2737.6095.6118s-.2703.6118-.6095.6118ZM476.0965,206.8054v2.9946h-1.0292v-2.9946h-.644v-.8935h.644v-.2093c0-.8453.5462-1.3524,1.311-1.3524.2932,0,.5577.0644.7417.161l-.207.7406c-.0805-.0563-.1955-.0966-.3335-.0966-.2875,0-.4831.1932-.4831.5474v.2093h.7935v.8935h-.7935ZM478.5,209.8h-1.0235v-3.8881h1.0235v3.8881ZM479.4315,210.7982l.46-.7406c.3105.3461.7245.483,1.2132.483.4945,0,1.0695-.2173,1.0695-.9821v-.3944c-.3048.3864-.7245.6118-1.196.6118-.9775,0-1.7136-.6843-1.7136-1.9803,0-1.2719.7303-1.9803,1.7136-1.9803.4657,0,.8855.2013,1.196.5957v-.4991h1.035v3.6225c0,1.4812-1.1442,1.8434-2.1044,1.8434-.667,0-1.1903-.1529-1.6733-.5796ZM482.1743,208.4234v-1.2558c-.1668-.2576-.5348-.4427-.874-.4427-.5808,0-.9832.4025-.9832,1.0706s.4025,1.0706.9832,1.0706c.3392,0,.7072-.1932.874-.4428ZM487.8668,209.8h-1.0235v-.4911c-.2645.2979-.7303.5877-1.3685.5877-.851,0-1.2535-.4669-1.2535-1.2236v-2.7612h1.0235v2.3586c0,.5394.2817.7165.713.7165.3968,0,.713-.2173.8855-.4427v-2.6324h1.0235v3.8881ZM489.908,209.8h-1.0234v-3.8881h1.0234v.5313c.2703-.3461.7533-.6198,1.2363-.6198v.9982c-.069-.0161-.1668-.0241-.2817-.0241-.3392,0-.7877.1851-.9545.4347v2.568ZM491.5353,207.8519c0-1.127.828-2.0366,2.0125-2.0366,1.1558,0,1.9493.8694,1.9493,2.1413v.2254h-2.8923c.0632.4911.46.9016,1.1212.9016.3623,0,.7877-.1449,1.035-.3864l.4542.6601c-.3967.3622-1.0005.5393-1.6042.5393-1.1845,0-2.0757-.7969-2.0757-2.0447ZM493.5478,206.6283c-.6382,0-.9085.4749-.9603.8613h1.9147c-.023-.3703-.2817-.8613-.9544-.8613Z" fill="#4e8cff"/><path d="M204.516,134.475h-.7636v-2.5944l-2.4196-3.542h.8924l1.9044,2.852,1.9044-2.852h.8924l-2.4104,3.542v2.5944ZM208.472,134.5854c-1.3524,0-2.1988-1.0488-2.1988-2.3368s.8464-2.3276,2.1988-2.3276,2.1988,1.0396,2.1988,2.3276-.8464,2.3368-2.1988,2.3368ZM208.472,133.969c.9476,0,1.472-.8096,1.472-1.7204,0-.9016-.5244-1.7112-1.472-1.7112s-1.4812.8096-1.4812,1.7112c0,.9108.5336,1.7204,1.4812,1.7204ZM215.4853,134.475h-.69v-.6256c-.3404.3864-.92.736-1.5824.736-.9292,0-1.4168-.4508-1.4168-1.4168v-3.1372h.69v2.9256c0,.782.3956,1.012.9936,1.012.5428,0,1.058-.3128,1.3156-.6716v-3.266h.69v4.4436ZM223.1449,134.475h-.69v-.6624c-.3312.4508-.874.7728-1.4996.7728-1.1592,0-1.978-.8832-1.978-2.3276,0-1.4168.8096-2.3368,1.978-2.3368.598,0,1.1408.2944,1.4996.782v-2.3644h.69v6.1364ZM222.4548,133.2698v-2.0148c-.2484-.3864-.782-.7176-1.334-.7176-.8924,0-1.426.736-1.426,1.7204s.5336,1.7112,1.426,1.7112c.552,0,1.0856-.3128,1.334-.6992ZM226.4678,134.5854c-1.3524,0-2.1988-1.0488-2.1988-2.3368s.8464-2.3276,2.1988-2.3276,2.1988,1.0396,2.1988,2.3276-.8464,2.3368-2.1988,2.3368ZM226.4678,133.969c.9476,0,1.472-.8096,1.472-1.7204,0-.9016-.5244-1.7112-1.472-1.7112s-1.4812.8096-1.4812,1.7112c0,.9108.5336,1.7204,1.4812,1.7204ZM233.4811,134.475h-.69v-2.9072c0-.782-.3956-1.0304-.9936-1.0304-.5428,0-1.058.3312-1.3156.69v3.2476h-.69v-4.4436h.69v.644c.3128-.368.92-.7544,1.5824-.7544.9292,0,1.4168.4692,1.4168,1.4352v3.1188ZM234.9795,130.335l-.3404-.2852c.2944-.1932.5612-.5612.598-.8556-.0184.0092-.0828.0184-.1288.0184-.2576,0-.4416-.1932-.4416-.4692,0-.2668.2116-.4968.4876-.4968.3036,0,.5796.2484.5796.6992,0,.5612-.3312,1.0856-.7544,1.3892ZM238.0477,134.5854c-.6532,0-.9844-.3772-.9844-1.0396v-2.9072h-.736v-.6072h.736v-1.2144h.69v1.2144h.9016v.6072h-.9016v2.76c0,.3312.1472.5704.4508.5704.1932,0,.3772-.0828.4692-.184l.2024.5152c-.1748.1656-.4232.2852-.828.2852ZM245.6906,134.475h-.69v-2.9072c0-.782-.3956-1.0304-.9936-1.0304-.5428,0-1.058.3312-1.3156.69v3.2476h-.69v-4.4436h.69v.644c.3128-.368.92-.7544,1.5824-.7544.9292,0,1.4168.4692,1.4168,1.4352v3.1188ZM246.8107,132.2486c0-1.288.92-2.3276,2.1896-2.3276,1.3432,0,2.1344,1.0488,2.1344,2.3828v.1748h-3.5972c.0552.8372.644,1.5364,1.6008,1.5364.506,0,1.0212-.2024,1.3708-.5612l.3312.4508c-.4416.4416-1.0396.6808-1.7664.6808-1.3156,0-2.2632-.9476-2.2632-2.3368ZM248.9911,130.4914c-.9476,0-1.4168.8004-1.4536,1.4812h2.9164c-.0092-.6624-.4508-1.4812-1.4628-1.4812ZM251.9949,132.2486c0-1.288.92-2.3276,2.1896-2.3276,1.3432,0,2.1344,1.0488,2.1344,2.3828v.1748h-3.5972c.0552.8372.644,1.5364,1.6008,1.5364.506,0,1.0212-.2024,1.3708-.5612l.3312.4508c-.4416.4416-1.0396.6808-1.7664.6808-1.3156,0-2.2632-.9476-2.2632-2.3368ZM254.1753,130.4914c-.9476,0-1.4168.8004-1.4536,1.4812h2.9164c-.0092-.6624-.4508-1.4812-1.4628-1.4812ZM261.3467,134.475h-.69v-.6624c-.3312.4508-.874.7728-1.4996.7728-1.1592,0-1.978-.8832-1.978-2.3276,0-1.4168.8096-2.3368,1.978-2.3368.598,0,1.1408.2944,1.4996.782v-2.3644h.69v6.1364ZM260.6567,133.2698v-2.0148c-.2484-.3864-.782-.7176-1.334-.7176-.8924,0-1.426.736-1.426,1.7204s.5336,1.7112,1.426,1.7112c.552,0,1.0856-.3128,1.334-.6992ZM266.2227,134.5854c-.6532,0-.9844-.3772-.9844-1.0396v-2.9072h-.736v-.6072h.736v-1.2144h.69v1.2144h.9016v.6072h-.9016v2.76c0,.3312.1472.5704.4508.5704.1932,0,.3772-.0828.4692-.184l.2024.5152c-.1748.1656-.4232.2852-.828.2852ZM269.7457,134.5854c-1.3524,0-2.1988-1.0488-2.1988-2.3368s.8464-2.3276,2.1988-2.3276,2.1988,1.0396,2.1988,2.3276-.8464,2.3368-2.1988,2.3368ZM269.7457,133.969c.9476,0,1.472-.8096,1.472-1.7204,0-.9016-.5244-1.7112-1.472-1.7112s-1.4812.8096-1.4812,1.7112c0,.9108.5336,1.7204,1.4812,1.7204ZM275.1835,132.2486c0-1.3156.8924-2.3276,2.2172-2.3276.8096,0,1.288.3312,1.6284.7728l-.46.4232c-.2944-.4048-.6716-.5796-1.1316-.5796-.9476,0-1.5364.7268-1.5364,1.7112s.5888,1.7204,1.5364,1.7204c.46,0,.8372-.184,1.1316-.5796l.46.4232c-.3404.4416-.8188.7728-1.6284.7728-1.3248,0-2.2172-1.012-2.2172-2.3368ZM281.9374,134.5854c-1.3524,0-2.1988-1.0488-2.1988-2.3368s.8464-2.3276,2.1988-2.3276,2.1988,1.0396,2.1988,2.3276-.8464,2.3368-2.1988,2.3368ZM281.9374,133.969c.9476,0,1.472-.8096,1.472-1.7204,0-.9016-.5244-1.7112-1.472-1.7112s-1.4812.8096-1.4812,1.7112c0,.9108.5336,1.7204,1.4812,1.7204ZM288.9501,134.475h-.69v-2.9072c0-.782-.3956-1.0304-.9936-1.0304-.5428,0-1.058.3312-1.3156.69v3.2476h-.69v-4.4436h.69v.644c.3128-.368.92-.7544,1.5824-.7544.9292,0,1.4168.4692,1.4168,1.4352v3.1188ZM292.1132,130.6386h-.9016v3.8364h-.69v-3.8364h-.736v-.6072h.736v-.3404c0-.92.5152-1.4444,1.288-1.4444.2576,0,.4968.046.6716.1564l-.1748.5152c-.1104-.0644-.2392-.1012-.3956-.1012-.4508,0-.6992.3128-.6992.874v.3404h.9016v.6072ZM293.2741,129.2862c-.2484,0-.46-.2116-.46-.4692s.2116-.46.46-.46c.2576,0,.4692.2024.4692.46s-.2116.4692-.4692.4692ZM293.6238,134.475h-.69v-4.4436h.69v4.4436ZM294.9911,135.6158l.3496-.5152c.368.4416.8096.6072,1.4444.6072.736,0,1.426-.3588,1.426-1.334v-.6348c-.322.4508-.8648.7912-1.4904.7912-1.1592,0-1.978-.8648-1.978-2.3,0-1.426.8096-2.3092,1.978-2.3092.598,0,1.1316.2944,1.4904.782v-.6716h.69v4.3148c0,1.472-1.0304,1.932-2.116,1.932-.7544,0-1.2696-.1472-1.794-.6624ZM298.2111,133.1962v-1.9412c-.2392-.3864-.7728-.7176-1.3248-.7176-.8924,0-1.426.7084-1.426,1.6928,0,.9752.5336,1.6928,1.426,1.6928.552,0,1.0856-.3404,1.3248-.7268ZM303.972,134.475h-.69v-.6256c-.3404.3864-.92.736-1.5824.736-.9292,0-1.4168-.4508-1.4168-1.4168v-3.1372h.69v2.9256c0,.782.3956,1.012.9936,1.012.5428,0,1.058-.3128,1.3156-.6716v-3.266h.69v4.4436ZM306.0403,134.475h-.69v-4.4436h.69v.7176c.3588-.4692.874-.8096,1.4812-.8096v.7084c-.0828-.0184-.1656-.0276-.276-.0276-.4232,0-1.0028.3496-1.2052.7084v3.1464ZM308.1293,132.2486c0-1.288.92-2.3276,2.1896-2.3276,1.3432,0,2.1344,1.0488,2.1344,2.3828v.1748h-3.5972c.0552.8372.644,1.5364,1.6008,1.5364.506,0,1.0212-.2024,1.3708-.5612l.3312.4508c-.4416.4416-1.0396.6808-1.7664.6808-1.3156,0-2.2632-.9476-2.2632-2.3368ZM310.3097,130.4914c-.9476,0-1.4168.8004-1.4536,1.4812h2.9164c-.0092-.6624-.4508-1.4812-1.4628-1.4812ZM317.0654,134.5854c-.6532,0-.9844-.3772-.9844-1.0396v-2.9072h-.736v-.6072h.736v-1.2144h.69v1.2144h.9016v.6072h-.9016v2.76c0,.3312.1472.5704.4508.5704.1932,0,.3772-.0828.4692-.184l.2024.5152c-.1748.1656-.4232.2852-.828.2852ZM322.3456,134.475h-.69v-2.9256c0-.782-.4048-1.012-1.0028-1.012-.5336,0-1.0488.3312-1.3156.69v3.2476h-.69v-6.1364h.69v2.3368c.3128-.368.92-.7544,1.5916-.7544.9292,0,1.4168.4508,1.4168,1.4168v3.1372ZM323.4657,132.2486c0-1.288.92-2.3276,2.1896-2.3276,1.3432,0,2.1344,1.0488,2.1344,2.3828v.1748h-3.5972c.0552.8372.644,1.5364,1.6008,1.5364.506,0,1.0212-.2024,1.3708-.5612l.3312.4508c-.4416.4416-1.0396.6808-1.7664.6808-1.3156,0-2.2632-.9476-2.2632-2.3368ZM325.6461,130.4914c-.9476,0-1.4168.8004-1.4536,1.4812h2.9164c-.0092-.6624-.4508-1.4812-1.4628-1.4812ZM334.9611,134.475h-.69v-3.0176c0-.5612-.2484-.92-.8188-.92-.46,0-.9476.3312-1.1776.6808v3.2568h-.69v-3.0176c0-.5612-.2392-.92-.8188-.92-.4508,0-.9292.3312-1.1684.69v3.2476h-.69v-4.4436h.69v.644c.184-.2852.782-.7544,1.4352-.7544.6808,0,1.0672.368,1.196.828.2484-.4048.8458-.828,1.4904-.828.8096,0,1.242.4508,1.242,1.3432v3.2108ZM342.1773,134.475h-.69v-.506c-.368.4048-.874.6164-1.472.6164-.7544,0-1.5548-.506-1.5548-1.472,0-.9936.8004-1.4628,1.5548-1.4628.6072,0,1.1132.1932,1.472.6072v-.8004c0-.598-.4784-.9384-1.1224-.9384-.5336,0-.966.1932-1.3616.6164l-.322-.4784c.4784-.4968,1.0488-.736,1.7756-.736.9384,0,1.7204.4232,1.7204,1.4996v3.0544ZM341.4873,133.5366v-.8372c-.2668-.368-.736-.552-1.2236-.552-.644,0-1.0948.4048-1.0948.9752,0,.5612.4508.966,1.0948.966.4876,0,.9568-.184,1.2236-.552ZM344.2508,134.475h-.69v-6.1364h.69v6.1364ZM346.3173,134.475h-.69v-6.1364h.69v6.1364ZM347.5553,134.061c0-.276.23-.506.506-.506s.506.23.506.506-.23.506-.506.506-.506-.23-.506-.506ZM204.516,148.275h-.7636v-2.5944l-2.4196-3.542h.8924l1.9044,2.852,1.9044-2.852h.8924l-2.4104,3.542v2.5944ZM208.472,148.3854c-1.3524,0-2.1988-1.0488-2.1988-2.3368s.8464-2.3276,2.1988-2.3276,2.1988,1.0396,2.1988,2.3276-.8464,2.3368-2.1988,2.3368ZM208.472,147.769c.9476,0,1.472-.8096,1.472-1.7204,0-.9016-.5244-1.7112-1.472-1.7112s-1.4812.8096-1.4812,1.7112c0,.9108.5336,1.7204,1.4812,1.7204ZM215.4853,148.275h-.69v-.6256c-.3404.3864-.92.736-1.5824.736-.9292,0-1.4168-.4508-1.4168-1.4168v-3.1372h.69v2.9256c0,.782.3956,1.012.9936,1.012.5428,0,1.058-.3128,1.3156-.6716v-3.266h.69v4.4436ZM218.9773,146.0486c0-1.3156.8924-2.3276,2.2172-2.3276.8096,0,1.288.3312,1.6284.7728l-.46.4232c-.2944-.4048-.6716-.5796-1.1316-.5796-.9476,0-1.5364.7268-1.5364,1.7112s.5888,1.7204,1.5364,1.7204c.46,0,.8372-.184,1.1316-.5796l.46.4232c-.3404.4416-.8188.7728-1.6284.7728-1.3248,0-2.2172-1.012-2.2172-2.3368ZM227.2584,148.275h-.69v-.506c-.368.4048-.874.6164-1.472.6164-.7544,0-1.5548-.506-1.5548-1.472,0-.9936.8004-1.4628,1.5548-1.4628.6072,0,1.1132.1932,1.472.6072v-.8004c0-.598-.4784-.9384-1.1224-.9384-.5336,0-.966.1932-1.3616.6164l-.322-.4784c.4784-.4968,1.0488-.736,1.7756-.736.9384,0,1.7204.4232,1.7204,1.4996v3.0544ZM226.5684,147.3366v-.8372c-.2668-.368-.736-.552-1.2236-.552-.644,0-1.0948.4048-1.0948.9752,0,.5612.4508.966,1.0948.966.4876,0,.9568-.184,1.2236-.552ZM232.3305,148.275h-.69v-2.9072c0-.782-.3956-1.0304-.9936-1.0304-.5428,0-1.058.3312-1.3156.69v3.2476h-.69v-4.4436h.69v.644c.3128-.368.92-.7544,1.5824-.7544.9292,0,1.4168.4692,1.4168,1.4352v3.1188ZM239.549,148.275h-.69v-.506c-.368.4048-.874.6164-1.472.6164-.7544,0-1.5548-.506-1.5548-1.472,0-.9936.8004-1.4628,1.5548-1.4628.6072,0,1.1132.1932,1.472.6072v-.8004c0-.598-.4784-.9384-1.1224-.9384-.5336,0-.966.1932-1.3616.6164l-.322-.4784c.4784-.4968,1.0488-.736,1.7756-.736.9384,0,1.7204.4232,1.7204,1.4996v3.0544ZM238.859,147.3366v-.8372c-.2668-.368-.736-.552-1.2236-.552-.644,0-1.0948.4048-1.0948.9752,0,.5612.4508.966,1.0948.966.4876,0,.9568-.184,1.2236-.552ZM241.6219,148.275h-.69v-6.1364h.69v6.1364ZM247.5341,148.275h-.69l-1.1592-3.5696-1.1592,3.5696h-.69l-1.4168-4.4436h.7176l1.0856,3.542,1.1684-3.542h.5888l1.1684,3.542,1.0856-3.542h.7176l-1.4168,4.4436ZM253.2231,148.275h-.69v-.506c-.368.4048-.874.6164-1.472.6164-.7544,0-1.5548-.506-1.5548-1.472,0-.9936.8004-1.4628,1.5548-1.4628.6072,0,1.1132.1932,1.472.6072v-.8004c0-.598-.4784-.9384-1.1224-.9384-.5336,0-.966.1932-1.3616.6164l-.322-.4784c.4784-.4968,1.0488-.736,1.7756-.736.9384,0,1.7204.4232,1.7204,1.4996v3.0544ZM252.5331,147.3366v-.8372c-.2668-.368-.736-.552-1.2236-.552-.644,0-1.0948.4048-1.0948.9752,0,.5612.4508.966,1.0948.966.4876,0,.9568-.184,1.2236-.552ZM254.3581,150.0138l.1104-.6256c.1012.046.2668.0736.3772.0736.3036,0,.506-.1012.6624-.4692l.2944-.6716-1.8584-4.4896h.7452l1.4812,3.6432,1.472-3.6432h.7544l-2.2264,5.3452c-.2668.644-.7176.8924-1.3064.9016-.1472,0-.3772-.0276-.506-.0644ZM258.7299,147.6862l.3588-.4968c.2944.3404.8556.6348,1.4628.6348.6808,0,1.0488-.3036,1.0488-.736,0-.4876-.5428-.644-1.1408-.7912-.7544-.1748-1.61-.3772-1.61-1.2972,0-.69.598-1.2788,1.656-1.2788.7544,0,1.288.2852,1.6468.644l-.322.4784c-.2668-.322-.7544-.5612-1.3248-.5612-.6072,0-.9844.276-.9844.6716,0,.4324.506.5704,1.0856.7084.7728.1748,1.6652.3956,1.6652,1.38,0,.7452-.598,1.3432-1.748,1.3432-.7268,0-1.3432-.2208-1.794-.6992ZM265.5074,146.0486c0-1.3156.8924-2.3276,2.2172-2.3276.8096,0,1.288.3312,1.6284.7728l-.46.4232c-.2944-.4048-.6716-.5796-1.1316-.5796-.9476,0-1.5364.7268-1.5364,1.7112s.5888,1.7204,1.5364,1.7204c.46,0,.8372-.184,1.1316-.5796l.46.4232c-.3404.4416-.8188.7728-1.6284.7728-1.3248,0-2.2172-1.012-2.2172-2.3368ZM272.2613,148.3854c-1.3524,0-2.1988-1.0488-2.1988-2.3368s.8464-2.3276,2.1988-2.3276,2.1988,1.0396,2.1988,2.3276-.8464,2.3368-2.1988,2.3368ZM272.2613,147.769c.9476,0,1.472-.8096,1.472-1.7204,0-.9016-.5244-1.7112-1.472-1.7112s-1.4812.8096-1.4812,1.7112c0,.9108.5336,1.7204,1.4812,1.7204ZM281.6385,148.275h-.69v-3.0176c0-.5612-.2484-.92-.8188-.92-.46,0-.9476.3312-1.1776.6808v3.2568h-.69v-3.0176c0-.5612-.2392-.92-.8188-.92-.4508,0-.9292.3312-1.1684.69v3.2476h-.69v-4.4436h.69v.644c.184-.2852.782-.7544,1.4352-.7544.6808,0,1.0672.368,1.196.828.2484-.4048.8464-.828,1.4904-.828.8096,0,1.242.4508,1.242,1.3432v3.2108ZM282.7574,146.0486c0-1.288.92-2.3276,2.1896-2.3276,1.3432,0,2.1344,1.0488,2.1344,2.3828v.1748h-3.5972c.0552.8372.644,1.5364,1.6008,1.5364.506,0,1.0212-.2024,1.3708-.5612l.3312.4508c-.4416.4416-1.0396.6808-1.7664.6808-1.3156,0-2.2632-.9476-2.2632-2.3368ZM284.9378,144.2914c-.9476,0-1.4168.8004-1.4536,1.4812h2.9164c-.0092-.6624-.4508-1.4812-1.4628-1.4812ZM291.2611,148.275h-.69v-6.1364h.69v2.3644c.3588-.4876.8924-.782,1.4996-.782,1.1592,0,1.9774.92,1.9774,2.3368,0,1.4444-.8182,2.3276-1.9774,2.3276-.6256,0-1.1684-.322-1.4996-.7728v.6624ZM291.2611,145.055v2.0148c.2392.3864.782.6992,1.3242.6992.9022,0,1.4358-.7268,1.4358-1.7112s-.5336-1.7204-1.4358-1.7204c-.5422,0-1.085.3312-1.3242.7176ZM299.3312,148.275h-.69v-.506c-.368.4048-.874.6164-1.472.6164-.7544,0-1.5548-.506-1.5548-1.472,0-.9936.8004-1.4628,1.5548-1.4628.6072,0,1.1132.1932,1.472.6072v-.8004c0-.598-.4784-.9384-1.1224-.9384-.5336,0-.966.1932-1.3616.6164l-.322-.4784c.4784-.4968,1.0488-.736,1.7756-.736.9384,0,1.7204.4232,1.7204,1.4996v3.0544ZM298.6412,147.3366v-.8372c-.2668-.368-.736-.552-1.2236-.552-.644,0-1.0948.4048-1.0948.9752,0,.5612.4508.966,1.0948.966.4876,0,.9568-.184,1.2236-.552ZM300.4565,146.0486c0-1.3156.8924-2.3276,2.2172-2.3276.8096,0,1.288.3312,1.6284.7728l-.46.4232c-.2944-.4048-.6716-.5796-1.1316-.5796-.9476,0-1.5364.7268-1.5364,1.7112s.5888,1.7204,1.5364,1.7204c.46,0,.8372-.184,1.1316-.5796l.46.4232c-.3404.4416-.8188.7728-1.6284.7728-1.3248,0-2.2172-1.012-2.2172-2.3368ZM309.1792,148.275h-.8832l-1.6008-1.9964-.736.7268v1.2696h-.69v-6.1364h.69v4.0572l2.3368-2.3644h.874l-1.9688,2.0148,1.978,2.4288ZM313.057,148.275h-.69v-6.1364h.69v6.1364ZM317.902,148.275h-.69v-.506c-.368.4048-.874.6164-1.472.6164-.7544,0-1.5548-.506-1.5548-1.472,0-.9936.8004-1.4628,1.5548-1.4628.6072,0,1.1132.1932,1.472.6072v-.8004c0-.598-.4784-.9384-1.1224-.9384-.5336,0-.966.1932-1.3616.6164l-.322-.4784c.4784-.4968,1.0488-.736,1.7756-.736.9384,0,1.7204.4232,1.7204,1.4996v3.0544ZM317.212,147.3366v-.8372c-.2668-.368-.736-.552-1.2236-.552-.644,0-1.0948.4048-1.0948.9752,0,.5612.4508.966,1.0948.966.4876,0,.9568-.184,1.2236-.552ZM320.4072,148.3854c-.6532,0-.9844-.3772-.9844-1.0396v-2.9072h-.736v-.6072h.736v-1.2144h.69v1.2144h.9016v.6072h-.9016v2.76c0,.3312.1472.5704.4508.5704.1932,0,.3772-.0828.4692-.184l.2024.5152c-.1748.1656-.4232.2852-.828.2852ZM321.7315,146.0486c0-1.288.92-2.3276,2.1896-2.3276,1.3432,0,2.1344,1.0488,2.1344,2.3828v.1748h-3.5972c.0552.8372.644,1.5364,1.6008,1.5364.506,0,1.0212-.2024,1.3708-.5612l.3312.4508c-.4416.4416-1.0396.6808-1.7664.6808-1.3156,0-2.2632-.9476-2.2632-2.3368ZM323.9119,144.2914c-.9476,0-1.4168.8004-1.4536,1.4812h2.9164c-.0092-.6624-.4508-1.4812-1.4628-1.4812ZM327.8633,148.275h-.69v-4.4436h.69v.7176c.3588-.4692.874-.8096,1.4812-.8096v.7084c-.0828-.0184-.1656-.0276-.276-.0276-.4232,0-1.0028.3496-1.2052.7084v3.1464ZM336.0501,148.275h-.69v-.506c-.368.4048-.874.6164-1.472.6164-.7544,0-1.5548-.506-1.5548-1.472,0-.9936.8004-1.4628,1.5548-1.4628.6072,0,1.1132.1932,1.472.6072v-.8004c0-.598-.4784-.9384-1.1224-.9384-.5336,0-.966.1932-1.3616.6164l-.322-.4784c.4784-.4968,1.0488-.736,1.7756-.736.9384,0,1.7204.4232,1.7204,1.4996v3.0544ZM335.3601,147.3366v-.8372c-.2668-.368-.736-.552-1.2236-.552-.644,0-1.0948.4048-1.0948.9752,0,.5612.4508.966,1.0948.966.4876,0,.9568-.184,1.2236-.552ZM341.1228,148.275h-.69v-2.9072c0-.782-.3956-1.0304-.9936-1.0304-.5428,0-1.058.3312-1.3156.69v3.2476h-.69v-4.4436h.69v.644c.3128-.368.92-.7544,1.5824-.7544.9292,0,1.4168.4692,1.4168,1.4352v3.1188ZM346.4105,148.275h-.69v-.6624c-.3312.4508-.874.7728-1.4996.7728-1.1592,0-1.978-.8832-1.978-2.3276,0-1.4168.8096-2.3368,1.978-2.3368.598,0,1.1408.2944,1.4996.782v-2.3644h.69v6.1364ZM345.7205,147.0698v-2.0148c-.2484-.3864-.782-.7176-1.334-.7176-.8924,0-1.426.736-1.426,1.7204s.5336,1.7112,1.426,1.7112c.552,0,1.0856-.3128,1.334-.6992ZM351.9489,144.4386h-.9016v3.8364h-.69v-3.8364h-.736v-.6072h.736v-.3404c0-.92.5152-1.4444,1.288-1.4444.2576,0,.4968.046.6716.1564l-.1748.5152c-.1104-.0644-.2392-.1012-.3956-.1012-.4508,0-.6992.3128-.6992.874v.3404h.9016v.6072ZM353.1098,143.0862c-.2484,0-.46-.2116-.46-.4692s.2116-.46.46-.46c.2576,0,.4692.2024.4692.46s-.2116.4692-.4692.4692ZM353.4594,148.275h-.69v-4.4436h.69v4.4436ZM358.5257,148.275h-.69v-2.9072c0-.782-.3968-1.0304-.9942-1.0304-.5428,0-1.058.3312-1.3156.69v3.2476h-.69v-4.4436h.69v.644c.3128-.368.92-.7544,1.5853-.7544.9257,0,1.4145.4692,1.4145,1.4352v3.1188ZM360.245,143.0862c-.2472,0-.46-.2116-.46-.4692s.2127-.46.46-.46c.2588,0,.4657.2024.4657.46s-.207.4692-.4657.4692ZM360.5957,148.275h-.69v-4.4436h.69v4.4436ZM361.5847,147.6862l.3565-.4968c.2933.3404.8567.6348,1.4662.6348.6785,0,1.0465-.3036,1.0465-.736,0-.4876-.5405-.644-1.1385-.7912-.759-.1748-1.61-.3772-1.61-1.2972,0-.69.598-1.2788,1.656-1.2788.7532,0,1.288.2852,1.6445.644l-.322.4784c-.2645-.322-.7533-.5612-1.3225-.5612-.6095,0-.989.276-.989.6716,0,.4324.506.5704,1.0868.7084.7762.1748,1.6675.3956,1.6675,1.38,0,.7452-.598,1.3432-1.748,1.3432-.7303,0-1.3455-.2208-1.794-.6992ZM369.9452,148.275h-.69v-2.9256c0-.782-.4082-1.012-1.0062-1.012-.529,0-1.0465.3312-1.311.69v3.2476h-.69v-6.1364h.69v2.3368c.3105-.368.92-.7544,1.587-.7544.9315,0,1.4202.4508,1.4202,1.4168v3.1372ZM374.8155,148.3854c-.6498,0-.9833-.3772-.9833-1.0396v-2.9072h-.7359v-.6072h.7359v-1.2144h.69v1.2144h.9027v.6072h-.9027v2.76c0,.3312.1495.5704.4485.5704.1955,0,.3794-.0828.4715-.184l.2012.5152c-.1725.1656-.4197.2852-.828.2852ZM380.0997,148.275h-.69v-2.9256c0-.782-.4082-1.012-1.0062-1.012-.5348,0-1.0465.3312-1.3168.69v3.2476h-.69v-6.1364h.69v2.3368c.3163-.368.92-.7544,1.5928-.7544.9315,0,1.4202.4508,1.4202,1.4168v3.1372ZM381.2152,146.0486c0-1.288.92-2.3276,2.1907-2.3276,1.3456,0,2.1333,1.0488,2.1333,2.3828v.1748h-3.5938c.0517.8372.644,1.5364,1.5984,1.5364.506,0,1.0235-.2024,1.3743-.5612l.3278.4508c-.4428.4416-1.0408.6808-1.7653.6808-1.3167,0-2.2655-.9476-2.2655-2.3368ZM383.4002,144.2914c-.9487,0-1.4202.8004-1.4547,1.4812h2.9152c-.0115-.6624-.4485-1.4812-1.4605-1.4812ZM388.7708,146.0486c0-1.3156.897-2.3276,2.2195-2.3276.8107,0,1.288.3312,1.6272.7728l-.46.4232c-.2933-.4048-.6728-.5796-1.1328-.5796-.943,0-1.5352.7268-1.5352,1.7112s.5922,1.7204,1.5352,1.7204c.46,0,.8395-.184,1.1328-.5796l.46.4232c-.3392.4416-.8165.7728-1.6272.7728-1.3225,0-2.2195-1.012-2.2195-2.3368ZM395.527,148.3854c-1.3513,0-2.1965-1.0488-2.1965-2.3368s.8452-2.3276,2.1965-2.3276,2.1965,1.0396,2.1965,2.3276-.8452,2.3368-2.1965,2.3368ZM395.527,147.769c.9487,0,1.472-.8096,1.472-1.7204,0-.9016-.5233-1.7112-1.472-1.7112s-1.4835.8096-1.4835,1.7112c0,.9108.5348,1.7204,1.4835,1.7204ZM402.542,148.275h-.69v-2.9072c0-.782-.3968-1.0304-.9948-1.0304-.5462,0-1.058.3312-1.3167.69v3.2476h-.69v-4.4436h.69v.644c.3105-.368.92-.7544,1.5812-.7544.9315,0,1.4202.4692,1.4202,1.4352v3.1188ZM405.7045,144.4386h-.9027v3.8364h-.69v-3.8364h-.736v-.6072h.736v-.3404c0-.92.5118-1.4444,1.288-1.4444.2588,0,.4945.046.6728.1564l-.1783.5152c-.1092-.0644-.2357-.1012-.3967-.1012-.4485,0-.6957.3128-.6957.874v.3404h.9027v.6072ZM406.866,143.0862c-.253,0-.46-.2116-.46-.4692s.207-.46.46-.46.4657.2024.4657.46-.2127.4692-.4657.4692ZM407.211,148.275h-.69v-4.4436h.69v4.4436ZM408.5795,149.4158l.3507-.5152c.368.4416.8108.6072,1.4433.6072.736,0,1.426-.3588,1.426-1.334v-.6348c-.322.4508-.8625.7912-1.4892.7912-1.1615,0-1.978-.8648-1.978-2.3,0-1.426.8108-2.3092,1.978-2.3092.598,0,1.1327.2944,1.4892.782v-.6716h.69v4.3148c0,1.472-1.0293,1.932-2.116,1.932-.7532,0-1.2707-.1472-1.794-.6624ZM411.7995,146.9962v-1.9412c-.2357-.3864-.7705-.7176-1.3225-.7176-.8913,0-1.4261.7084-1.4261,1.6928,0,.9752.5348,1.6928,1.4261,1.6928.552,0,1.0868-.3404,1.3225-.7268ZM417.561,148.275h-.69v-.6256c-.3393.3864-.9201.736-1.5812.736-.9315,0-1.4145-.4508-1.4145-1.4168v-3.1372h.69v2.9256c0,.782.391,1.012.989,1.012.5462,0,1.058-.3128,1.3168-.6716v-3.266h.69v4.4436ZM419.631,148.275h-.69v-4.4436h.69v.7176c.3565-.4692.874-.8096,1.4778-.8096v.7084c-.0805-.0184-.161-.0276-.276-.0276-.4198,0-1.0006.3496-1.2018.7084v3.1464ZM425.4442,148.275h-.69v-.506c-.368.4048-.874.6164-1.472.6164-.7532,0-1.5525-.506-1.5525-1.472,0-.9936.7993-1.4628,1.5525-1.4628.6095,0,1.1155.1932,1.472.6072v-.8004c0-.598-.4772-.9384-1.1212-.9384-.5348,0-.966.1932-1.3627.6164l-.322-.4784c.4772-.4968,1.0465-.736,1.7767-.736.9373,0,1.7192.4232,1.7192,1.4996v3.0544ZM424.7542,147.3366v-.8372c-.2645-.368-.736-.552-1.2248-.552-.644,0-1.0925.4048-1.0925.9752,0,.5612.4485.966,1.0925.966.4887,0,.9603-.184,1.2248-.552ZM427.9513,148.3854c-.6555,0-.9833-.3772-.9833-1.0396v-2.9072h-.736v-.6072h.736v-1.2144h.69v1.2144h.897v.6072h-.897v2.76c0,.3312.1437.5704.4484.5704.1956,0,.3795-.0828.4715-.184l.2012.5152c-.1783.1656-.4255.2852-.828.2852ZM429.8717,143.0862c-.2473,0-.46-.2116-.46-.4692s.2127-.46.46-.46c.2587,0,.4715.2024.4715.46s-.2127.4692-.4715.4692ZM430.2225,148.275h-.69v-4.4436h.69v4.4436ZM433.5402,148.3854c-1.3512,0-2.1965-1.0488-2.1965-2.3368s.8453-2.3276,2.1965-2.3276,2.1965,1.0396,2.1965,2.3276-.8452,2.3368-2.1965,2.3368ZM433.5402,147.769c.9488,0,1.472-.8096,1.472-1.7204,0-.9016-.5232-1.7112-1.472-1.7112s-1.4835.8096-1.4835,1.7112c0,.9108.5348,1.7204,1.4835,1.7204ZM440.5552,148.275h-.69v-2.9072c0-.782-.3968-1.0304-.9947-1.0304-.5463,0-1.0581.3312-1.3168.69v3.2476h-.69v-4.4436h.69v.644c.3105-.368.92-.7544,1.5813-.7544.9315,0,1.4202.4692,1.4202,1.4352v3.1188ZM441.7915,147.861c0-.276.23-.506.506-.506s.506.23.506.506-.23.506-.506.506-.506-.23-.506-.506Z" fill="#91939b"/><path d="M398.184,362.1102l.7188-.9936c.4312.4508,1.104.828,1.9493.828.7188,0,1.0695-.3404,1.0695-.69,0-.46-.5347-.6164-1.2419-.782-1.0062-.23-2.2942-.506-2.2942-1.8768,0-1.0212.8855-1.8492,2.3287-1.8492.9775,0,1.7825.2944,2.392.8556l-.7245.9568c-.5002-.46-1.1615-.6716-1.7595-.6716-.5865,0-.9028.2576-.9028.6256,0,.414.5175.5428,1.2248.7084,1.012.23,2.3.5336,2.3,1.8952,0,1.1224-.7993,1.9688-2.4553,1.9688-1.1787,0-2.024-.3956-2.6048-.9752ZM408.4363,362.975h-1.4605l-1.1787-1.7112-.5348.5704v1.1408h-1.1673v-6.1364h1.1673v3.6708l1.6848-1.978h1.4375l-1.7595,2.0148,1.8113,2.4288ZM409.5978,357.8782c-.3738,0-.6958-.3128-.6958-.6992s.322-.6992.6958-.6992c.3852,0,.7015.3128.7015.6992s-.3163.6992-.7015.6992ZM410.19,362.975h-1.173v-4.4436h1.173v4.4436ZM412.513,362.4046v2.2632h-1.1673v-6.1364h1.1673v.5612c.345-.4324.828-.6716,1.3743-.6716,1.1385,0,1.9665.8464,1.9665,2.3276s-.828,2.3368-1.9665,2.3368c-.5233,0-1.012-.2208-1.3743-.6808ZM414.6405,360.7486c0-.7636-.4484-1.288-1.1212-1.288-.3795,0-.8108.2208-1.0062.506v1.5732c.1955.276.6267.506,1.0062.506.6728,0,1.1212-.5244,1.1212-1.2972ZM418.6942,362.3954l.506-.8188c.322.3036.9832.6072,1.5353.6072.506,0,.7475-.1748.7475-.4508,0-.3128-.3852-.4232-.8912-.5244-.7648-.1472-1.748-.3312-1.748-1.3892,0-.7452.6498-1.3984,1.8228-1.3984.7532,0,1.3512.2576,1.7825.6072l-.46.8004c-.2645-.2852-.7705-.5152-1.3167-.5152-.4198,0-.6958.1564-.6958.414,0,.276.345.3772.8452.4784.7648.1472,1.7826.3496,1.7826,1.4536,0,.8188-.69,1.426-1.9206,1.426-.7762,0-1.5179-.2576-1.9895-.69ZM424.956,363.0854c-.8165,0-1.2593-.4232-1.2593-1.2144v-2.3184h-.7359v-1.0212h.7359v-1.2144h1.1788v1.2144h.9028v1.0212h-.9028v2.0056c0,.276.1438.4876.4025.4876.1783,0,.3393-.0644.4083-.1288l.2472.8832c-.1782.1564-.4887.2852-.9775.2852ZM426.29,360.7486c0-1.288.9488-2.3276,2.3-2.3276,1.3225,0,2.2252.9936,2.2252,2.4472v.2576h-3.3005c.0748.5612.5233,1.0304,1.2766,1.0304.414,0,.9027-.1656,1.1902-.4416l.5118.7544c-.4485.414-1.1385.6164-1.8285.6164-1.3512,0-2.3748-.9108-2.3748-2.3368ZM428.59,359.3502c-.7245,0-1.0407.5428-1.0924.9844h2.185c-.023-.4232-.322-.9844-1.0925-.9844ZM432.8277,362.4046v2.2632h-1.1672v-6.1364h1.1672v.5612c.3393-.4324.828-.6716,1.3743-.6716,1.1385,0,1.9665.8464,1.9665,2.3276s-.828,2.3368-1.9665,2.3368c-.529,0-1.012-.2208-1.3743-.6808ZM434.9553,360.7486c0-.7636-.4543-1.288-1.1213-1.288-.3794,0-.8107.2208-1.0062.506v1.5732c.1956.276.6268.506,1.0062.506.667,0,1.1213-.5244,1.1213-1.2972Z" fill="#4e8cff" opacity=".5"/><path d="M466.425,348.6h33.925c6.3513,0,11.5,5.1487,11.5,11.5h0c0,6.3513-5.1487,11.5-11.5,11.5h-33.925c-6.3513,0-11.5-5.1487-11.5-11.5h0c0-6.3513,5.1487-11.5,11.5-11.5Z" fill="#4e8cff"/><path d="M467.6555,363.0854c-1.794,0-3.22-1.288-3.22-3.174s1.426-3.174,3.22-3.174c1.403,0,2.185.736,2.6162,1.4996l-1.1212.552c-.2587-.4968-.8108-.8924-1.495-.8924-1.0637,0-1.8745.8556-1.8745,2.0148s.8108,2.0148,1.8745,2.0148c.6842,0,1.2363-.3864,1.495-.8924l1.1212.5428c-.4427.7636-1.2132,1.5088-2.6162,1.5088ZM473.0835,363.0854c-1.4662,0-2.346-1.0672-2.346-2.3368,0-1.2604.8798-2.3276,2.346-2.3276,1.472,0,2.3518,1.0672,2.3518,2.3276,0,1.2696-.8798,2.3368-2.3518,2.3368ZM473.0835,362.0458c.7245,0,1.1386-.598,1.1386-1.2972,0-.69-.4141-1.288-1.1386-1.288-.7302,0-1.1327.598-1.1327,1.288,0,.6992.4025,1.2972,1.1327,1.2972ZM480.4723,362.975h-1.1673v-2.6864c0-.6164-.322-.828-.8223-.828-.46,0-.8165.2576-1.012.5244v2.99h-1.1672v-4.4436h1.1672v.5796c.2875-.3404.828-.69,1.5583-.69.9717,0,1.4433.552,1.4433,1.4168v3.1372ZM483.123,363.0854c-.8223,0-1.2593-.4232-1.2593-1.2144v-2.3184h-.736v-1.0212h.736v-1.2144h1.173v1.2144h.9027v1.0212h-.9027v2.0056c0,.276.1495.4876.4082.4876.1725,0,.3392-.0644.4025-.1288l.2472.8832c-.1725.1564-.483.2852-.9717.2852ZM485.3195,357.8782c-.3795,0-.7015-.3128-.7015-.6992s.322-.6992.7015-.6992c.3853,0,.7015.3128.7015.6992s-.3162.6992-.7015.6992ZM485.906,362.975h-1.1673v-4.4436h1.1673v4.4436ZM491.2363,362.975h-1.173v-2.6864c0-.6164-.322-.828-.8165-.828-.46,0-.8165.2576-1.0119.5244v2.99h-1.1673v-4.4436h1.1673v.5796c.2875-.3404.828-.69,1.5525-.69.9775,0,1.449.552,1.449,1.4168v3.1372ZM496.5608,362.975h-1.1673v-.5612c-.3048.3404-.8395.6716-1.564.6716-.9775,0-1.4375-.5336-1.4375-1.3984v-3.1556h1.173v2.6956c0,.6164.322.8188.8165.8188.4485,0,.8108-.2484,1.012-.506v-3.0084h1.1673v4.4436ZM497.4348,360.7486c0-1.288.9487-2.3276,2.3-2.3276,1.3282,0,2.231.9936,2.231,2.4472v.2576h-3.3063c.0747.5612.5232,1.0304,1.2822,1.0304.414,0,.897-.1656,1.1845-.4416l.5175.7544c-.4543.414-1.1442.6164-1.8342.6164-1.3513,0-2.3748-.9108-2.3748-2.3368ZM499.7348,359.3502c-.7245,0-1.035.5428-1.0925.9844h2.1907c-.0287-.4232-.322-.9844-1.0982-.9844Z" fill="#fff"/></svg>