<?xml version="1.0" encoding="UTF-8"?><svg id="uuid-cd416c99-d015-4c2e-a2b7-7f771d5fbc24" xmlns="http://www.w3.org/2000/svg" width="536" height="402" viewBox="0 0 536 402"><rect width="536" height="402" fill="#17191b"/><rect y="43.4982" width="536" height="358.5018" fill="#0e0f10"/><rect y="43.4982" width="536" height=".5018" fill="#1e1e20" isolation="isolate" opacity=".1"/><path d="M36.7789,26.9444c-.0635-.0555-.1271-.1668-.1271-.2778,0-.1891.1481-.3447.3281-.3447.074,0,.1481.0222.1904.0668.5819.4223,1.1955.6446,1.8303.6446.7195,0,1.2589-.4001,1.2589-1.0226v-.0222c0-.6447-.6877-.8783-1.4494-1.1005-.8993-.2779-1.8938-.5891-1.8938-1.6562v-.0222c0-1.0005.7829-1.6896,1.8938-1.6896.6029,0,1.2696.2112,1.8197.5336.0845.0555.1798.1556.1798.3112,0,.189-.1481.3335-.3279.3335-.0741,0-.1376-.0222-.18-.0444-.4761-.2891-1.0051-.4781-1.5128-.4781-.7194,0-1.1849.4001-1.1849.9448v.0223c0,.6113.73.8448,1.5129,1.0781.8887.2779,1.8409.6336,1.8409,1.6896v.0222c0,1.1004-.8781,1.7563-1.989,1.7563-.7511,0-1.587-.2891-2.1899-.7448h0Z" fill="#fff"/><path d="M42.256,21.965c0-.2224.1481-.378.3491-.378s.3597.1556.3597.378v.9225c.4761-.7447,1.1637-1.3895,2.2429-1.3895,1.3542,0,2.7189,1.145,2.7189,3.0901v.0223c0,1.9452-1.3648,3.1012-2.7189,3.1012-1.0897,0-1.7879-.6335-2.2429-1.3339v2.7234c0,.2223-.1481.3779-.3491.3779s-.3597-.1556-.3597-.3779v-7.1362ZM47.1754,24.6328v-.0222c0-1.4784-.9627-2.4232-2.084-2.4232-1.1109,0-2.1584.9781-2.1584,2.4121v.0222c0,1.434,1.0474,2.401,2.1584,2.401,1.1531,0,2.084-.8893,2.084-2.3899h0Z" fill="#fff"/><path d="M48.8427,25.8555v-.0222c0-1.245.9945-1.923,2.4439-1.923.7512,0,1.2695.1001,1.7879.2558v-.2334c0-1.1227-.6454-1.7118-1.7562-1.7118-.5924,0-1.0897.1556-1.534.3668-.0529.0222-.0952.0333-.1375.0333-.1692,0-.3173-.1556-.3173-.3335,0-.1667.1164-.2779.2009-.3223.5608-.2557,1.1216-.4114,1.8514-.4114.7829,0,1.3965.2223,1.8091.6447.3809.4113.5819.967.5819,1.7118v3.3458c0,.2223-.1481.3668-.3491.3668s-.3491-.1445-.3491-.3446v-.6335c-.3914.5558-1.058,1.067-2.0842,1.067-1.0579,0-2.1476-.6335-2.1476-1.8563ZM53.0956,25.3775v-.6224c-.455-.1223-1.0369-.2558-1.7879-.2558-1.1109,0-1.7351.5113-1.7351,1.2894v.0333c0,.7892.7088,1.2561,1.5128,1.2561,1.0897,0,2.0102-.7003,2.0102-1.7007h0Z" fill="#fff"/><path d="M55.0261,24.6327v-.0222c0-1.6674,1.2589-3.1124,2.8988-3.1124.9521,0,1.5869.4114,2.0946.9005.053.0555.106.1557.106.2667,0,.2112-.1589.3668-.3492.3668-.0952,0-.1798-.0333-.2327-.0889-.4338-.4113-.9204-.767-1.6398-.767-1.2061,0-2.137,1.0782-2.137,2.4121v.0223c0,1.3449.9627,2.4232,2.1899,2.4232.6877,0,1.2272-.3334,1.661-.7781.0528-.0445.1269-.1.2221-.1.1693,0,.3278.1667.3278.3446,0,.0889-.0315.1778-.095.2334-.5502.578-1.1955.9781-2.1583.9781-1.6398,0-2.8882-1.4116-2.8882-3.0789h.0001Z" fill="#fff"/><path d="M63.753,27.7117c-1.5235,0-2.8035-1.245-2.8035-3.0902v-.0222c0-1.7229,1.1535-3.1013,2.698-3.1013,1.629,0,2.613,1.4228,2.613,3.0457,0,.1889-.1585.3556-.3385.3556h-4.2425c.1165,1.3673,1.0475,2.1565,2.095,2.1565.751,0,1.28-.3223,1.7135-.7558.0635-.0445.127-.0889.212-.0889.1795,0,.328.1444.328.3335,0,.0777-.0425.1667-.1165.2445-.5395.5557-1.1745.9226-2.1585.9226v.0002ZM65.5305,24.2993c-.0845-1.1338-.698-2.1453-1.904-2.1453-1.0475,0-1.841.9114-1.947,2.1453h3.851Z" fill="#fff"/><path d="M67.5075,22.0984c0-.3779.2755-.667.635-.667.349,0,.6345.2891.6345.667v.3335c.381-.5557.889-1.0671,1.788-1.0671.8465,0,1.439.4335,1.7455,1.0782.4655-.6447,1.069-1.0782,1.968-1.0782,1.2695,0,2.042.8559,2.042,2.3454v3.2569c0,.3779-.275.678-.635.678-.349,0-.6345-.3001-.6345-.678v-2.8567c0-.9893-.455-1.5228-1.2165-1.5228-.741,0-1.2805.5446-1.2805,1.5451v2.8344c0,.3779-.2855.678-.6345.678-.36,0-.6455-.3001-.6455-.678v-2.879c0-.9671-.4445-1.5006-1.206-1.5006s-1.2905.6003-1.2905,1.5562v2.8234c0,.378-.2755.678-.635.678-.349,0-.6345-.3001-.6345-.678v-4.8686h-.0005Z" fill="#fff"/><path d="M77.375,25.822v-.0222c0-1.3117.984-1.9564,2.4015-1.9564.656,0,1.132.1,1.587.2557v-.1557c0-.8892-.518-1.3673-1.4705-1.3673-.5185,0-.9415.1002-1.301.2445-.085.0333-.1485.0445-.201.0445-.2965,0-.54-.2445-.54-.5558,0-.2557.1485-.4557.3385-.5336.5505-.2334,1.1215-.3668,1.873-.3668.8565,0,1.502.2445,1.9145.678.4235.4335.614,1.067.614,1.8675v3.0345c0,.3668-.2755.6558-.614.6558-.37,0-.624-.2779-.624-.578v-.2667c-.3915.5002-1.005.9004-1.9045.9004-1.0895,0-2.0735-.6558-2.0735-1.8786h0ZM81.385,25.3885v-.4446c-.3495-.1334-.815-.2446-1.365-.2446-.878,0-1.3965.4002-1.3965,1.0448v.0222c0,.6114.5185.9559,1.164.9559.9095,0,1.5975-.5446,1.5975-1.3338h0Z" fill="#fff"/><path d="M83.948,19.8194c0-.4001.3175-.6558.7195-.6558.4125,0,.73.2557.73.6558v.0779c0,.4002-.3175.6669-.73.6669-.402,0-.7195-.2667-.7195-.6669v-.0779ZM84.033,22.0981c0-.3779.2855-.6669.6345-.6669.3595,0,.6455.2891.6455.6669v4.8686c0,.378-.286.6781-.635.6781-.3595,0-.645-.3001-.645-.6781v-4.8686Z" fill="#fff"/><path d="M86.85,19.7528c0-.3779.2855-.6781.635-.6781.3595,0,.645.3001.645.6781v7.2139c0,.378-.2855.6781-.6345.6781-.36,0-.6455-.3001-.6455-.6781v-7.2139Z" fill="#fff"/><path d="M27.0442,21.9282l2.0218,3.1891c.2943.4643.9433.4643,1.2377,0l1.8017-2.8419c.3336-.5262.3325-1.2118-.0028-1.7368l-1.9784-3.0977c-.2762-.4324-.7392-.6918-1.2348-.6918h-4.3625c-.4957,0-.9587.2594-1.2348.6918l-1.7554,2.7486c-.3315.519.0225,1.2165.6174,1.2165h3.9621c.3731,0,.7215.1959.9283.5222h-.0002Z" fill="#9c66ff"/><path d="M23.3974,25.57l-2.0218-3.1891c-.2942-.4642-.9434-.4642-1.2378,0l-1.8016,2.8419c-.3337.5262-.3325,1.2118.0028,1.7368l1.9783,3.0977c.2762.4324.7393.6919,1.2349.6919h4.3624c.4957,0,.9588-.2595,1.2348-.6919l1.7554-2.7486c.3315-.519-.0226-1.2166-.6175-1.2166h-3.9621c-.3731,0-.7215-.1959-.9283-.5222h.0002Z" fill="#9c66ff"/><path d="M23.8588,16.9157c-.2256.1192-.422.2983-.5669.5252l-1.7554,2.7485c-.3315.5191.0225,1.2166.6174,1.2166h3.9621c.3426,0,.6642.1656.8745.4453-1.3196-2.0798-2.7141-4.2775-3.1317-4.9357h0Z" fill="#8037ff"/><path d="M26.5828,30.5827c.2256-.1192.422-.2983.5669-.5252l1.7554-2.7486c.3316-.519-.0225-1.2165-.6174-1.2165h-3.9621c-.3426,0-.6641-.1656-.8745-.4454,1.3197,2.0798,2.7142,4.2775,3.1318,4.9357h0Z" fill="#8037ff"/><path d="M40.1641,70h-1.001v-3.36l-1.316,3.36h-.434l-1.316-3.36v3.36h-.994v-4.669h1.393l1.134,2.912,1.134-2.912h1.4v4.669ZM45.4454,70h-1.085l-.294-.805h-2.086l-.294.805h-1.092l1.806-4.669h1.246l1.799,4.669ZM43.7934,68.334l-.77-2.142-.777,2.142h1.547ZM46.8705,70h-.994v-4.669h.994v4.669ZM50.7656,70h-2.9682v-4.669h.994v3.794h1.9742v.875Z" fill="#767780"/><path d="M56.1411,70.3335c-.0855,0-.1705-.033-.2355-.098-.1305-.13-.1305-.3409,0-.4712l1.764-1.7644-1.764-1.7643c-.1305-.1303-.1305-.341,0-.4713.13-.1304.341-.1304.471,0l2,2c.1305.1303.1305.341,0,.4713l-2,1.9999c-.065.065-.15.098-.2355.098Z" fill="#767780"/><path d="M63.2811,69.342l.546-.756c.329.343.84.63,1.484.63.546,0,.812-.259.812-.525,0-.35-.406-.469-.945-.595-.763-.175-1.743-.385-1.743-1.428,0-.777.672-1.407,1.771-1.407.742,0,1.358.224,1.82.651l-.553.728c-.378-.35-.882-.511-1.337-.511-.448,0-.686.196-.686.476,0,.315.392.413.931.539.77.175,1.75.406,1.75,1.442,0,.854-.609,1.498-1.869,1.498-.896,0-1.54-.301-1.981-.742ZM71.1046,70h-3.304v-4.669h3.304v.854h-2.31v1.015h2.261v.854h-2.261v1.085h2.31v.861ZM73.9606,70h-1.001v-3.794h-1.365v-.875h3.724v.875h-1.358v3.794ZM78.0346,70h-1.001v-3.794h-1.365v-.875h3.724v.875h-1.358v3.794ZM81.0241,70h-.994v-4.669h.994v4.669ZM86.1296,70h-.959l-2.226-3.136v3.136h-.994v-4.669h1.022l2.163,3.024v-3.024h.994v4.669ZM86.8266,67.669c0-1.477,1.12-2.415,2.485-2.415.966,0,1.575.469,1.932,1.022l-.826.448c-.217-.329-.616-.588-1.106-.588-.847,0-1.463.651-1.463,1.533s.616,1.533,1.463,1.533c.427,0,.805-.175,1.008-.357v-.567h-1.246v-.854h2.226v1.785c-.476.532-1.141.882-1.988.882-1.365,0-2.485-.952-2.485-2.422ZM91.7666,69.342l.546-.756c.329.343.84.63,1.484.63.546,0,.812-.259.812-.525,0-.35-.406-.469-.945-.595-.763-.175-1.743-.385-1.743-1.428,0-.777.672-1.407,1.771-1.407.742,0,1.358.224,1.82.651l-.553.728c-.378-.35-.882-.511-1.337-.511-.448,0-.686.196-.686.476,0,.315.392.413.931.539.77.175,1.75.406,1.75,1.442,0,.854-.609,1.498-1.869,1.498-.896,0-1.54-.301-1.981-.742Z" fill="#8350ec"/><path d="M508,13.7491h0c5.5228,0,10,4.4772,10,10h0c0,5.5228-4.4772,10-10,10h0c-5.5228,0-10-4.4772-10-10h0c0-5.5228,4.4772-10,10-10Z" fill="#2a2b2c"/><path d="M506.75,26.9901c0,.5104.415.9258.925.9258h.65c.51,0,.925-.4154.925-.9258,0-.0408.02-.0696.055-.0854.04-.015.075-.0092.105.02.345.3491.96.35,1.3051,0l.46-.4583c.175-.175.27-.4075.27-.6546,0-.2475-.095-.48-.27-.6546-.03-.0292-.035-.063-.02-.1009.015-.0379.045-.0571.085-.0571.51,0,.925-.4154.925-.9258v-.6484c0-.5104-.415-.9258-.925-.9258-.04,0-.07-.0191-.085-.057-.015-.0379-.01-.0717.02-.1004.175-.175.27-.4075.27-.655,0-.247-.095-.4795-.27-.6545l-.46-.4584c-.35-.3504-.96-.3491-1.3051,0-.03.0292-.065.035-.105.02-.035-.0159-.055-.0446-.055-.0854,0-.5104-.415-.9258-.925-.9258h-.65c-.51,0-.925.4154-.925.9258,0,.0408-.02.0696-.055.0854-.04.0159-.075.0091-.1-.02-.35-.3491-.96-.35-1.31,0l-.46.4584c-.175.175-.27.4075-.27.6545,0,.2475.095.48.27.6546.03.0292.035.0629.02.1009-.015.0379-.045.057-.085.057-.51,0-.925.4155-.925.9258v.6484c0,.5104.415.9258.925.9258.04,0,.07.0192.085.0571.015.0379.01.0717-.02.1004-.175.175-.27.4075-.27.655,0,.2471.095.4796.27.6546l.46.4583c.35.35.96.3487,1.3051,0,.03-.0296.065-.035.105-.02.035.0158.055.0445.055.0854ZM506.655,26.0638c.12,0,.24.0233.355.0712.35.1438.575.4792.575.855,0,.0508.04.0925.09.0925h.65c.05,0,.09-.0417.09-.0925,0-.3758.225-.7112.575-.855.345-.1441.74-.0654,1.005.2004.045.0446.09.0459.13.0005l.46-.4587c.025-.0225.03-.0479.03-.0654s-.005-.0429-.03-.0654c-.265-.2659-.345-.6621-.2-1.0091.145-.3471.48-.5713.855-.5713.05,0,.095-.0417.095-.0925v-.6484c0-.0508-.045-.0925-.095-.0925-.375,0-.71-.2241-.855-.5712s-.065-.7434.2-1.0091c.025-.0225.03-.048.03-.0655s-.005-.0429-.03-.0654l-.455-.4583c-.05-.0458-.09-.0445-.13-.0004-.27.2663-.665.345-1.01.2009-.35-.1438-.575-.4792-.575-.855,0-.0508-.04-.0925-.09-.0925h-.65c-.05,0-.09.0416-.09.0925,0,.3758-.225.7113-.575.855-.345.1441-.74.0658-1.005-.2004-.045-.0445-.09-.045-.13-.0004l-.46.4587c-.025.0225-.03.0479-.03.0654s.005.043.03.0655c.265.2658.345.662.2,1.0091s-.48.5712-.855.5712c-.05,0-.095.0416-.095.0925v.6484c0,.0508.045.0925.095.0925.375,0,.71.2242.855.5713.145.347.065.7433-.2,1.0091-.025.0225-.03.0479-.03.0654s.005.0429.03.0654l.46.4583c.04.0455.085.0442.13.0005.175-.1779.41-.2721.65-.2721ZM506.335,23.7492c0,.9192.745,1.6667,1.665,1.6667s1.665-.7475,1.665-1.6667-.745-1.6667-1.665-1.6667-1.665.7475-1.665,1.6667ZM507.165,23.7492c0-.4596.375-.8333.835-.8333s.835.3737.835.8333-.375.8333-.835.8333-.835-.3738-.835-.8333Z" fill="#f5f5f5" fill-rule="evenodd"/><rect x="350.5" y="92" width="150.5" height="129.525" rx="4" ry="4" fill="#17191b" opacity=".5"/><rect x="350.5" y="228.775" width="150.5" height="129.525" rx="4" ry="4" fill="#17191b" opacity=".5"/><rect x="192.75" y="228.775" width="150.5" height="129.525" rx="4" ry="4" fill="#17191b" opacity=".5"/><rect x="35" y="92" width="150.5" height="197.9126" rx="4" ry="4" fill="#17191b" opacity=".5"/><rect x="35" y="297.1626" width="150.5" height="61.1375" rx="4" ry="4" fill="#17191b" opacity=".5"/><rect x="192.75" y="92" width="150.5" height="129.525" rx="4" ry="4" fill="#17191b"/><path d="M208.75,196.525h118.5c4.4183,0,8,3.5817,8,8h0c0,4.4183-3.5817,8-8,8h-118.5c-4.4183,0-8-3.5817-8-8h0c0-4.4183,3.5817-8,8-8Z" fill="#232426"/><path d="M239.955,206.525h-1.001v-3.36l-1.316,3.36h-.434l-1.316-3.36v3.36h-.994v-4.669h1.393l1.134,2.912,1.134-2.912h1.4v4.669ZM241.3025,202.6471c-.287,0-.532-.238-.532-.532s.245-.532.532-.532c.294,0,.532.238.532.532s-.238.532-.532.532ZM241.7505,206.525h-.889v-3.381h.889v3.381ZM242.562,207.3931l.399-.644c.273.301.63.42,1.057.42s.931-.189.931-.854v-.343c-.266.336-.63.532-1.043.532-.847,0-1.491-.595-1.491-1.722,0-1.106.637-1.722,1.491-1.722.406,0,.77.175,1.043.518v-.434h.896v3.15c0,1.288-.994,1.603-1.827,1.603-.581,0-1.036-.133-1.456-.504ZM244.949,205.3281v-1.092c-.147-.224-.469-.385-.763-.385-.504,0-.854.35-.854.931s.35.931.854.931c.294,0,.616-.168.763-.385ZM247.6155,206.525h-.889v-3.381h.889v.462c.238-.301.658-.539,1.078-.539v.868c-.063-.014-.147-.021-.245-.021-.294,0-.686.161-.833.378v2.233ZM252.168,206.525h-.889v-.35c-.231.273-.63.434-1.071.434-.539,0-1.176-.364-1.176-1.12,0-.791.637-1.078,1.176-1.078.448,0,.847.14,1.071.413v-.469c0-.343-.294-.567-.742-.567-.364,0-.7.133-.987.399l-.336-.595c.413-.364.945-.532,1.477-.532.77,0,1.477.308,1.477,1.281v2.184ZM251.279,205.713v-.42c-.147-.196-.427-.294-.714-.294-.35,0-.637.189-.637.511,0,.315.287.497.637.497.287,0,.567-.098.714-.294ZM254.184,206.6091c-.623,0-.959-.322-.959-.924v-1.764h-.56v-.777h.56v-.924h.896v.924h.686v.777h-.686v1.526c0,.21.112.371.308.371.133,0,.259-.049.308-.098l.189.672c-.133.119-.371.217-.742.217ZM255.198,204.831c0-.98.721-1.771,1.75-1.771,1.008,0,1.694.756,1.694,1.862v.196h-2.513c.056.427.399.784.973.784.315,0,.686-.126.903-.336l.392.574c-.343.315-.868.469-1.393.469-1.029,0-1.806-.693-1.806-1.778ZM256.948,203.7671c-.553,0-.791.413-.833.749h1.666c-.021-.322-.245-.749-.833-.749ZM262.2095,206.6091c-.623,0-.959-.322-.959-.924v-1.764h-.56v-.777h.56v-.924h.896v.924h.686v.777h-.686v1.526c0,.21.112.371.308.371.133,0,.259-.049.308-.098l.189.672c-.133.119-.371.217-.742.217ZM265.0085,206.6091c-1.113,0-1.785-.812-1.785-1.778,0-.959.672-1.771,1.785-1.771,1.12,0,1.792.812,1.792,1.771,0,.966-.672,1.778-1.792,1.778ZM265.0085,205.818c.553,0,.868-.455.868-.987,0-.525-.315-.98-.868-.98s-.861.455-.861.98c0,.532.308.987.861.987ZM268.95,205.8671l.546-.756c.329.343.84.63,1.484.63.546,0,.812-.259.812-.525,0-.35-.406-.469-.945-.595-.763-.175-1.743-.385-1.743-1.428,0-.777.672-1.407,1.771-1.407.742,0,1.358.224,1.82.651l-.553.728c-.378-.35-.882-.511-1.337-.511-.448,0-.686.196-.686.476,0,.315.392.413.931.539.77.175,1.75.406,1.75,1.442,0,.854-.609,1.498-1.869,1.498-.896,0-1.54-.301-1.981-.742ZM274.3375,206.0911v1.722h-.889v-4.669h.889v.427c.259-.329.63-.511,1.043-.511.868,0,1.498.644,1.498,1.771s-.63,1.778-1.498,1.778c-.399,0-.77-.168-1.043-.518ZM275.9545,204.831c0-.581-.343-.98-.854-.98-.287,0-.616.168-.763.385v1.197c.147.21.476.385.763.385.511,0,.854-.399.854-.987ZM280.462,206.525h-.889v-.35c-.231.273-.63.434-1.071.434-.539,0-1.176-.364-1.176-1.12,0-.791.637-1.078,1.176-1.078.448,0,.847.14,1.071.413v-.469c0-.343-.294-.567-.742-.567-.364,0-.7.133-.987.399l-.336-.595c.413-.364.945-.532,1.477-.532.77,0,1.477.308,1.477,1.281v2.184ZM279.573,205.713v-.42c-.147-.196-.427-.294-.714-.294-.35,0-.637.189-.637.511,0,.315.287.497.637.497.287,0,.567-.098.714-.294ZM281.127,204.831c0-1.036.749-1.771,1.792-1.771.693,0,1.113.301,1.337.616l-.581.539c-.161-.231-.406-.364-.714-.364-.539,0-.917.392-.917.98s.378.987.917.987c.308,0,.553-.14.714-.364l.581.539c-.224.315-.644.616-1.337.616-1.043,0-1.792-.735-1.792-1.778ZM284.62,204.831c0-.98.721-1.771,1.75-1.771,1.008,0,1.694.756,1.694,1.862v.196h-2.513c.056.427.399.784.973.784.315,0,.686-.126.903-.336l.392.574c-.343.315-.868.469-1.393.469-1.029,0-1.806-.693-1.806-1.778ZM286.37,203.7671c-.553,0-.791.413-.833.749h1.666c-.021-.322-.245-.749-.833-.749ZM293.795,206.525h-.896v-2.135c0-.315-.14-.539-.504-.539-.315,0-.574.21-.7.392v2.282h-.896v-2.135c0-.315-.14-.539-.504-.539-.308,0-.567.21-.7.399v2.275h-.889v-3.381h.889v.441c.14-.203.588-.525,1.106-.525.497,0,.812.231.938.616.196-.308.644-.616,1.162-.616.623,0,.994.329.994,1.022v2.443ZM297.586,206.525h-.889v-.35c-.231.273-.63.434-1.071.434-.539,0-1.176-.364-1.176-1.12,0-.791.637-1.078,1.176-1.078.448,0,.847.14,1.071.413v-.469c0-.343-.294-.567-.742-.567-.364,0-.7.133-.987.399l-.336-.595c.413-.364.945-.532,1.477-.532.77,0,1.477.308,1.477,1.281v2.184ZM296.697,205.713v-.42c-.147-.196-.427-.294-.714-.294-.35,0-.637.189-.637.511,0,.315.287.497.637.497.287,0,.567-.098.714-.294ZM298.909,202.6471c-.287,0-.532-.238-.532-.532s.245-.532.532-.532c.294,0,.532.238.532.532s-.238.532-.532.532ZM299.357,206.525h-.889v-3.381h.889v3.381ZM301.1275,206.525h-.889v-4.669h.889v4.669Z" fill="#fff"/><path d="M206.13,111h-4.72v-6.67h4.72v1.22h-3.3v1.45h3.23v1.22h-3.23v1.55h3.3v1.23ZM214.48,111h-1.28v-3.05c0-.45-.2-.77-.72-.77-.45,0-.82.3-1,.56v3.26h-1.28v-3.05c0-.45-.2-.77-.72-.77-.44,0-.81.3-1,.57v3.25h-1.27v-4.83h1.27v.63c.2-.29.84-.75,1.58-.75.71,0,1.16.33,1.34.88.28-.44.92-.88,1.66-.88.89,0,1.42.47,1.42,1.46v3.49ZM219.8955,111h-1.27v-.5c-.33.39-.9.62-1.53.62-.77,0-1.68-.52-1.68-1.6,0-1.13.91-1.54,1.68-1.54.64,0,1.21.2,1.53.59v-.67c0-.49-.42-.81-1.06-.81-.52,0-1,.19-1.41.57l-.48-.85c.59-.52,1.35-.76,2.11-.76,1.1,0,2.11.44,2.11,1.83v3.12ZM218.6255,109.84v-.6c-.21-.28-.61-.42-1.02-.42-.5,0-.91.27-.91.73,0,.45.41.71.91.71.41,0,.81-.14,1.02-.42ZM221.7855,105.46c-.41,0-.76-.34-.76-.76s.35-.76.76-.76c.42,0,.76.34.76.76s-.34.76-.76.76ZM222.4255,111h-1.27v-4.83h1.27v4.83ZM224.9545,111h-1.27v-6.67h1.27v6.67ZM236.0425,111h-1.28v-3.05c0-.45-.2-.77-.72-.77-.45,0-.82.3-1,.56v3.26h-1.28v-3.05c0-.45-.2-.77-.72-.77-.44,0-.81.3-1,.57v3.25h-1.27v-4.83h1.27v.63c.2-.29.84-.75,1.58-.75.71,0,1.16.33,1.34.88.28-.44.92-.88,1.66-.88.89,0,1.42.47,1.42,1.46v3.49ZM237.918,105.46c-.41,0-.76-.34-.76-.76s.35-.76.76-.76c.42,0,.76.34.76.76s-.34.76-.76.76ZM238.558,111h-1.27v-4.83h1.27v4.83ZM239.7175,112.24l.57-.92c.39.43.9.6,1.51.6s1.33-.27,1.33-1.22v-.49c-.38.48-.9.76-1.49.76-1.21,0-2.13-.85-2.13-2.46,0-1.58.91-2.46,2.13-2.46.58,0,1.1.25,1.49.74v-.62h1.28v4.5c0,1.84-1.42,2.29-2.61,2.29-.83,0-1.48-.19-2.08-.72ZM243.1275,109.29v-1.56c-.21-.32-.67-.55-1.09-.55-.72,0-1.22.5-1.22,1.33s.5,1.33,1.22,1.33c.42,0,.88-.24,1.09-.55ZM246.937,111h-1.27v-4.83h1.27v.66c.34-.43.94-.77,1.54-.77v1.24c-.09-.02-.21-.03-.35-.03-.42,0-.98.23-1.19.54v3.19ZM253.4405,111h-1.27v-.5c-.33.39-.9.62-1.53.62-.77,0-1.68-.52-1.68-1.6,0-1.13.91-1.54,1.68-1.54.64,0,1.21.2,1.53.59v-.67c0-.49-.42-.81-1.06-.81-.52,0-1,.19-1.41.57l-.48-.85c.59-.52,1.35-.76,2.11-.76,1.1,0,2.11.44,2.11,1.83v3.12ZM252.1705,109.84v-.6c-.21-.28-.61-.42-1.02-.42-.5,0-.91.27-.91.73,0,.45.41.71.91.71.41,0,.81-.14,1.02-.42ZM256.3205,111.12c-.89,0-1.37-.46-1.37-1.32v-2.52h-.8v-1.11h.8v-1.32h1.28v1.32h.98v1.11h-.98v2.18c0,.3.16.53.44.53.19,0,.37-.07.44-.14l.27.96c-.19.17-.53.31-1.06.31ZM258.709,105.46c-.41,0-.76-.34-.76-.76s.35-.76.76-.76c.42,0,.76.34.76.76s-.34.76-.76.76ZM259.349,111h-1.27v-4.83h1.27v4.83ZM262.8485,111.12c-1.59,0-2.55-1.16-2.55-2.54,0-1.37.96-2.53,2.55-2.53,1.6,0,2.56,1.16,2.56,2.53,0,1.38-.96,2.54-2.56,2.54ZM262.8485,109.99c.79,0,1.24-.65,1.24-1.41,0-.75-.45-1.4-1.24-1.4s-1.23.65-1.23,1.4c0,.76.44,1.41,1.23,1.41ZM270.8805,111h-1.27v-2.92c0-.67-.35-.9-.89-.9-.5,0-.89.28-1.1.57v3.25h-1.27v-4.83h1.27v.63c.31-.37.9-.75,1.69-.75,1.06,0,1.57.6,1.57,1.54v3.41Z" fill="#fff"/><path d="M213.0478,170h-.581v-4.151h-1.477v-.518h3.542v.518h-1.484v4.151ZM215.2132,170h-.525v-3.381h.525v.546c.273-.357.665-.616,1.127-.616v.539c-.063-.014-.126-.021-.21-.021-.322,0-.763.266-.917.539v2.394ZM219.6377,170h-.525v-.385c-.28.308-.665.469-1.12.469-.574,0-1.183-.385-1.183-1.12,0-.756.609-1.113,1.183-1.113.462,0,.847.147,1.12.462v-.609c0-.455-.364-.714-.854-.714-.406,0-.735.147-1.036.469l-.245-.364c.364-.378.798-.56,1.351-.56.714,0,1.309.322,1.309,1.141v2.324ZM219.1128,169.286v-.637c-.203-.28-.56-.42-.931-.42-.49,0-.833.308-.833.742,0,.427.343.735.833.735.371,0,.728-.14.931-.42ZM223.4967,170h-.525v-2.212c0-.595-.301-.784-.756-.784-.413,0-.805.252-1.001.525v2.471h-.525v-3.381h.525v.49c.238-.28.7-.574,1.204-.574.707,0,1.078.357,1.078,1.092v2.373ZM224.2512,169.552l.273-.378c.224.259.651.483,1.113.483.518,0,.798-.231.798-.56,0-.371-.413-.49-.868-.602-.574-.133-1.225-.287-1.225-.987,0-.525.455-.973,1.26-.973.574,0,.98.217,1.253.49l-.245.364c-.203-.245-.574-.427-1.008-.427-.462,0-.749.21-.749.511,0,.329.385.434.826.539.588.133,1.267.301,1.267,1.05,0,.567-.455,1.022-1.33,1.022-.553,0-1.022-.168-1.365-.532ZM229.1572,167.081h-.686v2.919h-.525v-2.919h-.56v-.462h.56v-.259c0-.7.392-1.099.98-1.099.196,0,.378.035.511.119l-.133.392c-.084-.049-.182-.077-.301-.077-.343,0-.532.238-.532.665v.259h.686v.462ZM229.5857,168.306c0-.98.7-1.771,1.666-1.771,1.022,0,1.624.798,1.624,1.813v.133h-2.737c.042.637.49,1.169,1.218,1.169.385,0,.777-.154,1.043-.427l.252.343c-.336.336-.791.518-1.344.518-1.001,0-1.722-.721-1.722-1.778ZM231.2447,166.969c-.721,0-1.078.609-1.106,1.127h2.219c-.007-.504-.343-1.127-1.113-1.127ZM234.2512,170h-.525v-3.381h.525v.546c.273-.357.665-.616,1.127-.616v.539c-.063-.014-.126-.021-.21-.021-.322,0-.763.266-.917.539v2.394ZM237.6452,168.306c0-.98.7-1.771,1.666-1.771,1.022,0,1.624.798,1.624,1.813v.133h-2.737c.042.637.49,1.169,1.218,1.169.385,0,.777-.154,1.043-.427l.252.343c-.336.336-.791.518-1.344.518-1.001,0-1.722-.721-1.722-1.778ZM239.3043,166.969c-.721,0-1.078.609-1.106,1.127h2.219c-.007-.504-.343-1.127-1.113-1.127ZM246.3917,170h-.525v-2.296c0-.427-.189-.7-.623-.7-.35,0-.721.252-.896.518v2.478h-.525v-2.296c0-.427-.182-.7-.623-.7-.343,0-.707.252-.889.525v2.471h-.525v-3.381h.525v.49c.14-.217.595-.574,1.092-.574.518,0,.812.28.91.63.189-.308.644-.63,1.134-.63.616,0,.945.343.945,1.022v2.443ZM250.0778,170h-.525v-.385c-.28.308-.665.469-1.12.469-.574,0-1.183-.385-1.183-1.12,0-.756.609-1.113,1.183-1.113.462,0,.847.147,1.12.462v-.609c0-.455-.364-.714-.854-.714-.406,0-.735.147-1.036.469l-.245-.364c.364-.378.798-.56,1.351-.56.714,0,1.309.322,1.309,1.141v2.324ZM249.5527,169.286v-.637c-.203-.28-.56-.42-.931-.42-.49,0-.833.308-.833.742,0,.427.343.735.833.735.371,0,.728-.14.931-.42ZM251.3892,166.052c-.189,0-.35-.161-.35-.357s.161-.35.35-.35c.196,0,.357.154.357.35s-.161.357-.357.357ZM251.6552,170h-.525v-3.381h.525v3.381ZM253.2277,170h-.525v-4.669h.525v4.669ZM253.9807,169.552l.273-.378c.224.259.651.483,1.113.483.518,0,.798-.231.798-.56,0-.371-.413-.49-.868-.602-.574-.133-1.225-.287-1.225-.987,0-.525.455-.973,1.26-.973.574,0,.98.217,1.253.49l-.245.364c-.203-.245-.574-.427-1.008-.427-.462,0-.749.21-.749.511,0,.329.385.434.826.539.588.133,1.267.301,1.267,1.05,0,.567-.455,1.022-1.33,1.022-.553,0-1.022-.168-1.365-.532ZM260.6917,167.081h-.686v2.919h-.525v-2.919h-.56v-.462h.56v-.259c0-.7.392-1.099.98-1.099.196,0,.378.035.511.119l-.133.392c-.084-.049-.182-.077-.301-.077-.343,0-.532.238-.532.665v.259h.686v.462ZM261.8408,170h-.525v-3.381h.525v.546c.273-.357.665-.616,1.127-.616v.539c-.063-.014-.126-.021-.21-.021-.322,0-.763.266-.917.539v2.394ZM265.1032,170.084c-1.029,0-1.673-.798-1.673-1.778s.644-1.771,1.673-1.771,1.673.791,1.673,1.771-.644,1.778-1.673,1.778ZM265.1032,169.615c.721,0,1.12-.616,1.12-1.309,0-.686-.399-1.302-1.12-1.302s-1.127.616-1.127,1.302c0,.693.406,1.309,1.127,1.309ZM272.2382,170h-.525v-2.296c0-.427-.189-.7-.623-.7-.35,0-.721.252-.896.518v2.478h-.525v-2.296c0-.427-.182-.7-.623-.7-.343,0-.707.252-.889.525v2.471h-.525v-3.381h.525v.49c.14-.217.595-.574,1.092-.574.518,0,.812.28.91.63.189-.308.644-.63,1.134-.63.616,0,.945.343.945,1.022v2.443ZM274.9012,171.323l.084-.476c.077.035.203.056.287.056.231,0,.385-.077.504-.357l.224-.511-1.414-3.416h.567l1.127,2.772,1.12-2.772h.574l-1.694,4.067c-.203.49-.546.679-.994.686-.112,0-.287-.021-.385-.049ZM279.9993,170.084c-1.029,0-1.673-.798-1.673-1.778s.644-1.771,1.673-1.771,1.673.791,1.673,1.771-.644,1.778-1.673,1.778ZM279.9993,169.615c.721,0,1.12-.616,1.12-1.309,0-.686-.399-1.302-1.12-1.302s-1.127.616-1.127,1.302c0,.693.406,1.309,1.127,1.309ZM285.3347,170h-.525v-.476c-.259.294-.7.56-1.204.56-.707,0-1.078-.343-1.078-1.078v-2.387h.525v2.226c0,.595.301.77.756.77.413,0,.805-.238,1.001-.511v-2.485h.525v3.381ZM286.9083,170h-.525v-3.381h.525v.546c.273-.357.665-.616,1.127-.616v.539c-.063-.014-.126-.021-.21-.021-.322,0-.763.266-.917.539v2.394ZM291.9758,170.084c-1.029,0-1.673-.798-1.673-1.778s.644-1.771,1.673-1.771,1.673.791,1.673,1.771-.644,1.778-1.673,1.778ZM291.9758,169.615c.721,0,1.12-.616,1.12-1.309,0-.686-.399-1.302-1.12-1.302s-1.127.616-1.127,1.302c0,.693.406,1.309,1.127,1.309ZM295.0293,170h-.525v-4.669h.525v4.669ZM299.0518,170h-.525v-.504c-.252.343-.665.588-1.141.588-.882,0-1.505-.672-1.505-1.771,0-1.078.616-1.778,1.505-1.778.455,0,.868.224,1.141.595v-1.799h.525v4.669ZM298.5268,169.083v-1.533c-.189-.294-.595-.546-1.015-.546-.679,0-1.085.56-1.085,1.309s.406,1.302,1.085,1.302c.42,0,.826-.238,1.015-.532ZM306.5138,170h-.525v-2.296c0-.427-.189-.7-.623-.7-.35,0-.721.252-.896.518v2.478h-.525v-2.296c0-.427-.182-.7-.623-.7-.343,0-.707.252-.889.525v2.471h-.525v-3.381h.525v.49c.14-.217.595-.574,1.092-.574.518,0,.812.28.91.63.189-.308.644-.63,1.134-.63.616,0,.945.343.945,1.022v2.443ZM310.2002,170h-.525v-.385c-.28.308-.665.469-1.12.469-.574,0-1.183-.385-1.183-1.12,0-.756.609-1.113,1.183-1.113.462,0,.847.147,1.12.462v-.609c0-.455-.364-.714-.854-.714-.406,0-.735.147-1.036.469l-.245-.364c.364-.378.798-.56,1.351-.56.714,0,1.309.322,1.309,1.141v2.324ZM309.6753,169.286v-.637c-.203-.28-.56-.42-.931-.42-.49,0-.833.308-.833.742,0,.427.343.735.833.735.371,0,.728-.14.931-.42ZM311.5113,166.052c-.189,0-.35-.161-.35-.357s.161-.35.35-.35c.196,0,.357.154.357.35s-.161.357-.357.357ZM311.7772,170h-.525v-3.381h.525v3.381ZM313.3498,170h-.525v-4.669h.525v4.669ZM314.9222,170h-.525v-4.669h.525v1.799c.273-.371.679-.595,1.141-.595.882,0,1.505.7,1.505,1.778,0,1.099-.623,1.771-1.505,1.771-.476,0-.889-.245-1.141-.588v.504ZM314.9222,167.55v1.533c.182.294.595.532,1.008.532.686,0,1.092-.553,1.092-1.302s-.406-1.309-1.092-1.309c-.413,0-.826.252-1.008.546ZM319.9003,170.084c-1.029,0-1.673-.798-1.673-1.778s.644-1.771,1.673-1.771,1.673.791,1.673,1.771-.644,1.778-1.673,1.778ZM319.9003,169.615c.721,0,1.12-.616,1.12-1.309,0-.686-.399-1.302-1.12-1.302s-1.127.616-1.127,1.302c0,.693.406,1.309,1.127,1.309ZM325.0102,170h-.609l-1.015-1.386-1.015,1.386h-.602l1.295-1.736-1.225-1.645h.609l.938,1.288.938-1.288h.609l-1.225,1.645,1.302,1.736ZM248.5763,180.084c-.497,0-.749-.287-.749-.791v-2.212h-.56v-.462h.56v-.924h.525v.924h.686v.462h-.686v2.1c0,.252.112.434.343.434.147,0,.287-.063.357-.14l.154.392c-.133.126-.322.217-.63.217ZM251.2573,180.084c-1.029,0-1.673-.798-1.673-1.778s.644-1.771,1.673-1.771,1.673.791,1.673,1.771-.644,1.778-1.673,1.778ZM251.2573,179.615c.721,0,1.12-.616,1.12-1.309,0-.686-.399-1.302-1.12-1.302s-1.127.616-1.127,1.302c0,.693.406,1.309,1.127,1.309ZM255.4652,179.342l.343-.441c.308.343.812.665,1.47.665.833,0,1.099-.448,1.099-.805,0-.56-.567-.714-1.183-.882-.749-.196-1.582-.406-1.582-1.323,0-.77.686-1.295,1.603-1.295.714,0,1.267.238,1.659.651l-.35.427c-.35-.385-.84-.56-1.351-.56-.56,0-.959.301-.959.742,0,.469.539.609,1.134.77.763.203,1.631.441,1.631,1.421,0,.679-.462,1.372-1.722,1.372-.812,0-1.407-.308-1.792-.742ZM260.3508,179.489v1.799h-.525v-4.669h.525v.504c.245-.343.665-.588,1.141-.588.889,0,1.505.672,1.505,1.771,0,1.092-.616,1.778-1.505,1.778-.462,0-.868-.217-1.141-.595ZM262.4437,178.306c0-.749-.406-1.302-1.085-1.302-.413,0-.826.245-1.008.539v1.526c.182.294.595.546,1.008.546.679,0,1.085-.56,1.085-1.309ZM266.4842,180h-.525v-.385c-.28.308-.665.469-1.12.469-.574,0-1.183-.385-1.183-1.12,0-.756.609-1.113,1.183-1.113.462,0,.847.147,1.12.462v-.609c0-.455-.364-.714-.854-.714-.406,0-.735.147-1.036.469l-.245-.364c.364-.378.798-.56,1.351-.56.714,0,1.309.322,1.309,1.141v2.324ZM265.9593,179.286v-.637c-.203-.28-.56-.42-.931-.42-.49,0-.833.308-.833.742,0,.427.343.735.833.735.371,0,.728-.14.931-.42ZM267.3408,178.306c0-1.001.679-1.771,1.687-1.771.616,0,.98.252,1.239.588l-.35.322c-.224-.308-.511-.441-.861-.441-.721,0-1.169.553-1.169,1.302s.448,1.309,1.169,1.309c.35,0,.637-.14.861-.441l.35.322c-.259.336-.623.588-1.239.588-1.008,0-1.687-.77-1.687-1.778ZM270.8062,178.306c0-.98.7-1.771,1.666-1.771,1.022,0,1.624.798,1.624,1.813v.133h-2.737c.042.637.49,1.169,1.218,1.169.385,0,.777-.154,1.043-.427l.252.343c-.336.336-.791.518-1.344.518-1.001,0-1.722-.721-1.722-1.778ZM272.4652,176.969c-.721,0-1.078.609-1.106,1.127h2.219c-.007-.504-.343-1.127-1.113-1.127ZM279.5528,180h-.525v-2.296c0-.427-.189-.7-.623-.7-.35,0-.721.252-.896.518v2.478h-.525v-2.296c0-.427-.182-.7-.623-.7-.343,0-.707.252-.889.525v2.471h-.525v-3.381h.525v.49c.14-.217.595-.574,1.092-.574.518,0,.812.28.91.63.189-.308.644-.63,1.134-.63.616,0,.945.343.945,1.022v2.443ZM283.2393,180h-.525v-.385c-.28.308-.665.469-1.12.469-.574,0-1.183-.385-1.183-1.12,0-.756.609-1.113,1.183-1.113.462,0,.847.147,1.12.462v-.609c0-.455-.364-.714-.854-.714-.406,0-.735.147-1.036.469l-.245-.364c.364-.378.798-.56,1.351-.56.714,0,1.309.322,1.309,1.141v2.324ZM282.7143,179.286v-.637c-.203-.28-.56-.42-.931-.42-.49,0-.833.308-.833.742,0,.427.343.735.833.735.371,0,.728-.14.931-.42ZM284.5507,176.052c-.189,0-.35-.161-.35-.357s.161-.35.35-.35c.196,0,.357.154.357.35s-.161.357-.357.357ZM284.8167,180h-.525v-3.381h.525v3.381ZM286.3888,180h-.525v-4.669h.525v4.669ZM287.3313,179.685c0-.21.175-.385.385-.385s.385.175.385.385-.175.385-.385.385-.385-.175-.385-.385Z" fill="#f8f8f8"/><path d="M268,141.5015c0,.2755.225.5005.5.5005s.5-.225.5-.5005v-3.0015c0-.065-.015-.13-.04-.19-.05-.12-.15-.22-.27-.27-.06-.025-.125-.04-.19-.04h-3c-.275,0-.5.225-.5.5,0,.2755.225.5005.5.5005h1.795l-4.15,4.147c-.195.195-.195.5105,0,.7055.1.1.225.145.355.145s.255-.05.355-.145l4.145-4.147v1.7955Z" fill="#fff"/><path d="M272.855,142.147c-.195-.195-.51-.195-.705,0l-4.145,4.147v-1.7955c0-.2755-.225-.5005-.5-.5005s-.5.225-.5.5005v3.0015c0,.065.015.13.04.19.05.12.15.22.27.27.06.025.125.04.19.04h3c.275,0,.5-.225.5-.5,0-.2755-.225-.5005-.5-.5005h-1.795l4.145-4.147c.195-.195.195-.5105,0-.7055Z" fill="#fff"/></svg>