<?xml version="1.0" encoding="UTF-8"?><svg id="uuid-e17b9dec-1c47-41f3-ada5-e5526db3afff" xmlns="http://www.w3.org/2000/svg" width="96" height="96" xmlns:xlink="http://www.w3.org/1999/xlink" viewBox="0 0 96 96"><defs><linearGradient id="uuid-151ea1a1-d473-4d74-b0c3-2dfa7db4affb" x1="64.208" y1="91.8849" x2="64.208" y2="46.4501" gradientUnits="userSpaceOnUse"><stop offset="0" stop-color="#5b31b9"/><stop offset=".1349" stop-color="#5b31b9" stop-opacity=".7354"/><stop offset=".2706" stop-color="#5b31b9" stop-opacity=".512"/><stop offset=".4098" stop-color="#5b31b9" stop-opacity=".3268"/><stop offset=".5507" stop-color="#5b31b9" stop-opacity=".1832"/><stop offset=".6941" stop-color="#5b31b9" stop-opacity=".081"/><stop offset=".8418" stop-color="#5b31b9" stop-opacity=".02"/><stop offset="1" stop-color="#5b31b9" stop-opacity="0"/></linearGradient><linearGradient id="uuid-b96464fe-e4c7-4b67-8936-e81545328e30" x1="47.2657" y1="95.2948" x2="47.2657" y2=".7054" gradientUnits="userSpaceOnUse"><stop offset="0" stop-color="#5b31b9"/><stop offset="1" stop-color="#854ffd"/></linearGradient></defs><polygon points="87.4106 43.8785 41.0054 43.8785 41.0054 92.836 87.4106 43.8785" fill="url(#uuid-151ea1a1-d473-4d74-b0c3-2dfa7db4affb)"/><path d="M43.4674,95.2948c-.5811,0-1.1646-.2012-1.6377-.6118-1.043-.9053-1.1543-2.4839-.2495-3.5269l38.7056-44.5957h-21.0718c-4.3223,0-7.8389-3.5166-7.8389-7.8389V9.8222L14.3018,51.8827h27.9316c1.3809,0,2.5,1.1191,2.5,2.5s-1.1191,2.5-2.5,2.5H8.7657c-.9824,0-1.874-.5757-2.2783-1.4712s-.2471-1.9448.4028-2.6821L51.9996,1.5517c.687-.7793,1.7856-1.0518,2.7593-.6855.9727.3677,1.6162,1.2988,1.6162,2.3389v35.5166c0,1.5654,1.2734,2.8389,2.8389,2.8389h26.5518c.979,0,1.8682.5718,2.2744,1.4624s.2554,1.937-.3862,2.6763l-42.2974,48.7344c-.4946.5693-1.1899.8613-1.8892.8613Z" fill="url(#uuid-b96464fe-e4c7-4b67-8936-e81545328e30)"/><rect width="96" height="96" fill="none"/></svg>