<?xml version="1.0" encoding="UTF-8"?><svg id="uuid-3cfefdc4-9ecc-41a7-900f-74b41a0dc9f1" xmlns="http://www.w3.org/2000/svg" width="96" height="96" xmlns:xlink="http://www.w3.org/1999/xlink" viewBox="0 0 96 96"><defs><linearGradient id="uuid-f15e9a99-fb96-48c9-98ba-8470855da9f7" x1="65.1462" y1="83.3804" x2="65.1462" y2="28.8923" gradientUnits="userSpaceOnUse"><stop offset="0" stop-color="#5b31b9"/><stop offset=".1349" stop-color="#5b31b9" stop-opacity=".7354"/><stop offset=".2706" stop-color="#5b31b9" stop-opacity=".512"/><stop offset=".4098" stop-color="#5b31b9" stop-opacity=".3268"/><stop offset=".5507" stop-color="#5b31b9" stop-opacity=".1832"/><stop offset=".6941" stop-color="#5b31b9" stop-opacity=".081"/><stop offset=".8418" stop-color="#5b31b9" stop-opacity=".02"/><stop offset="1" stop-color="#5b31b9" stop-opacity="0"/></linearGradient><linearGradient id="uuid-e63f27f5-4743-4c3f-b607-bff84e21fb94" x1="11.2101" y1="48.0002" x2="84.7902" y2="48.0002" gradientUnits="userSpaceOnUse"><stop offset="0" stop-color="#5b31b9"/><stop offset="1" stop-color="#854ffd"/></linearGradient><linearGradient id="uuid-92fcc1ad-ad0d-4646-a16d-7942c85d58d5" x1="60.0316" y1="40.2214" x2="36.4958" y2="40.2214" gradientUnits="userSpaceOnUse"><stop offset="0" stop-color="#854ffd"/><stop offset=".0191" stop-color="#854ffd" stop-opacity=".9599"/><stop offset=".1336" stop-color="#854ffd" stop-opacity=".7378"/><stop offset=".2515" stop-color="#854ffd" stop-opacity=".5409"/><stop offset=".3704" stop-color="#854ffd" stop-opacity=".3747"/><stop offset=".4906" stop-color="#854ffd" stop-opacity=".2392"/><stop offset=".6122" stop-color="#854ffd" stop-opacity=".134"/><stop offset=".7361" stop-color="#854ffd" stop-opacity=".0593"/><stop offset=".8635" stop-color="#854ffd" stop-opacity=".0146"/><stop offset="1" stop-color="#854ffd" stop-opacity="0"/></linearGradient></defs><path d="M48.0025,10.3396h34.2874v41.0334c0,18.9237-15.3637,34.2874-34.2874,34.2874h0V10.3396h0Z" fill="url(#uuid-f15e9a99-fb96-48c9-98ba-8470855da9f7)"/><path d="M48.0002,88.1606c-20.2861,0-36.79-16.5039-36.79-36.79V10.3398c0-1.3809,1.1191-2.5,2.5-2.5h57.8296c1.3809,0,2.5,1.1191,2.5,2.5s-1.1191,2.5-2.5,2.5H16.2101v38.5308c0,17.5293,14.2607,31.79,31.79,31.79s31.79-14.2607,31.79-31.79v-29.5693c0-1.3809,1.1191-2.5,2.5-2.5s2.5,1.1191,2.5,2.5v29.5693c0,20.2861-16.5039,36.79-36.79,36.79Z" fill="url(#uuid-e63f27f5-4743-4c3f-b607-bff84e21fb94)"/><rect x="31.2667" y="34.9493" width="33.4665" height="10.5444" rx="5.2722" ry="5.2722" fill="url(#uuid-92fcc1ad-ad0d-4646-a16d-7942c85d58d5)"/><circle cx="59.461" cy="40.2214" r="5.291" fill="#864fff"/><rect width="96" height="96" fill="none"/></svg>