<?xml version="1.0" encoding="UTF-8"?><svg id="uuid-504ea048-95be-460e-9df5-a330caa391ce" xmlns="http://www.w3.org/2000/svg" width="96" height="96" xmlns:xlink="http://www.w3.org/1999/xlink" viewBox="0 0 96 96"><defs><linearGradient id="uuid-212f4eb6-89c4-4b80-a21e-74a243065832" x1="2.9644" y1="59.2102" x2="76.1531" y2="21.9849" gradientUnits="userSpaceOnUse"><stop offset="0" stop-color="#5b31b9"/><stop offset=".1349" stop-color="#5b31b9" stop-opacity=".7354"/><stop offset=".2706" stop-color="#5b31b9" stop-opacity=".512"/><stop offset=".4098" stop-color="#5b31b9" stop-opacity=".3268"/><stop offset=".5507" stop-color="#5b31b9" stop-opacity=".1832"/><stop offset=".6941" stop-color="#5b31b9" stop-opacity=".081"/><stop offset=".8418" stop-color="#5b31b9" stop-opacity=".02"/><stop offset="1" stop-color="#5b31b9" stop-opacity="0"/></linearGradient><linearGradient id="uuid-502797d2-ddfa-4ce6-af88-183119bee2a2" x1="-3.6369" y1="65.8226" x2="77.4647" y2="11.3514" gradientUnits="userSpaceOnUse"><stop offset="0" stop-color="#5b31b9"/><stop offset="1" stop-color="#854ffd"/></linearGradient></defs><polygon points="8.1867 44.7582 8.1577 68.3647 29.2061 56.8491 93 23.0981 8.1867 44.7582" fill="url(#uuid-212f4eb6-89c4-4b80-a21e-74a243065832)"/><path d="M40.6597,75.5004c-2.5459,0-4.937-.9946-6.7368-2.8013-.1089-.1094-.208-.229-.2949-.3569l-6.0908-8.9438-18.1611,9.8262c-.7749.4194-1.7129.3999-2.4692-.0513-.7568-.4507-1.2202-1.2666-1.2202-2.1475v-24.2837c0-1.3809,1.1191-2.5,2.5-2.5s2.5,1.1191,2.5,2.5v20.0884l16.457-8.9038c1.1255-.6104,2.5342-.2681,3.2559.7915l7.2163,10.5967c.8364.7676,1.9243,1.2197,3.0532,1.1855,1.2095-.0024,2.3457-.479,3.1982-1.3423l43.147-43.6582H3c-1.3809,0-2.5-1.1191-2.5-2.5s1.1191-2.5,2.5-2.5h90c1.0083,0,1.918.606,2.3066,1.5366s.1802,2.0034-.5283,2.7207l-47.3545,47.9155c-1.7969,1.8184-4.1924,2.8223-6.7451,2.8271-.0063.0005-.0127.0005-.019.0005Z" fill="url(#uuid-502797d2-ddfa-4ce6-af88-183119bee2a2)"/><rect width="96" height="96" fill="none"/></svg>