<?xml version="1.0" encoding="UTF-8"?><svg id="uuid-371c1696-8ab3-464d-9d24-c3243ad235b9" xmlns="http://www.w3.org/2000/svg" width="632" height="632" xmlns:xlink="http://www.w3.org/1999/xlink" viewBox="0 0 632 632"><defs><clipPath id="uuid-2d163729-c8f2-4b6c-87b6-ee8be04a6481"><rect x="0" y="0" width="632" height="632" fill="none"/></clipPath><linearGradient id="uuid-cf63ec2b-f95c-4f48-a605-f7fda78f9add" x1="-3527.7745" y1="861.9846" x2="-3203.5627" y2="861.9846" gradientTransform="translate(2055.5817 -2669.2382) rotate(-45)" gradientUnits="userSpaceOnUse"><stop offset="0" stop-color="#fff"/><stop offset="1" stop-color="#fff" stop-opacity="0"/></linearGradient><mask id="uuid-1b7998cc-aac8-4d18-bc22-807178a03ce1" x="123.1039" y="158.0582" width="324.2118" height="324.2118" maskUnits="userSpaceOnUse"><circle cx="285.2098" cy="320.164" r="162.1059" fill="url(#uuid-cf63ec2b-f95c-4f48-a605-f7fda78f9add)"/></mask><linearGradient id="uuid-15a6ab0c-4f35-4beb-8e9f-df13093ca0c5" x1="-2346.2008" y1="874.1085" x2="-2262.9071" y2="874.1085" gradientTransform="translate(2536.6462 -558.0058)" xlink:href="#uuid-cf63ec2b-f95c-4f48-a605-f7fda78f9add"/><mask id="uuid-bb2fb720-9a2a-4733-b72d-1d70d5937f81" x="190.4454" y="274.4558" width="83.2937" height="83.2937" maskUnits="userSpaceOnUse"><circle cx="232.0922" cy="316.1027" r="41.6469" fill="url(#uuid-15a6ab0c-4f35-4beb-8e9f-df13093ca0c5)"/></mask><linearGradient id="uuid-c8a7111f-5ca0-4bc5-acb6-1a3ae1092c2f" x1="-949.5274" y1="-1338.9341" x2="-866.2336" y2="-1338.9341" gradientTransform="translate(-1270.1137 -38.5697) rotate(135)" xlink:href="#uuid-cf63ec2b-f95c-4f48-a605-f7fda78f9add"/><mask id="uuid-f800163b-d64d-40ae-9cf8-394bb858b204" x="276.9773" y="224.5844" width="83.2937" height="83.2937" maskUnits="userSpaceOnUse"><circle cx="318.6242" cy="266.2312" r="41.6469" fill="url(#uuid-c8a7111f-5ca0-4bc5-acb6-1a3ae1092c2f)"/></mask><linearGradient id="uuid-c2f5d52b-6f76-441c-9d4a-fe5c6927306b" x1="-2788.3529" y1="-1702.5283" x2="-2705.0591" y2="-1702.5283" gradientTransform="translate(-419.721 -2779.7794) rotate(-135)" xlink:href="#uuid-cf63ec2b-f95c-4f48-a605-f7fda78f9add"/><mask id="uuid-028bbae5-0dce-4486-b9cb-b157f33cec1f" x="276.9773" y="324.6575" width="83.2937" height="83.2937" maskUnits="userSpaceOnUse"><circle cx="318.6242" cy="366.3044" r="41.6469" fill="url(#uuid-c2f5d52b-6f76-441c-9d4a-fe5c6927306b)"/></mask><linearGradient id="uuid-f49ec3c7-0042-44c6-8bd3-f90b4dc4ef2b" x1="-1034.3684" y1="-1439.334" x2="-1189.5002" y2="-1349.7686" gradientTransform="translate(1609.6766 -927.0174) rotate(-90)" gradientUnits="userSpaceOnUse"><stop offset="0" stop-color="#fff" stop-opacity="0"/><stop offset=".1021" stop-color="#fff" stop-opacity=".2236"/><stop offset=".2381" stop-color="#fff" stop-opacity=".4965"/><stop offset=".3609" stop-color="#fff" stop-opacity=".7131"/><stop offset=".4659" stop-color="#fff" stop-opacity=".8691"/><stop offset=".5491" stop-color="#fff" stop-opacity=".9648"/><stop offset=".6" stop-color="#fff"/></linearGradient><mask id="uuid-3f94a7c3-d8b5-4dea-a2d3-072ce939a76f" x="80.7772" y="55.6405" width="179.1307" height="206.8423" maskUnits="userSpaceOnUse"><polygon points="80.7772 159.0615 259.9079 262.4828 259.908 55.6405 80.7772 159.0615" fill="url(#uuid-f49ec3c7-0042-44c6-8bd3-f90b4dc4ef2b)"/></mask><linearGradient id="uuid-91bd5fac-e705-4f63-bb3c-eb2f9ad3bccd" x1="1001.6049" y1="-33.7038" x2="846.4732" y2="55.8616" gradientTransform="translate(-351.3287 -155.3476) rotate(30)" xlink:href="#uuid-f49ec3c7-0042-44c6-8bd3-f90b4dc4ef2b"/><mask id="uuid-72f31045-0965-4361-bae6-b2dda529f321" x="353.8042" y="212.8467" width="179.1307" height="206.8423" maskUnits="userSpaceOnUse"><polygon points="532.9349 212.8467 353.8042 316.2678 532.9349 419.689 532.9349 212.8467" fill="url(#uuid-91bd5fac-e705-4f63-bb3c-eb2f9ad3bccd)"/></mask><linearGradient id="uuid-1e85ab56-55af-4175-aacb-21657a12f0ed" x1="1673.5606" y1="-1980.0376" x2="1518.4288" y2="-1890.4722" gradientTransform="translate(629.6683 -2026.8944) rotate(150)" xlink:href="#uuid-f49ec3c7-0042-44c6-8bd3-f90b4dc4ef2b"/><mask id="uuid-b20621bf-c92b-4ed0-9fcf-af26a11e3f12" x="80.7772" y="369.5172" width="179.1307" height="206.8423" maskUnits="userSpaceOnUse"><polygon points="259.9078 576.3595 259.9078 369.5172 80.7772 472.9384 259.9078 576.3595" fill="url(#uuid-1e85ab56-55af-4175-aacb-21657a12f0ed)"/></mask></defs><g clip-path="url(#uuid-2d163729-c8f2-4b6c-87b6-ee8be04a6481)"><g mask="url(#uuid-1b7998cc-aac8-4d18-bc22-807178a03ce1)"><circle cx="285.2098" cy="320.164" r="159.8227" fill="#3dc6af"/></g><g mask="url(#uuid-bb2fb720-9a2a-4733-b72d-1d70d5937f81)"><circle cx="232.0922" cy="316.1027" r="41.0603" fill="#13242d"/></g><g mask="url(#uuid-f800163b-d64d-40ae-9cf8-394bb858b204)"><circle cx="318.6242" cy="266.2312" r="41.0603" fill="#13242d"/></g><g mask="url(#uuid-028bbae5-0dce-4486-b9cb-b157f33cec1f)"><circle cx="318.6242" cy="366.3044" r="41.0603" fill="#13242d"/></g><g mask="url(#uuid-3f94a7c3-d8b5-4dea-a2d3-072ce939a76f)"><path d="M108.2092,174.8994l124.2668,71.7456c12.192,7.039,27.4319-1.7597,27.4319-15.8378V87.3161c0-14.0781-15.2399-22.8769-27.4318-15.8378l-124.2669,71.7454c-12.192,7.039-12.192,24.6366,0,31.6756Z" fill="#38b0e8"/></g><g mask="url(#uuid-72f31045-0965-4361-bae6-b2dda529f321)"><path d="M505.503,228.6845l-124.2669,71.7455c-12.192,7.039-12.192,24.6366,0,31.6756l124.2668,71.7455c12.192,7.039,27.4319-1.7598,27.4319-15.8378v-143.491c0-14.0781-15.2399-22.8769-27.4319-15.8378Z" fill="#38b0e8"/></g><g mask="url(#uuid-b20621bf-c92b-4ed0-9fcf-af26a11e3f12)"><path d="M259.9078,544.6839v-143.491c0-14.0781-15.24-22.8769-27.4319-15.8378l-124.2668,71.7455c-12.192,7.039-12.192,24.6366,0,31.6756l124.2668,71.7455c12.192,7.039,27.4319-1.7598,27.4319-15.8378Z" fill="#38b0e8"/></g></g></svg>