<?xml version="1.0" encoding="UTF-8"?><svg id="uuid-b16e45b1-f2de-4d9e-82a6-b0b2d32baa3b" xmlns="http://www.w3.org/2000/svg" width="632" height="632" xmlns:xlink="http://www.w3.org/1999/xlink" viewBox="0 0 632 632"><defs><clipPath id="uuid-e09ab995-3d5d-44f0-8c2b-4d57fe697ed2"><rect width="632" height="632" fill="none"/></clipPath><linearGradient id="uuid-69490533-cb39-42fe-ae76-87f764667f87" x1="-38.9212" y1="-4461.3625" x2="249.5358" y2="-4628.4271" gradientTransform="translate(-2119.3776 4206.6199) rotate(30)" gradientUnits="userSpaceOnUse"><stop offset="0" stop-color="#fff"/><stop offset="1" stop-color="#fff" stop-opacity="0"/></linearGradient><mask id="uuid-7588e595-4b26-4dec-8157-b82e74f2ec4b" x="75.9821" y="135.6858" width="334.7654" height="374.8588" maskUnits="userSpaceOnUse"><path d="M351.0662,142.2595l-253.5699,146.3986c-26.525,15.3142-26.525,53.5998,0,68.9141l253.5699,146.3986c26.525,15.3142,59.6813-3.8286,59.6813-34.457V176.7166c0-30.6285-33.1563-49.7713-59.6813-34.457Z" fill="url(#uuid-69490533-cb39-42fe-ae76-87f764667f87)"/></mask><linearGradient id="uuid-82ad0fb7-563a-4d2f-9575-c069dbaf0c25" x1="-16009.9336" y1="4714.8925" x2="-15637.7236" y2="4714.8925" gradientTransform="translate(-15736.6765 4206.6199) rotate(150) scale(1 -1)" xlink:href="#uuid-69490533-cb39-42fe-ae76-87f764667f87"/><mask id="uuid-5637b2de-43d0-4c2b-982e-61b24e408dd7" x="221.5051" y="227.2064" width="334.5128" height="374.5759" maskUnits="userSpaceOnUse"><path d="M281.1414,233.7751l253.3785,146.2882c26.505,15.3027,26.505,53.5594,0,68.8621l-253.3785,146.2882c-26.505,15.3027-59.6363-3.8257-59.6363-34.431v-292.5763c0-30.6054,33.1313-49.7337,59.6363-34.431Z" fill="url(#uuid-82ad0fb7-563a-4d2f-9575-c069dbaf0c25)"/></mask><linearGradient id="uuid-fccb415e-a0f8-4ef9-a6fe-caa9ede6ee3e" x1="-72.6328" y1="-4519.1249" x2="159.4211" y2="-4653.8354" gradientTransform="translate(-2119.3776 4206.6199) rotate(30)" xlink:href="#uuid-69490533-cb39-42fe-ae76-87f764667f87"/><mask id="uuid-42758673-655c-4a3d-b90b-d3214bdb4b09" x="75.9965" y="105.2902" width="269.3466" height="301.605" maskUnits="userSpaceOnUse"><path d="M297.3244,110.5793l-204.018,117.7899c-21.3416,12.3216-21.3416,43.1255,0,55.4471l204.018,117.7899c21.3416,12.3216,48.0186-3.0804,48.0186-27.7235v-235.5797c0-24.6432-26.677-40.0451-48.0186-27.7235Z" fill="url(#uuid-fccb415e-a0f8-4ef9-a6fe-caa9ede6ee3e)"/></mask><linearGradient id="uuid-788385b3-e475-4fb7-91bb-0d2256557dad" x1="-16290.977" y1="4843.4961" x2="-16058.4856" y2="4709.7398" gradientTransform="translate(-15976.1882 4206.6199) rotate(150) scale(1 -1)" xlink:href="#uuid-69490533-cb39-42fe-ae76-87f764667f87"/><mask id="uuid-b1d34730-1b5c-4fff-b8a4-b0c7af2c85b6" x="285.9316" y="105.2902" width="269.3466" height="301.605" maskUnits="userSpaceOnUse"><path d="M333.9502,110.5793l204.018,117.7899c21.3416,12.3216,21.3416,43.1255,0,55.4471l-204.018,117.7899c-21.3416,12.3216-48.0186-3.0804-48.0186-27.7235v-235.5797c0-24.6432,26.677-40.0451,48.0186-27.7235Z" fill="url(#uuid-788385b3-e475-4fb7-91bb-0d2256557dad)"/></mask><linearGradient id="uuid-c2cac061-b335-4306-85f6-b07b20a0f5d9" x1="-111.0332" y1="-4585.6828" x2="122.3297" y2="-4718.7917" gradientTransform="translate(-2119.3776 4206.6199) rotate(30)" xlink:href="#uuid-69490533-cb39-42fe-ae76-87f764667f87"/><mask id="uuid-237c602b-3b0b-4aee-9ac6-7e58739f69ac" x="75.9965" y="30.2178" width="269.3466" height="301.605" maskUnits="userSpaceOnUse"><path d="M297.3244,35.5069l-204.018,117.7899c-21.3416,12.3216-21.3416,43.1255,0,55.4471l204.018,117.7899c21.3416,12.3216,48.0186-3.0804,48.0186-27.7235V63.2304c0-24.6432-26.677-40.0451-48.0186-27.7235Z" fill="url(#uuid-c2cac061-b335-4306-85f6-b07b20a0f5d9)"/></mask><linearGradient id="uuid-a4741c6b-a383-47e7-bf22-0795b5d4a235" x1="-16329.492" y1="4776.7722" x2="-16095.0335" y2="4644.4904" gradientTransform="translate(-15976.1882 4206.6199) rotate(150) scale(1 -1)" xlink:href="#uuid-69490533-cb39-42fe-ae76-87f764667f87"/><mask id="uuid-26e78151-51c7-4b7c-afd2-66b081dd0447" x="285.9316" y="30.2178" width="269.3466" height="301.605" maskUnits="userSpaceOnUse"><path d="M333.9502,35.5069l204.018,117.7899c21.3416,12.3216,21.3416,43.1255,0,55.4471l-204.018,117.7899c-21.3416,12.3216-48.0186-3.0804-48.0186-27.7235V63.2304c0-24.6432,26.677-40.0451,48.0186-27.7235Z" fill="url(#uuid-a4741c6b-a383-47e7-bf22-0795b5d4a235)"/></mask></defs><g clip-path="url(#uuid-e09ab995-3d5d-44f0-8c2b-4d57fe697ed2)"><g mask="url(#uuid-7588e595-4b26-4dec-8157-b82e74f2ec4b)"><path d="M353.4968,140.8562L95.0656,290.0615c-25.4448,14.6905-25.4448,51.4169,0,66.1074l258.4312,149.2053c25.4448,14.6905,57.2507-3.6726,57.2507-33.0537V173.9099c0-29.3811-31.8059-47.7442-57.2507-33.0537Z" fill="#62cdff"/></g><g mask="url(#uuid-5637b2de-43d0-4c2b-982e-61b24e408dd7)"><path d="M278.7126,232.3728l258.2361,149.0927c25.4256,14.6795,25.4256,51.3781,0,66.0575l-258.2361,149.0927c-25.4256,14.6795-57.2075-3.6699-57.2075-33.0288v-298.1854c0-29.3589,31.7819-47.7082,57.2075-33.0288Z" fill="#62cdff"/></g><g mask="url(#uuid-42758673-655c-4a3d-b90b-d3214bdb4b09)"><path d="M299.2801,109.4502l-207.9293,120.048c-20.4724,11.8198-20.4724,41.3691,0,53.1889l207.9293,120.048c20.4724,11.8198,46.0629-2.9549,46.0629-26.5945v-240.0961c0-23.6395-25.5905-38.4142-46.0629-26.5945Z" fill="#b3f0e5"/></g><g mask="url(#uuid-b1d34730-1b5c-4fff-b8a4-b0c7af2c85b6)"><path d="M331.9945,109.4502l207.9293,120.048c20.4724,11.8198,20.4724,41.3691,0,53.1889l-207.9293,120.048c-20.4724,11.8198-46.0629-2.9549-46.0629-26.5945v-240.0961c0-23.6395,25.5905-38.4142,46.0629-26.5945Z" fill="#b3f0e5"/></g><g mask="url(#uuid-237c602b-3b0b-4aee-9ac6-7e58739f69ac)"><path d="M299.2801,34.3778l-207.9293,120.048c-20.4724,11.8198-20.4724,41.3691,0,53.1889l207.9293,120.048c20.4724,11.8198,46.0629-2.9549,46.0629-26.5945V60.9722c0-23.6395-25.5905-38.4142-46.0629-26.5945Z" fill="#fff"/></g><g mask="url(#uuid-26e78151-51c7-4b7c-afd2-66b081dd0447)"><path d="M331.9945,34.3778l207.9293,120.048c20.4724,11.8198,20.4724,41.3691,0,53.1889l-207.9293,120.048c-20.4724,11.8198-46.0629-2.9549-46.0629-26.5945V60.9722c0-23.6395,25.5905-38.4142,46.0629-26.5945Z" fill="#fff"/></g></g></svg>