<?xml version="1.0" encoding="UTF-8"?><svg id="uuid-e40149a4-c8b9-4eb6-a4b6-6d6ebfb5355d" xmlns="http://www.w3.org/2000/svg" width="632" height="632" xmlns:xlink="http://www.w3.org/1999/xlink" viewBox="0 0 632 632"><defs><clipPath id="uuid-23f2fe3f-4acb-4a44-a948-458e663b0727"><rect width="632" height="632" fill="none"/></clipPath><linearGradient id="uuid-98ba60b1-bbcc-479f-9d86-7ce662cbecfd" x1="555.2913" y1="-1000.4222" x2="922.7015" y2="-1367.8325" gradientTransform="translate(-422.9964 1500.1274)" gradientUnits="userSpaceOnUse"><stop offset=".1" stop-color="#fff"/><stop offset=".1771" stop-color="#fff" stop-opacity=".797"/><stop offset=".2673" stop-color="#fff" stop-opacity=".5881"/><stop offset=".3587" stop-color="#fff" stop-opacity=".4079"/><stop offset=".4494" stop-color="#fff" stop-opacity=".2609"/><stop offset=".5393" stop-color="#fff" stop-opacity=".1466"/><stop offset=".6282" stop-color="#fff" stop-opacity=".0652"/><stop offset=".7157" stop-color="#fff" stop-opacity=".0164"/><stop offset=".8" stop-color="#fff" stop-opacity="0"/></linearGradient><mask id="uuid-d72c1e4b-0d7b-4fc0-8f9c-82c70a2e596a" x="56.2017" y="56.2017" width="519.5966" height="519.5966" maskUnits="userSpaceOnUse"><rect x="132.2949" y="132.2949" width="367.4102" height="367.4102" transform="translate(316 -130.8915) rotate(45)" fill="url(#uuid-98ba60b1-bbcc-479f-9d86-7ce662cbecfd)"/></mask><linearGradient id="uuid-2a52efa1-1199-4b27-8db4-a985d302bd97" x1="-887.5989" y1="182.1359" x2="-1187.6426" y2="355.3662" gradientTransform="translate(671.7014 -756.1481) rotate(-60)" gradientUnits="userSpaceOnUse"><stop offset=".2" stop-color="#fff" stop-opacity="0"/><stop offset=".2723" stop-color="#fff" stop-opacity=".0164"/><stop offset=".3472" stop-color="#fff" stop-opacity=".0652"/><stop offset=".4234" stop-color="#fff" stop-opacity=".1466"/><stop offset=".5005" stop-color="#fff" stop-opacity=".2609"/><stop offset=".5782" stop-color="#fff" stop-opacity=".4079"/><stop offset=".6566" stop-color="#fff" stop-opacity=".5881"/><stop offset=".7339" stop-color="#fff" stop-opacity=".797"/><stop offset=".8" stop-color="#fff"/></linearGradient><mask id="uuid-3e28e940-dda4-44e8-bbe5-a45f2ced5d3f" x="166.6357" y="103.603" width="438.0012" height="379.3203" maskUnits="userSpaceOnUse"><polygon points="166.6357 103.603 385.6361 482.9233 604.6369 103.6032 166.6357 103.603" fill="url(#uuid-2a52efa1-1199-4b27-8db4-a985d302bd97)"/></mask><linearGradient id="uuid-d9eb66d6-2d59-4d73-bf63-77448facd62e" x1="-957.2351" y1="61.5224" x2="-1257.2788" y2="234.7527" xlink:href="#uuid-2a52efa1-1199-4b27-8db4-a985d302bd97"/><mask id="uuid-e865a057-a7be-4852-9104-4e813d61ad24" x="27.3632" y="103.603" width="438.0012" height="379.3203" maskUnits="userSpaceOnUse"><polygon points="27.3632 103.603 246.3636 482.9233 465.3644 103.6032 27.3632 103.603" fill="url(#uuid-d9eb66d6-2d59-4d73-bf63-77448facd62e)"/></mask><linearGradient id="uuid-f6ef6922-a6ed-4d5e-bac2-45c5558b365e" x1="-946.2297" y1="187.7884" x2="-1110.497" y2="282.6281" xlink:href="#uuid-2a52efa1-1199-4b27-8db4-a985d302bd97"/><mask id="uuid-a3c017c6-7173-4af5-b13d-252058481889" x="241.318" y="157.205" width="239.7959" height="207.6694" maskUnits="userSpaceOnUse"><polygon points="241.318 157.205 361.2159 364.8744 481.114 157.2051 241.318 157.205" fill="url(#uuid-f6ef6922-a6ed-4d5e-bac2-45c5558b365e)"/></mask><linearGradient id="uuid-f42667e4-472b-45ae-add7-e6724e7e6956" x1="-991.4457" y1="109.472" x2="-1155.713" y2="204.3117" xlink:href="#uuid-2a52efa1-1199-4b27-8db4-a985d302bd97"/><mask id="uuid-83b62c34-f3cc-4a19-8b5f-52de79919d49" x="150.8861" y="157.205" width="239.7959" height="207.6694" maskUnits="userSpaceOnUse"><polygon points="150.8861 157.205 270.7839 364.8744 390.682 157.2051 150.8861 157.205" fill="url(#uuid-f42667e4-472b-45ae-add7-e6724e7e6956)"/></mask></defs><g clip-path="url(#uuid-23f2fe3f-4acb-4a44-a948-458e663b0727)"><g mask="url(#uuid-d72c1e4b-0d7b-4fc0-8f9c-82c70a2e596a)"><rect x="132.2949" y="132.2949" width="367.4102" height="367.4102" rx="47.2385" ry="47.2385" transform="translate(316 -130.8915) rotate(45)" fill="#3dc6af"/></g><g mask="url(#uuid-3e28e940-dda4-44e8-bbe5-a45f2ced5d3f)"><path d="M200.1732,161.6918l151.9253,263.1427c14.9056,25.8172,52.1695,25.8173,67.0751,0l151.9256-263.1426c14.9056-25.8172-3.7264-58.0888-33.5375-58.0888l-303.8509-.0002c-29.8112,0-48.4432,32.2715-33.5376,58.0887Z" fill="#38b0e8"/></g><g mask="url(#uuid-e865a057-a7be-4852-9104-4e813d61ad24)"><path d="M60.9007,161.6918l151.9253,263.1427c14.9056,25.8172,52.1695,25.8173,67.0751,0l151.9256-263.1426c14.9056-25.8172-3.7264-58.0888-33.5375-58.0888l-303.8509-.0002c-29.8112,0-48.4432,32.2715-33.5376,58.0887Z" fill="#38b0e8"/></g><g mask="url(#uuid-a3c017c6-7173-4af5-b13d-252058481889)"><path d="M259.6791,189.0073l83.1758,144.0648c8.1605,14.1344,28.5617,14.1344,36.7221,0l83.1759-144.0647c8.1605-14.1344-2.0401-31.8023-18.3611-31.8023h-166.3517c-16.321,0-26.5216,17.6679-18.3611,31.8022Z" fill="#13242d"/></g><g mask="url(#uuid-83b62c34-f3cc-4a19-8b5f-52de79919d49)"><path d="M169.2471,189.0073l83.1758,144.0648c8.1605,14.1344,28.5617,14.1344,36.7221,0l83.1759-144.0647c8.1605-14.1344-2.0401-31.8023-18.3611-31.8023h-166.3517c-16.321,0-26.5216,17.6679-18.3611,31.8022Z" fill="#13242d"/></g></g></svg>