<?xml version="1.0" encoding="UTF-8"?><svg id="uuid-ebbfe30c-27cb-401d-8311-c17c2db5dcae" xmlns="http://www.w3.org/2000/svg" width="632" height="632" xmlns:xlink="http://www.w3.org/1999/xlink" viewBox="0 0 632 632"><defs><mask id="uuid-295cf4aa-7b56-472d-8fa6-63fe67615cab" x="-1372.9771" y="4310.5375" width="1440" height="720" maskUnits="userSpaceOnUse"/><mask id="uuid-48583e27-01fe-47e2-9928-a993917f3704" x="-1061.5181" y="4310.5375" width="1440" height="720" maskUnits="userSpaceOnUse"/><mask id="uuid-b8367f40-0624-4769-9993-6e61d2fecd50" x="1502.4819" y="4310.5375" width="1440" height="720" maskUnits="userSpaceOnUse"/><linearGradient id="uuid-d67ba53a-070f-40fe-9bef-6f598011717c" x1="76.5741" y1="-1083.0576" x2="461.0412" y2="-1083.0576" gradientTransform="translate(1337.8389 93.4089) rotate(-120)" gradientUnits="userSpaceOnUse"><stop offset="0" stop-color="#fff"/><stop offset="1" stop-color="#fff" stop-opacity="0"/></linearGradient><mask id="uuid-9d40f1cf-490d-41e9-80ff-58da12936e45" x="96.6333" y="109.6928" width="454.2077" height="393.3555" maskUnits="userSpaceOnUse"><polygon points="96.6333 503.0481 550.841 503.0482 323.7373 109.6928 96.6333 503.0481" fill="url(#uuid-d67ba53a-070f-40fe-9bef-6f598011717c)"/></mask><linearGradient id="uuid-04e3c407-6f74-4424-aff0-c2da2ff8e18a" x1="377.5857" y1="203.176" x2="230.0347" y2="288.3646" gradientUnits="userSpaceOnUse"><stop offset=".2" stop-color="#fff" stop-opacity="0"/><stop offset=".2723" stop-color="#fff" stop-opacity=".0164"/><stop offset=".3472" stop-color="#fff" stop-opacity=".0652"/><stop offset=".4234" stop-color="#fff" stop-opacity=".1466"/><stop offset=".5005" stop-color="#fff" stop-opacity=".2609"/><stop offset=".5782" stop-color="#fff" stop-opacity=".4079"/><stop offset=".6566" stop-color="#fff" stop-opacity=".5881"/><stop offset=".7339" stop-color="#fff" stop-opacity=".797"/><stop offset=".8" stop-color="#fff"/></linearGradient><mask id="uuid-e655cad4-6439-4888-aff0-ed9ce8d767fc" x="216.0404" y="109.9078" width="215.3937" height="186.5364" maskUnits="userSpaceOnUse"><polygon points="323.7373 109.9078 216.0404 296.4441 431.434 296.4442 323.7373 109.9078" fill="url(#uuid-04e3c407-6f74-4424-aff0-c2da2ff8e18a)"/></mask><linearGradient id="uuid-e5fef5d9-d23f-40ad-9041-2524cb45ec06" x1="376.6425" y1="-1219.1823" x2="229.0915" y2="-1133.9937" gradientTransform="translate(0 -817.1832) scale(1 -1)" xlink:href="#uuid-04e3c407-6f74-4424-aff0-c2da2ff8e18a"/><mask id="uuid-d2f2569c-8ae5-4f78-83bd-9ce64c2d0a7e" x="215.0972" y="308.7309" width="215.3937" height="186.5364" maskUnits="userSpaceOnUse"><polygon points="322.7941 495.2673 215.0972 308.731 430.4908 308.7309 322.7941 495.2673" fill="url(#uuid-e5fef5d9-d23f-40ad-9041-2524cb45ec06)"/></mask><linearGradient id="uuid-732f4bde-6754-4344-a9ed-f0f7a6632f9a" x1="1161.965" y1="-1515.1701" x2="1014.414" y2="-1429.9815" gradientTransform="translate(935.5467 -1260.8562) rotate(60) scale(1 -1)" xlink:href="#uuid-04e3c407-6f74-4424-aff0-c2da2ff8e18a"/><mask id="uuid-09743929-ead9-459a-a5de-872ecb704ec0" x="96.6565" y="316.4836" width="215.3937" height="186.5364" maskUnits="userSpaceOnUse"><polygon points="96.6565 503.02 204.3533 316.4836 312.0502 503.0199 96.6565 503.02" fill="url(#uuid-732f4bde-6754-4344-a9ed-f0f7a6632f9a)"/></mask><linearGradient id="uuid-31575ac9-c671-40dc-af4a-0c0fc832ea43" x1="377.5857" y1="203.176" x2="230.0347" y2="288.3646" xlink:href="#uuid-04e3c407-6f74-4424-aff0-c2da2ff8e18a"/><mask id="uuid-e325c0de-36a0-42b2-b6c1-e466313b1911" x="216.0404" y="109.9078" width="215.3937" height="186.5364" maskUnits="userSpaceOnUse"><polygon points="323.7373 109.9078 216.0404 296.4441 431.434 296.4442 323.7373 109.9078" fill="url(#uuid-31575ac9-c671-40dc-af4a-0c0fc832ea43)"/></mask></defs><g mask="url(#uuid-9d40f1cf-490d-41e9-80ff-58da12936e45)"><path d="M166.361,503.0481h314.7524c30.9901.0001,50.3589-33.5476,34.8638-60.3858l-157.3761-272.5836c-15.495-26.8382-54.2326-26.8382-69.7276,0l-157.3763,272.5835c-15.495,26.8382,3.8737,60.3859,34.8638,60.3859Z" fill="#394eff"/></g><g mask="url(#uuid-e655cad4-6439-4888-aff0-ed9ce8d767fc)"><path d="M307.2447,138.4738l-74.7117,129.4043c-7.3301,12.696,1.8325,28.566,16.4926,28.566h149.4233c14.6601,0,23.8227-15.8699,16.4926-28.5659l-74.7116-129.4044c-7.33-12.696-25.6551-12.696-32.9852,0Z" fill="#3bb5ff"/></g><g mask="url(#uuid-d2f2569c-8ae5-4f78-83bd-9ce64c2d0a7e)"><path d="M306.3015,466.7013l-74.7117-129.4043c-7.3301-12.696,1.8325-28.566,16.4926-28.566h149.4233c14.6601,0,23.8227,15.8699,16.4926,28.5659l-74.7116,129.4044c-7.33,12.696-25.6551,12.696-32.9852,0Z" fill="#3bb5ff"/></g><g mask="url(#uuid-09743929-ead9-459a-a5de-872ecb704ec0)"><path d="M113.1491,474.454l74.7116-129.4044c7.33-12.696,25.6551-12.696,32.9852,0l74.7117,129.4043c7.3301,12.696-1.8325,28.566-16.4926,28.566h-149.4233c-14.6601,0-23.8227-15.8699-16.4926-28.5659Z" fill="#3bb5ff"/></g><g mask="url(#uuid-e325c0de-36a0-42b2-b6c1-e466313b1911)"><path d="M307.2447,138.4738l-74.7117,129.4043c-7.3301,12.696,1.8325,28.566,16.4926,28.566h149.4233c14.6601,0,23.8227-15.8699,16.4926-28.5659l-74.7116-129.4044c-7.33-12.696-25.6551-12.696-32.9852,0Z" fill="#44d2bb"/></g></svg>