<?xml version="1.0" encoding="UTF-8"?><svg id="uuid-02fc5615-5e5a-49f9-836a-ecb8c505c3aa" xmlns="http://www.w3.org/2000/svg" width="520" height="521" xmlns:xlink="http://www.w3.org/1999/xlink" viewBox="0 0 520 521"><defs><clipPath id="uuid-ede5cdf1-860d-4d20-a167-124a9c9af3b0"><rect x="-596" width="520" height="520" fill="none"/></clipPath><radialGradient id="uuid-6cac8d35-432b-4230-aff6-eaf737f53a03" cx="-7863.0259" cy="-1353.6988" fx="-7863.0259" fy="-1353.6988" r="256.9917" gradientTransform="translate(-11874.5028 -1724.5618) rotate(-180) scale(1.5)" gradientUnits="userSpaceOnUse"><stop offset="0" stop-color="#fff"/><stop offset=".0849" stop-color="#fff" stop-opacity=".9648"/><stop offset=".2235" stop-color="#fff" stop-opacity=".8691"/><stop offset=".3985" stop-color="#fff" stop-opacity=".7131"/><stop offset=".6031" stop-color="#fff" stop-opacity=".4965"/><stop offset=".8298" stop-color="#fff" stop-opacity=".2236"/><stop offset="1" stop-color="#fff" stop-opacity="0"/></radialGradient><mask id="uuid-bde9b83f-4744-48a9-97d3-c3a9a7f0f094" x="-465.4515" y="-79.501" width="770.975" height="770.975" maskUnits="userSpaceOnUse"><circle cx="-79.964" cy="305.9864" r="385.4875" fill="url(#uuid-6cac8d35-432b-4230-aff6-eaf737f53a03)"/></mask><mask id="uuid-26a004b5-2271-4f92-b0a9-3f8935101ef0" x="-465.4515" y="-79.501" width="770.975" height="770.975" maskUnits="userSpaceOnUse"><g mask="url(#uuid-bde9b83f-4744-48a9-97d3-c3a9a7f0f094)"><circle cx="-79.964" cy="305.9864" r="385.4875"/></g></mask><linearGradient id="uuid-3c3fdca1-b3c2-44b0-8dee-c753782dea22" x1="15426.9039" y1="13823.1697" x2="14830.5377" y2="13505.6111" gradientTransform="translate(19340.834 6571.5432) rotate(-120.1504) scale(1 -1)" gradientUnits="userSpaceOnUse"><stop offset="0" stop-color="#c5abff"/><stop offset=".0961" stop-color="#c7aeff" stop-opacity=".9379"/><stop offset=".2835" stop-color="#cdb7ff" stop-opacity=".7751"/><stop offset=".5438" stop-color="#d7c5ff" stop-opacity=".5123"/><stop offset=".8638" stop-color="#e4d8ff" stop-opacity=".1547"/><stop offset=".995" stop-color="#eae1ff" stop-opacity="0"/></linearGradient><filter id="uuid-0ee07db3-3c8f-45a4-ac4e-4d3ee5b9dd20" x="-775.1018" y="-79.501" width="1080.6253" height="868.9377" color-interpolation-filters="sRGB" filterUnits="userSpaceOnUse"><feFlood flood-color="#fff" result="bg"/><feBlend in="SourceGraphic" in2="bg"/></filter><mask id="uuid-0b978e42-b6a7-4423-a11d-a2608b012a27" x="-465.4515" y="-79.501" width="770.975" height="770.975" maskUnits="userSpaceOnUse"><circle cx="-79.964" cy="305.9864" r="385.4875" fill="url(#uuid-6cac8d35-432b-4230-aff6-eaf737f53a03)"/></mask><mask id="uuid-cf0cb8c5-28a7-4466-89e5-edc4a4d02bb6" x="-775.1018" y="-79.501" width="1080.6253" height="868.9377" maskUnits="userSpaceOnUse"><g filter="url(#uuid-0ee07db3-3c8f-45a4-ac4e-4d3ee5b9dd20)"><g mask="url(#uuid-0b978e42-b6a7-4423-a11d-a2608b012a27)"><circle cx="-79.964" cy="305.9864" r="385.4875"/></g></g></mask><linearGradient id="uuid-722ffc51-9431-40f2-97df-46122f7d03b7" x1="3862.5462" y1="-6388.0674" x2="3111.3427" y2="-6837.8491" gradientTransform="translate(3740.9329 6612.5143) rotate(-60.1505)" gradientUnits="userSpaceOnUse"><stop offset=".2226" stop-color="#d0bbff"/><stop offset=".3793" stop-color="#dbcaff"/><stop offset=".6833" stop-color="#f7f3ff"/><stop offset=".7046" stop-color="#faf7ff"/></linearGradient><filter id="uuid-e2170354-fdf9-40cb-bd8b-6fb86d59fbbe" x="-655.821" y="112.3801" width="690.6094" height="677.0565" color-interpolation-filters="sRGB" filterUnits="userSpaceOnUse"><feFlood flood-color="#fff" result="bg"/><feBlend in="SourceGraphic" in2="bg"/></filter><mask id="uuid-b05b41a1-5b80-4072-b6dc-06e3ac08cf58" x="-655.821" y="112.3801" width="690.6094" height="677.0565" maskUnits="userSpaceOnUse"/><linearGradient id="uuid-082e9bd8-cf79-4dae-b7ab-069236eb56ec" x1="3185.3493" y1="-6240.9089" x2="3758.3892" y2="-6902.9025" gradientTransform="translate(3740.9329 6612.5143) rotate(-60.1505)" gradientUnits="userSpaceOnUse"><stop offset=".2884" stop-color="#d0bbff"/><stop offset=".3004" stop-color="#d2bfff" stop-opacity=".9379"/><stop offset=".3238" stop-color="#dacaff" stop-opacity=".7751"/><stop offset=".3562" stop-color="#e6dcff" stop-opacity=".5123"/><stop offset=".3961" stop-color="#f7f4ff" stop-opacity=".1547"/><stop offset=".4125" stop-color="#fff" stop-opacity="0"/></linearGradient><linearGradient id="uuid-0f15930f-c12a-4c1a-b849-3e2558f5b105" x1="7043.1893" y1="484.3547" x2="7664.9349" y2="-132.1213" gradientTransform="translate(3620.6857 6612.5143) rotate(-119.8495) scale(1 -1)" xlink:href="#uuid-082e9bd8-cf79-4dae-b7ab-069236eb56ec"/><clipPath id="uuid-72c861d3-78f6-4275-9408-5264bde64d22"><rect width="520" height="520" fill="none"/></clipPath><linearGradient id="uuid-94f0db9b-6a18-4e40-9450-9cbd82eb7386" x1="6746.7026" y1="-32.3051" x2="7368.4482" y2="-648.7811" gradientTransform="translate(3620.6857 6612.5143) rotate(-119.8495) scale(1 -1)" gradientUnits="userSpaceOnUse"><stop offset=".2884" stop-color="#24124d"/><stop offset=".3465" stop-color="#24124d" stop-opacity=".795"/><stop offset=".4592" stop-color="#24124d" stop-opacity=".2616"/><stop offset=".5088" stop-color="#24124d" stop-opacity="0"/></linearGradient><filter id="uuid-0ebf5e34-14d8-47b2-ab6a-722b7034b20c" x="-179.4159" y="-293.8396" width="1334.9501" height="1083.2763" color-interpolation-filters="sRGB" filterUnits="userSpaceOnUse"><feFlood flood-color="#fff" result="bg"/><feBlend in="SourceGraphic" in2="bg"/></filter><radialGradient id="uuid-859188d4-fa14-4889-9d77-dccd610d9061" cx="-8429.6997" cy="-1210.8064" fx="-8429.6997" fy="-1210.8064" r="256.9917" xlink:href="#uuid-6cac8d35-432b-4230-aff6-eaf737f53a03"/><mask id="uuid-cbea99f1-6182-4c90-bf02-e5c87f78cee8" x="384.5592" y="-293.8396" width="770.975" height="770.975" maskUnits="userSpaceOnUse"><circle cx="770.0467" cy="91.6478" r="385.4875" fill="url(#uuid-859188d4-fa14-4889-9d77-dccd610d9061)"/></mask><linearGradient id="uuid-2fab3d62-f690-4631-b7ce-1ad527944e8b" x1="2458.3466" y1="-1648.2803" x2="2836.8639" y2="-1648.2803" gradientTransform="translate(-2637.7625 2145.3714)" gradientUnits="userSpaceOnUse"><stop offset=".45" stop-color="#fff"/><stop offset=".4967" stop-color="#fff" stop-opacity=".9648"/><stop offset=".5729" stop-color="#fff" stop-opacity=".8691"/><stop offset=".6692" stop-color="#fff" stop-opacity=".7131"/><stop offset=".7817" stop-color="#fff" stop-opacity=".4965"/><stop offset=".9064" stop-color="#fff" stop-opacity=".2236"/><stop offset="1" stop-color="#fff" stop-opacity="0"/></linearGradient><mask id="uuid-648e0289-4591-4e1c-83ba-a6fe90cb855a" x="-179.4159" y="307.8324" width="378.5173" height="378.5173" maskUnits="userSpaceOnUse"><rect x="-179.4159" y="307.8324" width="378.5173" height="378.5173" rx="48.6665" ry="48.6665" transform="translate(-487.2483 506.9338) rotate(-90)" fill="url(#uuid-2fab3d62-f690-4631-b7ce-1ad527944e8b)"/></mask><radialGradient id="uuid-d38b35ed-74cb-4c4a-8055-21b9192cd24d" cx="-12150.8509" cy="-1531.4243" fx="-12150.8509" fy="-1531.4243" r="144.5746" gradientTransform="translate(18383.0032 -1724.5618) scale(1.5 -1.5)" xlink:href="#uuid-6cac8d35-432b-4230-aff6-eaf737f53a03"/><mask id="uuid-1375b51e-0f2e-4e5d-a0ce-6f9994f01428" x="-60.1351" y="355.7129" width="433.7238" height="433.7238" maskUnits="userSpaceOnUse"><circle cx="156.7268" cy="572.5748" r="216.8619" fill="url(#uuid-d38b35ed-74cb-4c4a-8055-21b9192cd24d)"/></mask><mask id="uuid-e752a841-5705-4f3e-9437-07423ae32c6a" x="-179.4159" y="-293.8396" width="1334.9501" height="1083.2763" maskUnits="userSpaceOnUse"><g filter="url(#uuid-0ebf5e34-14d8-47b2-ab6a-722b7034b20c)"><g mask="url(#uuid-cbea99f1-6182-4c90-bf02-e5c87f78cee8)"><circle cx="770.0467" cy="91.6478" r="385.4875"/></g><g mask="url(#uuid-648e0289-4591-4e1c-83ba-a6fe90cb855a)"><rect x="-179.4159" y="307.8324" width="378.5173" height="378.5173" rx="48.6665" ry="48.6665" transform="translate(-487.2483 506.9338) rotate(-90)"/></g><g mask="url(#uuid-1375b51e-0f2e-4e5d-a0ce-6f9994f01428)"><circle cx="156.7268" cy="572.5748" r="216.8619"/></g></g></mask><filter id="uuid-b7857aaa-4c90-4581-a1db-a94cdbc79411" x="190.3159" y="201.7958" width="396.9496" height="458.2065" color-interpolation-filters="sRGB" filterUnits="userSpaceOnUse"><feFlood flood-color="#fff" result="bg"/><feBlend in="SourceGraphic" in2="bg"/></filter><radialGradient id="uuid-8379b27a-1eba-4583-96d0-ffa43b650e3f" cx="-8175.529" cy="-1457.3928" fx="-8175.529" fy="-1457.3928" r="132.3165" xlink:href="#uuid-6cac8d35-432b-4230-aff6-eaf737f53a03"/><mask id="uuid-6369c2c5-78b4-4e2f-858c-bc088bcf294f" x="190.3159" y="263.0527" width="396.9496" height="396.9496" maskUnits="userSpaceOnUse"><circle cx="388.7907" cy="461.5275" r="198.4748" fill="url(#uuid-8379b27a-1eba-4583-96d0-ffa43b650e3f)"/></mask><mask id="uuid-579b0794-efd3-40e8-a3e6-b0071e01be3c" x="190.3159" y="201.7958" width="396.9496" height="458.2065" maskUnits="userSpaceOnUse"><g filter="url(#uuid-b7857aaa-4c90-4581-a1db-a94cdbc79411)"><g mask="url(#uuid-6369c2c5-78b4-4e2f-858c-bc088bcf294f)"><circle cx="388.7907" cy="461.5275" r="198.4748"/></g></g></mask><linearGradient id="uuid-032250ce-3b5e-4d33-8088-3d80436d903e" x1="6123.7096" y1="115.5273" x2="6123.7096" y2="733.076" gradientTransform="translate(6508.5004) rotate(-180) scale(1 -1)" gradientUnits="userSpaceOnUse"><stop offset=".1129" stop-color="#5329b0" stop-opacity=".4"/><stop offset=".3501" stop-color="#5329b0" stop-opacity=".1848"/><stop offset=".543" stop-color="#5329b0" stop-opacity=".0497"/><stop offset=".6625" stop-color="#5329b0" stop-opacity="0"/></linearGradient><filter id="uuid-806d3fd9-cb3d-49bb-b349-99e44711ee7c" x="190.3159" y="200.8936" width="396.9496" height="459.1087" color-interpolation-filters="sRGB" filterUnits="userSpaceOnUse"><feFlood flood-color="#fff" result="bg"/><feBlend in="SourceGraphic" in2="bg"/></filter><radialGradient id="uuid-f9022b7c-352b-45e6-a624-b39fe2c54871" cx="-8175.529" cy="-1457.3928" fx="-8175.529" fy="-1457.3928" r="132.3165" xlink:href="#uuid-6cac8d35-432b-4230-aff6-eaf737f53a03"/><mask id="uuid-56217a02-a9d1-4606-b3ce-0871177cd3cd" x="190.3159" y="263.0527" width="396.9496" height="396.9496" maskUnits="userSpaceOnUse"><circle cx="388.7907" cy="461.5275" r="198.4748" fill="url(#uuid-f9022b7c-352b-45e6-a624-b39fe2c54871)"/></mask><mask id="uuid-fd859baa-ffca-4fad-9c51-3699b399480f" x="190.3159" y="200.8936" width="396.9496" height="459.1087" maskUnits="userSpaceOnUse"><g filter="url(#uuid-806d3fd9-cb3d-49bb-b349-99e44711ee7c)"><g mask="url(#uuid-56217a02-a9d1-4606-b3ce-0871177cd3cd)"><circle cx="388.7907" cy="461.5275" r="198.4748"/></g></g></mask><linearGradient id="uuid-8fe98128-a8aa-4982-8bb2-ce5a4aa39487" x1="6123.7041" y1="266.1333" x2="6123.7041" y2="486.7014" gradientTransform="translate(6508.5004) rotate(-180) scale(1 -1)" gradientUnits="userSpaceOnUse"><stop offset="0" stop-color="#2f9acc" stop-opacity="0"/><stop offset=".097" stop-color="#2f9acc" stop-opacity=".079"/><stop offset=".2868" stop-color="#2f9acc" stop-opacity=".2857"/><stop offset=".5511" stop-color="#2f9acc" stop-opacity=".6194"/><stop offset=".8256" stop-color="#2f9acc"/></linearGradient></defs><g clip-path="url(#uuid-ede5cdf1-860d-4d20-a167-124a9c9af3b0)"><g mask="url(#uuid-26a004b5-2271-4f92-b0a9-3f8935101ef0)"><path d="M-226.9061,117.3651c.0311-.018.0627-.0324.0935-.0503,9.1975-5.3877,21.0671-6.2083,31.6329-.145L17.6534,239.305c2.2543,1.1938,4.364,2.6514,6.2772,4.3487.0931.0818.1817.1661.2735.2489.3859.3504.7654.7076,1.1345,1.0774.19.1894.3734.3826.5575.576.2631.2771.5226.5573.7758.8442.2275.2572.4479.5179.6653.781.2044.2476.4054.498.6023.752.2259.2916.4456.5855.6598.8832.1821.2533.3603.5095.5351.7686.2008.2983.3967.5986.5863.9025.1762.2814.3469.5666.5145.8546.1671.2882.3303.5778.4875.8705.1699.315.3337.6342.4934.9564.1382.2804.2727.5619.4024.8454.1525.3336.2992.6699.4403,1.0107.1233.2972.2411.5956.355.896.1208.3192.2378.64.3486.9647.124.3623.2386.7263.349,1.0921.0766.2556.1537.5108.2243.7699.1384.5038.2608,1.0107.374,1.5201.0264.1202.0556.2387.0805.3595.5262,2.503.7473,5.0579.6675,7.6078l.6445,245.3865c.064,24.2736-26.1733,39.5137-47.2268,27.432l-210.638-120.8754c-1.1281-.486-2.2488-1.0274-3.3528-1.661l-213.8305-122.7077c-21.0535-12.0816-21.1332-42.4238-.1434-54.6159l213.1832-123.8287Z" fill="url(#uuid-3c3fdca1-b3c2-44b0-8dee-c753782dea22)"/></g><g mask="url(#uuid-cf0cb8c5-28a7-4466-89e5-edc4a4d02bb6)"><path d="M-194.8806,116.7204c-.0311-.0179-.0629-.032-.0938-.0498-9.2256-5.3393-21.0994-6.0975-31.6332.0212l-212.1885,123.2517c-2.248,1.2056-4.35,2.6743-6.2543,4.3816-.0926.0822-.1808.167-.2722.2503-.384.3524-.7617.7116-1.1288,1.0834-.189.1904-.3714.3846-.5545.579-.2616.2785-.5197.56-.7713.8483-.2261.2584-.4452.5203-.6612.7845-.2031.2486-.4028.5001-.5984.7552-.2243.2928-.4425.5878-.6551.8867-.1808.2543-.3576.5114-.5311.7714-.1992.2994-.3936.6006-.5816.9055-.1748.2823-.3439.5684-.51.8573-.1656.2891-.3273.5795-.483.8731-.1682.3159-.3304.636-.4884.959-.1367.2811-.2697.5634-.3979.8475-.1508.3343-.2957.6715-.435,1.013-.1217.2978-.2379.5969-.3503.8979-.1191.3198-.2344.6412-.3436.9665-.1221.363-.2348.7276-.3432,1.094-.0753.256-.151.5116-.2202.7711-.1357.5045-.2555,1.012-.366,1.522-.0258.1203-.0544.239-.0786.3599-.513,2.5057-.7207,5.0618-.6275,7.6112l.6448,245.3865c.0636,24.2736,26.3805,39.3756,47.3703,27.1835l210-121.9805c1.1256-.4919,2.2434-1.0392,3.3441-1.6786L19.0938,294.0432c20.9898-12.1921,20.91-42.5342-.1435-54.6159l-213.8309-122.7069Z" fill="url(#uuid-722ffc51-9431-40f2-97df-46122f7d03b7)"/></g><g mask="url(#uuid-b05b41a1-5b80-4072-b6dc-06e3ac08cf58)"><path d="M-194.8806,116.7204c-.0311-.0179-.0629-.032-.0938-.0498-9.2256-5.3393-21.0994-6.0975-31.6332.0212l-212.1885,123.2517c-2.248,1.2056-4.35,2.6743-6.2543,4.3816-.0926.0822-.1808.167-.2722.2503-.384.3524-.7617.7116-1.1288,1.0834-.189.1904-.3714.3846-.5545.579-.2616.2785-.5197.56-.7713.8483-.2261.2584-.4452.5203-.6612.7845-.2031.2486-.4028.5001-.5984.7552-.2243.2928-.4425.5878-.6551.8867-.1808.2543-.3576.5114-.5311.7714-.1992.2994-.3936.6006-.5816.9055-.1748.2823-.3439.5684-.51.8573-.1656.2891-.3273.5795-.483.8731-.1682.3159-.3304.636-.4884.959-.1367.2811-.2697.5634-.3979.8475-.1508.3343-.2957.6715-.435,1.013-.1217.2978-.2379.5969-.3503.8979-.1191.3198-.2344.6412-.3436.9665-.1221.363-.2348.7276-.3432,1.094-.0753.256-.151.5116-.2202.7711-.1357.5045-.2555,1.012-.366,1.522-.0258.1203-.0544.239-.0786.3599-.513,2.5057-.7207,5.0618-.6275,7.6112l.6448,245.3865c.0636,24.2736,26.3805,39.3756,47.3703,27.1835l210-121.9805c1.1256-.4919,2.2434-1.0392,3.3441-1.6786L19.0938,294.0432c20.9898-12.1921,20.91-42.5342-.1435-54.6159l-213.8309-122.7069Z" fill="url(#uuid-082e9bd8-cf79-4dae-b7ab-069236eb56ec)" opacity=".6"/></g><path d="M-225.8009,116.7204c.0311-.0179.0629-.032.0938-.0498,9.2256-5.3393,21.0994-6.0975,31.6332.0212L18.1146,239.9436c2.248,1.2056,4.35,2.6743,6.2543,4.3816.0926.0822.1808.167.2722.2503.384.3524.7617.7116,1.1288,1.0834.189.1904.3714.3846.5545.579.2616.2785.5197.56.7713.8483.2261.2584.4452.5203.6612.7845.2031.2486.4028.5001.5984.7552.2243.2928.4425.5878.6551.8867.1808.2543.3576.5114.5311.7714.1992.2994.3936.6006.5816.9055.1748.2823.3439.5684.51.8573.1656.2891.3273.5795.483.8731.1682.3159.3304.636.4884.959.1367.2811.2697.5634.3979.8475.1508.3343.2957.6715.435,1.013.1217.2978.2379.5969.3503.8979.1191.3198.2344.6412.3436.9665.1221.363.2348.7276.3432,1.094.0753.256.151.5116.2202.7711.1357.5045.2555,1.012.366,1.522.0258.1203.0544.239.0786.3599.513,2.5057.7207,5.0618.6275,7.6112l-.6448,245.3865c-.0636,24.2736-26.3805,39.3756-47.3703,27.1835l-210-121.9805c-1.1256-.4919-2.2434-1.0392-3.3441-1.6786l-213.1829-123.8295c-20.9898-12.1921-20.91-42.5342.1435-54.6159l213.8309-122.7069Z" fill="url(#uuid-0f15930f-c12a-4c1a-b849-3e2558f5b105)" opacity=".4"/></g><g clip-path="url(#uuid-72c861d3-78f6-4275-9408-5264bde64d22)"><path d="M369.885,116.7204c.0311-.0179.0629-.032.0938-.0498,9.2256-5.3393,21.0994-6.0975,31.6332.0212l212.1885,123.2517c2.248,1.2056,4.35,2.6743,6.2543,4.3816.0926.0822.1808.167.2722.2503.384.3524.7617.7116,1.1288,1.0834.189.1904.3714.3846.5545.579.2616.2785.5197.56.7713.8483.2261.2584.4452.5203.6612.7845.2031.2486.4028.5001.5984.7552.2243.2928.4425.5878.6551.8867.1808.2543.3576.5114.5311.7714.1992.2994.3936.6006.5816.9055.1748.2823.3439.5684.51.8573.1656.2891.3273.5795.483.8731.1682.3159.3304.636.4884.959.1367.2811.2697.5634.3979.8475.1508.3343.2957.6715.435,1.013.1217.2978.2379.5969.3503.8979.1191.3198.2344.6412.3436.9665.1221.363.2348.7276.3432,1.094.0753.256.151.5116.2202.7711.1357.5045.2555,1.012.366,1.522.0258.1203.0544.239.0786.3599.513,2.5057.7207,5.0618.6275,7.6112l-.6448,245.3865c-.0636,24.2736-26.3805,39.3756-47.3703,27.1835l-210-121.9805c-1.1256-.4919-2.2434-1.0392-3.3441-1.6786l-213.1829-123.8295c-20.9898-12.1921-20.91-42.5342.1435-54.6159l213.8309-122.7069Z" fill="url(#uuid-94f0db9b-6a18-4e40-9450-9cbd82eb7386)"/><g mask="url(#uuid-e752a841-5705-4f3e-9437-07423ae32c6a)"><path d="M400.8053,116.7204c-.0311-.0179-.0629-.032-.0938-.0498-9.2256-5.3393-21.0994-6.0975-31.6332.0212l-212.1885,123.2517c-2.248,1.2056-4.35,2.6743-6.2543,4.3816-.0926.0822-.1808.167-.2722.2503-.384.3524-.7617.7116-1.1288,1.0834-.189.1904-.3714.3846-.5545.579-.2616.2785-.5197.56-.7713.8483-.2261.2584-.4452.5203-.6612.7845-.2031.2486-.4028.5001-.5984.7552-.2243.2928-.4425.5878-.6551.8867-.1808.2543-.3576.5114-.5311.7714-.1992.2994-.3936.6006-.5816.9055-.1748.2823-.3439.5684-.51.8573-.1656.2891-.3273.5795-.483.8731-.1682.3159-.3304.636-.4884.959-.1367.2811-.2697.5634-.3979.8475-.1508.3343-.2957.6715-.435,1.013-.1217.2978-.2379.5969-.3503.8979-.1191.3198-.2344.6412-.3436.9665-.1221.363-.2348.7276-.3432,1.094-.0753.256-.151.5116-.2202.7711-.1357.5045-.2555,1.012-.366,1.522-.0258.1203-.0544.239-.0786.3599-.513,2.5057-.7207,5.0618-.6275,7.6112l.6448,245.3865c.0636,24.2736,26.3805,39.3756,47.3703,27.1835l210-121.9805c1.1256-.4919,2.2434-1.0392,3.3441-1.6786l213.1829-123.8295c20.9898-12.1921,20.91-42.5342-.1435-54.6159l-213.8309-122.7069Z" fill="#24124d"/></g><g mask="url(#uuid-579b0794-efd3-40e8-a3e6-b0071e01be3c)"><path d="M198.7523,318.1964l.0076-3.1279c.9963-6.8498,4.9133-13.3307,11.7662-17.263l162.0025-92.7802c7.5586-4.3289,16.8506-4.3045,24.3864.0641l162.2498,94.0577c6.8316,3.9683,10.7152,10.4695,11.6751,17.3244l-.0061,2.2767v200.3948c.0015.0103.0046.0203.0061.0307l-.0061,2.2767c.0608,1.9365-.1071,3.8772-.5073,5.7779-.019.0921-.041.1819-.0608.2733-.0858.3866-.1792.7716-.284,1.1544-.0539.1968-.1124.3906-.1709.5848-.0835.2779-.1709.5542-.265.8294-.0835.2466-.1724.4901-.2643.7327-.0866.2282-.1762.4547-.2696.6806-.1078.2589-.2187.5141-.3349.7674-.098.2155-.2005.4293-.3053.6422-.1215.2446-.246.4872-.3744.7264-.12.2222-.2438.4424-.3706.6613-.1276.2189-.2567.4354-.3911.6489-.1435.2309-.2924.4588-.445.6856-.1329.1968-.2681.391-.4063.5835-.1633.2262-.3296.4494-.5012.6709-.1496.1929-.3022.383-.4572.5712-.1656.1995-.3326.3977-.5058.5932-.1921.2179-.3896.4304-.5893.6413-.1397.1468-.2795.2936-.4237.4373-.2795.281-.568.5522-.8612.8184-.0699.0627-.1367.1268-.2081.1888-1.4527,1.2892-3.0551,2.3962-4.7675,3.303l-347.6537-1.4346c-4.4493-2.5847-7.6495-6.2447-9.6072-10.3761-.0987-.2218-.1959-.4447-.2886-.6712-.0926-.2262-.1807-.4531-.2658-.6819-.0904-.2429-.1785-.4872-.2612-.7341-.0926-.2756-.1785-.5525-.2605-.8307-.057-.1945-.1147-.3887-.1671-.5859-.1033-.383-.1944-.7683-.2779-1.1557-.0197-.0914-.0418-.1815-.06-.2736-.3896-1.9031-.5475-3.8442-.4761-5.7806v-202.1503h.0122c.0023-.1841-.019-.3677-.0122-.5518Z" fill="url(#uuid-032250ce-3b5e-4d33-8088-3d80436d903e)"/></g><g mask="url(#uuid-fd859baa-ffca-4fad-9c51-3699b399480f)"><path d="M198.76,315.0684c.9965-6.85,4.9135-13.3303,11.7658-17.2628l162.4031-93.1959c.8384-.4812,1.69-.8927,2.547-1.2615h0c5.7329-3.2899,12.7854-3.2715,18.5011.0482l.7361.4275c.8555.3743,1.7047.7896,2.5401,1.2755l161.9118,94.0475c6.8314,3.9682,10.7151,10.4694,11.6744,17.3248l-.0054,2.2766v.6525s-170.4092,97.7895-170.4092,97.7895c-1.1042.6339-2.2247,1.1747-3.3529,1.6613l-4.2516,2.4396c-4.9174,2.8217-10.9666,2.8057-15.869-.0418l-5.2087-3.0255c-1.1259-.4913-2.2433-1.0391-3.3444-1.6784l-169.6451-98.5403.007-2.9368Z" fill="url(#uuid-8fe98128-a8aa-4982-8bb2-ce5a4aa39487)"/></g></g></svg>