<svg xmlns="http://www.w3.org/2000/svg" xmlns:xlink="http://www.w3.org/1999/xlink" width="719" height="325" viewBox="0 0 719 325"><defs><radialGradient id="e3f9260e-2dfe-481b-b5ad-5ff74e45aec9" cx="-13703.7896" cy="-10928.9638" r="100.0187" gradientTransform="matrix(1.0607, -1.0607, -1.0607, -1.0607, 3455.4968, -26129.1808)" gradientUnits="userSpaceOnUse"><stop offset="0" stop-color="#fff"/><stop offset="0.0849" stop-color="#fff" stop-opacity="0.9648"/><stop offset="0.2235" stop-color="#fff" stop-opacity="0.8691"/><stop offset="0.3985" stop-color="#fff" stop-opacity="0.7131"/><stop offset="0.6031" stop-color="#fff" stop-opacity="0.4965"/><stop offset="0.8298" stop-color="#fff" stop-opacity="0.2236"/><stop offset="1" stop-color="#fff" stop-opacity="0"/></radialGradient><radialGradient id="b769d8e0-1ecd-4fc6-a802-3e51d18f3bf2" cx="-13828.2498" cy="-10781.8618" r="100.0187" xlink:href="#e3f9260e-2dfe-481b-b5ad-5ff74e45aec9"/><clipPath id="abc9c1f7-bf35-46d0-a96e-c23681864f26"><path id="bf886727-090f-4193-b357-00561e31c3a4" data-name="D" d="M719,0H0V325H719Z" fill="#783bff" clip-rule="evenodd"/></clipPath><mask id="b9d4ecb6-dc11-4df7-b8ca-a0500a5d0985" x="362.3099" y="-152.2273" width="300.0562" height="300.0562" maskUnits="userSpaceOnUse"><circle cx="512.338" cy="-2.1992" r="150.0281" fill="url(#e3f9260e-2dfe-481b-b5ad-5ff74e45aec9)"/></mask><mask id="be4d1aa4-47dc-4fde-94f5-3b28dafb1714" x="74.2747" y="-176.2427" width="300.0562" height="300.0562" maskUnits="userSpaceOnUse"><circle cx="224.3028" cy="-26.2146" r="150.0281" fill="url(#b769d8e0-1ecd-4fc6-a802-3e51d18f3bf2)"/></mask></defs><g id="be3c0543-72c0-46aa-b7df-e8bbdd763f51" data-name="Spacemail"><path id="a51e37e6-321f-4242-bd2b-18389273c8cd" data-name="D" d="M719,0H0V325H719Z" fill="#783bff" fill-rule="evenodd"/><g clip-path="url(#abc9c1f7-bf35-46d0-a96e-c23681864f26)"><circle cx="348.9325" cy="87.9669" r="60.0736" fill="#783bff"/><circle cx="350.9227" cy="85.699" r="58.6224" fill="#7a3dff"/><circle cx="352.913" cy="83.4311" r="57.1713" fill="#7b40ff"/><circle cx="354.9032" cy="81.1632" r="55.7201" fill="#7d42ff"/><circle cx="356.8934" cy="78.8953" r="54.269" transform="translate(265.9627 432.9136) rotate(-88.0602)" fill="#7f44ff"/><circle cx="358.8837" cy="76.6274" r="52.8178" transform="translate(270.1522 432.7116) rotate(-88.0602)" fill="#8047ff"/><circle cx="360.8739" cy="74.3595" r="51.3667" transform="translate(274.3417 432.5096) rotate(-88.0602)" fill="#8249ff"/><circle cx="362.8641" cy="72.0916" r="49.9155" transform="matrix(0.0338, -0.9994, 0.9994, 0.0338, 278.5312, 432.3075)" fill="#834cff"/><circle cx="364.8544" cy="69.8237" r="48.4643" transform="matrix(0.0338, -0.9994, 0.9994, 0.0338, 282.7206, 432.1055)" fill="#854eff"/><circle cx="366.8446" cy="67.5558" r="47.0132" transform="translate(286.9101 431.9034) rotate(-88.0602)" fill="#8750ff"/><circle cx="368.8348" cy="65.2879" r="45.562" transform="translate(291.0996 431.7014) rotate(-88.0602)" fill="#8853ff"/><circle cx="370.825" cy="63.02" r="44.1109" transform="translate(295.289 431.4993) rotate(-88.0602)" fill="#8a55ff"/><circle cx="372.8153" cy="60.7521" r="42.6597" transform="translate(299.4785 431.2973) rotate(-88.0602)" fill="#8c57ff"/><circle cx="374.8055" cy="58.4842" r="41.2086" transform="translate(303.668 431.0952) rotate(-88.0602)" fill="#8d5aff"/><circle cx="376.7957" cy="56.2163" r="39.7574" transform="translate(307.8575 430.8932) rotate(-88.0602)" fill="#8f5cff"/><circle cx="378.786" cy="53.9484" r="38.3063" transform="translate(312.0469 430.6911) rotate(-88.0602)" fill="#915eff"/><circle cx="380.7762" cy="51.6805" r="36.8551" transform="translate(316.2364 430.4891) rotate(-88.0602)" fill="#9261ff"/><circle cx="382.7664" cy="49.4126" r="35.404" transform="translate(320.4259 430.2871) rotate(-88.0602)" fill="#9463ff"/><circle cx="384.7566" cy="47.1447" r="33.9528" transform="translate(324.6153 430.085) rotate(-88.0602)" fill="#9665ff"/><circle cx="386.7469" cy="44.8767" r="32.5017" transform="translate(328.8048 429.883) rotate(-88.0602)" fill="#9768ff"/><circle cx="388.7371" cy="42.6088" r="31.0505" transform="translate(332.9943 429.6809) rotate(-88.0602)" fill="#996aff"/><circle cx="390.7273" cy="40.3409" r="29.5994" transform="translate(337.1837 429.4789) rotate(-88.0602)" fill="#9a6dff"/><circle cx="392.7176" cy="38.073" r="28.1482" transform="translate(341.3732 429.2768) rotate(-88.0602)" fill="#9c6fff"/><circle cx="394.7078" cy="35.8051" r="26.6971" transform="translate(345.5627 429.0748) rotate(-88.0602)" fill="#9e71ff"/><circle cx="396.698" cy="33.5372" r="25.2459" transform="translate(349.7521 428.8727) rotate(-88.0602)" fill="#9f74ff"/><circle cx="398.6883" cy="31.2693" r="23.7948" transform="translate(353.9416 428.6707) rotate(-88.0602)" fill="#a176ff"/><circle cx="478.8323" cy="59.4958" r="60.0736" fill="#783bff"/><circle cx="476.8421" cy="61.7637" r="58.6224" fill="#7a3dff"/><circle cx="474.8519" cy="64.0316" r="57.1713" fill="#7b40ff"/><circle cx="472.8617" cy="66.2995" r="55.7201" fill="#7d42ff"/><circle cx="470.8714" cy="68.5675" r="54.269" transform="translate(386.4047 536.8481) rotate(-88.0602)" fill="#7f44ff"/><circle cx="468.8812" cy="70.8354" r="52.8178" transform="translate(382.2152 537.0501) rotate(-88.0602)" fill="#8047ff"/><circle cx="466.891" cy="73.1033" r="51.3667" transform="translate(378.0257 537.2522) rotate(-88.0602)" fill="#8249ff"/><circle cx="464.9007" cy="75.3712" r="49.9155" transform="translate(373.8363 537.4542) rotate(-88.0602)" fill="#834cff"/><circle cx="462.9105" cy="77.6391" r="48.4643" transform="translate(369.6468 537.6563) rotate(-88.0602)" fill="#854eff"/><circle cx="460.9203" cy="79.907" r="47.0132" transform="translate(365.4573 537.8583) rotate(-88.0602)" fill="#8750ff"/><circle cx="458.9301" cy="82.1749" r="45.562" transform="matrix(0.0338, -0.9994, 0.9994, 0.0338, 361.2679, 538.0604)" fill="#8853ff"/><circle cx="456.9398" cy="84.4428" r="44.1109" transform="translate(357.0784 538.2624) rotate(-88.0602)" fill="#8a55ff"/><circle cx="454.9496" cy="86.7107" r="42.6597" transform="matrix(0.0338, -0.9994, 0.9994, 0.0338, 352.8889, 538.4645)" fill="#8c57ff"/><circle cx="452.9594" cy="88.9786" r="41.2086" transform="matrix(0.0338, -0.9994, 0.9994, 0.0338, 348.6995, 538.6665)" fill="#8d5aff"/><circle cx="450.9691" cy="91.2465" r="39.7574" transform="translate(344.51 538.8686) rotate(-88.0602)" fill="#8f5cff"/><circle cx="448.9789" cy="93.5144" r="38.3063" transform="translate(340.3205 539.0706) rotate(-88.0602)" fill="#915eff"/><circle cx="446.9887" cy="95.7823" r="36.8551" transform="matrix(0.0338, -0.9994, 0.9994, 0.0338, 336.1311, 539.2727)" fill="#9261ff"/><circle cx="444.9984" cy="98.0502" r="35.404" transform="translate(331.9416 539.4747) rotate(-88.0602)" fill="#9463ff"/><circle cx="443.0082" cy="100.3181" r="33.9528" transform="translate(327.7521 539.6768) rotate(-88.0602)" fill="#9665ff"/><circle cx="441.018" cy="102.586" r="32.5017" transform="translate(323.5627 539.8788) rotate(-88.0602)" fill="#9768ff"/><circle cx="439.0278" cy="104.8539" r="31.0505" transform="translate(319.3732 540.0808) rotate(-88.0602)" fill="#996aff"/><circle cx="437.0375" cy="107.1218" r="29.5994" transform="translate(315.1837 540.2829) rotate(-88.0602)" fill="#9a6dff"/><circle cx="435.0473" cy="109.3897" r="28.1482" transform="matrix(0.0338, -0.9994, 0.9994, 0.0338, 310.9943, 540.4849)" fill="#9c6fff"/><circle cx="433.0571" cy="111.6576" r="26.6971" transform="translate(306.8048 540.687) rotate(-88.0602)" fill="#9e71ff"/><circle cx="431.0668" cy="113.9255" r="25.2459" transform="translate(302.6154 540.889) rotate(-88.0602)" fill="#9f74ff"/><circle cx="429.0766" cy="116.1934" r="23.7948" transform="translate(298.4259 541.0911) rotate(-88.0602)" fill="#a176ff"/><g mask="url(#b9d4ecb6-dc11-4df7-b8ca-a0500a5d0985)"><circle cx="512.338" cy="-2.1992" r="150.0281" fill="#a176ff"/></g><g mask="url(#be4d1aa4-47dc-4fde-94f5-3b28dafb1714)"><circle cx="224.3028" cy="-26.2146" r="150.0281" fill="#9362ff"/></g></g></g></svg>