<svg xmlns="http://www.w3.org/2000/svg" xmlns:xlink="http://www.w3.org/1999/xlink" width="719" height="325" viewBox="0 0 719 325"><defs><radialGradient id="f89218fa-b8df-4726-bc60-09eb9146a863" cx="-11435.0797" cy="-8100.7464" r="176.2626" gradientTransform="matrix(-1.1795, -0.5389, -0.539, 1.1793, -17430.8709, 3403.9985)" gradientUnits="userSpaceOnUse"><stop offset="0" stop-color="#fff"/><stop offset="0.0849" stop-color="#fff" stop-opacity="0.9648"/><stop offset="0.2235" stop-color="#fff" stop-opacity="0.8691"/><stop offset="0.3985" stop-color="#fff" stop-opacity="0.7131"/><stop offset="0.6031" stop-color="#fff" stop-opacity="0.4965"/><stop offset="0.8298" stop-color="#fff" stop-opacity="0.2236"/><stop offset="1" stop-color="#fff" stop-opacity="0"/></radialGradient><linearGradient id="e586c131-9e6f-4ada-92b0-4f2f4d1db236" x1="23019.2754" y1="-1941.3657" x2="23278.2492" y2="-1941.3657" gradientTransform="translate(-22768.3182 1860.993)" gradientUnits="userSpaceOnUse"><stop offset="0.1" stop-color="#fff"/><stop offset="0.3038" stop-color="#fcfcfc"/><stop offset="0.4264" stop-color="#f4f4f4"/><stop offset="0.5275" stop-color="#e6e6e6"/><stop offset="0.6169" stop-color="#d1d1d1"/><stop offset="0.6987" stop-color="#b7b7b7"/><stop offset="0.7749" stop-color="#979797"/><stop offset="0.8467" stop-color="#707070"/><stop offset="0.9151" stop-color="#444"/><stop offset="0.9785" stop-color="#121212"/><stop offset="1"/></linearGradient><linearGradient id="af064093-e7c5-40b2-ac06-d64e7f5c7030" x1="28877.8787" y1="11870.7623" x2="29136.8527" y2="11870.7623" gradientTransform="translate(-28626.9216 -11951.135)" xlink:href="#e586c131-9e6f-4ada-92b0-4f2f4d1db236"/><linearGradient id="a8602365-503f-42f2-bc5b-0a7d687b726f" x1="25698.9302" y1="-1507.6055" x2="25919.676" y2="-1507.6055" gradientTransform="translate(-25384.6038 1488.8)" xlink:href="#e586c131-9e6f-4ada-92b0-4f2f4d1db236"/><linearGradient id="a17e0c65-d5ac-4749-b714-3d8ad49bec11" x1="28463.2325" y1="14531.3031" x2="28683.9784" y2="14531.3031" gradientTransform="translate(-28148.9061 -14550.1086)" xlink:href="#e586c131-9e6f-4ada-92b0-4f2f4d1db236"/><clipPath id="a5d5e3e5-9246-485e-939c-cb070221b09b"><rect width="719" height="325" fill="none"/></clipPath><mask id="a6c46b4d-d714-4cfe-96d2-29cff3d633e8" x="194.34" y="-215.4506" width="457.1776" height="457.233" maskUnits="userSpaceOnUse"><ellipse cx="422.9288" cy="13.1659" rx="228.5786" ry="228.5504" transform="translate(369.7481 432.9443) rotate(-84.5629)" fill="url(#f89218fa-b8df-4726-bc60-09eb9146a863)"/></mask><mask id="e6eee312-8e42-4f89-8f17-10b2f744c5e9" x="228.9213" y="-231.8955" width="303.0457" height="303.0456" maskUnits="userSpaceOnUse"><rect x="250.9572" y="-209.8597" width="258.9739" height="258.974" transform="translate(530.9114 278.1759) rotate(-100.8367)" fill="url(#e586c131-9e6f-4ada-92b0-4f2f4d1db236)"/></mask><mask id="b94ef3a7-daa9-4c36-8714-94c1b91cf00b" x="228.9213" y="-231.8955" width="303.0457" height="303.0456" maskUnits="userSpaceOnUse"><rect x="250.9572" y="-209.8596" width="258.974" height="258.9739" transform="translate(738.9928 -230.8399) rotate(169.1633)" fill="url(#af064093-e7c5-40b2-ac06-d64e7f5c7030)"/></mask><mask id="a0ec73fa-f360-411d-8b12-fbc8ba050081" x="295.5433" y="-147.9614" width="258.312" height="258.3119" maskUnits="userSpaceOnUse"><rect x="314.3264" y="-129.1784" width="220.7458" height="220.7459" transform="translate(326.381 -432.3954) rotate(79.1633)" fill="url(#a8602365-503f-42f2-bc5b-0a7d687b726f)"/></mask><mask id="abd63779-791c-4e7e-b54a-a49b07331263" x="295.5433" y="-147.9614" width="258.312" height="258.3119" maskUnits="userSpaceOnUse"><rect x="314.3264" y="-129.1784" width="220.7459" height="220.7458" transform="translate(11.1093 79.5129) rotate(-10.8367)" fill="url(#a17e0c65-d5ac-4749-b714-3d8ad49bec11)"/></mask><linearGradient id="b755cbbc-8eb2-435d-a74a-c581980d7e54" x1="1000.1906" y1="252.2891" x2="1000.1906" y2="115.8793" gradientTransform="translate(-546.641 -148.533)" gradientUnits="userSpaceOnUse"><stop offset="0" stop-color="#39b39e"/><stop offset="0.0899" stop-color="#39b39e" stop-opacity="0.8326"/><stop offset="0.2442" stop-color="#39b39e" stop-opacity="0.5803"/><stop offset="0.3995" stop-color="#39b39e" stop-opacity="0.3712"/><stop offset="0.5535" stop-color="#39b39e" stop-opacity="0.2087"/><stop offset="0.7057" stop-color="#39b39e" stop-opacity="0.0928"/><stop offset="0.8555" stop-color="#39b39e" stop-opacity="0.0233"/><stop offset="1" stop-color="#39b39e" stop-opacity="0"/></linearGradient><linearGradient id="a9c0cba7-ecb6-4091-a5f7-80e27fab0493" x1="1000.1906" y1="109.0307" x2="1000.1906" y2="182.8963" gradientTransform="translate(-546.641 -148.533)" gradientUnits="userSpaceOnUse"><stop offset="0" stop-color="#349fd1"/><stop offset="0.045" stop-color="#349fd1" stop-opacity="0.9286"/><stop offset="0.2354" stop-color="#349fd1" stop-opacity="0.6493"/><stop offset="0.4194" stop-color="#349fd1" stop-opacity="0.417"/><stop offset="0.5923" stop-color="#349fd1" stop-opacity="0.2361"/><stop offset="0.7516" stop-color="#349fd1" stop-opacity="0.1063"/><stop offset="0.8925" stop-color="#349fd1" stop-opacity="0.0276"/><stop offset="1" stop-color="#349fd1" stop-opacity="0"/></linearGradient><linearGradient id="f8005ca9-c6d4-4608-b044-3e78df80356a" x1="1000.1906" y1="181.9746" x2="1000.1906" y2="238.2377" gradientTransform="translate(-540.2128 -149.0954)" xlink:href="#a9c0cba7-ecb6-4091-a5f7-80e27fab0493"/><linearGradient id="a9cc4335-5d46-459d-b164-b0740255790b" x1="-2130.8542" y1="1215.3886" x2="-2130.8542" y2="1286.7037" gradientTransform="matrix(0.1736, 0.9848, -0.9848, 0.1736, 2024.8639, 1922.2753)" gradientUnits="userSpaceOnUse"><stop offset="0" stop-color="#3dc6af"/><stop offset="1" stop-color="#3dc6af" stop-opacity="0"/></linearGradient><linearGradient id="e2e43c64-cae6-4fc1-b759-33ca13f21d6a" x1="751.2874" y1="-8841.4969" x2="751.2874" y2="-8789.7027" gradientTransform="translate(-330.8927 8821.823)" gradientUnits="userSpaceOnUse"><stop offset="0" stop-color="#41d9bf"/><stop offset="1" stop-color="#41d9bf" stop-opacity="0"/></linearGradient><linearGradient id="a52b1acf-e266-4be8-81cd-fcaca67ef387" x1="4015.1821" y1="-10760.9884" x2="4015.1821" y2="-10744.5658" gradientTransform="matrix(0.9848, -0.1736, 0.1736, 0.9848, -1677.1612, 11285.1671)" xlink:href="#e2e43c64-cae6-4fc1-b759-33ca13f21d6a"/><linearGradient id="ae7e0922-ef7d-43a6-acd9-d6c8aae3a9f4" x1="9766.8262" y1="175.7053" x2="9719.858" y2="246.0616" gradientTransform="matrix(1, 0, 0, -1, -9318.1759, 298.7993)" gradientUnits="userSpaceOnUse"><stop offset="0" stop-color="#349fd1"/><stop offset="0.0102" stop-color="#349fd1" stop-opacity="0.9731"/><stop offset="0.104" stop-color="#349fd1" stop-opacity="0.7468"/><stop offset="0.2033" stop-color="#349fd1" stop-opacity="0.5463"/><stop offset="0.3068" stop-color="#349fd1" stop-opacity="0.3773"/><stop offset="0.4154" stop-color="#349fd1" stop-opacity="0.2398"/><stop offset="0.5309" stop-color="#349fd1" stop-opacity="0.1335"/><stop offset="0.6566" stop-color="#349fd1" stop-opacity="0.0582"/><stop offset="0.8" stop-color="#349fd1" stop-opacity="0.0138"/><stop offset="1" stop-color="#349fd1" stop-opacity="0"/></linearGradient></defs><g id="af92506c-4063-4235-a2e3-fb0f91a0b6bc" data-name="Shared Hosting"><g clip-path="url(#a5d5e3e5-9246-485e-939c-cb070221b09b)"><rect y="0.0726" width="721.1667" height="325" fill="#297497"/><g mask="url(#a6c46b4d-d714-4cfe-96d2-29cff3d633e8)"><ellipse cx="422.9288" cy="13.1659" rx="228.5786" ry="228.5504" transform="translate(369.7481 432.9443) rotate(-84.5629)" fill="#359f8e"/></g><g mask="url(#e6eee312-8e42-4f89-8f17-10b2f744c5e9)"><g mask="url(#b94ef3a7-daa9-4c36-8714-94c1b91cf00b)"><rect x="252.7809" y="-208.0359" width="255.3265" height="255.3263" rx="32.8277" transform="matrix(0.9822, -0.188, 0.188, 0.9822, 21.8955, 70.0945)" fill="#297497"/></g></g><g mask="url(#a0ec73fa-f360-411d-8b12-fbc8ba050081)"><g mask="url(#abd63779-791c-4e7e-b54a-a49b07331263)"><rect x="315.8809" y="-127.6238" width="217.6368" height="217.6367" rx="27.9819" transform="translate(838.2893 -117.1238) rotate(169.1633)" fill="#297497"/></g></g><g id="f7c9fc37-bf2a-4126-b2a3-2b7e55259f36" data-name="SharedHosting_Color_DarkBG"><rect x="379.7677" y="-38.2707" width="147.5639" height="147.5639" rx="19.0965" transform="translate(0.724 79.2976) rotate(-10)" fill="url(#b755cbbc-8eb2-435d-a74a-c581980d7e54)"/><rect x="379.7677" y="-38.2707" width="147.5639" height="147.5639" rx="19.0965" transform="translate(0.724 79.2976) rotate(-10)" fill="url(#a9c0cba7-ecb6-4091-a5f7-80e27fab0493)"/><rect x="386.1959" y="35.2405" width="147.5639" height="73.454" rx="19.0947" transform="translate(-5.5089 80.9677) rotate(-10)" fill="url(#f8005ca9-c6d4-4608-b044-3e78df80356a)"/><path d="M389.8819,102.3925l-19-107.7535a19.0742,19.0742,0,0,1,15.4722-22.0965L421.77-33.7022A19.0741,19.0741,0,0,1,443.866-18.23l19,107.7536a19.0742,19.0742,0,0,0,22.0964,15.4721l.0187-.0033-73.0026,12.8723A19.0741,19.0741,0,0,1,389.8819,102.3925Z" fill="url(#a9cc4335-5d46-459d-b164-b0740255790b)"/><path d="M420.25-21.9423h.289A17.2352,17.2352,0,0,1,437.7745-4.707V31.8366a0,0,0,0,1,0,0h-34.76a0,0,0,0,1,0,0V-4.707A17.2352,17.2352,0,0,1,420.25-21.9423Z" transform="translate(488.5236 419.8143) rotate(-100)" fill="url(#e2e43c64-cae6-4fc1-b759-33ca13f21d6a)"/><path d="M394.2253,9.1142A17.0517,17.0517,0,0,1,408.057-10.64l.2891-.051A17.0519,17.0519,0,0,1,428.1,3.1412Z" fill="url(#a52b1acf-e266-4be8-81cd-fcaca67ef387)"/><path d="M405.4325,41.3771h35.251A19.1015,19.1015,0,0,1,459.785,60.4786V95.73a19.1015,19.1015,0,0,1-19.1015,19.1015H386.331a0,0,0,0,1,0,0V60.4786a19.1015,19.1015,0,0,1,19.1015-19.1015Z" transform="translate(853.2514 81.5584) rotate(170)" fill="url(#ae7e0922-ef7d-43a6-acd9-d6c8aae3a9f4)"/></g></g></g></svg>