<svg xmlns="http://www.w3.org/2000/svg" xmlns:xlink="http://www.w3.org/1999/xlink" width="719" height="325" viewBox="0 0 719 325"><defs><clipPath id="a9993048-b07f-476b-9170-fcc660ad43a8"><rect width="719" height="325" fill="#e6a122"/></clipPath><radialGradient id="bc8c91ad-c814-4ed9-95de-f4eec1f3ac87" cx="397.2558" cy="-22.4688" r="183.75" gradientUnits="userSpaceOnUse"><stop offset="0" stop-color="#ffbb3c"/><stop offset="0.1213" stop-color="#ffbb3c" stop-opacity="0.9061"/><stop offset="0.3778" stop-color="#ffbb3c" stop-opacity="0.6643"/><stop offset="0.7449" stop-color="#ffbb3c" stop-opacity="0.2812"/><stop offset="1" stop-color="#ffbb3c" stop-opacity="0"/></radialGradient><radialGradient id="ac7369e1-5382-49ee-a90d-9c2f67aefd06" cx="487.2213" cy="12.0657" r="99.7155" xlink:href="#bc8c91ad-c814-4ed9-95de-f4eec1f3ac87"/><radialGradient id="a3f3bd84-3325-4169-9b0c-8e39886f77d7" cx="71.2213" cy="-31.9343" r="99.7155" xlink:href="#bc8c91ad-c814-4ed9-95de-f4eec1f3ac87"/><radialGradient id="b11007a6-9902-42b8-a5d9-9e1693746143" cx="618.9036" cy="-56.6167" r="124.3978" xlink:href="#bc8c91ad-c814-4ed9-95de-f4eec1f3ac87"/><radialGradient id="a88a37f5-b114-4387-b605-53fc8167248a" cx="1403.6855" cy="4569.1195" r="112.6625" gradientTransform="translate(2845.8838 4055.0326) rotate(166.412)" gradientUnits="userSpaceOnUse"><stop offset="0.3" stop-color="#e6a122" stop-opacity="0"/><stop offset="0.3343" stop-color="#e6a122" stop-opacity="0.0642"/><stop offset="0.5203" stop-color="#e6a122" stop-opacity="0.3928"/><stop offset="0.6864" stop-color="#e6a122" stop-opacity="0.6535"/><stop offset="0.8267" stop-color="#e6a122" stop-opacity="0.8416"/><stop offset="0.9356" stop-color="#e6a122" stop-opacity="0.9572"/><stop offset="1" stop-color="#e6a122"/></radialGradient><radialGradient id="abf71271-b90b-455e-8782-cfaea24d2493" cx="-4037.5391" cy="-9746.2039" r="112.6625" gradientTransform="translate(-8199.9567 6294.0233) rotate(76.412)" xlink:href="#a88a37f5-b114-4387-b605-53fc8167248a"/><radialGradient id="af498da4-38f6-402b-918e-3a13dff5e636" cx="4287.7834" cy="-10568.9675" r="112.6625" gradientTransform="translate(-1223.6788 11443.3897) rotate(-13.588)" xlink:href="#a88a37f5-b114-4387-b605-53fc8167248a"/><radialGradient id="bfcddba6-f1f6-4576-b0ad-ff50e06169e2" cx="-546.7608" cy="-13682.7031" r="112.6625" gradientTransform="translate(-3228.5192 -13254.1588) rotate(166.412)" xlink:href="#a88a37f5-b114-4387-b605-53fc8167248a"/><radialGradient id="b3e4e8e1-3cfd-4e60-9540-51dc516a481c" cx="4400.0758" cy="-10569.6034" r="112.6625" gradientTransform="translate(-1223.6788 11443.3897) rotate(-13.588)" xlink:href="#a88a37f5-b114-4387-b605-53fc8167248a"/><radialGradient id="b680a8a2-c765-4df8-ac05-ecaa41deb288" cx="6591.707" cy="-16882.168" r="112.6625" gradientTransform="translate(-17441.3669 -2524.1764) rotate(76.412)" xlink:href="#a88a37f5-b114-4387-b605-53fc8167248a"/><radialGradient id="aa89b24c-9f31-4a46-b365-9c57e6b1d214" cx="8224.4354" cy="-6852.8003" r="112.6625" gradientTransform="translate(-8513.8636 -6360.9213) rotate(76.412)" xlink:href="#a88a37f5-b114-4387-b605-53fc8167248a"/><radialGradient id="b5243336-12a6-4f4f-ac24-0e95a2f26615" cx="7384.3807" cy="-2925.454" r="112.6625" gradientTransform="translate(-6357.9132 4820.897) rotate(-13.588)" xlink:href="#a88a37f5-b114-4387-b605-53fc8167248a"/><radialGradient id="e1d3148c-5d39-4993-a0da-0308337af66a" cx="4287.6305" cy="-10794.3562" r="112.6625" gradientTransform="translate(-1389.6219 11715.5351) rotate(-13.588)" xlink:href="#a88a37f5-b114-4387-b605-53fc8167248a"/><radialGradient id="b72cced3-199e-4bf6-800c-27fb33db4117" cx="6499.225" cy="-25330.1646" r="112.6625" gradientTransform="translate(-25959.2224 -369.421) rotate(76.412)" xlink:href="#a88a37f5-b114-4387-b605-53fc8167248a"/><radialGradient id="abcf9f15-61b2-4330-8b41-1a872ea82c57" cx="11100.5478" cy="-6862.106" r="112.6625" gradientTransform="translate(9822.1616 9204.3991) rotate(-103.588)" gradientUnits="userSpaceOnUse"><stop offset="0" stop-color="#a495ec" stop-opacity="0"/><stop offset="0.2329" stop-color="#a495ec" stop-opacity="0.2823"/><stop offset="0.5069" stop-color="#a495ec" stop-opacity="0.587"/><stop offset="0.7354" stop-color="#a495ec" stop-opacity="0.8104"/><stop offset="0.9062" stop-color="#a495ec" stop-opacity="0.9482"/><stop offset="1" stop-color="#a495ec"/></radialGradient><radialGradient id="b887f1fd-1f2f-4106-bfa9-07a933991b14" cx="4260.2082" cy="-10573.2215" r="175.2891" gradientTransform="translate(-1223.6788 11443.3897) rotate(-13.588)" gradientUnits="userSpaceOnUse"><stop offset="0.5579" stop-color="#a495ec" stop-opacity="0"/><stop offset="0.6343" stop-color="#a495ec" stop-opacity="0.2823"/><stop offset="0.7241" stop-color="#a495ec" stop-opacity="0.587"/><stop offset="0.799" stop-color="#a495ec" stop-opacity="0.8104"/><stop offset="0.8549" stop-color="#a495ec" stop-opacity="0.9482"/><stop offset="0.8857" stop-color="#a495ec"/></radialGradient><radialGradient id="bb0de237-a97e-4486-9049-74e0e1e2c36c" cx="1429.8478" cy="4622.571" r="159.3204" gradientTransform="translate(2845.8838 4055.0326) rotate(166.412)" gradientUnits="userSpaceOnUse"><stop offset="0.5894" stop-color="#a495ec" stop-opacity="0"/><stop offset="0.6851" stop-color="#a495ec" stop-opacity="0.2823"/><stop offset="0.7976" stop-color="#a495ec" stop-opacity="0.587"/><stop offset="0.8914" stop-color="#a495ec" stop-opacity="0.8104"/><stop offset="0.9615" stop-color="#a495ec" stop-opacity="0.9482"/><stop offset="1" stop-color="#a495ec"/></radialGradient><radialGradient id="f99744ef-4561-417a-86a1-d938589a4625" cx="570" cy="130.4855" r="99.7155" gradientUnits="userSpaceOnUse"><stop offset="0" stop-color="#e6a122"/><stop offset="0.1328" stop-color="#e6a122" stop-opacity="0.896"/><stop offset="0.4138" stop-color="#e6a122" stop-opacity="0.6282"/><stop offset="0.8164" stop-color="#e6a122" stop-opacity="0.2034"/><stop offset="1" stop-color="#e6a122" stop-opacity="0"/></radialGradient></defs><g id="a276fac2-696c-47ef-9b0d-b25638378255" data-name="Virtual Machines"><rect width="719" height="325" fill="#e6a122"/><g clip-path="url(#a9993048-b07f-476b-9170-fcc660ad43a8)"><circle cx="397.2558" cy="-22.4688" r="183.75" fill="url(#bc8c91ad-c814-4ed9-95de-f4eec1f3ac87)"/><circle cx="487.2213" cy="12.0657" r="99.7155" fill="url(#ac7369e1-5382-49ee-a90d-9c2f67aefd06)"/><circle cx="71.2213" cy="-31.9343" r="99.7155" fill="url(#a3f3bd84-3325-4169-9b0c-8e39886f77d7)"/><circle cx="618.9036" cy="-56.6167" r="124.3978" fill="url(#b11007a6-9902-42b8-a5d9-9e1693746143)"/><path d="M408.0591-56.2784,434.5279,53.2307a112.7021,112.7021,0,0,1-85.1871-13.3582A112.7023,112.7023,0,0,1,298.55-29.81Z" fill="url(#a88a37f5-b114-4387-b605-53fc8167248a)"/><path d="M325.0188,79.7,434.5279,53.2307a112.6624,112.6624,0,0,1-83.04,135.9778Z" fill="url(#abf71271-b90b-455e-8782-cfaea24d2493)"/><path d="M460.9968,162.74,434.528,53.2306a112.6624,112.6624,0,0,1,135.9778,83.04Z" fill="url(#af498da4-38f6-402b-918e-3a13dff5e636)"/><path d="M517.5682-82.7471,544.037,26.7619A112.7021,112.7021,0,0,1,458.85,13.4037a112.7022,112.7022,0,0,1-50.7907-69.6821Z" fill="url(#bfcddba6-f1f6-4576-b0ad-ff50e06169e2)"/><path d="M569.9967,135.74,543.528,26.2305a112.6624,112.6624,0,0,1,135.9778,83.04Z" fill="url(#b3e4e8e1-3cfd-4e60-9540-51dc516a481c)"/><path d="M517.0592-83.2784l109.5091-26.4687A112.7027,112.7027,0,0,1,613.21-24.56a112.7026,112.7026,0,0,1-69.682,50.7907Z" fill="url(#b680a8a2-c765-4df8-ac05-ecaa41deb288)"/><path d="M79.5058,23.2915,189.0149-3.1772a112.6626,112.6626,0,0,1-83.04,135.9778Z" fill="url(#aa89b24c-9f31-4a46-b365-9c57e6b1d214)"/><path d="M132.4434,242.31,105.9746,132.8005a112.6626,112.6626,0,0,1,135.9778,83.04Z" fill="url(#b5243336-12a6-4f4f-ac24-0e95a2f26615)"/><path d="M241.9525,215.8408,215.4838,106.3317a112.6624,112.6624,0,0,1,135.9778,83.04Z" fill="url(#e1d3148c-5d39-4993-a0da-0308337af66a)"/><path d="M189.015-3.1772,298.524-29.646a112.7021,112.7021,0,0,1-13.3582,85.1871,112.7025,112.7025,0,0,1-69.6821,50.7907Z" fill="url(#b72cced3-199e-4bf6-800c-27fb33db4117)"/><path d="M544.037,26.7619,434.528,53.2307a112.6624,112.6624,0,0,1,83.04-135.9779Z" fill="url(#abcf9f15-61b2-4330-8b41-1a872ea82c57)"/><path d="M460.9968,162.74,434.528,53.2306a112.6624,112.6624,0,0,1,135.9778,83.04Z" fill="url(#b887f1fd-1f2f-4106-bfa9-07a933991b14)"/><path d="M408.0591-56.2784,434.5279,53.2307a112.7021,112.7021,0,0,1-85.1871-13.3582A112.7023,112.7023,0,0,1,298.55-29.81Z" fill="url(#bb0de237-a97e-4486-9049-74e0e1e2c36c)"/><circle cx="570" cy="130.4855" r="99.7155" fill="url(#f99744ef-4561-417a-86a1-d938589a4625)"/></g></g></svg>