<svg xmlns="http://www.w3.org/2000/svg" xmlns:xlink="http://www.w3.org/1999/xlink" width="719" height="325" viewBox="0 0 719 325"><defs><radialGradient id="f954159f-22d4-4404-83af-ddab57622d53" cx="-11905.7357" cy="-9221.7761" r="125.7969" gradientTransform="matrix(1.7993, 0, 0, -1.8043, 21731.9036, -16710.0734)" gradientUnits="userSpaceOnUse"><stop offset="0" stop-color="#fff"/><stop offset="0.0849" stop-color="#fff" stop-opacity="0.9648"/><stop offset="0.2235" stop-color="#fff" stop-opacity="0.8691"/><stop offset="0.3985" stop-color="#fff" stop-opacity="0.7131"/><stop offset="0.6031" stop-color="#fff" stop-opacity="0.4965"/><stop offset="0.8298" stop-color="#fff" stop-opacity="0.2236"/><stop offset="1" stop-color="#fff" stop-opacity="0"/></radialGradient><radialGradient id="ab83f535-1a7f-42ce-a072-46e2a012df32" cx="-12001.3141" cy="-9199.6152" r="107.773" xlink:href="#f954159f-22d4-4404-83af-ddab57622d53"/><linearGradient id="a2bb8cd9-9354-4c42-9b6d-3c21976128cb" x1="3160.9835" y1="6922.4271" x2="3253.7136" y2="6922.4271" gradientTransform="matrix(0.821, 0.5709, 0.5709, -0.821, -6164.0223, 3912.4817)" gradientUnits="userSpaceOnUse"><stop offset="0" stop-color="#fff"/><stop offset="0.1102" stop-color="#cbcbcb"/><stop offset="0.239" stop-color="#969696"/><stop offset="0.3696" stop-color="#686868"/><stop offset="0.4992" stop-color="#434343"/><stop offset="0.6276" stop-color="#252525"/><stop offset="0.7546" stop-color="#111"/><stop offset="0.8795" stop-color="#040404"/><stop offset="1"/></linearGradient><clipPath id="a56f0c0e-96a4-432d-a7f7-d4eac97fa7b5"><path id="a466ffb5-8016-4f2a-b8ea-284fc8a8f05d" data-name="D" d="M0,0H719l0,325H0Z" fill="none" clip-rule="evenodd"/></clipPath><mask id="babbdf70-7229-4bf4-b0f6-ff2907256e84" x="83.6348" y="-298.2071" width="452.6913" height="453.9504" maskUnits="userSpaceOnUse"><ellipse cx="309.9805" cy="-71.2319" rx="226.3457" ry="226.9752" fill="url(#f954159f-22d4-4404-83af-ddab57622d53)"/></mask><mask id="e51cf10b-25e0-4949-8262-3072fa94b448" x="-55.9086" y="-305.6716" width="387.8308" height="388.9095" maskUnits="userSpaceOnUse"><ellipse cx="138.0068" cy="-111.2168" rx="193.9154" ry="194.4548" fill="url(#ab83f535-1a7f-42ce-a072-46e2a012df32)"/></mask><linearGradient id="eb9e0ac9-adc2-45cd-82f9-c071ca598ce5" x1="5596.8011" y1="3675.1117" x2="5631.0789" y2="3640.8339" gradientTransform="matrix(0.137, -0.9906, -0.9906, -0.137, 3197.0622, 6076.79)" gradientUnits="userSpaceOnUse"><stop offset="0" stop-color="#e98969" stop-opacity="0"/><stop offset="0.5" stop-color="#e98969"/><stop offset="1" stop-color="#e98969" stop-opacity="0"/></linearGradient><linearGradient id="f64bd898-8c2d-4aba-accb-9efb86034ef0" x1="-3567.1311" y1="7483.0937" x2="-3548.5531" y2="7588.3689" gradientTransform="matrix(0.1768, 0.9842, 0.9842, -0.1768, -6292.9514, 4880.3711)" gradientUnits="userSpaceOnUse"><stop offset="0" stop-color="#008345" stop-opacity="0"/><stop offset="0.5" stop-color="#008345"/><stop offset="1" stop-color="#008345" stop-opacity="0"/></linearGradient><filter id="a515ff1b-3b23-4b82-8a84-b3358e3fe1f1" filterUnits="userSpaceOnUse" color-interpolation-filters="sRGB"><feColorMatrix values="-1 0 0 0 1 0 -1 0 0 1 0 0 -1 0 1 0 0 0 1 0"/></filter><mask id="ab51955b-a87c-456c-93a6-450c853f34dd" x="364.1078" y="20.1895" width="99.4189" height="93.4058" maskUnits="userSpaceOnUse"><path d="M415.8183,97.6219a55.9277,55.9277,0,0,1-28.741-19.9871L364.1078,61.6614,383.3931,33.93C394.93,17.34,421,15.5169,441.6225,29.8581s27.9874,39.4157,16.45,56.0055l-19.2852,27.7318Z" fill="url(#a2bb8cd9-9354-4c42-9b6d-3c21976128cb)" filter="url(#a515ff1b-3b23-4b82-8a84-b3358e3fe1f1)" style="mix-blend-mode:multiply"/></mask></defs><g id="e413e01f-c268-4b3f-9f51-803e0d021b73" data-name="EasyWP"><g clip-path="url(#a56f0c0e-96a4-432d-a7f7-d4eac97fa7b5)"><rect width="719" height="325" fill="#008345"/><g mask="url(#babbdf70-7229-4bf4-b0f6-ff2907256e84)"><ellipse cx="309.9805" cy="-71.2319" rx="226.3457" ry="226.9752" fill="#ebaa42"/></g><g mask="url(#e51cf10b-25e0-4949-8262-3072fa94b448)"><ellipse cx="138.0068" cy="-111.2168" rx="193.9154" ry="194.4548" fill="#ebaa42"/></g><polygon points="347.255 -19.576 358.202 33.902 308.502 9.547 347.255 -19.576" fill="#376b99"/><polygon points="347.255 -19.576 358.202 33.902 308.502 9.547 347.255 -19.576" fill="url(#eb9e0ac9-adc2-45cd-82f9-c071ca598ce5)"/><ellipse cx="326.3178" cy="-7.1259" rx="24.7101" ry="13.4485" transform="matrix(0.7973, -0.6036, 0.6036, 0.7973, 70.4396, 195.5078)" fill="#376b99"/><polygon points="493.693 53.64 554.295 6.733 500.427 -47.775 439.825 -0.868 493.693 53.64" fill="#e4693f"/><polygon points="495.545 93.294 495.417 93.164 495.273 93.276 495.259 93.005 441.677 38.786 439.825 -0.868 493.496 53.44 553.876 6.705 555.875 46.369 495.535 93.073 495.545 93.294" fill="#e4693f"/><polygon points="495.545 93.294 495.417 93.164 495.273 93.276 495.259 93.005 441.677 38.786 439.825 -0.868 493.496 53.44 553.876 6.705 555.875 46.369 495.535 93.073 495.545 93.294" fill="url(#f64bd898-8c2d-4aba-accb-9efb86034ef0)"/><path d="M414.6882,97.7058a55.929,55.929,0,0,1-28.7411-19.9871L362.9777,61.7452l19.2852-27.7318c11.5369-16.59,37.607-18.4127,58.2294-4.0715S468.48,69.3576,456.9429,85.9474l-19.2853,27.7318Z" fill="#ebaa42"/><path d="M414.6882,97.7058a55.929,55.929,0,0,1-28.7411-19.9871L362.9777,61.7452l19.2852-27.7318c11.5369-16.59,37.607-18.4127,58.2294-4.0715S468.48,69.3576,456.9429,85.9474l-19.2853,27.7318Z" fill="#ebaa42"/><g mask="url(#ab51955b-a87c-456c-93a6-450c853f34dd)"><path d="M415.8183,97.6219a55.9277,55.9277,0,0,1-28.741-19.9871L364.1078,61.6614,383.3931,33.93C394.93,17.34,421,15.5169,441.6225,29.8581s27.9874,39.4157,16.45,56.0055l-19.2852,27.7318Z" fill="#008345"/></g><ellipse cx="400.3176" cy="87.7122" rx="36.588" ry="45.4814" transform="translate(99.7505 366.2926) rotate(-55.1844)" fill="#ebaa42"/></g></g></svg>