<?xml version="1.0" encoding="UTF-8"?><svg id="uuid-cfecdc26-e57d-462b-b596-88b395d88285" xmlns="http://www.w3.org/2000/svg" width="520" height="520" xmlns:xlink="http://www.w3.org/1999/xlink" viewBox="0 0 520 520"><defs><clipPath id="uuid-d1e6a707-d682-46b2-801c-e037e3b34270"><rect x="-596" width="520" height="520" fill="none"/></clipPath><filter id="uuid-60091b06-569f-4a39-8fd0-3998862cf224" x="-385.0342" y="-73.7403" width="688.4842" height="686.0041" color-interpolation-filters="sRGB" filterUnits="userSpaceOnUse"><feFlood flood-color="#fff" result="bg"/><feBlend in="SourceGraphic" in2="bg"/></filter><radialGradient id="uuid-0b0d6726-f3c0-49bd-ba22-914a1a05c74b" cx="-12281.7063" cy="-2346.4908" fx="-12281.7063" fy="-2346.4908" r="228.6675" gradientTransform="translate(18375.3031 -3290.7993) rotate(-.1254) scale(1.5 -1.5)" gradientUnits="userSpaceOnUse"><stop offset="0" stop-color="#fff"/><stop offset=".0849" stop-color="#fff" stop-opacity=".9648"/><stop offset=".2235" stop-color="#fff" stop-opacity=".8691"/><stop offset=".3985" stop-color="#fff" stop-opacity=".7131"/><stop offset=".6031" stop-color="#fff" stop-opacity=".4965"/><stop offset=".8298" stop-color="#fff" stop-opacity=".2236"/><stop offset="1" stop-color="#fff" stop-opacity="0"/></radialGradient><mask id="uuid-e06e307d-60db-4846-8719-0bd14a16a96c" x="-382.5541" y="-73.7403" width="686.0041" height="686.0041" maskUnits="userSpaceOnUse"><circle cx="-39.552" cy="269.2617" r="343.002" fill="url(#uuid-0b0d6726-f3c0-49bd-ba22-914a1a05c74b)"/></mask><mask id="uuid-c9607197-c88d-414c-a47c-40adb5eed684" x="-385.0342" y="-73.7403" width="688.4842" height="686.0041" maskUnits="userSpaceOnUse"><g filter="url(#uuid-60091b06-569f-4a39-8fd0-3998862cf224)"><g mask="url(#uuid-e06e307d-60db-4846-8719-0bd14a16a96c)"><circle cx="-39.552" cy="269.2617" r="343.002"/></g></g></mask><linearGradient id="uuid-759eeecd-850c-4021-9ef4-527e35453327" x1="-380.1854" y1="178.9668" x2="10.1769" y2="413.7249" gradientTransform="translate(-.5926 -3.4993) rotate(-.1254)" gradientUnits="userSpaceOnUse"><stop offset=".0006" stop-color="#abe3a0"/><stop offset=".2399" stop-color="#abe3a0" stop-opacity=".733"/><stop offset=".612" stop-color="#abe3a0" stop-opacity=".3417"/><stop offset=".874" stop-color="#abe3a0" stop-opacity=".0953"/><stop offset="1" stop-color="#abe3a0" stop-opacity="0"/></linearGradient><filter id="uuid-dc6ec154-1af8-4cef-ba55-9c9cafae2eae" x="-857.2979" y="187.0312" width="891.6677" height="926.7893" color-interpolation-filters="sRGB" filterUnits="userSpaceOnUse"><feFlood flood-color="#fff" result="bg"/><feBlend in="SourceGraphic" in2="bg"/></filter><mask id="uuid-d5a5ae42-8c30-4e69-9901-1bc2a4dd541a" x="-857.2979" y="187.0312" width="891.6677" height="926.7893" maskUnits="userSpaceOnUse"/><linearGradient id="uuid-5233f00b-5526-4ea9-98a1-b7a1b93f26db" x1="-193.4248" y1="628.9197" x2="-193.4248" y2="190.108" gradientTransform="translate(-.5926 -3.4993) rotate(-.1254)" gradientUnits="userSpaceOnUse"><stop offset="0" stop-color="#abe3a0"/><stop offset=".2394" stop-color="#abe3a0" stop-opacity=".733"/><stop offset=".6118" stop-color="#abe3a0" stop-opacity=".3417"/><stop offset=".874" stop-color="#abe3a0" stop-opacity=".0953"/><stop offset="1" stop-color="#abe3a0" stop-opacity="0"/></linearGradient><linearGradient id="uuid-05997cc4-985a-408f-805b-262e297d8703" x1="96.1634" y1="237.8452" x2="-291.6173" y2="476.872" gradientTransform="translate(-.5926 -3.4993) rotate(-.1254)" gradientUnits="userSpaceOnUse"><stop offset="0" stop-color="#d2f2f2"/><stop offset=".1378" stop-color="#d2f2f2" stop-opacity=".8178"/><stop offset=".3734" stop-color="#d2f2f2" stop-opacity=".5303"/><stop offset=".586" stop-color="#d2f2f2" stop-opacity=".3022"/><stop offset=".7678" stop-color="#d2f2f2" stop-opacity=".1379"/><stop offset=".9118" stop-color="#d2f2f2" stop-opacity=".0371"/><stop offset="1" stop-color="#d2f2f2" stop-opacity="0"/></linearGradient><clipPath id="uuid-6db89515-319b-4123-a0b7-d19e4f567da6"><rect width="520" height="520" fill="none"/></clipPath><filter id="uuid-0361dbe5-dafd-4d9f-a9ef-9d8aa2160246" x="210.9658" y="-73.7403" width="688.4842" height="686.0041" color-interpolation-filters="sRGB" filterUnits="userSpaceOnUse"><feFlood flood-color="#fff" result="bg"/><feBlend in="SourceGraphic" in2="bg"/></filter><radialGradient id="uuid-f4d496c9-c89a-46af-a33b-653db5a98ac5" cx="-11884.3749" cy="-2347.3605" fx="-11884.3749" fy="-2347.3605" r="228.6675" xlink:href="#uuid-0b0d6726-f3c0-49bd-ba22-914a1a05c74b"/><mask id="uuid-45c1fbc6-7a6e-4b21-ac61-09376a11db16" x="213.4459" y="-73.7403" width="686.0041" height="686.0041" maskUnits="userSpaceOnUse"><circle cx="556.448" cy="269.2617" r="343.002" fill="url(#uuid-f4d496c9-c89a-46af-a33b-653db5a98ac5)"/></mask><mask id="uuid-b6c0e093-2514-4a8b-8e32-adec7d606ecf" x="210.9658" y="-73.7403" width="688.4842" height="686.0041" maskUnits="userSpaceOnUse"><g filter="url(#uuid-0361dbe5-dafd-4d9f-a9ef-9d8aa2160246)"><g mask="url(#uuid-45c1fbc6-7a6e-4b21-ac61-09376a11db16)"><circle cx="556.448" cy="269.2617" r="343.002"/></g></g></mask><linearGradient id="uuid-6a348e2c-afed-4d2b-bc79-a96dd265235b" x1="215.8117" y1="180.2714" x2="606.1741" y2="415.0295" gradientTransform="translate(-.5926 -3.4993) rotate(-.1254)" gradientUnits="userSpaceOnUse"><stop offset=".0006" stop-color="#295221"/><stop offset=".0552" stop-color="#295221" stop-opacity=".9382"/><stop offset=".692" stop-color="#295221" stop-opacity=".263"/><stop offset="1" stop-color="#295221" stop-opacity="0"/></linearGradient><filter id="uuid-29611274-940d-46e9-abf7-dbce4a52126b" x="-261.2979" y="187.0312" width="891.6677" height="926.7893" color-interpolation-filters="sRGB" filterUnits="userSpaceOnUse"><feFlood flood-color="#fff" result="bg"/><feBlend in="SourceGraphic" in2="bg"/></filter><radialGradient id="uuid-d310b24a-baac-49c5-93f0-f589a094de1e" cx="-12152.4232" cy="-2632.0741" fx="-12152.4232" fy="-2632.0741" r="277.7381" xlink:href="#uuid-0b0d6726-f3c0-49bd-ba22-914a1a05c74b"/><mask id="uuid-6385272a-db14-4418-8093-80b056ec03ed" x="-261.2979" y="280.6041" width="833.2164" height="833.2164" maskUnits="userSpaceOnUse"><circle cx="155.3103" cy="697.2123" r="416.6082" fill="url(#uuid-d310b24a-baac-49c5-93f0-f589a094de1e)"/></mask><mask id="uuid-c5bf41c3-2b55-46b7-8825-3da6bfe22ca8" x="-261.2979" y="187.0312" width="891.6677" height="926.7893" maskUnits="userSpaceOnUse"><g filter="url(#uuid-29611274-940d-46e9-abf7-dbce4a52126b)"><g mask="url(#uuid-6385272a-db14-4418-8093-80b056ec03ed)"><circle cx="155.3103" cy="697.2123" r="416.6082"/></g></g></mask><linearGradient id="uuid-4865cc2f-c15d-49b5-94be-0c5549f230ef" x1="402.5724" y1="630.2243" x2="402.5724" y2="191.4125" gradientTransform="translate(-.5926 -3.4993) rotate(-.1254)" gradientUnits="userSpaceOnUse"><stop offset="0" stop-color="#336629"/><stop offset=".2201" stop-color="#336629" stop-opacity=".7542"/><stop offset=".7456" stop-color="#336629" stop-opacity=".2116"/><stop offset="1" stop-color="#336629" stop-opacity="0"/></linearGradient><linearGradient id="uuid-dbc41c77-0ff4-4ba0-8058-9f09376eebe0" x1="692.1606" y1="239.1497" x2="304.3799" y2="478.1765" gradientTransform="translate(-.5926 -3.4993) rotate(-.1254)" gradientUnits="userSpaceOnUse"><stop offset="0" stop-color="#305757"/><stop offset=".1243" stop-color="#305757" stop-opacity=".8351"/><stop offset=".5075" stop-color="#305757" stop-opacity=".3825"/><stop offset=".8128" stop-color="#305757" stop-opacity=".103"/><stop offset="1" stop-color="#305757" stop-opacity="0"/></linearGradient></defs><g clip-path="url(#uuid-d1e6a707-d682-46b2-801c-e037e3b34270)"><g mask="url(#uuid-c9607197-c88d-414c-a47c-40adb5eed684)"><path d="M69.8482,219.4129c4.046-24.5778-9.9706-48.55-33.3126-57.2736-60.4214-22.5814-125.8621-34.8648-194.1797-34.7153-68.1436.1492-133.37,12.6568-193.5637,35.3926-23.3185,8.8077-37.2461,32.8465-33.0992,57.4151,22.6303,134.0771,93.7146,251.6532,194.594,334.1713,19.3528,15.8303,47.1774,15.7704,66.4607-.1445C-22.7785,471.3358,47.7724,353.5156,69.8482,219.4129Z" fill="url(#uuid-759eeecd-850c-4021-9ef4-527e35453327)"/></g><g mask="url(#uuid-d5a5ae42-8c30-4e69-9901-1bc2a4dd541a)"><path d="M33.6772,279.0215c4.046-24.5778-9.9706-48.55-33.3126-57.2736-60.4214-22.5814-125.8621-34.8648-194.1797-34.7153-68.1436.1492-133.37,12.6568-193.5637,35.3926-23.3185,8.8077-37.2461,32.8465-33.0992,57.4151,22.6303,134.0771,93.7146,251.6532,194.594,334.1713,19.3528,15.8303,47.1774,15.7704,66.4607-.1445C-58.9494,530.9443,11.6014,413.1242,33.6772,279.0215Z" fill="url(#uuid-5233f00b-5526-4ea9-98a1-b7a1b93f26db)"/></g><path d="M105.3909,279.755c4.046-24.5778-9.9706-48.55-33.3126-57.2736-60.4214-22.5814-125.8621-34.8648-194.1797-34.7153-68.1436.1492-133.37,12.6568-193.5637,35.3926-23.3185,8.8077-37.2461,32.8465-33.0992,57.4151,22.6303,134.0771,93.7146,251.6532,194.594,334.1713,19.3528,15.8303,47.1774,15.7704,66.4607-.1445C12.7642,531.6778,83.3151,413.8577,105.3909,279.755Z" fill="url(#uuid-05997cc4-985a-408f-805b-262e297d8703)"/></g><g clip-path="url(#uuid-6db89515-319b-4123-a0b7-d19e4f567da6)"><g mask="url(#uuid-b6c0e093-2514-4a8b-8e32-adec7d606ecf)"><path d="M665.8482,219.4129c4.046-24.5778-9.9706-48.55-33.3126-57.2736-60.4214-22.5814-125.8621-34.8648-194.1797-34.7153-68.1436.1492-133.37,12.6568-193.5637,35.3926-23.3185,8.8077-37.2461,32.8465-33.0992,57.4151,22.6303,134.0771,93.7146,251.6532,194.594,334.1713,19.3528,15.8303,47.1774,15.7704,66.4607-.1445,100.4738-82.9228,171.0247-200.7429,193.1005-334.8456Z" fill="url(#uuid-6a348e2c-afed-4d2b-bc79-a96dd265235b)"/></g><g mask="url(#uuid-c5bf41c3-2b55-46b7-8825-3da6bfe22ca8)"><path d="M629.6772,279.0215c4.046-24.5778-9.9706-48.55-33.3126-57.2736-60.4214-22.5814-125.8621-34.8648-194.1797-34.7153-68.1436.1492-133.37,12.6568-193.5637,35.3926-23.3185,8.8077-37.2461,32.8465-33.0992,57.4151,22.6303,134.0771,93.7146,251.6532,194.594,334.1713,19.3528,15.8303,47.1774,15.7704,66.4607-.1445,100.4738-82.9228,171.0247-200.7429,193.1005-334.8456Z" fill="url(#uuid-4865cc2f-c15d-49b5-94be-0c5549f230ef)"/></g><path d="M701.3909,279.755c4.046-24.5778-9.9706-48.55-33.3126-57.2736-60.4214-22.5814-125.8621-34.8648-194.1797-34.7153-68.1436.1492-133.37,12.6568-193.5637,35.3926-23.3185,8.8077-37.2461,32.8465-33.0992,57.4151,22.6303,134.0771,93.7146,251.6532,194.594,334.1713,19.3528,15.8303,47.1774,15.7704,66.4607-.1445,100.4738-82.9228,171.0247-200.7429,193.1005-334.8456Z" fill="url(#uuid-dbc41c77-0ff4-4ba0-8058-9f09376eebe0)"/></g></svg>