<?xml version="1.0" encoding="UTF-8"?><svg id="uuid-e29b416b-bb96-4aa5-ba17-3e5a6e3869e7" xmlns="http://www.w3.org/2000/svg" width="520" height="520" xmlns:xlink="http://www.w3.org/1999/xlink" viewBox="0 0 520 520"><defs><clipPath id="uuid-2d118786-af7d-4e6b-85b3-8a941828ca35"><rect x="-596" y="-606" width="520" height="520" fill="none"/></clipPath><filter id="uuid-acece0f7-a13b-42d2-ba74-66fd2e99c406" x="-857.2979" y="-418.9688" width="891.6677" height="926.7893" color-interpolation-filters="sRGB" filterUnits="userSpaceOnUse"><feFlood flood-color="#fff" result="bg"/><feBlend in="SourceGraphic" in2="bg"/></filter><mask id="uuid-02d51b0c-c449-4ac7-9bcf-ccd3af157305" x="-857.2979" y="-418.9688" width="891.6677" height="926.7893" maskUnits="userSpaceOnUse"/><linearGradient id="uuid-2a2bc1c2-ece8-4f85-87ef-b251de5f34ac" x1="-193.4248" y1="22.9197" x2="-193.4248" y2="-415.892" gradientTransform="translate(.7339 -3.4993) rotate(-.1254)" gradientUnits="userSpaceOnUse"><stop offset="0" stop-color="#abe3a0"/><stop offset=".2394" stop-color="#abe3a0" stop-opacity=".733"/><stop offset=".6118" stop-color="#abe3a0" stop-opacity=".3417"/><stop offset=".874" stop-color="#abe3a0" stop-opacity=".0953"/><stop offset="1" stop-color="#abe3a0" stop-opacity="0"/></linearGradient><linearGradient id="uuid-35e1c341-1217-4a29-b1e0-20c92d3fd9c9" x1="96.1634" y1="-368.1548" x2="-291.6173" y2="-129.128" gradientTransform="translate(.7339 -3.4993) rotate(-.1254)" gradientUnits="userSpaceOnUse"><stop offset="0" stop-color="#d2f2f2"/><stop offset=".1378" stop-color="#d2f2f2" stop-opacity=".8178"/><stop offset=".3734" stop-color="#d2f2f2" stop-opacity=".5303"/><stop offset=".586" stop-color="#d2f2f2" stop-opacity=".3022"/><stop offset=".7678" stop-color="#d2f2f2" stop-opacity=".1379"/><stop offset=".9118" stop-color="#d2f2f2" stop-opacity=".0371"/><stop offset="1" stop-color="#d2f2f2" stop-opacity="0"/></linearGradient><clipPath id="uuid-737b7c08-ecfb-4d74-92ad-800390cb46b6"><rect y="-606" width="520" height="520" fill="none"/></clipPath><filter id="uuid-556dd705-59b8-4ca4-b783-eef5d491a74f" x="-261.2979" y="-418.9688" width="891.6677" height="926.7893" color-interpolation-filters="sRGB" filterUnits="userSpaceOnUse"><feFlood flood-color="#fff" result="bg"/><feBlend in="SourceGraphic" in2="bg"/></filter><radialGradient id="uuid-5c23cec1-54fd-4f44-9047-a0dbaffdf756" cx="-12152.4232" cy="-3238.0741" fx="-12152.4232" fy="-3238.0741" r="277.7381" gradientTransform="translate(18373.3134 -4805.7993) rotate(-.1254) scale(1.5 -1.5)" gradientUnits="userSpaceOnUse"><stop offset="0" stop-color="#fff"/><stop offset=".0849" stop-color="#fff" stop-opacity=".9648"/><stop offset=".2235" stop-color="#fff" stop-opacity=".8691"/><stop offset=".3985" stop-color="#fff" stop-opacity=".7131"/><stop offset=".6031" stop-color="#fff" stop-opacity=".4965"/><stop offset=".8298" stop-color="#fff" stop-opacity=".2236"/><stop offset="1" stop-color="#fff" stop-opacity="0"/></radialGradient><mask id="uuid-bd5a0a66-a3db-41a9-945c-9eaf4185f8a8" x="-261.2979" y="-325.3959" width="833.2164" height="833.2164" maskUnits="userSpaceOnUse"><circle cx="155.3103" cy="91.2123" r="416.6082" fill="url(#uuid-5c23cec1-54fd-4f44-9047-a0dbaffdf756)"/></mask><mask id="uuid-01a1b7bf-89ad-472d-be88-aa5ce46e3219" x="-261.2979" y="-418.9688" width="891.6677" height="926.7893" maskUnits="userSpaceOnUse"><g filter="url(#uuid-556dd705-59b8-4ca4-b783-eef5d491a74f)"><g mask="url(#uuid-bd5a0a66-a3db-41a9-945c-9eaf4185f8a8)"><circle cx="155.3103" cy="91.2123" r="416.6082"/></g></g></mask><linearGradient id="uuid-38196591-68bc-4ddb-b069-ffa5cc85919f" x1="402.5724" y1="24.2243" x2="402.5724" y2="-414.5875" gradientTransform="translate(.7339 -3.4993) rotate(-.1254)" gradientUnits="userSpaceOnUse"><stop offset="0" stop-color="#336629"/><stop offset=".2201" stop-color="#336629" stop-opacity=".7542"/><stop offset=".7456" stop-color="#336629" stop-opacity=".2116"/><stop offset="1" stop-color="#336629" stop-opacity="0"/></linearGradient><linearGradient id="uuid-3c239b8e-8752-40e1-9c50-ec4816d33ff2" x1="692.1606" y1="-366.8503" x2="304.3799" y2="-127.8235" gradientTransform="translate(.7339 -3.4993) rotate(-.1254)" gradientUnits="userSpaceOnUse"><stop offset="0" stop-color="#305757"/><stop offset=".1243" stop-color="#305757" stop-opacity=".8351"/><stop offset=".5075" stop-color="#305757" stop-opacity=".3825"/><stop offset=".8128" stop-color="#305757" stop-opacity=".103"/><stop offset="1" stop-color="#305757" stop-opacity="0"/></linearGradient><clipPath id="uuid-16a1cc65-1c8e-41d7-80bf-65c2d1398e2b"><rect width="520" height="520" fill="none"/></clipPath><filter id="uuid-36b2f7da-7dd9-4f26-abd2-2926653f89f8" x="204.963" y="82.1679" width="246.9829" height="246.9829" color-interpolation-filters="sRGB" filterUnits="userSpaceOnUse"><feFlood flood-color="#fff" result="bg"/><feBlend in="SourceGraphic" in2="bg"/></filter><linearGradient id="uuid-65faa302-a3be-487a-b3e5-d714975c05c0" x1="-36.2822" y1="1126.5769" x2="138.3611" y2="1126.5769" gradientTransform="translate(277.415 -920.9175)" gradientUnits="userSpaceOnUse"><stop offset=".5" stop-color="#000" stop-opacity="0"/><stop offset="1" stop-color="#000"/></linearGradient><linearGradient id="uuid-a33bbcf3-ea22-4d47-aba0-c6b2f1fc4f94" x1="3612.7552" y1="18728.4606" x2="3787.3985" y2="18728.4606" gradientTransform="translate(-3371.6224 -18522.8012)" xlink:href="#uuid-65faa302-a3be-487a-b3e5-d714975c05c0"/><linearGradient id="uuid-57afdbf1-a009-4132-9ac8-6b921dd5a000" x1="21214.6389" y1="15079.4231" x2="21389.2822" y2="15079.4231" gradientTransform="translate(-20973.5061 -14873.7638)" xlink:href="#uuid-65faa302-a3be-487a-b3e5-d714975c05c0"/><linearGradient id="uuid-2cc1a007-4a27-406b-9fcf-f4692608ba6e" x1="17565.6015" y1="-2522.4606" x2="17740.2448" y2="-2522.4606" gradientTransform="translate(-17324.4687 2728.1199)" xlink:href="#uuid-65faa302-a3be-487a-b3e5-d714975c05c0"/><mask id="uuid-26dabaf8-b474-4b8a-9ef5-11a91c7829c4" x="204.963" y="82.1679" width="246.9829" height="246.9829" maskUnits="userSpaceOnUse"><g filter="url(#uuid-36b2f7da-7dd9-4f26-abd2-2926653f89f8)"><rect x="241.1328" y="118.3377" width="174.6433" height="174.6433" transform="translate(241.6252 -172.0161) rotate(45)" fill="url(#uuid-65faa302-a3be-487a-b3e5-d714975c05c0)"/><rect x="241.1328" y="118.3377" width="174.6433" height="174.6433" transform="translate(706.13 118.8301) rotate(135)" fill="url(#uuid-a33bbcf3-ea22-4d47-aba0-c6b2f1fc4f94)"/><rect x="241.1328" y="118.3377" width="174.6433" height="174.6433" transform="translate(415.2837 583.3349) rotate(-135)" fill="url(#uuid-57afdbf1-a009-4132-9ac8-6b921dd5a000)"/><rect x="241.1328" y="118.3377" width="174.6433" height="174.6433" transform="translate(-49.2211 292.4886) rotate(-45)" fill="url(#uuid-2cc1a007-4a27-406b-9fcf-f4692608ba6e)"/></g></mask><linearGradient id="uuid-6c59fdfd-a869-4326-a3ad-becad0df0af7" x1="2699.6459" y1="-1112.8531" x2="2871.8295" y2="-1285.0366" gradientTransform="translate(-2457.2857 -727.2173) scale(1 -1)" gradientUnits="userSpaceOnUse"><stop offset=".1" stop-color="#fff"/><stop offset=".1771" stop-color="#fff" stop-opacity=".797"/><stop offset=".2673" stop-color="#fff" stop-opacity=".5881"/><stop offset=".3587" stop-color="#fff" stop-opacity=".4079"/><stop offset=".4494" stop-color="#fff" stop-opacity=".2609"/><stop offset=".5393" stop-color="#fff" stop-opacity=".1466"/><stop offset=".6282" stop-color="#fff" stop-opacity=".0652"/><stop offset=".7157" stop-color="#fff" stop-opacity=".0164"/><stop offset=".8" stop-color="#fff" stop-opacity="0"/></linearGradient><mask id="uuid-d9206967-430b-4277-b8d1-2eb3a87b4604" x="206.7023" y="349.9755" width="243.5043" height="243.5044" maskUnits="userSpaceOnUse"><rect x="242.3627" y="385.6359" width="172.1836" height="172.1835" transform="translate(429.764 -94.0865) rotate(45)" fill="url(#uuid-6c59fdfd-a869-4326-a3ad-becad0df0af7)"/></mask><linearGradient id="uuid-d2b1a1a1-80af-4fdd-9eda-0cc73f766363" x1="2873.292" y1="3702.7336" x2="3045.4755" y2="3530.5501" gradientTransform="translate(-2497.8947 3955.6529) scale(1 -1)" xlink:href="#uuid-6c59fdfd-a869-4326-a3ad-becad0df0af7"/><mask id="uuid-61e0c32a-e4e2-415a-b6c8-a25a0941f7ee" x="339.7366" y="217.2587" width="243.5042" height="243.5041" maskUnits="userSpaceOnUse"><rect x="375.3969" y="252.919" width="172.1835" height="172.1834" transform="translate(-104.5499 425.6157) rotate(-45)" fill="url(#uuid-d2b1a1a1-80af-4fdd-9eda-0cc73f766363)"/></mask><linearGradient id="uuid-4bd5d9c2-e814-450b-ae28-8bd1f81dad93" x1="7829.0748" y1="-1182.7582" x2="8001.2583" y2="-1354.9417" gradientTransform="translate(-7719.7464 -929.8384) scale(1 -1)" xlink:href="#uuid-6c59fdfd-a869-4326-a3ad-becad0df0af7"/><mask id="uuid-192d5ef1-2699-4ab0-b3c2-7323049891eb" x="73.6682" y="217.2587" width="243.5042" height="243.5041" maskUnits="userSpaceOnUse"><rect x="109.3285" y="252.919" width="172.1835" height="172.1834" transform="translate(573.32 440.5445) rotate(135)" fill="url(#uuid-4bd5d9c2-e814-450b-ae28-8bd1f81dad93)"/></mask><linearGradient id="uuid-c259de92-d129-4906-adb7-3ec45f72c9c3" x1="2873.292" y1="3702.7336" x2="3045.4755" y2="3530.5501" gradientTransform="translate(-2497.8947 3955.6529) scale(1 -1)" xlink:href="#uuid-6c59fdfd-a869-4326-a3ad-becad0df0af7"/><mask id="uuid-db600534-eb0b-4ee5-b2ff-b9bfb8b5488f" x="339.7366" y="217.2587" width="243.5042" height="243.5041" maskUnits="userSpaceOnUse"><rect x="375.3969" y="252.919" width="172.1835" height="172.1834" transform="translate(-104.5499 425.6157) rotate(-45)" fill="url(#uuid-c259de92-d129-4906-adb7-3ec45f72c9c3)"/></mask><linearGradient id="uuid-377270fa-90cb-4cf1-991f-cf66b9499e3a" x1="7829.0748" y1="-1182.7582" x2="8001.2583" y2="-1354.9417" gradientTransform="translate(-7719.7464 -929.8384) scale(1 -1)" xlink:href="#uuid-6c59fdfd-a869-4326-a3ad-becad0df0af7"/><mask id="uuid-0bcc765f-4775-41dd-94e4-33290a351d54" x="73.6682" y="217.2587" width="243.5042" height="243.5041" maskUnits="userSpaceOnUse"><rect x="109.3285" y="252.919" width="172.1835" height="172.1834" transform="translate(573.32 440.5445) rotate(135)" fill="url(#uuid-377270fa-90cb-4cf1-991f-cf66b9499e3a)"/></mask><linearGradient id="uuid-b46c6de6-4b54-49f7-a6fa-5edbb3a8a895" x1="2908.4375" y1="-932.2102" x2="3080.621" y2="-1104.3937" gradientTransform="translate(-2666.0749 -546.2567) scale(1 -1)" xlink:href="#uuid-6c59fdfd-a869-4326-a3ad-becad0df0af7"/><mask id="uuid-d3ba4b9a-e7a4-4187-bf63-f1b5e854c8e3" x="206.7024" y="350.2928" width="243.5041" height="243.5042" maskUnits="userSpaceOnUse"><rect x="242.3627" y="385.9532" width="172.1835" height="172.1834" transform="translate(429.9883 -93.9936) rotate(45)" fill="url(#uuid-b46c6de6-4b54-49f7-a6fa-5edbb3a8a895)"/></mask><linearGradient id="uuid-0dcbd697-db79-4c0c-a030-c492b2d17296" x1="2902.1753" y1="3702.7336" x2="3074.3587" y2="3530.5501" gradientTransform="translate(-2659.8122 4088.6871) scale(1 -1)" xlink:href="#uuid-6c59fdfd-a869-4326-a3ad-becad0df0af7"/><mask id="uuid-1753b575-45be-47b5-9649-cb3522376ee9" x="206.7024" y="350.2929" width="243.5042" height="243.5041" maskUnits="userSpaceOnUse"><rect x="242.3627" y="385.9532" width="172.1835" height="172.1834" transform="translate(-237.5841 370.5111) rotate(-45)" fill="url(#uuid-0dcbd697-db79-4c0c-a030-c492b2d17296)"/></mask></defs><g clip-path="url(#uuid-2d118786-af7d-4e6b-85b3-8a941828ca35)"><g mask="url(#uuid-02d51b0c-c449-4ac7-9bcf-ccd3af157305)"><path d="M33.6772-326.9785c4.046-24.5778-9.9706-48.55-33.3126-57.2736-60.4214-22.5814-125.8621-34.8648-194.1797-34.7153-68.1436.1492-133.37,12.6568-193.5637,35.3926-23.3185,8.8077-37.2461,32.8465-33.0992,57.4151,22.6303,134.0771,93.7146,251.6532,194.594,334.1713,19.3528,15.8303,47.1774,15.7704,66.4607-.1445C-58.9494-75.0557,11.6014-192.8758,33.6772-326.9785Z" fill="url(#uuid-2a2bc1c2-ece8-4f85-87ef-b251de5f34ac)"/></g><path d="M105.3909-326.245c4.046-24.5778-9.9706-48.55-33.3126-57.2736-60.4214-22.5814-125.8621-34.8648-194.1797-34.7153-68.1436.1492-133.37,12.6568-193.5637,35.3926-23.3185,8.8077-37.2461,32.8465-33.0992,57.4151C-326.1341-191.3492-255.0497-73.773-154.1703,8.7451c19.3528,15.8303,47.1774,15.7704,66.4607-.1445C12.7642-74.3222,83.3151-192.1423,105.3909-326.245Z" fill="url(#uuid-35e1c341-1217-4a29-b1e0-20c92d3fd9c9)"/></g><g clip-path="url(#uuid-737b7c08-ecfb-4d74-92ad-800390cb46b6)"><g mask="url(#uuid-01a1b7bf-89ad-472d-be88-aa5ce46e3219)"><path d="M629.6772-326.9785c4.046-24.5778-9.9706-48.55-33.3126-57.2736-60.4214-22.5814-125.8621-34.8648-194.1797-34.7153-68.1436.1492-133.37,12.6568-193.5637,35.3926-23.3185,8.8077-37.2461,32.8465-33.0992,57.4151,22.6303,134.0771,93.7146,251.6532,194.594,334.1713,19.3528,15.8303,47.1774,15.7704,66.4607-.1445,100.4738-82.9228,171.0247-200.7429,193.1005-334.8456Z" fill="url(#uuid-38196591-68bc-4ddb-b069-ffa5cc85919f)"/></g><path d="M701.3909-326.245c4.046-24.5778-9.9706-48.55-33.3126-57.2736-60.4214-22.5814-125.8621-34.8648-194.1797-34.7153-68.1436.1492-133.37,12.6568-193.5637,35.3926-23.3185,8.8077-37.2461,32.8465-33.0992,57.4151,22.6303,134.0771,93.7146,251.6532,194.594,334.1713,19.3528,15.8303,47.1774,15.7704,66.4607-.1445,100.4738-82.9228,171.0247-200.7429,193.1005-334.8456Z" fill="url(#uuid-3c239b8e-8752-40e1-9c50-ec4816d33ff2)"/></g><g clip-path="url(#uuid-16a1cc65-1c8e-41d7-80bf-65c2d1398e2b)"><g mask="url(#uuid-26dabaf8-b474-4b8a-9ef5-11a91c7829c4)"><rect x="242.3627" y="119.5676" width="172.1835" height="172.1835" rx="22.1379" ry="22.1379" transform="translate(241.6252 -172.0161) rotate(45)" fill="#113953"/></g><g mask="url(#uuid-d9206967-430b-4277-b8d1-2eb3a87b4604)"><rect x="242.3627" y="385.6359" width="172.1836" height="172.1835" rx="22.1379" ry="22.1379" transform="translate(429.764 -94.0865) rotate(45)" fill="#171c3c"/></g><g mask="url(#uuid-61e0c32a-e4e2-415a-b6c8-a25a0941f7ee)"><rect x="375.3969" y="252.919" width="172.1835" height="172.1834" rx="22.1379" ry="22.1379" transform="translate(-104.5499 425.6157) rotate(-45)" fill="#171c3c"/></g><g mask="url(#uuid-192d5ef1-2699-4ab0-b3c2-7323049891eb)"><rect x="109.3285" y="252.919" width="172.1835" height="172.1834" rx="22.1379" ry="22.1379" transform="translate(573.32 440.5445) rotate(135)" fill="#171c3c"/></g><g mask="url(#uuid-db600534-eb0b-4ee5-b2ff-b9bfb8b5488f)"><rect x="375.3969" y="252.919" width="172.1835" height="172.1834" rx="22.1379" ry="22.1379" transform="translate(-104.5499 425.6157) rotate(-45)" fill="#0f2a3c"/></g><g mask="url(#uuid-0bcc765f-4775-41dd-94e4-33290a351d54)"><rect x="109.3285" y="252.919" width="172.1835" height="172.1834" rx="22.1379" ry="22.1379" transform="translate(573.32 440.5445) rotate(135)" fill="#0f2a3c"/></g><g mask="url(#uuid-d3ba4b9a-e7a4-4187-bf63-f1b5e854c8e3)"><rect x="242.3627" y="385.9532" width="172.1835" height="172.1834" rx="22.1379" ry="22.1379" transform="translate(429.9883 -93.9936) rotate(45)" fill="#0f2a3c"/></g><g mask="url(#uuid-1753b575-45be-47b5-9649-cb3522376ee9)"><rect x="242.3627" y="385.9532" width="172.1835" height="172.1834" rx="22.1379" ry="22.1379" transform="translate(-237.5841 370.5111) rotate(-45)" fill="#222b71"/></g></g></svg>