<svg xmlns="http://www.w3.org/2000/svg" xmlns:xlink="http://www.w3.org/1999/xlink" width="520" height="520" viewBox="0 0 520 520"><defs><mask id="mask" x="-2462.073" y="3048.3755" width="1440" height="684" maskUnits="userSpaceOnUse"/><radialGradient id="radial-gradient" cx="2279.226" cy="-9755.4974" r="125" gradientTransform="matrix(1, 0, 0, -1, -1894.225, -9370.6573)" gradientUnits="userSpaceOnUse"><stop offset="0" stop-color="#ffb226"/><stop offset="0.2264" stop-color="#ffb226" stop-opacity="0.9901"/><stop offset="0.3626" stop-color="#ffb226" stop-opacity="0.9572"/><stop offset="0.475" stop-color="#ffb226" stop-opacity="0.901"/><stop offset="0.5744" stop-color="#ffb226" stop-opacity="0.8214"/><stop offset="0.6652" stop-color="#ffb226" stop-opacity="0.7181"/><stop offset="0.7498" stop-color="#ffb226" stop-opacity="0.5911"/><stop offset="0.8297" stop-color="#ffb226" stop-opacity="0.4401"/><stop offset="0.9057" stop-color="#ffb226" stop-opacity="0.2649"/><stop offset="0.9761" stop-color="#ffb226" stop-opacity="0.0724"/><stop offset="1" stop-color="#ffb226" stop-opacity="0"/></radialGradient><radialGradient id="radial-gradient-2" cx="-356.3324" cy="-3294.4278" r="125" gradientTransform="matrix(1, 0, 0, -1, 616.3333, -3034.5877)" xlink:href="#radial-gradient"/><radialGradient id="radial-gradient-3" cx="-718.9991" cy="-3343.7612" r="125" gradientTransform="matrix(1, 0, 0, -1, 979, -2958.9211)" xlink:href="#radial-gradient"/><radialGradient id="radial-gradient-4" cx="2203.5593" cy="-9237.8307" r="125" gradientTransform="matrix(1, 0, 0, -1, -1818.5584, -8977.9906)" xlink:href="#radial-gradient"/><radialGradient id="radial-gradient-5" cx="-8370.6006" cy="-17467.7842" r="125" gradientTransform="matrix(0, -1, -1, 0, -17082.9441, -8235.6015)" xlink:href="#radial-gradient"/><radialGradient id="radial-gradient-6" cx="-11006.1589" cy="-11006.7146" r="125" gradientTransform="matrix(0, -1, -1, 0, -10746.8745, -10746.1598)" xlink:href="#radial-gradient"/><radialGradient id="radial-gradient-7" cx="-11368.8256" cy="-11056.048" r="125" gradientTransform="matrix(0, -1, -1, 0, -10671.2079, -11108.8265)" xlink:href="#radial-gradient"/><radialGradient id="radial-gradient-8" cx="-8446.2672" cy="-16950.1175" r="125" gradientTransform="matrix(0, -1, -1, 0, -16690.2774, -8311.2681)" xlink:href="#radial-gradient"/><radialGradient id="radial-gradient-9" cx="-2947.8734" cy="-1643.1437" r="125" gradientTransform="matrix(0, 1, 1, 0, 1778.3035, 3332.8743)" xlink:href="#radial-gradient"/><radialGradient id="radial-gradient-10" cx="-5583.4318" cy="4817.9259" r="125" gradientTransform="matrix(0, 1, 1, 0, -4557.766, 5843.4327)" xlink:href="#radial-gradient"/><radialGradient id="radial-gradient-11" cx="-5946.0984" cy="4768.5926" r="125" gradientTransform="matrix(0, 1, 1, 0, -4633.4327, 6206.0994)" xlink:href="#radial-gradient"/><radialGradient id="radial-gradient-12" cx="-3023.54" cy="-1125.477" r="125" gradientTransform="matrix(0, 1, 1, 0, 1385.6369, 3408.541)" xlink:href="#radial-gradient"/><radialGradient id="radial-gradient-13" cx="-11182.739" cy="-6573.243" r="125" gradientTransform="matrix(-1, 0, 0, 1, -11047.7399, 6708.4029)" xlink:href="#radial-gradient"/><radialGradient id="radial-gradient-14" cx="-13818.2973" cy="-112.1735" r="125" gradientTransform="matrix(-1, 0, 0, 1, -13558.2982, 372.3333)" xlink:href="#radial-gradient"/><radialGradient id="radial-gradient-15" cx="-14180.964" cy="-161.5068" r="125" gradientTransform="matrix(-1, 0, 0, 1, -13920.9649, 296.6667)" xlink:href="#radial-gradient"/><radialGradient id="radial-gradient-16" cx="-11258.4056" cy="-6055.5764" r="125" gradientTransform="matrix(-1, 0, 0, 1, -11123.4065, 6315.7362)" xlink:href="#radial-gradient"/><linearGradient id="linear-gradient" x1="6057.2166" y1="2751.7597" x2="6144.0939" y2="2664.8825" gradientTransform="translate(-5795.8378 -2493.1386)" gradientUnits="userSpaceOnUse"><stop offset="0.1" stop-color="#a394eb"/><stop offset="0.1776" stop-color="#a394eb" stop-opacity="0.8422"/><stop offset="0.3348" stop-color="#a394eb" stop-opacity="0.5461"/><stop offset="0.4766" stop-color="#a394eb" stop-opacity="0.3112"/><stop offset="0.598" stop-color="#a394eb" stop-opacity="0.142"/><stop offset="0.694" stop-color="#a394eb" stop-opacity="0.0382"/><stop offset="0.7528" stop-color="#a394eb" stop-opacity="0"/></linearGradient><linearGradient id="linear-gradient-2" x1="6827.8487" y1="-5383.2674" x2="6914.7259" y2="-5470.1446" gradientTransform="translate(-6441.4699 5516.8885)" xlink:href="#linear-gradient"/><linearGradient id="linear-gradient-3" x1="6118.5507" y1="3191.5543" x2="6205.428" y2="3104.6771" gradientTransform="translate(-5732.1719 -2932.9332)" xlink:href="#linear-gradient"/><linearGradient id="linear-gradient-4" x1="4941.2089" y1="-6744.7817" x2="5028.0862" y2="-6831.6589" gradientTransform="translate(-6483.4028 -4679.8301) rotate(90)" xlink:href="#linear-gradient"/><linearGradient id="linear-gradient-5" x1="-4351.3996" y1="4758.4082" x2="-4264.5224" y2="4671.5309" gradientTransform="translate(4894.787 4612.7785) rotate(90)" xlink:href="#linear-gradient"/><linearGradient id="linear-gradient-6" x1="7300.0628" y1="3525.1686" x2="7386.94" y2="3438.2914" gradientTransform="translate(7433.6839 3911.5475) rotate(180)" xlink:href="#linear-gradient"/><linearGradient id="linear-gradient-7" x1="-4290.0655" y1="5198.2027" x2="-4203.1883" y2="5111.3255" gradientTransform="translate(5334.5816 4676.4444) rotate(90)" xlink:href="#linear-gradient"/><linearGradient id="linear-gradient-8" x1="6947.8574" y1="3663.8346" x2="7034.7346" y2="3576.9573" gradientTransform="translate(7081.4785 3925.2134) rotate(180)" xlink:href="#linear-gradient"/><linearGradient id="linear-gradient-9" x1="7859.3586" y1="13268.1359" x2="7946.2359" y2="13181.2586" gradientTransform="translate(-13009.5148 8117.9798) rotate(-90)" xlink:href="#linear-gradient"/></defs><g id="Layer_10" data-name="Layer 10"><path d="M385,385V510A125,125,0,0,0,510,385Z" style="fill:url(#radial-gradient)"/><path d="M260,260V385A125,125,0,0,0,385,260Z" style="fill:url(#radial-gradient-2)"/><path d="M260,385V510A125,125,0,0,0,385,385Z" style="fill:url(#radial-gradient-3)"/><path d="M385,260V385A125,125,0,0,0,510,260Z" style="fill:url(#radial-gradient-4)"/><path d="M385,135H510A125,125,0,0,0,385,10Z" style="fill:url(#radial-gradient-5)"/><path d="M260,260H385A125,125,0,0,0,260,135Z" style="fill:url(#radial-gradient-6)"/><path d="M385,260H510A125,125,0,0,0,385,135Z" style="fill:url(#radial-gradient-7)"/><path d="M260,135H385A125,125,0,0,0,260,10Z" style="fill:url(#radial-gradient-8)"/><path d="M135,385H10A125,125,0,0,0,135,510Z" style="fill:url(#radial-gradient-9)"/><path d="M260,260H135A125,125,0,0,0,260,385Z" style="fill:url(#radial-gradient-10)"/><path d="M135,260H10A125,125,0,0,0,135,385Z" style="fill:url(#radial-gradient-11)"/><path d="M260,385H135A125,125,0,0,0,260,510Z" style="fill:url(#radial-gradient-12)"/><path d="M135,135V10A125,125,0,0,0,10,135Z" style="fill:url(#radial-gradient-13)"/><path d="M260,260V135A125,125,0,0,0,135,260Z" style="fill:url(#radial-gradient-14)"/><path d="M260,135V10A125,125,0,0,0,135,135Z" style="fill:url(#radial-gradient-15)"/><path d="M135,260V135A125,125,0,0,0,10,260Z" style="fill:url(#radial-gradient-16)"/><path d="M260,260V135A125,125,0,0,1,385,260Z" style="fill:url(#linear-gradient)"/><path d="M385,135V10A125,125,0,0,1,510,135Z" style="fill:url(#linear-gradient-2)"/><path d="M385,260V135A125,125,0,0,1,510,260Z" style="fill:url(#linear-gradient-3)"/><path d="M260,260H385A125,125,0,0,1,260,385Z" style="fill:url(#linear-gradient-4)"/><path d="M135,260H260A125,125,0,0,1,135,385Z" style="fill:url(#linear-gradient-5)"/><path d="M135,385V510A125,125,0,0,1,10,385Z" style="fill:url(#linear-gradient-6)"/><path d="M135,385H260A125,125,0,0,1,135,510Z" style="fill:url(#linear-gradient-7)"/><path d="M135,260V385A125,125,0,0,1,10,260Z" style="fill:url(#linear-gradient-8)"/><path d="M260,260H135A125,125,0,0,1,260,135Z" style="fill:url(#linear-gradient-9)"/></g></svg>