<svg xmlns="http://www.w3.org/2000/svg" width="24" height="29" viewBox="0 0 24 29">
    <g fill="#162D3D" fill-rule="evenodd">
        <path d="M10.5 16a.504.504 0 0 1-.354-.146l-3-3a.502.502 0 0 1 .708-.708l2.618 2.62 5.648-6.59a.5.5 0 0 1 .76.65l-6 7a.504.504 0 0 1-.36.174h-.02z"/>
        <path d="M22.9 24.824a.499.499 0 0 1-.48.19l-2.84-.43a1.477 1.477 0 0 0-1.5.7l-1.5 2.46a.497.497 0 0 1-.45.24.526.526 0 0 1-.43-.29l-1.8-3.86c2.77-.44 5.24-1.84 7.03-3.85l2.02 4.33c.12.239 0 .44-.05.51zm-10.5-1.85c-.13.01-.27.01-.4.01s-.26 0-.39-.01a10.982 10.982 0 0 1-8.08-3.98c-.24-.3-.47-.61-.68-.93A10.853 10.853 0 0 1 1 11.984c0-6.07 4.94-11 11-11 6.07 0 11 4.93 11 11 0 2.25-.68 4.35-1.85 6.09-.21.32-.43.63-.68.92a10.985 10.985 0 0 1-8.07 3.98zm-4.1 4.72a.511.511 0 0 1-.42.29.5.5 0 0 1-.46-.24l-1.49-2.46a1.5 1.5 0 0 0-1.51-.7l-2.84.43a.546.546 0 0 1-.48-.19.512.512 0 0 1-.05-.51l2.02-4.33c1.79 2.01 4.26 3.41 7.03 3.85l-1.8 3.86zm13.34-8.57c1.49-2 2.36-4.47 2.36-7.14 0-6.62-5.38-12-12-12s-12 5.38-12 12c0 2.67.87 5.14 2.36 7.14l-2.22 4.76c-.23.51-.17 1.09.16 1.54.34.44.89.67 1.43.58l2.84-.43c.2-.03.4.06.5.229l1.5 2.46c.27.45.76.72 1.28.72.03 0 .05 0 .08-.01.55-.03 1.04-.36 1.28-.86l1.94-4.16c.28.02.57.03.85.03.29 0 .57-.01.86-.04l1.94 4.17c.23.5.72.83 1.27.86a.27.27 0 0 0 .09.01c.52 0 1-.27 1.28-.72l1.49-2.46a.487.487 0 0 1 .5-.23l2.84.43c.56.08 1.1-.14 1.43-.58.33-.45.39-1.03.16-1.54l-2.22-4.76z"/>
    </g>
</svg>
