<svg xmlns="http://www.w3.org/2000/svg" width="246" height="14" viewBox="0 0 246 14">
    <g fill="#AAB7C4" fill-rule="evenodd">
        <path d="M156.31 6.178v-1.04c0-.4-.399-.8-.799-.8h-1.12v1.84h-1.199V.98h2.959c.72-.08 1.44.4 1.52 1.12v.4c0 .48-.24.959-.72 1.199.4.24.64.72.56 1.2v1.279h-1.2zm-1.998-3.039h1.28c.239.08.559-.08.639-.32.08-.24-.08-.56-.32-.64h-1.6v.96zm17.032 3.039l-1.92-3.519v3.519h-2.398l-.4-1.12h-2.239l-.4 1.12h-2.559s-1.599-.24-1.599-2.48C159.83.98 161.19.9 161.75.9h1.519v1.2h-1.2c-.56.08-.96.56-.88 1.119v.4c0 1.759 2.08 1.2 2.16 1.2L164.867.9h1.68l1.838 4.718V.98h1.68l1.919 3.438V.98h1.2v5.278l-1.84-.08zm-6.397-2.4h1.2l-.56-1.519-.64 1.52zm-18.152 2.4V2.579l-1.52 3.599h-.959l-1.52-3.599v3.599h-2.398l-.4-1.12h-2.239l-.4 1.12H136L138 .9h1.678l1.84 4.798V.98h1.919l1.359 3.278 1.36-3.278h1.919v5.278l-1.28-.08zm-8.556-2.4h1.2l-.56-1.519-.64 1.52zm10.475 2.4V.98h3.759v1.2h-2.56v.8h2.48v1.199h-2.48v.88h2.56v1.119h-3.759zm9.436.08V.98h1.2v5.278h-1.2zm2.639 6.717v-1.04c0-.48-.4-.8-.88-.8h-1.28v1.84h-1.279V7.777h3.119c.8-.16 1.52.4 1.6 1.2v.32c0 .479-.24.959-.72 1.199.4.24.64.72.64 1.2v1.279h-1.2zm-2.08-3.04h1.36c.24.08.56-.08.64-.319.08-.24-.08-.56-.32-.64a.243.243 0 0 0-.32 0h-1.36v.96zm-6.476 3.04h-1.12l-1.36-1.52-1.359 1.52h-4.797V7.777h4.717l1.44 1.68 1.52-1.68h4.077c.8-.08 1.52.4 1.6 1.2v.32c0 1.519-.56 1.998-2.24 1.998h-1.279v1.68h-1.2zm-1.6-2.56l1.6 1.84V8.656l-1.6 1.76zm-5.757 1.44h2.719l1.28-1.44-1.28-1.439h-2.719v.8h2.639v1.2h-2.639v.879zm8.636-1.92h1.36c.24.08.56-.08.64-.319.08-.24-.08-.56-.32-.64a.243.243 0 0 0-.32 0h-1.36v.96zm16.073 3.04h-2.32v-1.2h2s.72.08.72-.4c0-.48-1.12-.4-1.12-.4-.88.16-1.6-.48-1.76-1.279v-.24c-.08-.8.56-1.52 1.36-1.6h2.719v1.12h-2s-.719-.16-.719.4c0 .4.96.4.96.4s1.999-.16 1.999 1.44c.08.879-.48 1.679-1.44 1.838h-.32l-.08-.08zm-6.877 0V7.777h3.998v1.2h-2.719v.799h2.64v1.2h-2.64v.879h2.72v1.12h-4zm11.355 0h-2.32v-1.2h2s.72.08.72-.4c0-.48-1.12-.4-1.12-.4-.88.16-1.6-.48-1.76-1.359v-.24c-.08-.8.56-1.52 1.36-1.6h2.719v1.2h-2s-.719-.16-.719.4c0 .4.96.4.96.4s1.999-.16 1.999 1.44c.08.879-.48 1.679-1.44 1.838h-.32c0-.08 0-.08-.08-.08zM193.5 2h.5c2.4.1 4.3 2.1 4.2 4.5 0 1.3-.6 2.5-1.6 3.4-.9.7-2 1.1-3.1 1H191V2h2.5zm2 6.7c.6-.6.9-1.4.9-2.3 0-.8-.3-1.6-.9-2.2-.6-.5-1.5-.8-2.3-.7h-.5v5.9h.5c.8.1 1.7-.2 2.3-.7zm3.4 2.2V2h1.7v8.9h-1.7zm5.8-5.5c2 .8 2.5 1.4 2.6 2.6v.3c-.1 1.6-1.4 2.8-3 2.7-1.2 0-2.4-.6-3-1.7l1.1-1.1c.3.7 1 1.2 1.8 1.2h.1c.6 0 1.2-.6 1.2-1.3 0-.4-.2-.7-.5-.9-.4-.2-.8-.4-1.2-.5-1.6-.5-2.1-1.2-2.1-2.4v-.1c.1-1.4 1.3-2.5 2.7-2.4.9 0 1.8.4 2.5 1L206 4c-.4-.4-.9-.7-1.4-.7-.6-.1-1.1.4-1.2 1 0 .5.3.7 1.3 1.1zm3.1 1.1c0-2.6 2-4.7 4.6-4.5.7 0 1.5.1 2.1.5v2c-.5-.6-1.3-1-2.1-1-1.6.1-2.9 1.5-2.8 3.1v.2c0 1.6 1.3 2.8 2.9 2.8.8 0 1.5-.4 2-1v2c-.7.3-1.4.5-2.2.5-2.5 0-4.5-2.1-4.5-4.6zM228.1 8l2.4-6h1.8l-3.7 9.1h-.9L224 2h1.8l2.3 6zm5 2.9V2h4.8v1.5h-3.1v2h3V7h-3v2.4h3.1v1.5h-4.8zm11.5-6.3c.1 1.3-.8 2.4-2 2.6l2.7 3.7h-2.1l-2.3-3.6h-.2v3.6H239V2h2.5c2 0 3.1.9 3.1 2.6zm-3.4 1.5c1.1 0 1.6-.5 1.6-1.4 0-.8-.5-1.3-1.6-1.3h-.5v2.7h.5zm-21.5-4.2c2.6 0 4.6 2.1 4.7 4.7-.1 2.6-2.1 4.7-4.7 4.6-2.6-.1-4.6-2.2-4.6-4.7 0-2.6 2.1-4.6 4.6-4.6zM82.076 4.988c-.478 0-1.116.16-1.436.718-.239-.399-.717-.718-1.355-.718-.4 0-.878.08-1.197.558v-.478h-.877v3.908h.877V6.823c0-.638.479-1.037 1.037-1.037.558 0 .877.399.877 1.037v2.153h.878V6.823c0-.638.478-1.037 1.037-1.037.558 0 .877.399.877 1.037v2.153h.877V6.583c0-.957-.638-1.595-1.595-1.595zm5.504.638c-.24-.319-.638-.558-1.197-.558-1.116 0-1.914.877-1.914 2.074 0 1.196.877 2.073 1.914 2.073.559 0 .957-.239 1.197-.558v.32h.877v-3.91h-.877v.56zm-1.117 2.712c-.718 0-1.196-.558-1.196-1.276s.478-1.276 1.196-1.276 1.197.558 1.197 1.276-.479 1.276-1.197 1.276zm4.945-1.675l-.398-.08c-.32-.08-.639-.16-.639-.398 0-.24.24-.479.718-.479.479 0 .957.16 1.197.319l.399-.638c-.4-.24-.958-.399-1.596-.399-.957 0-1.595.479-1.595 1.276 0 .638.479 1.037 1.276 1.117l.399.08c.479.08.638.239.638.399 0 .319-.319.478-.877.478-.638 0-1.037-.16-1.276-.399l-.4.638c.56.4 1.277.479 1.676.479 1.116 0 1.755-.558 1.755-1.276.08-.638-.4-.957-1.277-1.117zm4.307 1.675c-.319 0-.638-.24-.638-.718V5.945h1.516v-.797h-1.516V3.95H94.2v1.197h-.798v.797h.798V7.62c0 1.037.479 1.516 1.356 1.516.479 0 .877-.16 1.196-.4l-.319-.717c-.239.16-.478.32-.718.32zm3.51-3.35c-1.117 0-1.914.798-1.914 2.074 0 1.276.797 2.074 1.994 2.074.558 0 1.116-.16 1.595-.559l-.399-.638c-.319.24-.718.4-1.116.4-.559 0-1.037-.32-1.117-.958h2.871v-.32c-.08-1.196-.797-2.073-1.914-2.073zm-1.037 1.755c.08-.558.399-.957 1.037-.957.558 0 .877.319.957.957h-1.994zm4.706-1.197v-.478h-.877v3.908h.877V6.823c0-.638.399-1.037.957-1.037.24 0 .479.08.638.16l.24-.878c-.16-.08-.4-.08-.639-.08-.558 0-.957.16-1.196.558zm3.988.24c.399 0 .638.16.957.399l.559-.559c-.32-.399-.878-.638-1.436-.638-1.197 0-2.074.877-2.074 2.074 0 1.196.798 2.074 2.074 2.074.558 0 1.117-.24 1.436-.638l-.559-.559a1.32 1.32 0 0 1-.957.4c-.638 0-1.117-.48-1.117-1.277 0-.798.479-1.276 1.117-1.276zm5.105-.16c-.24-.319-.638-.558-1.197-.558-1.116 0-1.914.877-1.914 2.074 0 1.196.878 2.073 1.914 2.073.559 0 .958-.239 1.197-.558v.32h.877v-3.91h-.877v.56zm-1.117 2.712c-.718 0-1.196-.558-1.196-1.276s.478-1.276 1.196-1.276 1.197.558 1.197 1.276-.479 1.276-1.197 1.276zm4.068-2.792v-.478h-.877v3.908h.877V6.823c0-.638.399-1.037.957-1.037.24 0 .479.08.638.16l.24-.878c-.16-.08-.4-.08-.638-.08-.559 0-.958.16-1.197.558zm5.105-2.392v2.392c-.24-.319-.638-.558-1.197-.558-1.116 0-1.914.877-1.914 2.074 0 1.196.878 2.074 1.914 2.074.559 0 .958-.24 1.197-.559v.4h.877V3.153h-.877zm-1.117 5.184c-.718 0-1.196-.558-1.196-1.276s.478-1.276 1.196-1.276 1.197.558 1.197 1.276-.479 1.276-1.197 1.276zM61.338 7.062c0-1.914.877-3.59 2.233-4.706-1.036-.798-2.313-1.276-3.669-1.276C56.632 1 54 3.712 54 7.062s2.632 6.062 5.902 6.062c1.356 0 2.633-.479 3.67-1.276-1.357-1.197-2.234-2.872-2.234-4.786z"/>
        <path d="M67.24 1c-1.355 0-2.632.479-3.669 1.276a6.064 6.064 0 0 1 2.234 4.706c0 1.914-.878 3.59-2.234 4.706 1.037.798 2.314 1.276 3.67 1.276 3.27 0 5.902-2.712 5.902-5.982S70.51 1 67.24 1z" opacity=".5"/>
        <path d="M65.805 7.062c0-1.914-.878-3.59-2.234-4.706-1.356 1.117-3.03 2.792-3.03 4.706 0 1.914 1.595 3.59 3.03 4.706a6.064 6.064 0 0 0 2.234-4.706z" opacity=".75"/>
        <path d="M19.214.978l-2.598 12.063h-3.154L16.06.978h3.154zm13.084 7.795l1.67-4.547.928 4.547h-2.598zm3.526 4.268H38.7L36.195.978h-2.691c-.557 0-1.114.372-1.3.928l-4.639 11.135h3.248l.65-1.763h3.99l.37 1.763zm-8.166-3.99c0-3.155-4.36-3.34-4.36-4.732.092-.65.649-1.02 1.298-1.02 1.02-.094 2.134.092 3.062.556l.557-2.598A7.918 7.918 0 0 0 25.338.7c-3.062 0-5.288 1.67-5.288 3.99 0 1.763 1.577 2.69 2.69 3.247 1.207.557 1.67.928 1.578 1.485 0 .835-.928 1.206-1.856 1.206-1.113 0-2.227-.278-3.248-.742l-.556 2.598c1.113.464 2.32.65 3.433.65 3.433.092 5.567-1.578 5.567-4.083zM14.761.978L9.75 13.041H6.41L3.904 3.39c0-.464-.37-.835-.742-1.02A10.815 10.815 0 0 0 .1 1.35L.193.978h5.289c.742 0 1.299.557 1.392 1.207l1.299 6.959 3.34-8.166h3.248z"/>
    </g>
</svg>
