<svg xmlns="http://www.w3.org/2000/svg" width="28" height="25" viewBox="0 0 28 25">
    <g fill="#162D3D" fill-rule="evenodd">
        <path d="M1 6v16.5c0 .827.673 1.5 1.5 1.5h23c.827 0 1.5-.673 1.5-1.5v-15c0-.827-.673-1.5-1.5-1.5H1zm24.5 19h-23A2.502 2.502 0 0 1 0 22.5v-17A.5.5 0 0 1 .5 5h25C26.879 5 28 6.121 28 7.5v15c0 1.38-1.121 2.5-2.5 2.5z"/>
        <path d="M1 5h12.46l-3.05-3.813A.497.497 0 0 0 10.02 1H2.5C1.673 1 1 1.673 1 2.5V5zm13.5 1H.5a.5.5 0 0 1-.5-.5v-3C0 1.121 1.12 0 2.5 0h7.52c.458 0 .884.205 1.17.563l3.7 4.624A.5.5 0 0 1 14.5 6zM14.5 18a.502.502 0 0 1-.354-.146l-3-3a.502.502 0 0 1 .708-.708l2.646 2.647 2.646-2.647a.502.502 0 0 1 .708.708l-3 3A.502.502 0 0 1 14.5 18"/>
        <path d="M14.5 17.5a.5.5 0 0 1-.5-.5v-6.5a.5.5 0 0 1 1 0V17a.5.5 0 0 1-.5.5M17.5 21h-6a.5.5 0 0 1 0-1h6a.5.5 0 0 1 0 1"/>
    </g>
</svg>
