<svg xmlns="http://www.w3.org/2000/svg" width="34" height="27" viewBox="0 0 34 27">
    <path fill="#162D3D" fill-rule="evenodd" d="M33 19.5c0 .827-.673 1.5-1.5 1.5H31v-5h.5c.827 0 1.5.673 1.5 1.5v2zM28.5 23c-.827 0-1.5-.673-1.5-1.5v-6c0-.827.673-1.5 1.5-1.5s1.5.673 1.5 1.5v6c0 .827-.673 1.5-1.5 1.5zM24.031 6.262a.487.487 0 0 1-.653.041A10.005 10.005 0 0 0 17 4c-2.323 0-4.588.817-6.379 2.304a.489.489 0 0 1-.652-.042L8.183 4.476c.135-.126.27-.255.412-.375.078-.067.155-.134.235-.199.252-.205.512-.398.779-.583.068-.048.135-.096.204-.142.284-.189.576-.365.875-.531.061-.036.122-.072.184-.105.304-.163.616-.312.935-.451.066-.029.131-.061.198-.089.31-.13.63-.243.952-.349.081-.027.161-.057.243-.083.309-.093.624-.171.942-.242.1-.022.199-.052.299-.071.313-.063.632-.107.953-.146.106-.013.21-.034.318-.045a13.052 13.052 0 0 1 2.577 0c.105.01.208.032.313.044.322.04.643.083.958.147.098.019.194.048.292.069.32.072.639.15.95.245.079.024.155.054.233.079.326.107.65.222.964.354.063.025.123.056.186.083.322.141.639.291.948.457.057.031.114.065.172.098.302.168.598.346.886.539.066.043.129.09.194.134.269.188.533.383.787.589.078.064.154.13.231.196.143.121.278.25.414.377l-1.786 1.786zM5.5 14c.827 0 1.5.673 1.5 1.5v6c0 .827-.673 1.5-1.5 1.5S4 22.327 4 21.5v-6c0-.827.673-1.5 1.5-1.5zM1 19.5v-2c0-.827.673-1.5 1.5-1.5H3v5h-.5c-.827 0-1.5-.673-1.5-1.5zM17.25 26c-.689 0-1.25-.561-1.25-1.25s.561-1.25 1.25-1.25 1.25.561 1.25 1.25V26h-1.25zM31.5 15H31v-1c0-3.845-1.56-7.331-4.077-9.864-.01-.011-.013-.025-.024-.035A13.891 13.891 0 0 0 19.816.285c-.392-.08-.792-.137-1.193-.182-.069-.009-.136-.024-.204-.031a14.222 14.222 0 0 0-2.837 0c-.072.007-.143.023-.215.032-.397.045-.793.101-1.182.18-.013.003-.026.008-.039.01a13.902 13.902 0 0 0-7.045 3.807c-.011.01-.014.024-.024.035A13.957 13.957 0 0 0 3 14v1h-.5A2.502 2.502 0 0 0 0 17.5v2C0 20.879 1.121 22 2.5 22h.551c.232 1.14 1.241 2 2.449 2C6.879 24 8 22.879 8 21.5v-6C8 14.121 6.879 13 5.5 13c-.553 0-1.06.187-1.475.491a12.933 12.933 0 0 1 3.451-8.308l1.786 1.786c.295.295.677.444 1.06.444.332 0 .665-.113.939-.341A9.006 9.006 0 0 1 17 5c2.091 0 4.129.736 5.738 2.071a1.48 1.48 0 0 0 2-.102l1.786-1.786a12.933 12.933 0 0 1 3.451 8.308A2.488 2.488 0 0 0 28.5 13a2.502 2.502 0 0 0-2.5 2.5v6c0 1.293.989 2.347 2.249 2.475A4.495 4.495 0 0 1 24.5 26h-5v-1.25c0-1.24-1.01-2.25-2.25-2.25S15 23.51 15 24.75 16.01 27 17.25 27h7.25c2.209 0 4.105-1.317 4.979-3.2a2.506 2.506 0 0 0 1.47-1.8h.551c1.379 0 2.5-1.121 2.5-2.5v-2c0-1.379-1.121-2.5-2.5-2.5z"/>
</svg>
