<svg xmlns="http://www.w3.org/2000/svg" xmlns:xlink="http://www.w3.org/1999/xlink" width="34" height="38" viewBox="0 0 34 38">
    <defs>
        <linearGradient id="b" x1="32.998%" y1="-10.088%" y2="83.136%">
            <stop offset="0%" stop-color="#F0F4F7" stop-opacity="0"/>
            <stop offset="100%" stop-color="#F8F8F9"/>
        </linearGradient>
        <circle id="a" cx="15" cy="18" r="15"/>
    </defs>
    <g fill="none" fill-rule="evenodd">
        <g opacity=".345" transform="translate(0 1)">
            <use fill="#CD68ED" xlink:href="#a"/>
            <use fill="url(#b)" xlink:href="#a"/>
        </g>
        <path stroke="#CD68ED" stroke-linecap="round" d="M14.84 37C24.87 37 33 28.941 33 19S24.87 1 14.84 1c-2.462 0-4.81.486-6.95 1.366A18.197 18.197 0 0 0 2 6.272m4.102.017l-4.436.138L.668 2"/>
        <g fill="#AA4DC8">
            <path d="M8.481 24.812h1.26c.204 0 .402-.033.594-.099.192-.066.363-.175.513-.329.15-.153.27-.352.36-.598.09-.246.135-.546.135-.9 0-.324-.031-.616-.095-.878a1.75 1.75 0 0 0-.31-.67 1.377 1.377 0 0 0-.572-.428c-.237-.099-.529-.148-.877-.148H8.481v4.05zm-1.413-5.238H9.84c.414 0 .8.066 1.156.198.358.132.666.33.927.594.262.264.465.594.612.99.148.396.221.861.221 1.395 0 .468-.06.9-.18 1.296s-.301.738-.545 1.026a2.551 2.551 0 0 1-.909.68c-.363.165-.79.247-1.282.247H7.068v-6.426zm6.78 3.204c.018-.3.093-.549.225-.747.132-.198.3-.357.504-.477.204-.12.432-.205.684-.257.252-.05.51-.076.774-.076.234 0 .471.016.711.05.24.033.459.097.657.193s.36.231.486.405c.126.174.189.399.189.675v2.421c0 .21.012.411.036.603.024.192.066.336.126.432h-1.296a1.834 1.834 0 0 1-.09-.45c-.204.21-.444.358-.72.445-.276.088-.558.131-.846.131-.222 0-.429-.028-.621-.086a1.482 1.482 0 0 1-.504-.256 1.173 1.173 0 0 1-.338-.432 1.46 1.46 0 0 1-.121-.621c0-.264.045-.481.135-.653.09-.17.21-.307.36-.409.15-.102.32-.178.509-.23.189-.05.382-.091.58-.121.198-.03.387-.054.567-.072.18-.018.34-.045.482-.081a.861.861 0 0 0 .337-.158c.084-.069.126-.169.126-.301a.678.678 0 0 0-.068-.329.496.496 0 0 0-.18-.189.708.708 0 0 0-.26-.09 2.136 2.136 0 0 0-.32-.022c-.246 0-.442.054-.59.162-.147.108-.232.288-.256.54h-1.278zm2.952.945a.573.573 0 0 1-.203.112c-.08.028-.167.05-.26.068a3.89 3.89 0 0 1-.297.045 4.265 4.265 0 0 0-.302.045 2.02 2.02 0 0 0-.288.072.85.85 0 0 0-.238.122.565.565 0 0 0-.167.197.629.629 0 0 0-.063.293c0 .12.021.217.063.293a.492.492 0 0 0 .171.18.722.722 0 0 0 .252.094c.096.018.195.027.297.027.252 0 .447-.042.585-.126a.843.843 0 0 0 .306-.301.964.964 0 0 0 .122-.356c.015-.12.022-.216.022-.288v-.477zm4.863 2.862c-.138.372-.33.64-.576.805-.246.166-.588.248-1.026.248-.132 0-.262-.005-.392-.014a18.7 18.7 0 0 1-.391-.031V26.54l.369.036c.126.012.252.015.378.009a.519.519 0 0 0 .441-.315.678.678 0 0 0 .054-.27.768.768 0 0 0-.054-.288l-1.638-4.365h1.368l1.053 3.186h.018l1.017-3.186h1.323l-1.944 5.238zM10.296 18.815h3.887v-1.264h-1.171V11H11.82a1.637 1.637 0 0 1-.798.41 4.934 4.934 0 0 1-.902.108v1.099h1.337v4.934h-1.16v1.264zm9.616-1.72v1.72h-1.524v-1.72h-3.369v-1.472l3.245-4.52h1.648v4.727h1.046v1.265h-1.046zm-1.524-4.146l-2 2.881h2V12.95z"/>
        </g>
    </g>
</svg>
