<?xml version="1.0" encoding="UTF-8"?><svg id="uuid-07576d3f-758f-4b5e-bcae-9d1dd62c5cb0" xmlns="http://www.w3.org/2000/svg" width="982" height="721" xmlns:xlink="http://www.w3.org/1999/xlink" viewBox="0 0 982 721"><defs><linearGradient id="uuid-d1b020fb-0087-432d-af1e-2654c9819235" x1="-4624.0134" y1="-6988.3106" x2="-4375.7899" y2="-7131.6225" gradientTransform="translate(-4625.5783 -6679.7167) rotate(-67.3575) scale(1 -1)" gradientUnits="userSpaceOnUse"><stop offset=".6" stop-color="#fff"/><stop offset=".7117" stop-color="#fcfcfc"/><stop offset=".7668" stop-color="#f5f5f5"/><stop offset=".8095" stop-color="#e8e8e8"/><stop offset=".8458" stop-color="#d5d5d5"/><stop offset=".878" stop-color="#bdbdbd"/><stop offset=".9075" stop-color="#9f9f9f"/><stop offset=".9347" stop-color="#7b7b7b"/><stop offset=".9602" stop-color="#525252"/><stop offset=".9835" stop-color="#252525"/><stop offset="1" stop-color="#000"/></linearGradient><linearGradient id="uuid-18acd7ff-c725-46d3-93e5-9b6dc4e0b00c" x1="-5095.5563" y1="-3178.0303" x2="-5095.5563" y2="-3441.3772" gradientTransform="translate(-393.7885 -5889.6895) rotate(-128.432)" gradientUnits="userSpaceOnUse"><stop offset="0" stop-color="#fff"/><stop offset=".0551" stop-color="#fff" stop-opacity=".797"/><stop offset=".1195" stop-color="#fff" stop-opacity=".5881"/><stop offset=".1848" stop-color="#fff" stop-opacity=".4079"/><stop offset=".2496" stop-color="#fff" stop-opacity=".2609"/><stop offset=".3138" stop-color="#fff" stop-opacity=".1466"/><stop offset=".3773" stop-color="#fff" stop-opacity=".0652"/><stop offset=".4398" stop-color="#fff" stop-opacity=".0164"/><stop offset=".5" stop-color="#fff" stop-opacity="0"/></linearGradient><mask id="uuid-e0b3c4ed-32f8-4cc5-a15f-85748d49907b" x="70.1626" y="-26.4916" width="293.7581" height="279.736" maskUnits="userSpaceOnUse"><path d="M106.9959,252.5785l228.9511-33.9393c23.9498-3.5503,35.0751-31.6956,20.0256-50.6615L212.1048-13.3301c-15.0495-18.966-44.9867-14.5281-53.8869,7.9881l-85.0833,215.2471c-8.9003,22.5162,9.9116,46.2237,33.8614,42.6734Z" fill="url(#uuid-18acd7ff-c725-46d3-93e5-9b6dc4e0b00c)"/></mask><linearGradient id="uuid-a3abe578-4811-45a8-8db5-a5e6b1cf5cc8" x1="-6560.8577" y1="-2606.8837" x2="-6560.8577" y2="-2894.3281" gradientTransform="translate(7052.9904 2005.7662) rotate(-7.3576)" xlink:href="#uuid-18acd7ff-c725-46d3-93e5-9b6dc4e0b00c"/><mask id="uuid-1e13c971-92f7-4d91-8e55-fda720614ce6" x="47.4255" y="-26.2078" width="321.305" height="303.5115" maskUnits="userSpaceOnUse"><path d="M148.203-3.7138L50.945,229.4466c-10.1738,24.3901,9.8706,50.6474,36.0799,47.2631l250.5519-32.3523c26.2093-3.3843,38.9266-33.8719,22.8911-54.8777L207.174-11.3284c-16.0355-21.0058-48.7972-16.7755-58.971,7.6146Z" fill="url(#uuid-a3abe578-4811-45a8-8db5-a5e6b1cf5cc8)"/></mask><mask id="uuid-70c1fac3-1e40-416d-b8fb-86ec6c2da0ac" x="43.9578" y="-27.18" width="328.2403" height="305.456" maskUnits="userSpaceOnUse"><polygon points="372.1981 235.8927 43.9578 278.276 171.373 -27.18 372.1981 235.8927" fill="url(#uuid-d1b020fb-0087-432d-af1e-2654c9819235)"/><g mask="url(#uuid-e0b3c4ed-32f8-4cc5-a15f-85748d49907b)"><path d="M104.8013,252.9038l233.3404-34.5899c22.9744-3.4057,33.6466-30.4047,19.21-48.5982L210.7257-15.0681c-14.4366-18.1935-43.1545-13.9364-51.6923,7.6628l-86.7144,219.3736c-8.5378,21.5992,9.5079,44.3411,32.4823,40.9355Z"/></g><g mask="url(#uuid-1e13c971-92f7-4d91-8e55-fda720614ce6)"><path d="M149.1353-5.9488L50.0127,231.6816c-9.7595,23.3967,9.4686,48.5846,34.6105,45.3382l255.3553-32.9725c25.1419-3.2464,37.3412-32.4924,21.9588-52.6427L205.7046-13.2533c-15.3824-20.1503-46.8098-16.0923-56.5693,7.3045Z"/></g></mask><filter id="uuid-6b136878-d73d-454e-ae9a-ba3b4cccdaad" x="45.1031" y="-26.7929" width="327.1792" height="304.4686" color-interpolation-filters="sRGB" filterUnits="userSpaceOnUse"><feColorMatrix result="cm" values="-1 0 0 0 1 0 -1 0 0 1 0 0 -1 0 1 0 0 0 1 0"/><feFlood flood-color="#fff" result="bg"/><feBlend in="cm" in2="bg"/></filter><linearGradient id="uuid-9221f361-2174-4364-a89d-83db196a8c61" x1="359.1921" y1="-6989.1365" x2="606.6132" y2="-7131.9852" gradientTransform="translate(-6140.0687 -3048.988) rotate(112.6425)" gradientUnits="userSpaceOnUse"><stop offset=".6" stop-color="#000"/><stop offset=".7117" stop-color="#020202"/><stop offset=".7668" stop-color="#090909"/><stop offset=".8095" stop-color="#161616"/><stop offset=".8458" stop-color="#292929"/><stop offset=".878" stop-color="#414141"/><stop offset=".9075" stop-color="#5f5f5f"/><stop offset=".9347" stop-color="#838383"/><stop offset=".9602" stop-color="#acacac"/><stop offset=".9835" stop-color="#d9d9d9"/><stop offset="1" stop-color="#fff"/></linearGradient><linearGradient id="uuid-e64971be-5766-47a0-b2ac-90efa152efb6" x1="524.1395" y1="-7274.8338" x2="524.1395" y2="-6989.1364" gradientTransform="translate(-6140.0687 -3048.988) rotate(112.6425)" gradientUnits="userSpaceOnUse"><stop offset=".6" stop-color="#fff" stop-opacity="0"/><stop offset=".7117" stop-color="#fff" stop-opacity=".0087"/><stop offset=".7668" stop-color="#fff" stop-opacity=".0386"/><stop offset=".8095" stop-color="#fff" stop-opacity=".0901"/><stop offset=".8458" stop-color="#fff" stop-opacity=".1633"/><stop offset=".878" stop-color="#fff" stop-opacity=".2585"/><stop offset=".9075" stop-color="#fff" stop-opacity=".3758"/><stop offset=".9347" stop-color="#fff" stop-opacity=".5153"/><stop offset=".9602" stop-color="#fff" stop-opacity=".6774"/><stop offset=".9835" stop-color="#fff" stop-opacity=".8548"/><stop offset="1" stop-color="#fff"/></linearGradient><mask id="uuid-10952013-ae65-4a2b-bd67-4b15c51680f3" x="45.1031" y="-26.7929" width="327.1792" height="304.4686" maskUnits="userSpaceOnUse"><g filter="url(#uuid-6b136878-d73d-454e-ae9a-ba3b4cccdaad)"><polygon points="372.2823 235.4295 172.1064 -26.7929 45.1031 277.6758 372.2823 235.4295" fill="url(#uuid-9221f361-2174-4364-a89d-83db196a8c61)"/><polygon points="372.2823 235.4295 172.1064 -26.7929 45.1031 277.6758 372.2823 235.4295" fill="url(#uuid-e64971be-5766-47a0-b2ac-90efa152efb6)"/></g></mask><filter id="uuid-ec9baa2f-e69e-4014-a305-b6ada667d753" x="-9.6695" y="-52.9831" width="650.0075" height="707.2627" color-interpolation-filters="sRGB" filterUnits="userSpaceOnUse"><feFlood flood-color="#fff" result="bg"/><feBlend in="SourceGraphic" in2="bg"/></filter><linearGradient id="uuid-1938bcd4-0bc5-40d3-a064-75cb611174ce" x1="-6382.5471" y1="-3061.719" x2="-6382.5471" y2="-3576.4781" gradientTransform="translate(3790.3292 6544.0977) rotate(34.4009)" xlink:href="#uuid-18acd7ff-c725-46d3-93e5-9b6dc4e0b00c"/><mask id="uuid-f0886738-5875-4289-bb08-0f049b52f0ca" x="38.6433" y="-25.6548" width="532.6775" height="577.9385" maskUnits="userSpaceOnUse"><path d="M482.9705-17.874L75.9424,177.6897c-42.5557,20.4466-47.0889,79.2634-8.1688,105.9895l372.395,255.7213c39.0098,26.7878,92.3841,1.2527,96.0051-45.9304l34.6331-451.285c3.6196-47.1652-45.1985-80.5452-87.8363-60.0591Z" fill="url(#uuid-1938bcd4-0bc5-40d3-a064-75cb611174ce)"/></mask><linearGradient id="uuid-3a415ec2-9685-45cf-829a-c65bbd33eab4" x1="-5763.9283" y1="-4531.7334" x2="-5763.9283" y2="-5159.651" gradientTransform="translate(5451.623 -5210.9541) rotate(-86.9592)" xlink:href="#uuid-18acd7ff-c725-46d3-93e5-9b6dc4e0b00c"/><mask id="uuid-53abe038-3682-4f62-8bd9-6d693ad74214" x="-9.6695" y="-52.9831" width="645.1517" height="707.2627" maskUnits="userSpaceOnUse"><path d="M27.4248,337.9514l462.4323,301.6339c48.442,31.5976,112.916-1.149,115.9753-58.9043l29.2628-552.4385c3.0585-57.7402-57.5658-97.1152-109.0732-70.8422L34.3269,208.2048c-51.4046,26.2206-55.2348,98.2203-6.9021,129.7466Z" fill="url(#uuid-3a415ec2-9685-45cf-829a-c65bbd33eab4)"/></mask><linearGradient id="uuid-9771ed82-e4bb-4a61-a598-75a0f144e8f6" x1="-5763.9283" y1="-4531.7334" x2="-5763.9283" y2="-5159.651" gradientTransform="translate(5451.623 -5210.9541) rotate(-86.9592)" xlink:href="#uuid-18acd7ff-c725-46d3-93e5-9b6dc4e0b00c"/><mask id="uuid-1e749ffd-486f-4738-abbd-7b9b984ea750" x="-9.6695" y="-52.9831" width="645.1517" height="707.2627" maskUnits="userSpaceOnUse"><path d="M27.4248,337.9514l462.4323,301.6339c48.442,31.5976,112.916-1.149,115.9753-58.9043l29.2628-552.4385c3.0585-57.7402-57.5658-97.1152-109.0732-70.8422L34.3269,208.2048c-51.4046,26.2206-55.2348,98.2203-6.9021,129.7466Z" fill="url(#uuid-9771ed82-e4bb-4a61-a598-75a0f144e8f6)"/></mask><linearGradient id="uuid-a4fc352d-bc53-4c59-9a9f-31d506f80caa" x1="-5763.9283" y1="-4531.7334" x2="-5763.9283" y2="-5159.651" gradientTransform="translate(5451.623 -5210.9541) rotate(-86.9592)" xlink:href="#uuid-18acd7ff-c725-46d3-93e5-9b6dc4e0b00c"/><mask id="uuid-08824849-4a3f-4d3c-bb5a-eb5288661bab" x="-9.6695" y="-52.9831" width="645.1517" height="707.2627" maskUnits="userSpaceOnUse"><path d="M27.4248,337.9514l462.4323,301.6339c48.442,31.5976,112.916-1.149,115.9753-58.9043l29.2628-552.4385c3.0585-57.7402-57.5658-97.1152-109.0732-70.8422L34.3269,208.2048c-51.4046,26.2206-55.2348,98.2203-6.9021,129.7466Z" fill="url(#uuid-a4fc352d-bc53-4c59-9a9f-31d506f80caa)"/></mask><linearGradient id="uuid-a7a1ca11-ae94-4931-b940-4bbb4b54e27d" x1="-5763.9283" y1="-4531.7334" x2="-5763.9283" y2="-5159.651" gradientTransform="translate(5451.623 -5210.9541) rotate(-86.9592)" xlink:href="#uuid-18acd7ff-c725-46d3-93e5-9b6dc4e0b00c"/><mask id="uuid-28be47d6-6627-436b-a45b-7616fdc61997" x="-9.6695" y="-52.9831" width="645.1517" height="707.2627" maskUnits="userSpaceOnUse"><path d="M27.4248,337.9514l462.4323,301.6339c48.442,31.5976,112.916-1.149,115.9753-58.9043l29.2628-552.4385c3.0585-57.7402-57.5658-97.1152-109.0732-70.8422L34.3269,208.2048c-51.4046,26.2206-55.2348,98.2203-6.9021,129.7466Z" fill="url(#uuid-a7a1ca11-ae94-4931-b940-4bbb4b54e27d)"/></mask><mask id="uuid-caacf236-3e7f-4935-947a-596a532d0542" x="-9.6695" y="-52.9831" width="650.0075" height="707.2627" maskUnits="userSpaceOnUse"><g filter="url(#uuid-ec9baa2f-e69e-4014-a305-b6ada667d753)"><g mask="url(#uuid-f0886738-5875-4289-bb08-0f049b52f0ca)"><path d="M486.8797-19.7522L72.0482,179.5607c-40.8226,19.6139-45.1711,76.0352-7.8361,101.6729l379.5344,260.6239c37.421,25.6968,88.6216,1.2016,92.0951-44.0598l35.2971-459.9368c3.4722-45.2443-43.3577-77.2648-84.259-57.6131Z"/></g><g mask="url(#uuid-53abe038-3682-4f62-8bd9-6d693ad74214)"><path d="M23.002,335.0666l471.2977,307.4166c46.4691,30.3107,108.3173-1.1023,111.252-56.5053l29.8238-563.0295c2.9339-55.3886-55.2213-93.16-104.631-67.957L29.6231,210.6042c-49.3111,25.1527-52.9853,94.2201-6.621,124.4624Z"/></g><g mask="url(#uuid-1e749ffd-486f-4738-abbd-7b9b984ea750)"><path d="M23.002,335.0666l471.2977,307.4166c46.4691,30.3107,108.3173-1.1023,111.252-56.5053l29.8238-563.0295c2.9339-55.3886-55.2213-93.16-104.631-67.957L29.6231,210.6042c-49.3111,25.1527-52.9853,94.2201-6.621,124.4624Z"/></g><g mask="url(#uuid-08824849-4a3f-4d3c-bb5a-eb5288661bab)"><path d="M23.002,335.0666l471.2977,307.4166c46.4691,30.3107,108.3173-1.1023,111.252-56.5053l29.8238-563.0295c2.9339-55.3886-55.2213-93.16-104.631-67.957L29.6231,210.6042c-49.3111,25.1527-52.9853,94.2201-6.621,124.4624Z"/></g><g mask="url(#uuid-28be47d6-6627-436b-a45b-7616fdc61997)"><path d="M23.002,335.0666l471.2977,307.4166c46.4691,30.3107,108.3173-1.1023,111.252-56.5053l29.8238-563.0295c2.9339-55.3886-55.2213-93.16-104.631-67.957L29.6231,210.6042c-49.3111,25.1527-52.9853,94.2201-6.621,124.4624Z"/></g></g></mask><linearGradient id="uuid-d16860d1-2802-4628-bff6-00f689323af7" x1="-7992.3619" y1="-607.5272" x2="-7527.7614" y2="-875.7644" gradientTransform="translate(1038.0644 7947.463) rotate(90.8414) scale(1 -1)" xlink:href="#uuid-d1b020fb-0087-432d-af1e-2654c9819235"/><mask id="uuid-0d5cc6c0-db20-4877-afdf-b79480a6e52e" x="7.9564" y="-53.3034" width="539.4382" height="619.4158" maskUnits="userSpaceOnUse"><polygon points="7.9564 248.5261 547.3946 -53.3034 538.3233 566.1124 7.9564 248.5261" fill="url(#uuid-d16860d1-2802-4628-bff6-00f689323af7)"/></mask><filter id="uuid-3f734d18-f1f7-418f-8c06-fbea8facb166" x="8.1316" y="-51.4642" width="537.6945" height="617.4135" color-interpolation-filters="sRGB" filterUnits="userSpaceOnUse"><feColorMatrix result="cm" values="-1 0 0 0 1 0 -1 0 0 1 0 0 -1 0 1 0 0 0 1 0"/><feFlood flood-color="#fff" result="bg"/><feBlend in="cm" in2="bg"/></filter><linearGradient id="uuid-f2fc7ff8-ed80-4e68-8400-713c25e8c4ab" x1="3439.7485" y1="-609.064" x2="3902.8695" y2="-876.447" gradientTransform="translate(1095.8348 4013.9555) rotate(-89.1586)" xlink:href="#uuid-9221f361-2174-4364-a89d-83db196a8c61"/><linearGradient id="uuid-6a3f4a93-7b0f-426f-bec5-c1868f775cd1" x1="3748.1645" y1="-1142.8692" x2="3748.1645" y2="-609.625" gradientTransform="translate(1095.8348 4013.9555) rotate(-89.1586)" xlink:href="#uuid-e64971be-5766-47a0-b2ac-90efa152efb6"/><mask id="uuid-76f502a0-0e49-4df7-8c17-5ec2d4049060" x="8.1316" y="-51.4642" width="537.6945" height="617.4135" maskUnits="userSpaceOnUse"><g filter="url(#uuid-3f734d18-f1f7-418f-8c06-fbea8facb166)"><polygon points="8.1316 249.3897 536.7841 565.9494 545.8261 -51.4642 8.1316 249.3897" fill="url(#uuid-f2fc7ff8-ed80-4e68-8400-713c25e8c4ab)"/><polygon points="8.1316 249.3897 536.7841 565.9494 545.8261 -51.4642 8.1316 249.3897" fill="url(#uuid-6a3f4a93-7b0f-426f-bec5-c1868f775cd1)"/></g></mask><radialGradient id="uuid-aff1ae25-8697-42c5-af50-580eac2c4fa1" cx="-13343.2444" cy="-10423.6714" fx="-13343.2444" fy="-10423.6714" r="134.3114" gradientTransform="translate(20397.3275 -15372.0618) scale(1.4957 -1.5)" gradientUnits="userSpaceOnUse"><stop offset="0" stop-color="#fff"/><stop offset=".0849" stop-color="#fff" stop-opacity=".9648"/><stop offset=".2235" stop-color="#fff" stop-opacity=".8691"/><stop offset=".3985" stop-color="#fff" stop-opacity=".7131"/><stop offset=".6031" stop-color="#fff" stop-opacity=".4965"/><stop offset=".8298" stop-color="#fff" stop-opacity=".2236"/><stop offset="1" stop-color="#fff" stop-opacity="0"/></radialGradient><mask id="uuid-5f34cfe7-3cd8-4775-a7a9-9a65eeebc9d7" x="238.551" y="61.9782" width="401.787" height="402.9342" maskUnits="userSpaceOnUse"><ellipse cx="439.4445" cy="263.4453" rx="200.8935" ry="201.4671" fill="url(#uuid-aff1ae25-8697-42c5-af50-580eac2c4fa1)"/></mask><filter id="uuid-fda47bf4-d9aa-437c-823a-9168c9b68055" x="293.6256" y="-41.4281" width="661.7032" height="657.5789" color-interpolation-filters="sRGB" filterUnits="userSpaceOnUse"><feFlood flood-color="#fff" result="bg"/><feBlend in="SourceGraphic" in2="bg"/></filter><linearGradient id="uuid-d33b8118-198c-4670-a5f3-9399842c7ce1" x1="3400.8525" y1="-562.5002" x2="2867.347" y2="-254.4806" gradientTransform="translate(3142.7977 2316.5063) rotate(-134.1586)" gradientUnits="userSpaceOnUse"><stop offset=".2" stop-color="#fff" stop-opacity="0"/><stop offset=".2723" stop-color="#fff" stop-opacity=".0164"/><stop offset=".3472" stop-color="#fff" stop-opacity=".0652"/><stop offset=".4234" stop-color="#fff" stop-opacity=".1466"/><stop offset=".5005" stop-color="#fff" stop-opacity=".2609"/><stop offset=".5782" stop-color="#fff" stop-opacity=".4079"/><stop offset=".6566" stop-color="#fff" stop-opacity=".5881"/><stop offset=".7339" stop-color="#fff" stop-opacity=".797"/><stop offset=".8" stop-color="#fff"/></linearGradient><mask id="uuid-ca4f79cd-e589-4888-ac19-5e59ef13ce52" x="263.7617" y="-106.0644" width="755.1485" height="749.2282" maskUnits="userSpaceOnUse"><polygon points="263.7617 643.1638 1018.9102 452.663 476.3574 -106.0644 263.7617 643.1638" fill="url(#uuid-d33b8118-198c-4670-a5f3-9399842c7ce1)"/></mask><mask id="uuid-effabdc7-b8bb-49e9-a3b1-dd8f2708fd46" x="293.6256" y="-41.4281" width="661.7032" height="657.5789" maskUnits="userSpaceOnUse"><g filter="url(#uuid-fda47bf4-d9aa-437c-823a-9168c9b68055)"><g mask="url(#uuid-ca4f79cd-e589-4888-ac19-5e59ef13ce52)"><path d="M379.4045,613.9907l523.8629-132.1546c51.3968-12.9658,69.4839-76.7082,32.5567-114.7362L559.4435-20.5014c-36.9271-38.028-101.1731-21.8207-115.6428,29.1731l-147.4823,519.7559c-14.4697,50.9939,31.6893,98.5289,83.0861,85.563Z"/></g></g></mask><filter id="uuid-c6a584ac-1f89-4a27-9f7b-8cada8543791" x="274.7845" y="-112.2157" width="680.5444" height="728.3665" color-interpolation-filters="sRGB" filterUnits="userSpaceOnUse"><feFlood flood-color="#fff" result="bg"/><feBlend in="SourceGraphic" in2="bg"/></filter><linearGradient id="uuid-3cca5cc6-2ab5-43c1-bbdb-1e631b3a91b6" x1="2868.5066" y1="-651.9071" x2="2868.5066" y2="-1141.8171" gradientTransform="translate(3352.9131 919.717) rotate(-149.1586)" xlink:href="#uuid-18acd7ff-c725-46d3-93e5-9b6dc4e0b00c"/><mask id="uuid-068db560-a298-4b3a-8141-600a94f8ff6c" x="273.3566" y="-154.2318" width="555.613" height="636.1721" maskUnits="userSpaceOnUse"><polygon points="273.3566 481.9403 828.9696 171.946 282.7001 -154.2318 273.3566 481.9403" fill="url(#uuid-3cca5cc6-2ab5-43c1-bbdb-1e631b3a91b6)"/></mask><linearGradient id="uuid-4f0506c3-a507-4ccb-81f8-42c1474a66c4" x1="2868.5066" y1="-651.9071" x2="2868.5066" y2="-1141.8171" gradientTransform="translate(3352.9131 919.717) rotate(-149.1586)" xlink:href="#uuid-18acd7ff-c725-46d3-93e5-9b6dc4e0b00c"/><mask id="uuid-493fada2-bd6d-4f02-8add-fbffb6c9f883" x="273.3566" y="-154.2318" width="555.613" height="636.1721" maskUnits="userSpaceOnUse"><polygon points="273.3566 481.9403 828.9696 171.946 282.7001 -154.2318 273.3566 481.9403" fill="url(#uuid-4f0506c3-a507-4ccb-81f8-42c1474a66c4)"/></mask><mask id="uuid-3b9e65e4-cf50-4d1c-87f1-86a10e7e5bdd" x="274.7845" y="-112.2157" width="680.5444" height="728.3665" maskUnits="userSpaceOnUse"><g filter="url(#uuid-c6a584ac-1f89-4a27-9f7b-8cada8543791)"><g mask="url(#uuid-068db560-a298-4b3a-8141-600a94f8ff6c)"><path d="M358.6514,434.3516l385.0233-214.8169c37.9088-21.1506,38.7057-75.4072,1.4344-97.6619L366.5606-104.1586c-37.2713-22.2547-84.6574,4.1835-85.2949,47.5887l-6.4748,440.8483c-.6375,43.4053,45.9517,71.2237,83.8605,50.0731Z"/></g><g mask="url(#uuid-493fada2-bd6d-4f02-8add-fbffb6c9f883)"><path d="M358.6514,434.3516l385.0233-214.8169c37.9088-21.1506,38.7057-75.4072,1.4344-97.6619L366.5606-104.1586c-37.2713-22.2547-84.6574,4.1835-85.2949,47.5887l-6.4748,440.8483c-.6375,43.4053,45.9517,71.2237,83.8605,50.0731Z"/></g></g></mask><linearGradient id="uuid-b4f95940-1944-4875-acde-35529bb691c9" x1="-8770.3637" y1="298.1286" x2="-8205.5283" y2="-27.9793" gradientTransform="translate(6360.3908 6420.2537) rotate(45.8658) scale(1 -1)" xlink:href="#uuid-d1b020fb-0087-432d-af1e-2654c9819235"/><mask id="uuid-780f8fc0-570f-4ab3-b352-63672ca3b571" x="261.3011" y="-81.927" width="730.3143" height="724.4238" maskUnits="userSpaceOnUse"><polygon points="261.3011 642.4968 467.1908 -81.927 991.6154 458.5906 261.3011 642.4968" fill="url(#uuid-b4f95940-1944-4875-acde-35529bb691c9)"/></mask><filter id="uuid-ca2c7842-d9f3-4d36-a894-85ca58eb008f" x="262.1942" y="-78.9937" width="727.9535" height="722.0821" color-interpolation-filters="sRGB" filterUnits="userSpaceOnUse"><feColorMatrix result="cm" values="-1 0 0 0 1 0 -1 0 0 1 0 0 -1 0 1 0 0 0 1 0"/><feFlood flood-color="#fff" result="bg"/><feBlend in="cm" in2="bg"/></filter><linearGradient id="uuid-2a85f4a8-cb80-4740-94a3-2a543fb2a2a2" x1="4083.4889" y1="296.2492" x2="4646.4984" y2="-28.8045" gradientTransform="translate(3621.0301 3596.83) rotate(-134.1342)" xlink:href="#uuid-9221f361-2174-4364-a89d-83db196a8c61"/><linearGradient id="uuid-2ed44a9e-9610-4d67-a2fd-07a80c19908d" x1="4458.8286" y1="-353.8582" x2="4458.8286" y2="296.2492" gradientTransform="translate(3621.0301 3596.83) rotate(-134.1342)" xlink:href="#uuid-e64971be-5766-47a0-b2ac-90efa152efb6"/><mask id="uuid-52f8aff9-6c4c-4dcb-a2df-b8f7c05cbf6d" x="262.1942" y="-78.9937" width="727.9535" height="722.0821" maskUnits="userSpaceOnUse"><g filter="url(#uuid-ca2c7842-d9f3-4d36-a894-85ca58eb008f)"><polygon points="262.1942 643.0885 990.1477 459.7768 467.4184 -78.9937 262.1942 643.0885" fill="url(#uuid-2a85f4a8-cb80-4740-94a3-2a543fb2a2a2)"/><polygon points="262.1942 643.0885 990.1477 459.7768 467.4184 -78.9937 262.1942 643.0885" fill="url(#uuid-2ed44a9e-9610-4d67-a2fd-07a80c19908d)"/></g></mask><linearGradient id="uuid-06e2e845-5d7a-4e09-a46f-e98dc370bc17" x1="-8770.3637" y1="298.1286" x2="-8205.5283" y2="-27.9793" gradientTransform="translate(6360.3908 6420.2537) rotate(45.8658) scale(1 -1)" xlink:href="#uuid-d1b020fb-0087-432d-af1e-2654c9819235"/><mask id="uuid-4061b41a-3d8b-4666-8f9b-9228589d9f2c" x="261.3011" y="-81.927" width="730.3143" height="724.4238" maskUnits="userSpaceOnUse"><polygon points="261.3011 642.4968 467.1908 -81.927 991.6154 458.5906 261.3011 642.4968" fill="url(#uuid-06e2e845-5d7a-4e09-a46f-e98dc370bc17)"/></mask><filter id="uuid-301a9db8-72f0-49cb-8bf0-db006042c59e" x="262.1942" y="-78.9937" width="727.9535" height="722.0821" color-interpolation-filters="sRGB" filterUnits="userSpaceOnUse"><feColorMatrix result="cm" values="-1 0 0 0 1 0 -1 0 0 1 0 0 -1 0 1 0 0 0 1 0"/><feFlood flood-color="#fff" result="bg"/><feBlend in="cm" in2="bg"/></filter><linearGradient id="uuid-842152af-6d4e-4469-8df8-e364610c3b5d" x1="4083.4889" y1="296.2492" x2="4646.4984" y2="-28.8045" gradientTransform="translate(3621.0301 3596.83) rotate(-134.1342)" xlink:href="#uuid-9221f361-2174-4364-a89d-83db196a8c61"/><linearGradient id="uuid-574827f5-a6d6-48bd-9ac2-bf63afb797c5" x1="4458.8286" y1="-353.8582" x2="4458.8286" y2="296.2492" gradientTransform="translate(3621.0301 3596.83) rotate(-134.1342)" xlink:href="#uuid-e64971be-5766-47a0-b2ac-90efa152efb6"/><mask id="uuid-a3db84a2-fd8d-4331-92da-5fe96200e84e" x="262.1942" y="-78.9937" width="727.9535" height="722.0821" maskUnits="userSpaceOnUse"><g filter="url(#uuid-301a9db8-72f0-49cb-8bf0-db006042c59e)"><polygon points="262.1942 643.0885 990.1477 459.7768 467.4184 -78.9937 262.1942 643.0885" fill="url(#uuid-842152af-6d4e-4469-8df8-e364610c3b5d)"/><polygon points="262.1942 643.0885 990.1477 459.7768 467.4184 -78.9937 262.1942 643.0885" fill="url(#uuid-574827f5-a6d6-48bd-9ac2-bf63afb797c5)"/></g></mask><radialGradient id="uuid-007cfac2-4e01-48fe-9ce4-aad045842a41" cx="-13246.0518" cy="-10468.8667" fx="-13246.0518" fy="-10468.8667" r="145.2413" gradientTransform="translate(20452.7532 -15372.0618) scale(1.5 -1.5)" xlink:href="#uuid-aff1ae25-8697-42c5-af50-580eac2c4fa1"/><mask id="uuid-defb585e-0087-41ce-b8eb-803e6b46772b" x="365.8136" y="113.3764" width="435.7238" height="435.7238" maskUnits="userSpaceOnUse"><circle cx="583.6755" cy="331.2383" r="217.8619" fill="url(#uuid-007cfac2-4e01-48fe-9ce4-aad045842a41)"/></mask><linearGradient id="uuid-88c45bea-6029-440c-8e13-a0ca13ccd673" x1="1868.537" y1="-131.0689" x2="1335.0315" y2="176.9506" gradientTransform="translate(-1032.0811 757.4429) rotate(-14.1586)" xlink:href="#uuid-d33b8118-198c-4670-a5f3-9399842c7ce1"/><mask id="uuid-8df47d5b-1948-4ccc-8abf-5a1a684ee8d3" x="263.7617" y="-106.0644" width="755.1485" height="749.2282" maskUnits="userSpaceOnUse"><polygon points="476.3574 -106.0644 263.7617 643.1638 1018.9102 452.663 476.3574 -106.0644" fill="url(#uuid-88c45bea-6029-440c-8e13-a0ca13ccd673)"/></mask><filter id="uuid-349f904e-2d45-40ef-bd48-54ec39645ebc" x="314.251" y="128.4722" width="637.9962" height="711.3989" color-interpolation-filters="sRGB" filterUnits="userSpaceOnUse"><feFlood flood-color="#fff" result="bg"/><feBlend in="SourceGraphic" in2="bg"/></filter><linearGradient id="uuid-1037b3b8-2898-4f2d-a8ee-e9d3a60f2e7a" x1="4590.2496" y1="503.5075" x2="4031.8243" y2="825.9145" gradientTransform="translate(27.2712 4857.8418) rotate(-89.1586)" xlink:href="#uuid-d33b8118-198c-4670-a5f3-9399842c7ce1"/><mask id="uuid-33a161f0-4ee6-4d7a-bc1e-0bd52a503a66" x="242.1923" y="76.8909" width="711.88" height="815.0965" maskUnits="userSpaceOnUse"><polygon points="242.1923 474.0717 942.1009 891.9875 954.0723 76.8909 242.1923 474.0717" fill="url(#uuid-1037b3b8-2898-4f2d-a8ee-e9d3a60f2e7a)"/></mask><mask id="uuid-70c8b691-b6d7-43e9-9c92-42066e4de07f" x="314.251" y="128.4722" width="637.9962" height="711.3989" maskUnits="userSpaceOnUse"><g filter="url(#uuid-349f904e-2d45-40ef-bd48-54ec39645ebc)"><g mask="url(#uuid-33a161f0-4ee6-4d7a-bc1e-0bd52a503a66)"><path d="M349.3757,538.0709l485.5418,289.9173c47.6371,28.4441,108.2019-5.3469,109.0167-60.8239l8.3048-565.4502c.8148-55.477-58.7315-91.0321-107.1834-63.9993l-493.8466,275.5329c-48.4519,27.0329-49.4704,96.3791-1.8333,124.8232Z"/></g></g></mask><linearGradient id="uuid-3c283180-26eb-4bc2-95af-990bdea0bbdb" x1="5376.8514" y1="1870.7234" x2="4843.3459" y2="2178.743" gradientTransform="translate(6197.7339 -294.557) rotate(150.8414)" xlink:href="#uuid-d33b8118-198c-4670-a5f3-9399842c7ce1"/><mask id="uuid-ebe14bd4-d881-465b-95da-84d4f9b158e6" x="256.4594" y="112.4534" width="680.1122" height="778.7227" maskUnits="userSpaceOnUse"><polygon points="925.1344 891.1761 936.5716 112.4534 256.4594 491.9099 925.1344 891.1761" fill="url(#uuid-3c283180-26eb-4bc2-95af-990bdea0bbdb)"/></mask><linearGradient id="uuid-65bb0e78-0d66-41c2-9a98-b3a91b4c4af8" x1="5376.8514" y1="1870.7234" x2="4843.3459" y2="2178.743" gradientTransform="translate(6197.7339 -294.557) rotate(150.8414)" xlink:href="#uuid-d33b8118-198c-4670-a5f3-9399842c7ce1"/><mask id="uuid-f1e4a724-2307-4f5f-a590-0665b76f2a11" x="256.4594" y="112.4534" width="680.1122" height="778.7227" maskUnits="userSpaceOnUse"><polygon points="925.1344 891.1761 936.5716 112.4534 256.4594 491.9099 925.1344 891.1761" fill="url(#uuid-65bb0e78-0d66-41c2-9a98-b3a91b4c4af8)"/></mask><linearGradient id="uuid-b3e22f09-325e-4c60-9b44-16527086aec7" x1="5376.8514" y1="1870.7234" x2="4843.3459" y2="2178.743" gradientTransform="translate(6197.7339 -294.557) rotate(150.8414)" xlink:href="#uuid-d33b8118-198c-4670-a5f3-9399842c7ce1"/><mask id="uuid-231b3089-fefc-4dd4-9dba-2088794b9ed3" x="256.4594" y="112.4534" width="680.1122" height="778.7227" maskUnits="userSpaceOnUse"><polygon points="925.1344 891.1761 936.5716 112.4534 256.4594 491.9099 925.1344 891.1761" fill="url(#uuid-b3e22f09-325e-4c60-9b44-16527086aec7)"/></mask><linearGradient id="uuid-8f6acc08-58fb-46ec-a713-3221c91feefd" x1="5376.8514" y1="1870.7234" x2="4843.3459" y2="2178.743" gradientTransform="translate(6197.7339 -294.557) rotate(150.8414)" xlink:href="#uuid-d33b8118-198c-4670-a5f3-9399842c7ce1"/><mask id="uuid-8b7f6d0b-f4c9-4259-a420-ac470bf2c513" x="256.4594" y="112.4534" width="680.1122" height="778.7227" maskUnits="userSpaceOnUse"><polygon points="925.1344 891.1761 936.5716 112.4534 256.4594 491.9099 925.1344 891.1761" fill="url(#uuid-8f6acc08-58fb-46ec-a713-3221c91feefd)"/></mask></defs><g mask="url(#uuid-70c1fac3-1e40-416d-b8fb-86ec6c2da0ac)"><g mask="url(#uuid-10952013-ae65-4a2b-bd67-4b15c51680f3)"><path d="M339.9403,194.7909L202.9933,15.3958c-13.514-17.7028-41.124-14.1377-49.6981,6.4172l-86.8872,208.2972c-8.5741,20.5548,8.3184,42.6833,30.4065,39.8313l223.8343-28.9021c22.088-2.8521,32.8056-28.5456,19.2916-46.2484Z" fill="#1c2253"/></g></g><g mask="url(#uuid-caacf236-3e7f-4935-947a-596a532d0542)"><g mask="url(#uuid-0d5cc6c0-db20-4877-afdf-b79480a6e52e)"><g mask="url(#uuid-76f502a0-0e49-4df7-8c17-5ec2d4049060)"><path d="M92.1724,297.4278l361.6686,216.5689c35.7405,21.4016,81.2399-3.9479,81.8499-45.6016l6.1859-422.393c.61-41.6507-44.1218-68.322-80.4735-47.9822L93.5488,203.844c-36.2754,20.297-37.0392,72.2288-1.3764,93.5839Z" fill="#283497"/></g></g><g mask="url(#uuid-5f34cfe7-3cd8-4775-a7a9-9a65eeebc9d7)"><ellipse cx="439.4445" cy="263.4453" rx="200.8935" ry="201.4671" fill="#222b71"/></g></g><g mask="url(#uuid-effabdc7-b8bb-49e9-a3b1-dd8f2708fd46)"><g mask="url(#uuid-3b9e65e4-cf50-4d1c-87f1-86a10e7e5bdd)"><g mask="url(#uuid-780f8fc0-570f-4ab3-b352-63672ca3b571)"><g mask="url(#uuid-52f8aff9-6c4c-4dcb-a2df-b8f7c05cbf6d)"><path d="M376.1943,611.9207l498.0174-125.4097c49.1445-12.3755,66.463-73.3107,31.1733-109.6834L547.7683,8.2368c-35.2897-36.3727-96.7204-20.9033-110.5752,27.8448l-140.4007,494.0005c-13.8548,48.7482,30.2574,94.214,79.4019,81.8385Z" fill="#2f3ebb"/></g></g><g mask="url(#uuid-4061b41a-3d8b-4666-8f9b-9228589d9f2c)"><g mask="url(#uuid-a3db84a2-fd8d-4331-92da-5fe96200e84e)"><path d="M376.1943,611.9207l498.0174-125.4097c49.1445-12.3755,66.463-73.3107,31.1733-109.6834L547.7683,8.2368c-35.2897-36.3727-96.7204-20.9033-110.5752,27.8448l-140.4007,494.0005c-13.8548,48.7482,30.2574,94.214,79.4019,81.8385Z" fill="#1f4780"/></g></g><g mask="url(#uuid-defb585e-0087-41ce-b8eb-803e6b46772b)"><circle cx="583.6755" cy="331.2383" r="217.8619" fill="#1c3f71"/></g><g mask="url(#uuid-8df47d5b-1948-4ccc-8abf-5a1a684ee8d3)"><path d="M443.8007,8.6717l-147.4823,519.7559c-14.4697,50.9939,31.6893,98.5289,83.0861,85.563l523.8629-132.1546c51.3968-12.9658,69.4839-76.7082,32.5567-114.7362L559.4435-20.5014c-36.9271-38.028-101.1731-21.8207-115.6428,29.1731Z" fill="#283497"/></g></g></g><g mask="url(#uuid-70c8b691-b6d7-43e9-9c92-42066e4de07f)"><g mask="url(#uuid-ebe14bd4-d881-465b-95da-84d4f9b158e6)"><path d="M926.8859,771.9232l7.9342-540.2169c.7784-53.0013-56.1106-86.9698-102.4003-61.1433l-471.8086,263.2372c-46.2897,25.8265-47.2627,92.0781-1.7515,119.2529l463.8744,276.9797c45.5113,27.1748,103.3734-5.1083,104.1518-58.1096Z" fill="#3649e8"/></g><g mask="url(#uuid-f1e4a724-2307-4f5f-a590-0665b76f2a11)"><path d="M926.8859,771.9232l7.9342-540.2169c.7784-53.0013-56.1106-86.9698-102.4003-61.1433l-471.8086,263.2372c-46.2897,25.8265-47.2627,92.0781-1.7515,119.2529l463.8744,276.9797c45.5113,27.1748,103.3734-5.1083,104.1518-58.1096Z" fill="#3649e8"/></g><g mask="url(#uuid-231b3089-fefc-4dd4-9dba-2088794b9ed3)"><path d="M926.8859,771.9232l7.9342-540.2169c.7784-53.0013-56.1106-86.9698-102.4003-61.1433l-471.8086,263.2372c-46.2897,25.8265-47.2627,92.0781-1.7515,119.2529l463.8744,276.9797c45.5113,27.1748,103.3734-5.1083,104.1518-58.1096Z" fill="#3649e8"/></g><g mask="url(#uuid-8b7f6d0b-f4c9-4259-a420-ac470bf2c513)"><path d="M926.8859,771.9232l7.9342-540.2169c.7784-53.0013-56.1106-86.9698-102.4003-61.1433l-471.8086,263.2372c-46.2897,25.8265-47.2627,92.0781-1.7515,119.2529l463.8744,276.9797c45.5113,27.1748,103.3734-5.1083,104.1518-58.1096Z" fill="#3649e8"/></g></g></svg>