<?xml version="1.0" encoding="UTF-8"?><svg id="uuid-218d2510-b6a5-4843-8473-cc374ca1c34a" xmlns="http://www.w3.org/2000/svg" width="96" height="96" xmlns:xlink="http://www.w3.org/1999/xlink" viewBox="0 0 96 96"><defs><linearGradient id="uuid-2f63e6d1-3e4d-4cf2-882d-f8ccc1e4c21d" x1="48" y1="2.3304" x2="48" y2="68.7833" gradientUnits="userSpaceOnUse"><stop offset=".1893" stop-color="#b35f34" stop-opacity="0"/><stop offset=".3404" stop-color="#b35f34" stop-opacity=".2913"/><stop offset=".4928" stop-color="#b35f34" stop-opacity=".5432"/><stop offset=".6395" stop-color="#b35f34" stop-opacity=".7417"/><stop offset=".7767" stop-color="#b35f34" stop-opacity=".8839"/><stop offset=".9007" stop-color="#b35f34" stop-opacity=".97"/><stop offset="1" stop-color="#b35f34"/></linearGradient><linearGradient id="uuid-2f2db99e-a11f-4f01-bf3f-e4431f2b0e09" x1="48" y1="7.9625" x2="48" y2="60.5601" gradientUnits="userSpaceOnUse"><stop offset="0" stop-color="#ff874a" stop-opacity=".1"/><stop offset=".9991" stop-color="#ff874a"/></linearGradient></defs><path d="M39.5746,91.1915c5.0307,3.6605,11.856,3.6366,16.8877-.0226,11.2014-8.1459,20.1685-18.4044,26.6663-29.8983,6.3997-11.3204,10.4042-23.8392,11.789-36.7185.6662-6.1961-2.756-12.1236-8.4551-14.6446C74.6164,4.6671,61.7725,1.8757,48.7689,1.7578c-13.2029-.1197-26.5705,2.5168-39.2258,8.1445C3.8583,12.4304.4249,18.3293,1.0796,24.5163c.5004,4.7289,1.3613,9.4484,2.5933,14.1182,2.1035,7.9731,5.289,15.8016,9.6102,23.2862,4.3212,7.4846,9.5082,14.1576,15.3614,19.9658,3.4282,3.4019,7.085,6.5071,10.9301,9.305Z" fill="#383a3d"/><path d="M41.2353,73.5625c4.0391,2.939,9.5191,2.9198,13.559-.0181,8.9935-6.5403,16.1931-14.7767,21.4101-24.005,5.1383-9.0891,8.3534-19.1403,9.4653-29.4809.5349-4.9748-2.2128-9.7339-6.7885-11.758-9.5111-4.2074-19.8233-6.4487-30.2638-6.5433-10.6005-.0961-21.3332,2.0207-31.494,6.5392-4.5642,2.0297-7.3209,6.7659-6.7952,11.7333.4018,3.7968,1.093,7.586,2.0821,11.3354,1.6889,6.4015,4.2465,12.687,7.7159,18.6963s7.6341,11.367,12.3335,16.0303c2.7525,2.7313,5.6884,5.2245,8.7757,7.4709Z" fill="url(#uuid-2f63e6d1-3e4d-4cf2-882d-f8ccc1e4c21d)"/><path d="M43.7366,60.6923c2.5456,1.8523,5.9993,1.8402,8.5454-.0114,5.6681-4.122,10.2055-9.3129,13.4935-15.129,3.2384-5.7283,5.2647-12.063,5.9654-18.5801.3371-3.1353-1.3946-6.1347-4.2784-7.4104-5.9943-2.6517-12.4935-4.0642-19.0735-4.1239-6.6809-.0606-13.4451,1.2735-19.8488,4.1213-2.8766,1.2792-4.6139,4.2641-4.2826,7.3948.2532,2.3929.6888,4.781,1.3122,7.144,1.0644,4.0345,2.6763,7.9958,4.8629,11.7832s4.8113,7.1639,7.7731,10.103c1.7347,1.7214,3.5851,3.2927,5.5308,4.7084Z" fill="url(#uuid-2f2db99e-a11f-4f01-bf3f-e4431f2b0e09)"/><circle cx="48" cy="75.7572" r="8.8117" fill="#ff874a"/></svg>