<svg fill="none" height="56" viewBox="0 0 161 56" width="161" xmlns="http://www.w3.org/2000/svg" xmlns:xlink="http://www.w3.org/1999/xlink"><clipPath id="a"><path d="m0 0h160.13v55.7982h-160.13z"/></clipPath><mask id="b" height="56" maskUnits="userSpaceOnUse" width="161" x="0" y="0"><path d="m160.13 0h-160.13v55.7982h160.13z" fill="#fff"/></mask><g clip-path="url(#a)"><g fill="#bebebe" mask="url(#b)"><path d="m28.8213 7.55662c2.0867 0 3.7783-1.69161 3.7783-3.77831s-1.6916-3.77831-3.7783-3.77831-3.7783 1.69161-3.7783 3.77831 1.6916 3.77831 3.7783 3.77831z"/><path d="m46.5571 16.7527c.2881-.4847.5217-.9998.6963-1.5358 1.07-2.8875-.7935-5.30914-4.3517-5.2989l-29.6275.1075c-3.38409-.03581-5.43193 2.3653-4.40799 4.6794l1.10583 2.0478h36.59536"/><path d="m14.6923 10.0048h-1.4182c-.1894 0-.3686 0-.5478 0h-.0973c-.1718.0088-.3429.0293-.5119.0614h-.0921-.1127c-.6118.12-1.1965.3508-1.7253.6809-.1024.0768-.19459.1638-.3021.2304l-.128.087c-.22122.1867-.42045.398-.59385.6297-.34427.4806-.54648 1.0484-.58366 1.6383-.01302.4472.07447.8916.25599 1.3004l1.02394 1.8943.08193.1536h8.19145zm28.2349-.10246h-1.0239l-3.3432 6.85016h7.997l.2406-.4557c.046-.087.087-.1741.128-.2611.0972-.215.2047-.512.3327-.8345v-.0512c.2167-.5696.3003-1.1814.2444-1.7883s-.2498-1.193-.5669-1.7135c-.7423-1.0649-2.1451-1.74586-4.0241-1.74586"/><path clip-rule="evenodd" d="m38.5599 16.7422h7.9969v.0153l-1.1366 2.1861-4.0978 7.8464h-7.6969zm-6.2051 10.0478v-10.0376h-7.5259l.0078 10.0376zm-9.0763 0-5.1359-10.0478h-8.19143l5.45423 10.0478zm-2.6972 9.5352 4.2629 7.8532c.0615.0871.7834 1.4284.8397 1.5359.8498 1.1366 1.8533 1.71 2.8517 1.71 1.2492 0 2.4881-.8908 3.4147-2.6725l.4147-.7884.256-.5119 3.7217-7.1263z" fill-rule="evenodd"/><path clip-rule="evenodd" d="m.455078 25.2773h54.637922v12.5622h-54.637922zm53.124422 1.5136v9.5351h-51.61091v-9.5351z" fill-rule="evenodd"/><path d="m9.73777 34.1052v-2.472l-1.16036 1.9675h-.80721l-1.21081-1.8666v2.3711h-1.66486v-5.3982h1.51351l1.76577 2.8757 1.71531-2.8757h1.51348v5.3982z"/><path d="m18.5663 32.7431v1.3621h-4.4901v-5.3982h4.3892v1.3622h-2.573v.6558h2.2703v1.3118h-2.2703v.7063z"/><path d="m25.9331 34.1052v-2.472l-1.2108 2.018h-.8072l-1.1604-1.8667v2.3712h-1.6649v-5.4487h1.5136l1.7657 2.8757 1.7153-2.8757h1.5136v5.3982z"/><path d="m35.367 31.835c.1513.2018.2522.5045.2522.8072 0 .454-.2018.8576-.6054 1.1099-.4036.2522-.9585.4036-1.7153.4036h-3.027v-5.4487h2.8757c.7063 0 1.2612.1514 1.6144.4036.3531.2523.5549.6054.5549 1.009 0 .2523-.0504.4541-.2018.6559-.1513.2018-.3027.3532-.5549.5045.3531.1514.6054.3027.8072.555zm-3.2793-1.8163v.7568h.8577c.4036 0 .6054-.1514.6054-.4036 0-.2523-.2018-.4036-.6054-.4036h-.8577zm1.7153 2.4217c0-.3027-.2018-.4036-.6054-.4036h-1.1099v.8576h1.1099c.4036-.0504.6054-.2018.6054-.454z"/><path d="m42.5819 32.7431v1.3621h-4.4901v-5.3982h4.3892v1.3622h-2.573v.6558h2.2703v1.3118h-2.2703v.7063z"/><path d="m47.4242 32.7431h-.5045v1.3621h-1.8162v-5.3982h2.573c.5045 0 .9081.1009 1.3117.2523.3532.1513.6559.4036.8577.7063s.3027.6558.3027 1.0594c0 .4037-.1009.7064-.2523 1.0091-.1513.3027-.4036.5045-.7567.7063l1.1099 1.6648h-1.9172zm.7063-2.4721c-.1009-.1009-.3027-.1514-.5549-.1514h-.6559v1.2613h.6559c.2522 0 .454-.0504.5549-.1513s.2018-.2523.2018-.4541-.0504-.3532-.2018-.5045z"/><path clip-rule="evenodd" d="m148.577 2.97713h-141.40831c-2.49568-.02612-4.58264.85632-5.86179 2.26631-1.2934833 1.42578-1.726278 3.36893-.887817 5.25546l.011313.0254.013154.0246 1.51351 2.8252.00221.0041 7.29081 13.4115h1.72272l-7.68161-14.1303-.0022-.0041-1.49756-2.79545c-.55997-1.28396-.2841-2.58482.63642-3.59948.93995-1.03605 2.5847-1.79308 4.72858-1.76978l.00414.00005h.00409 141.41234c5.535 0 10.04 4.50444 10.04 10.03966v29.7658c0 5.5351-4.505 10.0396-10.04 10.0396h-120.3745-.0006-.0006-.0005-.0006-.0006-.0005-.0006-.0006-.0006-.0008-.0005-.0008-.0008-.0005-.0008-.0005-.0008-.0005-.0008-.0007-.0007-.0007-.0008-.0007-.0007-.0007-.0007-.0006-.0007-.0007-.0006-.0007-.0006-.0007-.0006-.0006-.0006-.0006-.0006-.0006-.0006-.0006-.0006-.0006-.0005-.0006-.0005-.0006-.0005-.0006-.0005-.0007-.0008-.0006-.0005-.0006-.0006-.0007-.0005-.0006-.0005-.0007-.0006-.0007-.0006-.0006-.0006-.0006-.0006-.0007-.0006-.0006-.0006-.0006-.0006-.0006-.0006-.0006-.0005-.0007-.0006-.0005-.0006-.0006-.0006-.0006-.0006-.0006-.0006-.0006-.0006-.0006-.0006-.0006-.0006-.0007-.0006-.0005-.0006-.0007-.0006-.0006-.0007-.0007-.0006-.0007-.0007-.0007-.0005-.0007-.0007-.0006-.0007-.0005-.0006-.0005-.0006-.0006-.0006-.0006-.0006-.0005-.0006-.0006-.0007-.0006-.0006-.0007-.0006-.0007-.0006-.0007-.0006-.0007-.0007-.0007-.0007-.0007-.0007-.0008-.0007-.0007-.0008-.0008-.0005-.0007-.0006-.0007-.0006-.0008-.0006-.0008-.0005-.0006-.0005-.0006-.0006-.0005-.0006-.0006-.0006-.0006-.0006-.0006-.0006-.0006-.0006-.0006-.0006-.0007-.0006-.0007-.0006-.0007-.0006-.0006-.0007-.0007-.0007-.0006-.0007-.0007-.0006-.0007-.0007-.0007-.0007-.0007-.0007-.0007-.0007-.0007-.0008-.0007-.0007-.0008-.0007-.0007-.0008-.0007-.0007-.0008-.0008-.0007-.0008-.0007-.0008-.0007-.0008-.0008-.0008-.0008-.0007-.0008-.0008-.0008-.0008-.0008-.0008-.0008-.0008-.0008-.0008-.0008-.0008-.0008-.0008-.0009-.0008-.0008-.0008-.0009-.0008-.0008-.0008-.0009-.0008-.0009-.0008-.0008-.0009-.0008-.0009-.0009-.0008-.0008-.0009-.0008-.0009-.0009-.0008-.0009-.0008-.0009-.0009-.0008-.0009-.0009-.0009-.0008-.0009-.0008-.001-.0008-.0009-.0009-.0008-.0009-.0009-.0009-.0009-.0009-.0008-.0009-.0009-.0009-.0009-.0009-.0008-.0009-.0009-.0009-.0009-.0009-.0008-.0009-.0009-.0009-.0009-.0009-.0009-.0008-.0009-.0009-.0009-.0009-.0009-.0009-.0008-.0009-.0009-.0009-.0009-.0009-.0009-.0008-.0009-.0009-.0009-.0009-.0008-.0009-.0009-.0009-.0009-.0008-.0009-.0009-.0008-.0009-.0009-.0009-.0008-.0009-.0008-.0009-.0009-.0008-.0009-.0008-.0009-.0008-.0009-.0009-.0008-.0009-.0008-.0008-.0009-.0008-.0009-.0008-.0008-.0009-.0008-.0008-.0009-.0008-.0008-.0008-.0008-.0008-.0008-.0009-.0008-.0008-.0008-.0008-.0008-.0008-.0008-.0008-.0008-.0008-.0007-.0008-.0008c-.0975-.0202-.1825-.0323-.2474-.0419l-.0081-.001c-.0902-.0131-.1427-.0207-.201-.0353l-.0903-.0227h-.0502c-.0925-.0232-.1754-.0444-.2481-.0646l-.042-.0418-.1694-.0565c-.0658-.0222-.1742-.0732-.2681-.1287l-.0441-.0444-.0623-.0414c-.0519-.0348-.1048-.0671-.1466-.0928l-.0123-.0071c-.0398-.0247-.072-.0443-.1039-.0645-.0709-.0459-.1069-.0747-.1264-.0944l-.0505-.0504c-.0965-.0964-.2038-.1882-.286-.2588l-.0088-.0076c-.0934-.0802-.1583-.1362-.2097-.1877l-.0504-.0504c-.2099-.2099-.4278-.4682-.6525-.78l-1.1373-2.0273-7.5627-13.9116h-1.7227l7.9581 14.6388.0024.0045.0025.0046 1.1603 2.0685.0202.0358.024.0338c.2715.3799.5502.7159.8375 1.0034l.0504.0505c.0965.0963.2038.1882.286.2588l.0089.0076c.0934.0797.1583.1362.2096.1876l.0504.0505c.1319.1317.2725.229.3782.2966.0475.0308.0949.0596.1327.0828l.0128.0075.039.0243.0453.0454.0624.0413c.1469.0979.3276.1958.5019.2704l.064.0641.1695.0565c.1793.0596.4045.1161.5926.163l.0181.0045.0904.0227h.0588c.0974.0202.1823.0323.2471.0419l.0082.001c.0902.0126.1426.0207.2009.0353l.0904.0227h.0931.0505.0006.0006.0006.0006.0006.0006.0006.0007.0006.0006.0007.0006.0007.0006.0007.0006.0007.0006.0007.0007.0007.0007.0007.0006.0007.0007.0007.0008.0007.0007.0007.0007.0007.0007.0007.0008.0007.0008.0007.0008.0007.0007.0008.0008.0007.0008.0008.0007.0008.0008.0008.0008.0007.0008.0008.0008.0008.0008.0008.0008.0008.0008.0008.0009.0008.0008.0008.0008.0008.0008.0009.0008.0008.0009.0008.0008.0009.0008.0009.0008.0008.0009.0008.0009.0009.0008.0009.0008.0009.0008.0009.0009.0008.0009.0008.0009.0009.0009.0008.0009.0009.0008.0009.0009.0009.0009.0008.0009.0009.0009.0009.0008.0009.0009.0009.0009.0009.0009.0008.0009.0009.0009.0009.0009.0009.0008.0009.0009.0009.0009.0009.0009.0008.0009.0009.0009.0009.0009.0008.0009.0009.0009.0009.0009.0008.0009.0009.0009.0009.0009.0008.0009.0009.0008.001.0008.0009.0008.0009.0009.0009.0008.0009.0009.0008.0009.0008.0009.0009.0008.0009.0008.0008.0009.0009.0008.0009.0008.0008.0009.0008.0009.0008.0008.0008.0009.0008.0008.0008.0009.0008.0008.0008.0008.0008.0008.0008.0008.0008.0008.0008.0008.0008.0008.0007.0008.0008.0008.0008.0007.0008.0007.0008.0007.0008.0008.0007.0007.0008.0007.0007.0008.0007.0007.0008.0007.0007.0007.0007.0007.0007.0007.0007.0007.0006.0007.0007.0006.0007.0007.0007.0006.0006.0007.0006.0007.0006.0007.0006.0006.0006.0006.0006.0006.0006.0006.0006.0006.0006.0005.0006.0006.0005.0006.0005.0006.0006.0005.0008.0005.0008.0008.0007.0008.0008.0007.0007.0008.0007.0005.0006.0007.0007.0007.0007.0007.0006.0007.0006.0006.0007.0006.0007.0006.0006.0006.0005.0006.0006.0006.0005.0006.0006.0005.0006.0005.0006.0007.0007.0006.0006.0007.0007.0006.0007.0006.0007.0006.0007.0006.0006.0006.0005.0006.0006.0006.0006.0006.0007.0006.0006.0006.0005.0006.0006.0006.0006.0006.0006.0006.0006.0006.0006.0006.0005.0006.0006.0007.0006.0006.0006.0006.0007.0006.0006.0007.0006.0007.0007.0006.0007.0005.0007.0006.0006.0007.0007.0006.0005.0006.0005.0006.0005.0006.0006.0006.0006.0006.0006.0006.0006.0006.0006.0007.0006.0007.0006.0007.0007.0006.0007.0007.0007.0007.0008.0007.0007.0007.0008.0005.0008.0005.0008.0005.0008.0005.0006.0005.0009.0005.0006.0005.0006.0006.0005.0006.0006 120.3748c6.371 0 11.554-5.1822 11.554-11.5531v-29.7658c0-6.37113-5.183-11.55317-11.554-11.55317z" fill-rule="evenodd"/><path d="m65.4852 19.3211c-.2018.5549-.6054.7063-1.2108.7063-.6055 0-1.0091-.1009-1.2109-.7063l-2.4216-6.8108c-.1009-.2523-.1009-.4036-.1009-.555 0-.6558.5045-.8576 1.009-.8576s.8072.2522 1.009.8576l1.7658 5.8523 1.8667-5.8523c.2018-.6054.454-.8576.9081-.8576.5045 0 1.009.2018 1.009.8576 0 .1514-.0505.3532-.1009.555z"/><path d="m71.2871 12.4104c0-.8577.3532-1.1604 1.0595-1.1604h3.027c1.6649 0 2.9766.8072 2.9766 2.7243 0 1.564-1.1099 2.7243-2.9766 2.7243h-2.1694v2.3208c0 .6054-.4036.9585-.9585.9585-.555 0-.9586-.4036-.9586-.9585zm1.8667 2.7747h1.8162c.8072 0 1.3622-.454 1.3622-1.2108 0-.8576-.6055-1.2108-1.564-1.2108h-1.6144z"/><path d="m81.9316 12.258c0-.8072.4036-1.1603 1.2109-1.1603.4036 0 .7567.1513.9585.5045l3.4306 5.5495v-5.0955c0-.6558.3532-.9585.9586-.9585s.9586.3027.9586.9585v6.7604c0 .7567-.3532 1.2108-1.1604 1.2108-.6054 0-.8072-.1514-1.0595-.5045l-3.3801-5.3982v4.9441c0 .6559-.3532.9586-.9586.9586s-.9586-.3027-.9586-.9586z"/><path d="m63.4675 24.8722h-1.8667c-.5549 0-1.009-.3027-1.009-.8072 0-.5549.4541-.8072 1.009-.8072h5.6505c.5549 0 1.009.3027 1.009.8072 0 .555-.4541.8072-1.009.8072h-1.8163v6.155c0 .6054-.4036.9585-.9585.9585-.6054 0-.9586-.4036-.9586-.9585v-6.155z"/><path d="m71.1855 24.3674c0-.8577.3532-1.1604 1.0595-1.1604h3.2793c2.3207 0 2.9766 1.2613 2.9766 2.3712 0 .9081-.555 1.8667-1.4631 2.0685 1.009.1513 1.1604.8576 1.1604 1.7657 0 1.009.2522 1.3622.2522 1.7658 0 .4541-.454.7568-.9081.7568-1.0595 0-1.1604-1.0595-1.1604-1.4127 0-1.5135-.2522-2.1189-1.3621-2.1189h-1.9171v2.5225c0 .6055-.4036.9586-.9586.9586-.6054 0-.9586-.4036-.9586-.9586zm1.8667 2.6739h1.9676c.7567 0 1.463-.2018 1.463-1.1604 0-.9081-.5549-1.1604-1.4126-1.1604h-2.018z"/><path d="m82.3353 24.0132c0-.6054.4036-.9585.9585-.9585.555 0 .9586.4036.9586.9585v4.7424c0 1.1603.6558 1.7153 1.7658 1.7153 1.1099 0 1.7657-.5045 1.7657-1.7153v-4.6919c0-.6054.4036-.9586.9586-.9586.6054 0 .9585.4036.9585.9586v4.5405c0 2.3712-1.463 3.4307-3.7333 3.4307s-3.7333-1.0595-3.7333-3.4307z"/><path d="m98.5304 26.8381c1.8166.4036 2.2706 1.4631 2.2706 2.4721 0 1.564-1.1607 2.7243-3.5318 2.7243-2.4721 0-3.582-1.2612-3.582-2.1693 0-.4541.3531-.8072.8072-.8072 1.0594 0 .8072 1.5639 2.7748 1.5639 1.009 0 1.5639-.5549 1.5639-1.1603 0-.3532-.1513-.7063-.8576-.9081l-2.2199-.555c-1.7657-.4541-2.1189-1.4126-2.1189-2.3712 0-1.9171 1.7658-2.6234 3.4306-2.6234 1.5136 0 3.3297.8577 3.3297 2.018 0 .5045-.4035.7568-.908.7568-.9081 0-.7568-1.2613-2.573-1.2613-.9081 0-1.4126.4036-1.4126 1.009s.7063.8072 1.3621.9081z"/><path d="m106.704 24.8722h-1.867c-.555 0-1.009-.3027-1.009-.8072 0-.5549.454-.8072 1.009-.8072h5.651c.555 0 1.009.3027 1.009.8072 0 .555-.454.8072-1.009.8072h-1.867v6.155c0 .6054-.404.9585-.959.9585-.605 0-.958-.4036-.958-.9585z"/><path d="m63.5176 35.8687c0-.6054.4036-.9585.9585-.9585.6054 0 .9586.4036.9586.9585v6.9622c0 .6054-.4036.9585-.9586.9585-.6054 0-.9585-.4036-.9585-.9585z"/><path d="m71.1364 36.0705c0-.8072.4036-1.1603 1.2108-1.1603.4036 0 .7568.1513.9586.5045l3.4306 5.5495v-5.0955c0-.6558.3531-.9585.9586-.9585.6054 0 .9585.3027.9585.9585v6.7604c0 .7567-.3531 1.2108-1.1603 1.2108-.6055 0-.8073-.1514-1.0595-.5045l-3.4306-5.3982v4.9441c0 .6559-.3532.9586-.9586.9586s-.9586-.3027-.9586-.9586z"/><path d="m82.8906 35.8687c0-.6054.4036-.9585.9586-.9585.6054 0 .9585.4036.9585.9585v6.9622c0 .6054-.4036.9585-.9585.9585-.6054 0-.9586-.4036-.9586-.9585z"/><path d="m91.1647 36.7277h-1.8666c-.555 0-1.009-.3027-1.009-.8072 0-.555.454-.8072 1.009-.8072h5.6504c.555 0 1.009.3027 1.009.8072 0 .5549-.454.8072-1.009.8072h-1.8666v6.155c0 .6054-.4036.9585-.9586.9585s-.9586-.4036-.9586-.9585z"/><path d="m99.4395 35.8687c0-.6054.4036-.9585.9585-.9585.605 0 .959.4036.959.9585v6.9622c0 .6054-.404.9585-.959.9585-.6054 0-.9585-.4036-.9585-.9585z"/><path d="m107.511 35.5156c.152-.4541.454-.6054.959-.6054h.454c.454 0 .858.1009 1.06.7063l2.371 6.609c.05.2018.201.5549.201.7567 0 .4541-.403.8577-.908.8577-.454 0-.756-.1514-.908-.555l-.504-1.4126h-3.179l-.504 1.4126c-.151.4036-.404.555-.858.555-.555 0-.908-.3532-.908-.8577 0-.2018.101-.5549.202-.7567zm1.211 1.5135-1.16 3.4811h2.321z"/><path d="m117.198 36.7277h-1.867c-.555 0-1.009-.3027-1.009-.8072 0-.555.454-.8072 1.009-.8072h5.651c.555 0 1.009.3027 1.009.8072 0 .5549-.454.8072-1.009.8072h-1.867v6.155c0 .6054-.404.9585-.959.9585-.554 0-.958-.4036-.958-.9585z"/><path d="m125.471 35.8687c0-.6054.403-.9585.958-.9585.606 0 .959.4036.959.9585v6.9622c0 .6054-.404.9585-.959.9585-.605 0-.958-.4036-.958-.9585z"/><path d="m135.763 43.1336c-.202.5549-.606.7063-1.211.7063-.606 0-1.009-.1009-1.211-.7063l-2.422-6.8108c-.101-.2523-.101-.4036-.101-.555 0-.6558.505-.8576 1.009-.8576.505 0 .808.2522 1.009.8576l1.766 5.8523 1.867-5.8523c.202-.6054.454-.8576.908-.8576.504 0 1.009.2018 1.009.8576 0 .1514-.051.3532-.101.555z"/><path d="m141.816 36.2229c0-.8577.454-1.1604 1.161-1.1604h4.591c.555 0 1.009.1514 1.009.8072 0 .6054-.404.8072-1.009.8072h-3.784v1.8667h3.33c.504 0 .908.1513.908.7567s-.404.7568-.908.7568h-3.33v2.0685h3.885c.555 0 1.009.1513 1.009.8072 0 .6054-.404.8072-1.009.8072h-4.692c-.707 0-1.161-.2523-1.161-1.1604z"/><path d="m144.642 6.91016 3.027 6.15494 6.811 1.009-4.894 4.7928 1.161 6.8108-6.105-3.2288-6.104 3.2288 1.16-6.8108-4.944-4.7928 6.811-1.009z"/></g></g></svg>