<?xml version="1.0" encoding="UTF-8"?><svg id="uuid-19caf648-85b6-435a-8b42-58d12d93d5f3" xmlns="http://www.w3.org/2000/svg" width="96" height="96" xmlns:xlink="http://www.w3.org/1999/xlink" viewBox="0 0 96 96"><defs><linearGradient id="uuid-3022bb10-235c-45b3-9cf8-2bd2045a6674" x1="12.9739" y1="55.9026" x2="86.9269" y2="55.9026" gradientUnits="userSpaceOnUse"><stop offset=".1893" stop-color="#b35f34" stop-opacity="0"/><stop offset=".3404" stop-color="#b35f34" stop-opacity=".2913"/><stop offset=".4928" stop-color="#b35f34" stop-opacity=".5432"/><stop offset=".6395" stop-color="#b35f34" stop-opacity=".7417"/><stop offset=".7767" stop-color="#b35f34" stop-opacity=".8839"/><stop offset=".9007" stop-color="#b35f34" stop-opacity=".97"/><stop offset="1" stop-color="#b35f34"/></linearGradient><linearGradient id="uuid-25329226-b558-4a9e-84d0-b080f24c60a4" x1="47.9973" y1="66.0243" x2="47.9973" y2="35.7171" gradientUnits="userSpaceOnUse"><stop offset="0" stop-color="#ff874a" stop-opacity=".1"/><stop offset=".9991" stop-color="#ff874a"/></linearGradient></defs><path d="M53.2583,2.0533c-3.3333-1.5158-7.1751-1.5158-10.5168,0-8.775,3.985-16.9999,9.5592-24.2248,16.7208-7.2251,7.1633-12.8501,15.3117-16.8669,24.0117-1.5332,3.3091-1.5332,7.1166,0,10.4283,4.0167,8.7,9.6417,16.8508,16.8669,24.0117,7.2249,7.1642,15.4498,12.7375,24.2249,16.7208,3.3333,1.5158,7.1751,1.5158,10.5168,0,8.775-3.985,16.9999-9.5592,24.2248-16.7208,7.2251-7.1633,12.8501-15.3117,16.8669-24.0117,1.5332-3.3091,1.5332-7.1166,0-10.4283-4.0167-8.7-9.6417-16.8508-16.8669-24.0117-7.2249-7.1642-15.4498-12.7375-24.2249-16.7208Z" fill="#383a3d"/><path d="M43.6242,17.6677c2.7739-1.2614,5.9708-1.2614,8.7516,0,7.3022,3.3162,14.1466,7.9547,20.1589,13.9144,6.0125,5.961,10.6933,12.7418,14.0359,19.9815,1.2759,2.7537,1.2759,5.9222,0,8.678-3.3426,7.2398-8.0234,14.0226-14.0359,19.9815-6.0123,5.9617-12.8567,10.5996-20.1589,13.9144-2.7739,1.2614-5.9708,1.2614-8.7516,0-7.3022-3.3161-14.1466-7.9547-20.1589-13.9144-6.0125-5.961-10.6933-12.7418-14.0359-19.9815-1.2759-2.7537-1.2759-5.9222,0-8.678,3.3426-7.2398,8.0234-14.0226,14.0359-19.9815,6.0123-5.9617,12.8567-10.5996,20.1589-13.9144Z" fill="url(#uuid-3022bb10-235c-45b3-9cf8-2bd2045a6674)"/><path d="M65.2655,33.878h-1.1875v-5.5118c0-8.8666-7.2141-16.0807-16.0807-16.0807s-16.0807,7.2141-16.0807,16.0807v5.5118h-1.1776c-2.5829,0-4.6808,2.0879-4.6808,4.6711v28.4602c0,2.5832,2.0979,4.6807,4.6808,4.6807h34.5265c2.5829,0,4.6709-2.0976,4.6709-4.6807v-28.4602c0-2.5832-2.088-4.6711-4.6709-4.6711ZM36.5379,28.3662c0-6.3134,5.1359-11.4595,11.4594-11.4595s11.4692,5.146,11.4692,11.4595v5.5118h-22.9286v-5.5118Z" fill="url(#uuid-25329226-b558-4a9e-84d0-b080f24c60a4)"/><line x1="42.8899" y1="55.7308" x2="53.11" y2="49.8303" fill="none" stroke="#ff874a" stroke-linecap="round" stroke-linejoin="round" stroke-width="4.4531"/><line x1="42.8899" y1="49.8303" x2="53.11" y2="55.7308" fill="none" stroke="#ff874a" stroke-linecap="round" stroke-linejoin="round" stroke-width="4.4531"/><line x1="48" y1="46.88" x2="48" y2="58.6811" fill="none" stroke="#ff874a" stroke-linecap="round" stroke-linejoin="round" stroke-width="4.4531"/></svg>