<?xml version="1.0" encoding="UTF-8"?><svg id="uuid-4ac96c1d-b561-4e7c-abe0-f0e125508e1a" xmlns="http://www.w3.org/2000/svg" width="96" height="96" xmlns:xlink="http://www.w3.org/1999/xlink" viewBox="0 0 96 96"><defs><linearGradient id="uuid-58a534c8-196b-47c5-8596-79b12d26cfe2" x1="1427.0649" y1="-1676.5059" x2="1535.1292" y2="-1676.5059" gradientTransform="translate(-2184.7625 186.1749) rotate(45)" gradientUnits="userSpaceOnUse"><stop offset="0" stop-color="#2f3133"/><stop offset="1" stop-color="#252728"/></linearGradient><linearGradient id="uuid-30af9ac4-e119-402d-ae96-574a9eb6bf3d" x1="19.781" y1="15.8726" x2="83.2738" y2="86.4499" gradientUnits="userSpaceOnUse"><stop offset=".0306" stop-color="#513020" stop-opacity="0"/><stop offset="1" stop-color="#513020"/></linearGradient><linearGradient id="uuid-6b24d49f-6fc8-4ae2-b1e1-5e1e85953c90" x1="72.3894" y1="70.3766" x2="19.6829" y2="25.6473" gradientUnits="userSpaceOnUse"><stop offset="0" stop-color="#513020"/><stop offset=".1553" stop-color="#7a4429"/><stop offset=".3908" stop-color="#b26037"/><stop offset=".5931" stop-color="#dc7541"/><stop offset=".7519" stop-color="#f58247"/><stop offset=".8476" stop-color="#ff874a"/></linearGradient></defs><path d="M14.983,6.4491c-3.9349,1.4748-7.0524,4.5923-8.534,8.534C2.5621,25.3373.4111,36.5347.3598,48.2089c-.0501,11.6757,1.9975,22.8523,5.7978,33.1714,1.4411,3.9294,4.5308,7.019,8.4622,8.4622,10.3191,3.8003,21.4977,5.8499,33.1714,5.7977,11.6762-.0493,22.8729-2.201,33.2259-6.0893,3.9349-1.4748,7.0524-4.5923,8.534-8.534,3.8869-10.3543,6.0379-21.5517,6.0892-33.2259.0501-11.6757-1.9975-22.8523-5.7978-33.1714-1.4411-3.9294-4.5308-7.019-8.4622-8.4622C71.0611,2.3572,59.8825.3076,48.2088.3598c-11.6762.0493-22.8729,2.201-33.2259,6.0893Z" fill="url(#uuid-58a534c8-196b-47c5-8596-79b12d26cfe2)"/><path d="M28.6078,21.7628c-3.1817,1.1925-5.7024,3.7132-6.9003,6.9004-3.1429,8.3722-4.8821,17.4262-4.9236,26.8656-.0405,9.4407,1.6151,18.4778,4.6879,26.8216,1.1653,3.1772,3.6635,5.6754,6.8423,6.8423,8.3438,3.0728,17.3825,4.7301,26.8216,4.6879,9.4411-.0399,18.4945-1.7797,26.8656-4.9236,3.1817-1.1925,5.7024-3.7132,6.9003-6.9004,3.1429-8.3722,4.8821-17.4262,4.9236-26.8656.0405-9.4407-1.6151-18.4778-4.6879-26.8216-1.1653-3.1772-3.6635-5.6754-6.8423-6.8423-8.3438-3.0728-17.3825-4.7301-26.8216-4.6879-9.4411.0399-18.4945,1.7797-26.8656,4.9236Z" fill="url(#uuid-30af9ac4-e119-402d-ae96-574a9eb6bf3d)"/><path d="M42.1717,25.9839l-1.7034-4.0657c-.6326-1.7958-2.3294-2.997-4.2334-2.997h-13.1841c-2.7614,0-5,2.2386-5,5v42.9535c0,2.7614,2.2386,5,5,5h49.8985c2.7614,0,5-2.2386,5-5v-34.3923c0-2.7614-2.2386-5-5-5h-28.7207c-.952,0-1.7406-.6006-2.0569-1.4985Z" fill="url(#uuid-6b24d49f-6fc8-4ae2-b1e1-5e1e85953c90)"/><line x1="43.5377" y1="54.1476" x2="52.4623" y2="45.2231" fill="none" stroke="#965433" stroke-linecap="round" stroke-linejoin="round" stroke-width="5"/><line x1="43.5377" y1="45.2231" x2="52.4623" y2="54.1476" fill="none" stroke="#965433" stroke-linecap="round" stroke-linejoin="round" stroke-width="5"/></svg>